<svg width="118" height="71" viewBox="0 0 118 71" fill="none" xmlns="http://www.w3.org/2000/svg">
<path d="M113.76 4.75157C111.035 2.15126 108.042 1.14731 103.072 1.14731H80.9846C80.6916 1.14731 80.4546 1.38427 80.4546 1.67735V41.1122C80.4546 41.4053 80.6916 41.6422 80.9846 41.6422H91.6789C91.972 41.6422 92.2152 41.4053 92.2152 41.1122V30.2308C92.2152 29.944 92.4397 29.7195 92.7265 29.707H103.452C108.565 29.707 112.07 28.4349 114.477 25.6974C116.715 23.2031 117.95 19.5178 117.95 15.3336C117.95 10.8938 116.584 7.43294 113.772 4.75157H113.76ZM106.907 15.4583C106.907 16.5995 106.701 17.4538 106.277 18.0711C105.553 19.125 104.082 19.5989 101.506 19.5989H92.7328C92.4459 19.5989 92.209 19.3619 92.209 19.0751V11.7792C92.209 11.4924 92.4459 11.2554 92.7328 11.2554H101.569C104.038 11.2554 105.535 11.7668 106.277 12.8705C106.701 13.5003 106.907 14.3484 106.907 15.4583Z" fill="#6A2481"/>
<path d="M20.6295 0.785645C9.26177 0.785645 0.0141602 10.0333 0.0141602 21.401C0.0141602 32.7688 9.26177 42.0164 20.6295 42.0164C31.9973 42.0164 41.2449 32.7688 41.2449 21.401C41.2449 10.0333 31.9973 0.785645 20.6295 0.785645ZM20.6295 30.3805C15.6721 30.3805 11.6501 26.3584 11.6501 21.3948C11.6501 16.4311 15.6721 12.4153 20.6295 12.4153C25.5869 12.4153 29.609 16.4374 29.609 21.3948C29.609 26.3522 25.5869 30.3805 20.6295 30.3805Z" fill="#6A2481"/>
<path d="M73.5894 1.14731H43.2088C42.9095 1.14731 42.6788 1.38427 42.6788 1.67735V10.7628C42.6788 11.0621 42.9158 11.2991 43.2088 11.2991L57.5074 11.2866C57.788 11.2929 58.0187 11.5236 58.0187 11.8104C58.0187 11.904 57.9938 11.9975 57.9501 12.0723L41.5688 37.3957C41.1697 38.0816 41.0513 38.5119 41.0513 38.9671C41.0513 40.4262 42.2111 41.611 43.6578 41.6547C43.6828 41.6547 74.0383 41.6547 74.0383 41.6547C74.3314 41.6547 74.5684 41.4177 74.5684 41.1246V32.0392C74.5684 31.7461 74.3314 31.5091 74.0383 31.5091H59.7523C59.4654 31.5091 59.2285 31.2722 59.2285 30.9853C59.2285 30.898 59.2534 30.817 59.2908 30.7484L75.8904 5.107C76.0899 4.73286 76.2021 4.30259 76.2021 3.84739C76.2021 2.38822 75.0423 1.20343 73.5956 1.16601L73.5894 1.14731Z" fill="#6A2481"/>
<path d="M0.903809 53.8518C0.903809 51.4448 2.23826 49.624 4.85103 49.624C7.46381 49.624 8.5613 51.4448 8.5613 53.6959C8.5613 56.3212 7.29544 58.0048 4.6702 58.0048C2.04495 58.0048 0.903809 56.2713 0.903809 53.858V53.8518ZM6.78411 53.7957C6.78411 51.9312 6.06077 51.0769 4.81362 51.0769C3.50411 51.0769 2.67476 51.9374 2.67476 53.8144C2.67476 55.6914 3.46046 56.5456 4.73255 56.5456C5.94229 56.5456 6.77788 55.7974 6.77788 53.7957H6.78411Z" fill="#EF7D00"/>
<path d="M9.32861 57.8676V49.7736H12.54C14.4544 49.7736 14.9907 50.6466 14.9907 51.7504C14.9907 52.8541 14.2736 53.4153 13.4567 53.6398V53.6647C14.7412 53.8206 15.3336 54.5253 15.3336 55.6477C15.3336 57.3002 14.0366 57.8739 12.2781 57.8739H9.32861V57.8676ZM11.6857 53.116C12.4901 53.116 13.2945 52.9726 13.2945 52.031C13.2945 51.158 12.7146 51.1019 11.9414 51.1019H11.0434V53.116H11.6795H11.6857ZM11.9289 56.5394C12.8705 56.5394 13.4941 56.3711 13.4941 55.4856C13.4941 54.6001 12.8705 54.4255 12.0973 54.4255H11.0434V56.5394H11.9289Z" fill="#EF7D00"/>
<path d="M15.9438 53.8518C15.9438 51.4448 17.2721 49.624 19.8911 49.624C22.5101 49.624 23.6013 51.4448 23.6013 53.6959C23.6013 56.3212 22.3355 58.0048 19.7102 58.0048C17.085 58.0048 15.9438 56.2713 15.9438 53.8581V53.8518ZM21.8242 53.7957C21.8242 51.9312 21.0946 51.0769 19.8537 51.0769C18.5442 51.0769 17.7148 51.9375 17.7148 53.8144C17.7148 55.6914 18.5005 56.5457 19.7726 56.5457C20.9823 56.5457 21.8179 55.7974 21.8179 53.7957H21.8242Z" fill="#EF7D00"/>
<path d="M30.8414 57.8676H28.9832L27.3806 54.7934H26.2706V57.8676H24.562V49.7736H27.7173C29.7314 49.7736 30.3987 50.8587 30.3987 52.0559C30.3987 53.2532 29.825 53.989 29.0019 54.3694L30.8352 57.8676H30.8414ZM27.1623 53.4403C27.9667 53.4403 28.6277 53.1409 28.6277 52.2243C28.6277 51.4511 28.1476 51.1642 27.2309 51.1642H26.2768V53.4465H27.1623V53.4403Z" fill="#EF7D00"/>
<path d="M31.1099 53.8518C31.1099 51.4448 32.4381 49.624 35.0571 49.624C37.6761 49.624 38.7674 51.4448 38.7674 53.6959C38.7674 56.3212 37.5015 58.0048 34.8763 58.0048C32.251 58.0048 31.1099 56.2713 31.1099 53.8581V53.8518ZM36.9902 53.7957C36.9902 51.9312 36.2606 51.0769 35.0197 51.0769C33.7102 51.0769 32.8808 51.9375 32.8808 53.8144C32.8808 55.6914 33.6665 56.5457 34.9386 56.5457C36.1483 56.5457 36.9839 55.7974 36.9839 53.7957H36.9902Z" fill="#EF7D00"/>
<path d="M41.4548 57.8676L38.8296 49.7736H40.7627L42.6084 56.1715H42.677L44.5228 49.7736H46.3L43.7808 57.8676H41.4548Z" fill="#EF7D00"/>
<path d="M49.9979 49.7736L52.8601 57.8676H50.9707L50.2972 55.8971H47.6034L46.9798 57.8676H45.2026L47.8528 49.7736H49.9979ZM48.9378 51.3949H48.8942L47.8965 54.5253H49.9418L48.9378 51.3949ZM49.1249 49.281L47.9277 49.1937L48.9441 47.6285H50.7587L49.1249 49.281Z" fill="#EF7D00"/>
<path d="M59.2202 56.4147H63.1425V57.8676H57.1499V56.6018L60.9849 51.2141H57.2497V49.7736H62.9866V51.0582L59.2202 56.4147Z" fill="#EF7D00"/>
<path d="M64.1909 57.8676V49.7736H67.0282C69.8343 49.7736 71.044 51.2827 71.044 53.6959C71.044 56.1092 69.7345 57.8676 66.8411 57.8676H64.1909ZM66.76 56.4771C68.6308 56.4771 69.2793 55.4606 69.2793 53.7832C69.2793 51.7691 68.4936 51.158 66.8848 51.158H65.912V56.4833H66.76V56.4771Z" fill="#EF7D00"/>
<path d="M78.2268 57.8676H76.3685L74.7722 54.7934H73.6684V57.8676H71.9536V49.7736H75.1089C77.123 49.7736 77.7965 50.8587 77.7965 52.0559C77.7965 53.2532 77.229 53.989 76.3997 54.3694L78.233 57.8676H78.2268ZM74.5477 53.4403C75.3521 53.4403 76.0131 53.1409 76.0131 52.2243C76.0131 51.4511 75.5329 51.1642 74.6163 51.1642H73.6684V53.4465H74.5539L74.5477 53.4403Z" fill="#EF7D00"/>
<path d="M83.328 49.7736L86.1902 57.8676H84.3008L83.6273 55.8971H80.9335L80.3099 57.8676H78.5327L81.1829 49.7736H83.328ZM82.2679 51.3949H82.2243L81.2266 54.5253H83.2719L82.2679 51.3949Z" fill="#EF7D00"/>
<path d="M87.2253 57.8676L84.6001 49.7736H86.5332L88.379 56.1715H88.4475L90.2933 49.7736H92.0705L89.5513 57.8676H87.2253Z" fill="#EF7D00"/>
<path d="M92.1323 53.8518C92.1323 51.4448 93.4668 49.624 96.0795 49.624C98.6923 49.624 99.7898 51.4448 99.7898 53.6959C99.7898 56.3212 98.524 58.0048 95.8987 58.0048C93.2735 58.0048 92.1323 56.2713 92.1323 53.858V53.8518ZM98.0126 53.7957C98.0126 51.9312 97.2893 51.0769 96.0421 51.0769C94.7326 51.0769 93.9033 51.9374 93.9033 53.8144C93.9033 55.6914 94.689 56.5456 95.9611 56.5456C97.1708 56.5456 98.0064 55.7974 98.0064 53.7957H98.0126Z" fill="#EF7D00"/>
<path d="M102.154 57.8676V51.2266H99.7715V49.7736H106.244V51.2266H103.887V57.8676H102.154Z" fill="#EF7D00"/>
<path d="M111.75 57.8676L108.632 52.1495V57.8676H107.055V49.7736H109.112L112.174 55.5105V49.7736H113.739V57.8676H111.75Z" fill="#EF7D00"/>
<path d="M116.352 49.281L115.154 49.1937L116.171 47.6285H117.985L116.352 49.281ZM117 57.8676H115.279V49.7736H117V57.8676Z" fill="#EF7D00"/>
<path d="M28.5359 61.977H25.4741V70.071H27.1827V67.452H28.0682C30.1696 67.452 31.2359 66.4418 31.2359 64.4962C31.2359 63.2116 30.6124 61.9707 28.5421 61.9707L28.5359 61.977ZM27.8749 66.0676H27.1827V63.3613H28.0121C28.8477 63.3613 29.465 63.5858 29.465 64.6272C29.465 65.812 28.7604 66.0676 27.8749 66.0676Z" fill="#EF7D00"/>
<path d="M35.7075 61.8336C33.0885 61.8336 31.7603 63.6544 31.7603 66.0614C31.7603 68.4684 32.8577 70.2082 35.5266 70.2082C38.1955 70.2082 39.4177 68.5307 39.4177 65.9055C39.4177 63.6544 38.3327 61.8336 35.7075 61.8336ZM35.5952 68.7552C34.3231 68.7552 33.5374 67.9633 33.5374 66.024C33.5374 64.0847 34.3668 63.2865 35.6763 63.2865C36.9172 63.2865 37.6468 64.1345 37.6468 66.0053C37.6468 68.0069 36.8112 68.7552 35.6015 68.7552H35.5952Z" fill="#EF7D00"/>
<path d="M42.7961 67.851C42.7961 68.5682 42.5155 68.7989 42.0042 68.7989C41.3307 68.7989 41.2434 68.3437 41.1748 67.6702L39.5161 67.9134C39.5722 69.6469 40.5824 70.2082 41.9792 70.2082C43.6566 70.2082 44.5297 69.4037 44.5297 67.8012V61.977H42.7961V67.851Z" fill="#EF7D00"/>
<path d="M47.7167 61.977H45.9956V70.071H47.7167V61.977Z" fill="#EF7D00"/>
<path d="M52.575 61.4594L53.7722 59.8755L52.6311 59.7945L51.7955 60.6113L50.9849 59.8069L49.8687 59.8755L51.0098 61.4594H52.575Z" fill="#EF7D00"/>
<path d="M50.5853 64.0223C50.5853 63.511 50.9657 63.1618 51.7951 63.1618C52.7491 63.1618 53.0609 63.6232 53.1233 64.384L54.7009 64.2031C54.5762 62.2763 53.2605 61.8336 51.8138 61.8336C50.18 61.8336 48.8643 62.6941 48.8643 64.2717C48.8643 67.3335 53.0796 66.1612 53.0796 67.851C53.0796 68.5993 52.456 68.8488 51.7389 68.8488C50.5541 68.8488 50.2611 68.1878 50.1301 67.4083L48.5649 67.6453C48.7084 69.7467 50.2424 70.2144 51.6953 70.2144C53.3041 70.2144 54.7945 69.4848 54.7945 67.6515C54.7945 64.677 50.5916 65.7184 50.5916 64.0285L50.5853 64.0223Z" fill="#EF7D00"/>
<path d="M61.4107 61.977H54.938V63.4299H57.32V70.071H59.0536V63.4299H61.4107V61.977Z" fill="#EF7D00"/>
<path d="M58.9412 61.4594L60.1384 59.8755L58.9973 59.7945L58.1555 60.6113L57.3511 59.8069L56.2349 59.8755L57.376 61.4594H58.9412Z" fill="#EF7D00"/>
<path d="M65.352 61.8336C62.733 61.8336 61.4048 63.6544 61.4048 66.0614C61.4048 68.4684 62.5023 70.2082 65.1712 70.2082C67.8401 70.2082 69.0623 68.5307 69.0623 65.9055C69.0623 63.6544 67.9773 61.8336 65.352 61.8336ZM65.2398 68.7552C63.9677 68.7552 63.182 67.9633 63.182 66.024C63.182 64.0847 64.0113 63.2865 65.3146 63.2865C66.6179 63.2865 67.2851 64.1345 67.2851 66.0053C67.2851 68.0069 66.4495 68.7552 65.2398 68.7552Z" fill="#EF7D00"/>
<path d="M72.9651 68.3748H72.9028L71.057 61.977H69.1177L71.7492 70.071H74.0751L76.5881 61.977H74.8109L72.9651 68.3748Z" fill="#EF7D00"/>
<path d="M82.3944 67.7139L79.3327 61.977H77.2749V70.071H78.8525V64.359L81.9704 70.071H83.9596V61.977H82.3944V67.7139Z" fill="#EF7D00"/>
<path d="M89.621 61.977H87.4759L84.8257 70.071H86.6029L87.2264 68.1005H89.9203L90.5937 70.071H92.4832L89.621 61.977ZM87.5195 66.7286L88.5172 63.5983H88.5609L89.5648 66.7286H87.5195Z" fill="#EF7D00"/>
</svg>
