<svg width="92" height="78" viewBox="0 0 92 78" fill="none" xmlns="http://www.w3.org/2000/svg">
<g clip-path="url(#clip0_2040_1622)">
<path fill-rule="evenodd" clip-rule="evenodd" d="M22.0109 52.5088C26.4709 51.2148 28.77 47.9043 28.77 42.7282C28.77 39.1288 27.7649 36.5407 25.7485 34.9577C23.732 33.3747 20.2834 32.5141 15.5344 32.5141H3.88184V63.7342H9.20873V37.4013H15.9678C18.8449 37.4013 20.7168 37.8347 21.8664 38.5509C23.0159 39.2733 23.4494 40.7118 23.4494 42.7219C23.4494 44.7321 22.8714 46.3213 21.8664 47.1819C20.8613 48.0425 18.9893 48.476 16.2568 48.6204V53.3694L23.5938 63.8724H30.353L22.0109 52.5088V52.5088Z" fill="#00A0D3"/>
<path fill-rule="evenodd" clip-rule="evenodd" d="M53.9472 58.1184C52.9422 58.6963 51.5037 58.979 49.4872 58.979H41.1451V37.4013H47.9042C49.7762 37.4013 51.2147 37.6903 52.2198 38.4064C53.0804 39.1288 53.6583 40.1338 53.6583 41.5724C53.6583 44.1604 51.9308 45.4545 48.1932 45.4545V50.3479H48.7711C53.2311 50.3479 55.3858 51.7864 55.3858 54.519C55.3858 56.2464 54.9523 57.396 53.9472 58.1184V58.1184ZM59.1234 50.2034C57.9738 48.9094 56.3908 48.0425 54.5189 47.6154L55.6684 47.0374C55.8129 46.893 56.2463 46.604 56.818 46.3151C58.401 45.1655 59.1171 43.2935 59.1171 40.85C59.1171 38.8335 58.3947 36.9679 56.9562 35.3849C56.2338 34.5243 55.0842 33.8019 53.5012 33.3684C51.9182 32.7905 50.1908 32.6461 48.0362 32.6461H35.8057V64.0044H49.4747C53.7902 64.0044 56.8117 62.9993 58.5392 61.1273C59.9777 59.3999 60.8383 57.5279 60.8383 55.3733C60.8383 53.2124 60.2604 51.4912 59.1108 50.1972L59.1234 50.2034ZM88.0255 35.2341C85.8646 33.5066 82.416 32.5016 77.667 32.5016H66.875V63.7217H72.1956V37.4013H77.5162C80.3932 37.4013 82.5541 37.8347 83.8482 38.6953C85.1422 39.5559 85.8646 41.1389 85.8646 43.2998C85.8646 45.4607 85.2867 47.0375 84.2816 48.1933C83.2765 49.1984 81.6936 49.7763 79.2437 49.9208V54.6697C83.1258 54.5252 86.0028 53.6647 88.0192 52.0817C90.1801 50.3542 91.3297 47.4772 91.3297 43.7395C91.3297 39.8575 90.1801 37.1249 88.0192 35.253" fill="#1A1919"/>
<path fill-rule="evenodd" clip-rule="evenodd" d="M16.6905 21.8666C19.1341 19.2786 20.8616 17.1177 21.8666 15.5347C22.7272 13.9517 23.3051 12.2242 23.3051 10.3585C23.3051 7.19256 22.1556 4.60449 19.9947 2.73254C17.6956 0.860594 15.1075 0 12.2305 0C9.35347 0 6.9036 0.577917 5.03793 1.72747C3.16598 2.87702 1.43851 4.60449 0 6.9036L4.74897 9.63614C6.62092 6.75912 9.06451 5.17613 11.9415 5.17613C13.5245 5.17613 14.963 5.60957 15.9681 6.61464C16.9732 7.61972 17.5511 8.77555 17.5511 10.2141C17.5511 11.6526 17.1177 12.9466 16.1126 14.3851C15.1075 15.8236 13.38 17.6956 11.0747 19.9947L3.8821 27.3317H11.2191C11.3636 27.3317 16.6842 21.8666 16.6842 21.8666H16.6905Z" fill="#00A0D3"/>
<path fill-rule="evenodd" clip-rule="evenodd" d="M41.5726 0.860596H28.7705V6.18749H35.9631V27.3317H41.5726V0.860596Z" fill="#1A1919"/>
<path fill-rule="evenodd" clip-rule="evenodd" d="M73.3704 24.8881C73.3704 22.1556 72.5098 19.8502 70.6378 17.9845C68.7659 16.1126 66.3223 15.1075 63.1563 14.963L71.4984 5.47137V0.860596H51.0703V6.18749H63.728L55.5303 15.6792V20.1392C56.6799 19.7057 57.9739 19.5612 59.2679 19.5612C61.856 19.5612 63.8724 20.1392 65.4554 21.1442C66.8939 22.1493 67.6163 23.5878 67.6163 25.4598C67.6163 26.1822 67.4719 26.7538 67.3274 27.3317H73.0814C73.2259 26.4711 73.3704 25.6043 73.3704 24.8881" fill="#1A1919"/>
<path fill-rule="evenodd" clip-rule="evenodd" d="M7.78278 75.5376V76.0904H3.88184V75.6444L6.89706 71.8188H3.91953V71.266H7.7074V71.712L4.69218 75.5376H7.78278Z" fill="#1A1919"/>
<path fill-rule="evenodd" clip-rule="evenodd" d="M12.5628 69.281V72.1894C12.3806 71.8942 12.1231 71.6366 11.8278 71.4921C11.4949 71.31 11.1682 71.2346 10.7599 71.2346C10.3202 71.2346 9.91191 71.31 9.54757 71.5298C9.21464 71.712 8.88799 72.0073 8.69954 72.3779C8.51737 72.7799 8.4043 73.1882 8.4043 73.6656C8.4043 74.143 8.47968 74.5828 8.69954 74.9534C8.88171 75.324 9.17695 75.613 9.54757 75.8391C9.91819 76.0213 10.3202 76.1343 10.7599 76.1343C11.1306 76.1343 11.4949 76.059 11.8278 75.8768C12.1608 75.6946 12.4183 75.4748 12.6005 75.1418V76.0966H13.2286V69.2936H12.5691L12.5628 69.281ZM12.3052 74.6518C12.1608 74.9471 11.9346 75.1669 11.6771 75.3114C11.4195 75.4559 11.1243 75.5313 10.7599 75.5313C10.427 75.5313 10.1004 75.4559 9.84281 75.3114C9.58526 75.1669 9.3654 74.9408 9.21464 74.6518C9.06388 74.3629 8.99478 74.0237 8.99478 73.6593C8.99478 73.295 9.07016 72.9621 9.21464 72.6668C9.35912 72.3716 9.58526 72.1517 9.84281 72.0072C10.1004 71.8628 10.4333 71.7874 10.7599 71.7874C11.0866 71.7874 11.4195 71.8628 11.6771 72.0072C11.9346 72.1517 12.1545 72.3779 12.3052 72.6668C12.4497 72.9621 12.5251 73.295 12.5251 73.6593C12.5251 74.0237 12.4497 74.3566 12.3052 74.6518Z" fill="#1A1919"/>
<path fill-rule="evenodd" clip-rule="evenodd" d="M16.1693 71.4921C16.4646 71.3477 16.8289 71.2346 17.2749 71.2346V71.8628H17.1304C16.6153 71.8628 16.2133 72.0072 15.9557 72.3402C15.6605 72.6354 15.516 73.0751 15.516 73.6656V76.1281H14.8564V71.2723H15.4846V72.2271C15.6291 71.8942 15.8866 71.6366 16.1819 71.4921H16.1693Z" fill="#1A1919"/>
<path fill-rule="evenodd" clip-rule="evenodd" d="M21.3893 71.712C21.0563 71.3791 20.5789 71.2346 19.957 71.2346C19.5864 71.2346 19.2221 71.31 18.8892 71.4168C18.5562 71.5298 18.261 71.6743 18.0034 71.8942L18.261 72.3716C18.4808 72.1894 18.7007 72.0763 18.9959 71.9696C19.2912 71.8565 19.5864 71.8251 19.8817 71.8251C20.3214 71.8251 20.692 71.9381 20.9119 72.158C21.1317 72.3779 21.2448 72.7108 21.2448 73.1128V73.4081H19.6995C19.0713 73.4081 18.5939 73.5211 18.305 73.7787C18.0097 74.0362 17.8652 74.3692 17.8652 74.7712C17.8652 75.2109 18.0097 75.5439 18.3426 75.8014C18.6756 76.059 19.0776 76.172 19.6304 76.172C20.001 76.172 20.3277 76.0966 20.6229 75.9522C20.9181 75.8077 21.138 75.6192 21.2825 75.3617V76.0966H21.9107V73.1191C21.9107 72.4909 21.7285 72.0512 21.3956 71.7246L21.3893 71.712ZM21.2762 74.6204C21.1317 74.9534 20.9433 75.1732 20.6857 75.3554C20.3905 75.5376 20.0952 75.613 19.7309 75.613C19.3666 75.613 19.0713 75.4999 18.8452 75.3554C18.6253 75.2109 18.5122 74.9848 18.5122 74.6958C18.5122 74.143 18.952 73.8478 19.7623 73.8478H21.2699V74.6204H21.2762Z" fill="#1A1919"/>
<path fill-rule="evenodd" clip-rule="evenodd" d="M27.4634 71.266L25.3276 76.0904H24.668L22.5322 71.266H23.1918L24.9947 75.3491L26.7975 71.266H27.4634Z" fill="#1A1919"/>
<path fill-rule="evenodd" clip-rule="evenodd" d="M32.168 72.447C31.9481 72.0763 31.6529 71.7497 31.2822 71.5612C30.9116 71.3728 30.5096 71.266 30.0322 71.266C29.5548 71.266 29.1465 71.3414 28.7821 71.5612C28.4115 71.7811 28.1225 72.0763 27.8964 72.447C27.6765 72.8176 27.5635 73.2196 27.5635 73.697C27.5635 74.1367 27.6765 74.5827 27.8964 74.9471C28.1163 75.3177 28.4115 75.6067 28.7821 75.8328C29.1527 76.015 29.5548 76.1657 30.0322 76.1657C30.5096 76.1657 30.9179 76.0527 31.2822 75.8328C31.6466 75.613 31.9418 75.3177 32.168 74.9471C32.3878 74.5765 32.5009 74.1744 32.5009 73.697C32.5009 73.2573 32.3878 72.8113 32.168 72.447ZM31.5775 74.6518C31.433 74.9471 31.2069 75.1669 30.9493 75.3114C30.6918 75.4559 30.3588 75.5313 30.0322 75.5313C29.7055 75.5313 29.3726 75.4559 29.1151 75.3114C28.8575 75.1669 28.6376 74.9408 28.4869 74.6518C28.3424 74.3566 28.267 74.0237 28.267 73.6593C28.267 73.295 28.3424 72.9621 28.4869 72.6668C28.6314 72.3716 28.8575 72.1517 29.1151 72.0072C29.3726 71.8628 29.7055 71.7874 30.0322 71.7874C30.3588 71.7874 30.6918 71.8628 30.9493 72.0072C31.2069 72.1517 31.4267 72.3779 31.5775 72.6668C31.722 72.9621 31.7973 73.295 31.7973 73.6593C31.7973 74.0237 31.722 74.3566 31.5775 74.6518Z" fill="#1A1919"/>
<path fill-rule="evenodd" clip-rule="evenodd" d="M36.1759 75.7951C36.0315 75.9082 35.8807 75.9773 35.7362 76.0527C35.554 76.128 35.3656 76.1281 35.1834 76.1281C34.7437 76.1281 34.3731 76.015 34.1532 75.7574C33.8957 75.4999 33.7826 75.1669 33.7826 74.7272V71.8188H32.9346V71.266H33.7826V70.2358H34.4422V71.3037H35.9121V71.8565H34.4422V74.7272C34.4422 75.0225 34.5176 75.2423 34.662 75.3868C34.8065 75.5313 34.995 75.6067 35.2902 75.6067C35.4347 75.6067 35.5478 75.569 35.6922 75.5313C35.8053 75.4936 35.9121 75.4182 36.0252 75.3491L36.1696 75.7888L36.1759 75.7951Z" fill="#1A1919"/>
<path fill-rule="evenodd" clip-rule="evenodd" d="M41.0699 71.7497C41.4405 72.1203 41.6227 72.5977 41.6227 73.295V76.0904H40.9631V73.3704C40.9631 72.8553 40.85 72.4847 40.5925 72.2271C40.3349 71.9696 40.002 71.8251 39.5246 71.8251C39.0095 71.8251 38.6074 71.9696 38.3122 72.3025C38.0169 72.5977 37.8725 73.0374 37.8725 73.5902V76.1281H37.2129V71.2723H37.8411V72.158C38.0232 71.8628 38.2808 71.6429 38.576 71.4607C38.909 71.3163 39.2356 71.2032 39.6816 71.2032C40.2721 71.2409 40.7495 71.423 41.0824 71.756L41.0699 71.7497Z" fill="#1A1919"/>
<path d="M43.8647 71.266H43.2051V76.0841H43.8647V71.266Z" fill="#1A1919"/>
<path fill-rule="evenodd" clip-rule="evenodd" d="M44.1981 69.3941H45.0776L43.6077 70.531H42.9795L44.1981 69.3941Z" fill="#1A1919"/>
<path fill-rule="evenodd" clip-rule="evenodd" d="M52.1068 72.4093C51.9247 72.0763 51.6294 71.7497 51.2588 71.5612C50.8882 71.3414 50.4862 71.2283 50.0088 71.2283C49.6381 71.2283 49.2738 71.3037 48.9409 71.4859C48.6079 71.668 48.3504 71.9256 48.1682 72.2208V71.266H47.54V77.8869H48.1996V75.2046C48.3818 75.4999 48.6393 75.7574 48.9723 75.9019C49.3052 76.0841 49.6319 76.1595 50.0402 76.1595C50.4799 76.1595 50.8882 76.0841 51.2525 75.8642C51.6232 75.6444 51.9121 75.3491 52.1006 74.9785C52.289 74.6079 52.3958 74.1682 52.3958 73.6907C52.3958 73.2133 52.3204 72.7736 52.1006 72.403L52.1068 72.4093ZM51.5541 74.6518C51.4096 74.9471 51.152 75.1669 50.8945 75.3114C50.5992 75.4936 50.304 75.569 49.9773 75.5313C49.6444 75.5313 49.3178 75.4559 49.0602 75.3114C48.8027 75.1669 48.5828 74.9408 48.432 74.6518C48.2876 74.3566 48.2122 74.0237 48.2122 73.6593C48.2122 73.3264 48.2876 72.9998 48.432 72.7045C48.5765 72.447 48.8027 72.1894 49.0602 72.0449C49.3178 71.9005 49.6507 71.8251 49.9773 71.8251C50.304 71.8251 50.6369 71.9005 50.8945 72.0449C51.1897 72.1894 51.4096 72.4156 51.5541 72.7045C51.6985 72.9621 51.7739 73.295 51.7739 73.6593C51.7739 74.0237 51.6985 74.3566 51.5541 74.6518Z" fill="#1A1919"/>
<path fill-rule="evenodd" clip-rule="evenodd" d="M57.6602 72.447C57.4403 72.0763 57.1451 71.7497 56.7744 71.5612C56.4038 71.3728 56.0018 71.266 55.5244 71.266C55.047 71.266 54.6387 71.3414 54.2743 71.5612C53.9037 71.7811 53.6147 72.0763 53.3886 72.447C53.1687 72.8176 53.0557 73.2573 53.0557 73.697C53.0557 74.1367 53.1687 74.5827 53.3886 74.9471C53.6085 75.3177 53.9037 75.6067 54.2743 75.8328C54.6763 76.0527 55.0847 76.1281 55.5244 76.1657C56.0018 76.1657 56.4101 76.0527 56.7744 75.8328C57.1451 75.613 57.434 75.3177 57.6602 74.9471C57.88 74.5765 57.9931 74.1367 57.9931 73.697C57.9931 73.2573 57.88 72.8113 57.6602 72.447ZM57.0697 74.6518C56.9252 74.9471 56.6991 75.1669 56.4415 75.3114C56.184 75.4936 55.8887 75.569 55.5244 75.5313C55.1914 75.5313 54.8648 75.4559 54.6072 75.3114C54.3497 75.1669 54.1298 74.9408 53.9791 74.6518C53.8346 74.3566 53.7592 74.0237 53.7592 73.6593C53.7592 73.295 53.8346 72.9621 53.9791 72.6668C54.1236 72.4093 54.3497 72.1517 54.6072 72.0072C54.8648 71.8628 55.1977 71.7874 55.5244 71.7874C55.851 71.7874 56.184 71.8628 56.4415 72.0072C56.6991 72.1517 56.9189 72.3779 57.0697 72.6668C57.2142 72.9621 57.2895 73.295 57.2895 73.6593C57.2895 74.0237 57.2142 74.3566 57.0697 74.6518Z" fill="#1A1919"/>
<path fill-rule="evenodd" clip-rule="evenodd" d="M59.1679 70.0913C59.0925 70.016 59.0234 69.8715 59.0234 69.7584C59.0234 69.6453 59.0611 69.5385 59.1679 69.4255C59.2433 69.3501 59.3878 69.281 59.5008 69.281C59.6453 69.281 59.7584 69.3187 59.8338 69.4255C59.9092 69.5008 59.9783 69.6076 59.9783 69.7584C59.9783 69.9092 59.9406 70.016 59.8338 70.0913C59.7584 70.1667 59.6139 70.2358 59.5008 70.2358C59.3878 70.2358 59.281 70.1604 59.1679 70.0913Z" fill="#1A1919"/>
<path fill-rule="evenodd" clip-rule="evenodd" d="M57.8801 77.8555C57.698 77.8178 57.5472 77.711 57.4404 77.6357L57.6603 77.1582C57.8425 77.3027 58.1 77.4158 58.3952 77.4158C58.6528 77.4158 58.835 77.3404 58.9857 77.1959C59.1302 77.0515 59.2056 76.8253 59.2056 76.5364V71.3854H59.8652V76.5364C59.8652 76.9761 59.7521 77.3467 59.4945 77.6043C59.237 77.8618 58.9041 78.0063 58.4643 78.0063C58.2445 77.9309 58.0623 77.8932 57.8739 77.8618L57.8801 77.8555Z" fill="#1A1919"/>
<path d="M62.1449 71.266H61.4854V76.0841H62.1449V71.266Z" fill="#1A1919"/>
<path fill-rule="evenodd" clip-rule="evenodd" d="M61.4853 70.0913C61.4099 70.016 61.3408 69.8715 61.3408 69.7584C61.3408 69.6453 61.3785 69.5385 61.4853 69.4255C61.5607 69.3501 61.7052 69.281 61.8182 69.281C61.9627 69.281 62.0758 69.3187 62.1512 69.4255C62.2265 69.5323 62.2956 69.6076 62.2956 69.7584C62.2956 69.9092 62.2579 70.016 62.1512 70.0913C62.0758 70.1667 61.9313 70.2358 61.8182 70.2358C61.7052 70.2358 61.5607 70.1981 61.4853 70.0913Z" fill="#1A1919"/>
<path fill-rule="evenodd" clip-rule="evenodd" d="M66.5986 69.3941L65.4177 70.531H64.7581L63.5771 69.3941H64.1676L65.091 70.129L66.0082 69.3941H66.5986Z" fill="#1A1919"/>
<path fill-rule="evenodd" clip-rule="evenodd" d="M63.9476 75.9773C63.577 75.8642 63.3195 75.7197 63.0996 75.5376L63.3949 75.0225C63.577 75.1669 63.8346 75.3177 64.1675 75.4245C64.4627 75.5376 64.7957 75.569 65.1223 75.569C65.562 75.569 65.895 75.4936 66.0771 75.3491C66.297 75.2046 66.4101 75.0162 66.4101 74.7586C66.4101 74.5765 66.3347 74.4257 66.2279 74.3566C66.1148 74.2435 65.9704 74.1744 65.7882 74.1367C65.606 74.0991 65.3862 74.0237 65.0909 73.9923C64.6889 73.9169 64.3936 73.8478 64.1361 73.7724C63.9162 73.697 63.6964 73.5525 63.5079 73.3704C63.3195 73.1882 63.2504 72.9307 63.2504 72.5977C63.2504 72.1957 63.4325 71.8628 63.7655 71.6052C64.0984 71.3477 64.5758 71.2346 65.1663 71.2346C65.4615 71.2346 65.7945 71.2723 66.0834 71.3477C66.3787 71.423 66.6362 71.5298 66.8561 71.6806L66.5608 72.1957C66.1588 71.9381 65.6751 71.7937 65.1286 71.7937C64.7266 71.7937 64.3936 71.869 64.2115 72.0135C63.9916 72.158 63.8785 72.3465 63.8785 72.604C63.8785 72.7862 63.9539 72.9369 64.0607 73.0437C64.1675 73.1505 64.3183 73.2259 64.5004 73.3013C64.6826 73.339 64.9025 73.4143 65.2354 73.4458C65.606 73.5211 65.9327 73.5902 66.1525 73.6656C66.3724 73.741 66.5922 73.8478 66.743 74.0362C66.8938 74.2247 67.0006 74.4383 67.0006 74.7712C67.0006 75.1732 66.8184 75.5439 66.4854 75.7637C66.1148 76.0213 65.6374 76.1343 65.0155 76.1343C64.6826 76.1343 64.3183 76.0966 63.9476 75.9899V75.9773Z" fill="#1A1919"/>
<path fill-rule="evenodd" clip-rule="evenodd" d="M69.6826 69.0988H70.1977L70.1286 70.6064H69.6826V69.0988Z" fill="#1A1919"/>
<path fill-rule="evenodd" clip-rule="evenodd" d="M70.6437 75.7951C70.4992 75.9082 70.3485 75.9773 70.204 76.0527C70.0218 76.128 69.8334 76.1281 69.6512 76.1281C69.2115 76.1281 68.8409 76.015 68.621 75.7574C68.3634 75.4999 68.2504 75.1669 68.2504 74.7272V71.8188H67.4023V71.266H68.2504V70.2358H68.91V71.3037H70.3799V71.8565H68.91V74.7272C68.91 75.0225 68.9853 75.2423 69.1298 75.3868C69.2743 75.5313 69.4627 75.6067 69.758 75.6067C69.9025 75.6067 70.0155 75.569 70.16 75.5313C70.2731 75.4936 70.3799 75.4182 70.4929 75.3491L70.6374 75.7888L70.6437 75.7951Z" fill="#1A1919"/>
<path fill-rule="evenodd" clip-rule="evenodd" d="M75.5693 72.447C75.3495 72.0763 75.0542 71.7874 74.6836 71.5612C74.313 71.3791 73.911 71.266 73.4336 71.266C72.9561 71.266 72.5478 71.3414 72.1835 71.5612C71.8129 71.7811 71.5239 72.0763 71.2978 72.447C71.0716 72.8176 70.9648 73.2573 70.9648 73.697C70.9648 74.1367 71.0779 74.5827 71.2978 74.9471C71.5176 75.3114 71.8129 75.6067 72.1835 75.8328C72.5541 76.0527 72.9561 76.1281 73.4336 76.1657C73.911 76.1657 74.3193 76.0527 74.6836 75.8328C75.0542 75.613 75.3432 75.3177 75.5693 74.9471C75.7892 74.5765 75.9023 74.1367 75.9023 73.697C75.9023 73.2573 75.7892 72.8113 75.5693 72.447ZM74.9789 74.6518C74.8344 74.9471 74.6082 75.1669 74.3507 75.3114C74.0554 75.4936 73.7602 75.569 73.4336 75.5313C73.1006 75.5313 72.774 75.4559 72.5164 75.3114C72.2589 75.1669 72.039 74.9408 71.8883 74.6518C71.7438 74.3566 71.6684 74.0237 71.6684 73.6593C71.6684 73.295 71.7438 72.9621 71.8883 72.6668C72.0327 72.3716 72.2589 72.1517 72.5164 72.0072C72.774 71.8628 73.1069 71.7874 73.4336 71.7874C73.7602 71.7874 74.0931 71.8628 74.3507 72.0072C74.6082 72.1517 74.8281 72.3779 74.9789 72.6668C75.1233 72.9621 75.1987 73.295 75.1987 73.6593C75.1987 74.0237 75.1233 74.3566 74.9789 74.6518Z" fill="#1A1919"/>
<path fill-rule="evenodd" clip-rule="evenodd" d="M80.9395 71.266L78.81 76.0904H78.1441L76.0146 71.266H76.6742L78.4771 75.3491L80.2799 71.266H80.9395Z" fill="#1A1919"/>
<path fill-rule="evenodd" clip-rule="evenodd" d="M85.5757 71.7811C85.9463 72.1517 86.1285 72.6291 86.1285 73.3264V76.1218H85.4689V73.4018C85.4689 72.8867 85.3559 72.5161 85.0983 72.2585C84.8408 72.001 84.5078 71.8565 84.0304 71.8565C83.5153 71.8565 83.1133 72.001 82.818 72.3339C82.5228 72.6291 82.3783 73.0689 82.3783 73.6216V76.1595H81.7188V71.266H82.3469V72.1517C82.5291 71.8565 82.7866 71.6366 83.0819 71.4545C83.4148 71.31 83.7415 71.1969 84.1875 71.1969C84.7403 71.2346 85.2554 71.4168 85.5883 71.7874L85.5757 71.7811Z" fill="#1A1919"/>
<path fill-rule="evenodd" clip-rule="evenodd" d="M90.8336 71.712C90.5007 71.4168 90.0233 71.2346 89.3637 71.2346C88.9931 71.2346 88.6287 71.31 88.2958 71.4168C87.9629 71.5298 87.6676 71.6743 87.4101 71.8942L87.7053 72.3716C87.9252 72.2271 88.145 72.0763 88.4403 71.9696C88.7355 71.8565 89.0307 71.8251 89.326 71.8251C89.7657 71.8251 90.1363 71.9381 90.3562 72.158C90.576 72.3779 90.6891 72.7108 90.6891 73.1128V73.4081H89.1438C88.5157 73.4081 88.0382 73.5211 87.7493 73.7787C87.454 74.0362 87.3096 74.3692 87.3096 74.7712C87.3096 75.2109 87.454 75.5439 87.787 75.8014C88.1199 76.059 88.5219 76.172 89.0747 76.172C89.4453 76.172 89.772 76.0966 90.0672 75.9522C90.3625 75.8077 90.5823 75.6192 90.7268 75.3617V76.0966H91.355V73.1191C91.355 72.4909 91.1728 72.0512 90.8399 71.7246L90.8336 71.712ZM90.6891 74.6518C90.5446 74.9848 90.3562 75.2046 90.0986 75.3868C89.8411 75.5313 89.5459 75.6444 89.1438 75.6444C88.7732 75.6444 88.4842 75.5313 88.2581 75.3868C88.0382 75.2423 87.9252 75.0162 87.9252 74.7272C87.9252 74.1744 88.3649 73.8792 89.1752 73.8792H90.6828V74.6518H90.6891Z" fill="#1A1919"/>
</g>
<defs>
<clipPath id="clip0_2040_1622">
<rect width="91.3486" height="78" fill="white"/>
</clipPath>
</defs>
</svg>
