<svg width="151" height="43" viewBox="0 0 151 43" fill="none" xmlns="http://www.w3.org/2000/svg">
<path d="M141.221 16.4206C140.561 17.3617 139.62 18.095 138.544 18.4983C137.139 18.9016 135.697 19.0971 134.242 19.0971C133.509 19.1216 132.702 19.1216 131.798 19.1216H126.286V7.16884H131.26C132.397 7.16884 133.374 7.16884 134.242 7.2055C135.305 7.2055 136.357 7.29105 137.408 7.46216C138.728 7.66992 139.937 8.31767 140.83 9.30762C141.746 10.3587 142.235 11.7153 142.198 13.1085C142.223 14.2818 141.881 15.4429 141.233 16.4206H141.221ZM148.554 4.78562C147.05 2.75684 144.912 1.29024 142.467 0.642497C139.754 0.165854 137.004 -0.0419132 134.242 0.00697326H116.851V33.6775L88.6067 33.6409L112.341 7.79214V0.00697326H34.0616L23.4288 29.5222L9.99728 0.00697326H0L19.6279 42.2571H28.2808L41.2846 7.73103H99.7773L77.0206 32.9687V42.2571H126.286V26.3079H134.242C136.699 26.3445 139.143 26.1368 141.563 25.709C143.164 25.3546 144.667 24.6702 145.975 23.7047C147.49 22.6292 148.725 21.2115 149.58 19.5616C150.583 17.5205 151.059 15.2718 150.986 13.0108C151.12 10.0776 150.265 7.16884 148.542 4.78562" fill="#226C3B"/>
<path d="M58.4156 35.2242C53.8936 35.1631 50.2638 31.4355 50.3249 26.9135C50.2638 22.3792 53.8814 18.6639 58.4156 18.5905C62.9376 18.6394 66.5552 22.3548 66.5063 26.8768V26.9135C66.5797 31.4355 62.9621 35.1508 58.4401 35.2242H58.4156V35.2242ZM58.4156 11.1476C49.1272 11.1476 41.5498 18.2117 41.5498 26.9135C41.5498 35.6153 49.1272 42.6793 58.4156 42.6793C67.7041 42.6793 75.2815 35.6153 75.2815 26.9135C75.2815 18.2117 67.7407 11.1476 58.4156 11.1476" fill="#226C3B"/>
</svg>
