<svg width="212" height="45" viewBox="0 0 212 45" fill="none" xmlns="http://www.w3.org/2000/svg">
<path d="M169.31 37.0719C169.154 37.4459 169.006 37.8511 168.834 38.2797C168.655 37.7264 168.577 37.5083 168.39 37.0329L167.611 35.1316H162.398L160.426 39.2616L162.67 44.0773H165.694L162.896 39.2304L165.047 35.4822L167.619 40.3447V44.0773H169.964V40.2902L172.824 35.1316H170.089L169.31 37.0719Z" fill="#E63312"/>
<path d="M126.03 35.1316H123.116V44.0773H125.407V40.8902H126.124C129.054 40.8902 129.622 39.2382 129.622 37.9135C129.622 35.8718 128.29 35.1316 126.015 35.1316H126.03ZM126.085 39.0745H125.414V37.0173H126.209C126.763 37.0173 127.129 37.1576 127.129 37.9057C127.129 38.8797 126.802 39.0745 126.077 39.0745H126.085Z" fill="#E63312"/>
<path d="M71.9672 42.3473C71.4918 42.3473 71.1178 42.1292 70.8217 41.7863C70.4477 41.3499 70.3853 40.6408 70.3853 39.168C70.3853 38.116 70.5256 37.6485 70.9619 37.2043C71.1957 36.9628 71.562 36.8537 71.9594 36.8537C72.4503 36.8537 72.8945 37.0251 73.2919 37.329L74.266 35.6381C73.853 35.2406 72.8945 34.9835 71.9828 34.9835C70.4165 34.9835 69.1229 35.6147 68.3671 37.0095C67.9307 37.8199 67.7515 38.6615 67.7515 39.7836C67.7515 41.0538 68.071 42.2227 68.7801 43.0019C69.6061 43.898 70.6035 44.2331 71.71 44.2331C73.0192 44.2331 73.9309 43.8513 74.4919 43.3214L73.5023 41.7551C73.0036 42.2071 72.536 42.3473 71.9594 42.3473H71.9672Z" fill="#E63312"/>
<path d="M71.8505 32.9808L70.0738 32.0847L69.3491 33.277L71.7726 34.8043L74.2272 33.277L73.5882 32.0847L71.8505 32.9808Z" fill="#E63312"/>
<path d="M118.706 40.3447H120.934V38.5213H118.706V37.0173H121.441L121.604 35.1316H116.407V44.0773H121.776V42.1681H118.706V40.3447Z" fill="#E63312"/>
<path d="M102.551 32.2873L99.7534 33.838L100.455 34.9679L103.424 33.7367L102.551 32.2873Z" fill="#E63312"/>
<path d="M113.009 40.1889C114.061 40.0096 114.871 39.2304 114.871 37.6875C114.871 36.1446 114.022 35.1316 111.396 35.1316H108.318V44.0773H110.617V40.5395C111.115 40.5395 111.318 40.6564 111.669 41.5837L112.612 44.0851H115.269C114.973 43.4149 114.217 41.7629 113.921 41.1551C113.702 40.6954 113.328 40.2824 113.025 40.1967L113.009 40.1889ZM111.263 38.8408H110.609V37.0173H111.248C111.965 37.0173 112.315 37.2199 112.315 37.8667C112.315 38.4667 112.05 38.8408 111.263 38.8408Z" fill="#E63312"/>
<path d="M101.009 40.3447H103.246V38.5213H101.009V37.0173H103.744L103.908 35.1316H98.7104V44.0773H104.079V42.1681H101.009V40.3447Z" fill="#E63312"/>
<path d="M86.3903 38.4823L85.4786 38.2485C84.8084 38.0849 84.6058 37.7888 84.6058 37.4927C84.6058 37.1342 84.9253 36.8459 85.5175 36.8459C86.1098 36.8459 86.928 37.0797 87.528 37.4771L88.6345 35.8485C87.8397 35.2952 86.6864 34.9757 85.4396 34.9757C83.437 34.9757 81.972 36.1524 81.972 37.9213C81.972 39.4642 82.8603 40.1811 84.1539 40.5161L85.2059 40.7889C85.8215 40.9447 86.102 41.1239 86.102 41.5214C86.102 42.0123 85.7435 42.3396 84.8474 42.3396C83.9513 42.3396 82.9772 41.9967 82.3304 41.6227L81.52 43.4227C82.4162 43.8981 83.4681 44.2331 84.8162 44.2331C87.1384 44.2331 88.728 43.1032 88.728 40.9603C88.728 39.168 87.341 38.7239 86.3825 38.4823H86.3903Z" fill="#E63312"/>
<path d="M156.227 35.1316H153.881V44.0773H156.227V35.1316Z" fill="#E63312"/>
<path d="M144.312 39.3083C145.301 38.9888 145.629 38.1394 145.629 37.329C145.629 35.6848 144.577 35.1393 143.283 35.1393H139.317V44.0851H142.948C144.99 44.0851 145.948 42.9552 145.948 41.3265C145.948 40.2512 145.177 39.5421 144.304 39.3083H144.312ZM141.616 37.0251H142.504C143.042 37.0251 143.275 37.2667 143.275 37.7264C143.275 38.1862 143.081 38.5758 142.527 38.5758H141.616V37.0173V37.0251ZM142.488 42.1681H141.616V40.3992H142.465C143.174 40.3992 143.314 40.7967 143.314 41.2486C143.314 41.8019 143.073 42.1759 142.488 42.1759V42.1681Z" fill="#E63312"/>
<path d="M92.5161 35.1316H90.2173V44.0773H92.5161V35.1316Z" fill="#E63312"/>
<path d="M77.6938 40.3447H79.9224V38.5213H77.6938V37.0173H80.4211L80.5926 35.1316H75.395V44.0773H80.7562V42.1681H77.6938V40.3447Z" fill="#E63312"/>
<path d="M160.387 35.1316H158.088V44.0773H160.387V35.1316Z" fill="#E63312"/>
<path d="M97.3621 35.1316H94.5179L92.5386 39.2693L94.7828 44.0773H97.8141L95.0166 39.2304L97.3621 35.1316Z" fill="#E63312"/>
<path d="M135.226 41.0149C135.226 41.8876 134.993 42.3474 134.174 42.3474C133.356 42.3474 133.107 41.7941 133.107 40.9759V35.1393H130.8V41.2252C130.8 42.4175 130.894 42.6513 131.237 43.1266C131.759 43.8669 132.748 44.2409 134.159 44.2409C135.928 44.2409 136.917 43.5474 137.299 42.8071C137.478 42.4487 137.517 42.098 137.517 41.3343V35.1471H135.219V41.0226L135.226 41.0149Z" fill="#E63312"/>
<path d="M149.751 35.1316H147.429V44.0773H152.354L152.79 42.1837H149.751V35.1316Z" fill="#E63312"/>
<path d="M208.513 19.5779H206.129L203.253 28.5236H205.669L206.16 26.8014H208.28L208.739 28.5236H211.225L208.521 19.5779H208.513ZM206.651 25.0326L207.009 23.5676C207.142 22.9909 207.228 22.5312 207.259 22.1961C207.274 22.5312 207.337 23.0299 207.422 23.4039L207.812 25.0326H206.651Z" fill="#E63312"/>
<path d="M67.6343 26.9573V28.5236H73.7436L73.9228 26.6144H71.3513C71.0162 26.6144 70.5798 26.6378 70.3772 26.6924C70.4707 26.6144 70.6733 26.4118 70.7902 26.217L73.8682 21.1831V19.5779H68.0707L67.907 21.4636H70.2292C70.5253 21.4636 70.9227 21.448 71.1175 21.4013C70.9928 21.5182 70.7746 21.8766 70.6032 22.1571L67.6421 26.9573H67.6343Z" fill="#E63312"/>
<path d="M166.7 26.7858C165.788 26.7858 164.83 26.443 164.183 26.0689L163.373 27.8612C164.269 28.3365 165.321 28.6716 166.669 28.6716C168.991 28.6716 170.581 27.5417 170.581 25.3988C170.581 23.5987 169.194 23.1624 168.235 22.9208L167.323 22.687C166.653 22.5234 166.451 22.2273 166.451 21.9311C166.451 21.5727 166.77 21.2844 167.362 21.2844C167.955 21.2844 168.773 21.5182 169.373 21.9156L170.479 20.2869C169.684 19.7337 168.531 19.4142 167.284 19.4142C165.282 19.4142 163.817 20.5908 163.817 22.3675C163.817 23.9026 164.697 24.6273 165.999 24.9624L167.051 25.2351C167.666 25.391 167.947 25.5702 167.947 25.9676C167.947 26.4586 167.588 26.7858 166.692 26.7858H166.7Z" fill="#E63312"/>
<path d="M169.373 17.505L168.664 16.3128L166.934 17.2167L165.149 16.3128L164.495 17.505L166.973 19.2428L169.373 17.505Z" fill="#E63312"/>
<path d="M177.164 17.7154L176.517 16.5232L174.787 17.4193L173.003 16.5232L172.286 17.7154L174.709 19.2428L177.164 17.7154Z" fill="#E63312"/>
<path d="M161.899 19.5779H159.553V28.5236H161.899V19.5779Z" fill="#E63312"/>
<path d="M85.853 24.978C86.3517 24.978 86.5621 25.0949 86.905 26.0144L87.84 28.5158H90.4973C90.2012 27.8456 89.4453 26.1936 89.1492 25.5858C88.931 25.1261 88.5569 24.7131 88.253 24.6273C89.305 24.4481 90.1076 23.6689 90.1076 22.126C90.1076 20.5831 89.2661 19.57 86.6322 19.57H83.5542V28.5158H85.8452V24.978H85.853ZM85.853 21.4636H86.4997C87.2166 21.4636 87.5673 21.6662 87.5673 22.313C87.5673 22.913 87.2946 23.287 86.5153 23.287H85.8608V21.4636H85.853Z" fill="#E63312"/>
<path d="M191.097 23.1935C190.933 23.6533 190.762 24.2221 190.622 24.939H190.606C190.466 24.1442 190.349 23.8091 190.185 23.2559L189.055 19.57H186.523L189.57 28.5158H191.635L194.791 19.57H192.367L191.097 23.1857V23.1935Z" fill="#E63312"/>
<path d="M200.129 22.3442C200.129 22.9364 200.144 23.8169 200.206 24.3468C199.988 23.7468 199.716 23.1156 199.458 22.6403L197.822 19.57H195.617V28.5158H197.799V25.9988C197.799 24.8923 197.721 24.0741 197.666 23.7234C197.861 24.3001 198.126 24.939 198.36 25.4066L199.941 28.508H202.303V19.5623H200.121V22.3364L200.129 22.3442Z" fill="#E63312"/>
<path d="M133.706 19.5779H131.361V28.5236H133.706V19.5779Z" fill="#E63312"/>
<path d="M133.543 16.7258L130.746 18.2765L131.455 19.4064L134.416 18.1752L133.543 16.7258Z" fill="#E63312"/>
<path d="M124.931 26.0066C124.931 24.9001 124.853 24.0819 124.799 23.7312C124.994 24.3078 125.259 24.9468 125.492 25.4144L127.074 28.5158H129.435V19.57H127.254V22.3441C127.254 22.9364 127.269 23.8169 127.331 24.3468C127.113 23.7468 126.841 23.1156 126.583 22.6403L124.947 19.57H122.742V28.5158H124.924V25.9988L124.931 26.0066Z" fill="#E63312"/>
<path d="M115.167 21.4714H117.24V28.5158H119.562V21.4714H121.643L121.916 19.5779H115.167V21.4714Z" fill="#E63312"/>
<path d="M140.749 25.3365H141.466C144.389 25.3365 144.973 23.6845 144.973 22.3598C144.973 20.3181 143.64 19.5779 141.365 19.5779H138.451V28.5236H140.749V25.3443V25.3365ZM140.749 21.4636H141.544C142.098 21.4636 142.472 21.6039 142.472 22.352C142.472 23.326 142.137 23.5208 141.412 23.5208H140.749V21.4636Z" fill="#E63312"/>
<path d="M149.915 19.422C147.554 19.422 145.808 21.0896 145.808 24.2689C145.808 26.9495 147.242 28.6716 149.837 28.6716C153.032 28.6716 153.842 26.2715 153.842 23.7078C153.842 21.7441 152.954 19.422 149.915 19.422ZM149.876 26.8638C148.925 26.8638 148.372 26.3027 148.372 24.0117C148.372 22.3052 148.808 21.2142 149.852 21.2142C150.897 21.2142 151.278 21.7519 151.278 23.9884C151.278 26.2248 150.85 26.8638 149.876 26.8638Z" fill="#E63312"/>
<path d="M155.345 26.9417C155.345 28.5547 155.267 29.069 154.168 29.8249L155.22 30.9548C156.475 30.5029 157.698 29.4665 157.698 27.9158V19.5779H155.353V26.9417H155.345Z" fill="#E63312"/>
<path d="M171.421 21.4714H173.502V28.5158H175.824V21.4714H177.905L178.17 19.5779H171.421V21.4714Z" fill="#E63312"/>
<path d="M80.6167 20.1233C79.8998 19.6246 79.105 19.57 78.4816 19.57H75.3257V28.5158H78.5673C79.7752 28.5158 80.4921 28.1184 81.0531 27.4404C81.8636 26.4819 82.0661 25.2741 82.0661 23.8871C82.0661 22.0636 81.6142 20.8324 80.6012 20.1311L80.6167 20.1233ZM78.3959 26.6066H77.6245V21.4558H78.3336C79.0271 21.4558 79.557 21.7285 79.557 23.8013C79.557 26.2793 79.0427 26.5988 78.4037 26.5988L78.3959 26.6066Z" fill="#E63312"/>
<path d="M114.584 23.7078C114.584 21.7441 113.696 19.422 110.657 19.422C108.296 19.422 106.55 21.0896 106.55 24.2689C106.55 26.9495 107.984 28.6716 110.579 28.6716C113.774 28.6716 114.584 26.2715 114.584 23.7078ZM109.114 24.0195C109.114 22.313 109.55 21.222 110.595 21.222C111.584 21.222 112.013 21.7597 112.013 23.9961C112.013 26.2326 111.592 26.8716 110.618 26.8716C109.644 26.8716 109.114 26.3105 109.114 24.0195Z" fill="#E63312"/>
<path d="M93.6064 19.5779L90.731 28.5236H93.1466L93.6375 26.8014H95.7571L96.2168 28.5236H98.7026L95.9986 19.5779H93.6142H93.6064ZM94.1363 25.0326L94.4947 23.5676C94.6272 22.9909 94.7129 22.5312 94.7363 22.1961C94.7519 22.5312 94.8142 23.0299 94.9077 23.4039L95.2895 25.0326H94.1363Z" fill="#E63312"/>
<path d="M102.661 23.1935C102.497 23.6533 102.326 24.2221 102.185 24.939H102.17C102.029 24.1442 101.913 23.8091 101.749 23.2559L100.619 19.57H98.0864L101.125 28.5158H103.19L106.346 19.57H103.923L102.653 23.1857L102.661 23.1935Z" fill="#E63312"/>
<path d="M182.41 19.422C180.049 19.422 178.303 21.0896 178.303 24.2689C178.303 26.9495 179.737 28.6716 182.332 28.6716C185.527 28.6716 186.337 26.2715 186.337 23.7078C186.337 21.7441 185.449 19.422 182.41 19.422ZM182.371 26.8638C181.42 26.8638 180.867 26.3027 180.867 24.0117C180.867 22.3052 181.303 21.2142 182.348 21.2142C183.392 21.2142 183.774 21.7519 183.774 23.9884C183.774 26.2248 183.345 26.8638 182.371 26.8638Z" fill="#E63312"/>
<path d="M118.106 13.1101C119.415 13.1101 120.326 12.7205 120.895 12.1984L119.906 10.6321C119.407 11.0841 118.939 11.2243 118.371 11.2243C117.895 11.2243 117.521 11.0061 117.225 10.6633C116.851 10.2269 116.789 9.52558 116.789 8.04502C116.789 6.99304 116.929 6.53329 117.365 6.08133C117.599 5.83976 117.965 5.73066 118.371 5.73066C118.854 5.73066 119.306 5.8943 119.703 6.206L120.677 4.51504C120.264 4.11763 119.306 3.86047 118.394 3.86047C116.828 3.86047 115.534 4.49167 114.778 5.88651C114.342 6.69693 114.163 7.53851 114.163 8.66062C114.163 9.93079 114.482 11.0997 115.191 11.8789C116.009 12.775 117.015 13.1101 118.113 13.1101H118.106Z" fill="#E63312"/>
<path d="M71.6235 7.63202C71.452 8.09177 71.2884 8.66062 71.1481 9.37752H71.1325C70.9923 8.58269 70.8754 8.24762 70.704 7.69436L69.574 4.00853H67.0415L70.0806 12.9543H72.1456L75.3015 4.00853H72.8781L71.6079 7.62422L71.6235 7.63202Z" fill="#E63312"/>
<path d="M81.7623 1.94353L81.0532 0.759079L79.3233 1.65521L77.5388 0.759079L76.8843 1.94353L79.3623 3.68125L81.7623 1.94353Z" fill="#E63312"/>
<path d="M135.522 2.61367L134.642 1.16428L131.852 2.71497L132.553 3.84488L135.522 2.61367Z" fill="#E63312"/>
<path d="M132.538 4.01633L129.663 12.9621H132.078L132.569 11.2399H134.689L135.148 12.9621H137.634L134.93 4.01633H132.538ZM133.068 9.47104L133.426 8.00606C133.543 7.445 133.645 6.99304 133.668 6.65797C133.683 6.99304 133.746 7.47617 133.832 7.84241L134.213 9.47104H133.06H133.068Z" fill="#E63312"/>
<path d="M94.494 13.1101C97.6889 13.1101 98.4993 10.71 98.4993 8.14632C98.4993 6.18262 97.611 3.86047 94.5719 3.86047C92.2108 3.86047 90.4653 5.52806 90.4653 8.70738C90.4653 11.388 91.8991 13.1101 94.494 13.1101ZM94.5096 5.65274C95.4992 5.65274 95.9356 6.19042 95.9356 8.42685C95.9356 10.6633 95.5148 11.3023 94.533 11.3023C93.5511 11.3023 93.029 10.7412 93.029 8.45022C93.029 6.74368 93.4654 5.65274 94.5096 5.65274Z" fill="#E63312"/>
<path d="M89.7562 11.0451H86.686V9.22168H88.9224V7.39825H86.686V5.9021H89.4211L89.5848 4.01633H84.395V12.9543H89.7562V11.0451Z" fill="#E63312"/>
<path d="M79.0896 11.2243C78.1779 11.2243 77.2194 10.8737 76.5726 10.5074L75.7622 12.2997C76.6583 12.775 77.7103 13.1101 79.0584 13.1101C81.3806 13.1101 82.9702 11.9802 82.9702 9.83728C82.9702 8.03722 81.5832 7.60084 80.6247 7.35928L79.713 7.1255C79.0428 6.96186 78.8402 6.66575 78.8402 6.36963C78.8402 6.01118 79.1597 5.72286 79.7519 5.72286C80.3442 5.72286 81.1624 5.95664 81.7624 6.35405L82.8611 4.72543C82.0663 4.17216 80.913 3.85268 79.6662 3.85268C77.6636 3.85268 76.1986 5.02933 76.1986 6.80601C76.1986 8.34112 77.0869 9.06582 78.3805 9.40089L79.4325 9.67363C80.0481 9.82948 80.3286 10.0087 80.3286 10.4061C80.3286 10.897 79.9701 11.2243 79.074 11.2243H79.0896Z" fill="#E63312"/>
<path d="M113.447 11.0451H110.376V9.22168H112.613V7.39825H110.376V5.9021H113.112L113.275 4.01633H108.078V12.9543H113.447V11.0451Z" fill="#E63312"/>
<path d="M124.16 10.4451C124.16 9.33856 124.082 8.52035 124.027 8.16969C124.222 8.74633 124.487 9.38532 124.721 9.85286L126.303 12.9543H128.664V4.00853H126.482V6.78264C126.482 7.37486 126.498 8.25541 126.56 8.7853C126.342 8.18528 126.069 7.55409 125.812 7.07876L124.183 4.00853H121.978V12.9543H124.16V10.4373V10.4451Z" fill="#E63312"/>
<path d="M106.605 10.2035C106.605 9.12817 105.833 8.41906 104.96 8.18528C105.95 7.86579 106.285 7.01642 106.285 6.206C106.285 4.5618 105.233 4.01633 103.939 4.01633H99.9731V12.9621H103.604C105.646 12.9621 106.605 11.8321 106.605 10.2035ZM102.264 5.9021H103.152C103.69 5.9021 103.924 6.15145 103.924 6.61121C103.924 7.07096 103.729 7.46059 103.176 7.46059H102.264V5.9021ZM102.264 11.0529V9.27623H103.113C103.823 9.27623 103.963 9.67364 103.963 10.1256C103.963 10.6789 103.714 11.0529 103.137 11.0529H102.264Z" fill="#E63312"/>
<path d="M33.0514 30.9392H25.4616L21.729 37.5238L25.3213 44.2331H32.9268L29.3656 37.6018L33.0514 30.9392Z" fill="#E63312"/>
<path d="M35.8328 30.9392L32.7859 36.168H45.2227L29.5521 10.3438L9.74365 44.2331H15.9698L29.5988 20.7857L35.8328 30.9392Z" fill="#E63312"/>
<path d="M36.0201 6.70471C35.5915 6.15924 34.1655 3.04227 29.5524 3.04227C24.9393 3.04227 23.3184 6.27613 22.773 7.1333C22.2041 7.99047 0.774902 44.2098 0.774902 44.2098L6.88418 44.2331C6.88418 44.2331 26.2406 11.4581 27.4562 9.58013C28.6952 7.67877 30.7135 8.34892 31.3369 9.32298C31.9291 10.3204 46.1971 33.5341 47.4361 35.529C47.7166 36.0043 47.8647 36.8849 47.3659 37.8122C46.8906 38.7161 46.0334 38.9576 45.4178 38.9576H32.7395L35.8331 44.2331H45.9633C46.9374 44.2331 49.8439 43.8279 52.0726 40.9759C54.7843 37.5005 52.3063 33.2692 51.831 32.56C51.3323 31.8198 36.4176 7.25798 36.0123 6.71251L36.0201 6.70471Z" fill="#E63312"/>
</svg>
