<svg width="163" height="77" viewBox="0 0 163 77" fill="none" xmlns="http://www.w3.org/2000/svg">
<path d="M60.2644 37.0346C59.2791 38.0199 58.5371 38.7619 58.1692 39.1298C57.8013 38.7619 57.0654 38.0199 56.0802 37.0346H50.8484L50.8359 37.0471L55.201 41.4183H61.1498L65.5149 37.0471L65.5024 37.0346H60.2644Z" fill="white"/>
<path d="M4.69809 4.44663H8.09033L12.3306 0.206323V0.187614H5.26554L0.445312 5.00161V12.0729H0.464021L4.69809 7.83263V4.44039V4.44663Z" fill="white"/>
<path d="M77.0272 64.9146L72.7744 69.1736C72.7744 70.745 72.7744 71.9298 72.7744 72.5097H69.4383L65.1855 76.7688H72.2195L77.0335 71.9548V64.9146H77.0272Z" fill="white"/>
<path d="M4.69809 72.516C4.69809 71.9298 4.69809 70.745 4.69809 69.1612L0.445312 64.9021V71.9548L5.26554 76.7688H12.3244L8.06539 72.516C6.48151 72.516 5.29672 72.516 4.70433 72.516H4.69809Z" fill="white"/>
<path d="M26.098 58.074H16.9627L25.78 47.8349V43.8939H11.6124V47.7414H19.8872L10.9639 58.2486V61.9152H26.098V58.074Z" fill="white"/>
<path d="M29.8389 43.8939V68.9928H34.5593V59.6579C35.0519 60.4124 35.557 60.9736 36.0684 61.3665C37.01 62.0774 38.1948 62.4203 39.6165 62.4203C41.8427 62.4203 43.6697 61.591 45.0853 59.9323C46.5008 58.2736 47.2116 55.8603 47.2116 52.6926C47.2116 49.5248 46.4883 47.4109 45.0416 45.852C43.5949 44.3055 41.8302 43.5323 39.7412 43.5323C38.307 43.5323 37.0723 43.9314 36.0372 44.7295C35.4697 45.1847 34.9335 45.7958 34.4346 46.5878V43.8939H29.8513H29.8389ZM34.8649 50.086C35.4884 48.4585 36.6483 47.6479 38.3257 47.6479C39.7288 47.6479 40.7389 48.1904 41.3625 49.2567C41.9861 50.3292 42.2979 51.5639 42.2979 52.9545C42.2979 54.6381 41.9612 55.9913 41.2877 57.0077C40.6142 58.0241 39.629 58.5292 38.3444 58.5292C37.4589 58.5292 36.6857 58.286 36.0372 57.7872C34.9335 56.9391 34.3785 55.4612 34.3785 53.366C34.3785 52.044 34.5406 50.9466 34.8649 50.0923V50.086Z" fill="white"/>
<path d="M60.775 51.1274C57.9689 50.5101 56.3414 50.0798 55.8862 49.8241C55.4247 49.5872 55.194 49.1881 55.194 48.6518C55.194 48.2215 55.4123 47.8412 55.8425 47.5231C56.2728 47.1989 56.9899 47.0368 58.0063 47.0368C59.2348 47.0368 60.1078 47.361 60.6191 48.0033C60.8935 48.3587 61.0618 48.8389 61.1304 49.4438H65.8509C65.6451 47.2363 64.8282 45.6836 63.4189 44.7794C62.0034 43.8752 60.1764 43.4325 57.9377 43.4325C55.5744 43.4325 53.7411 44.0249 52.4378 45.2159C51.1345 46.407 50.486 47.8349 50.486 49.4936C50.486 50.9029 50.8976 51.9817 51.7332 52.7238C52.5688 53.4845 54.003 54.1143 56.0358 54.6194C58.8606 55.2866 60.5006 55.7543 60.9558 56.0287C61.4173 56.3031 61.648 56.7084 61.648 57.2322C61.648 57.756 61.3736 58.1925 60.8249 58.4731C60.2761 58.7475 59.5341 58.8847 58.605 58.8847C57.0211 58.8847 55.9361 58.5729 55.3437 57.9431C55.0132 57.5939 54.7949 57.0015 54.6951 56.1596H49.9248C49.9248 58.0054 50.5983 59.5207 51.9452 60.7117C53.2983 61.9028 55.3873 62.4952 58.2121 62.4952C61.0369 62.4952 63.0386 61.9339 64.3668 60.8053C65.6888 59.6828 66.356 58.2362 66.356 56.459C66.356 55.112 65.8945 53.9896 64.9779 53.0917C64.0425 52.1999 62.6457 51.539 60.775 51.1025V51.1274Z" fill="white"/>
<path d="M65.5835 72.516H54.5275C40.3225 72.516 33.0205 72.516 23.6482 72.516H11.9062L16.1653 76.775H61.3245L65.5835 72.5222V72.516Z" fill="white"/>
<path d="M72.7728 23.8024C72.7728 36.8538 72.7728 44.1808 72.7728 53.7838V65.3262L77.0256 61.0672V28.105V15.9079L72.7666 11.6489V23.7961L72.7728 23.8024Z" fill="white"/>
<path d="M4.69749 65.3012V64.8834V53.154V22.7236V12.0729V11.7986V11.6863L0.438477 15.9453V22.8545V48.8513V61.0484L4.69749 65.3012Z" fill="white"/>
<path d="M11.9375 4.4404H20.1188C36.5811 4.4404 44.0827 4.4404 55.8558 4.4404H65.5586L61.2996 0.175148H16.1965L11.9437 4.43416L11.9375 4.4404Z" fill="white"/>
<path d="M87.6519 48.2402H90.5765V49.4437H85.75V48.3026L88.6122 45.0413H85.9495V43.869H90.4705V45.0725L87.6519 48.2402Z" fill="white"/>
<path d="M94.5546 47.442C94.5546 48.1217 93.8936 48.5458 93.2451 48.5458C92.9645 48.5458 92.5654 48.3899 92.5654 47.8723C92.5654 47.2612 93.0144 47.1303 93.5631 47.0305C94.1742 46.9369 94.4112 46.8434 94.5608 46.7249V47.4358L94.5546 47.442ZM95.9888 45.3344C95.9888 43.9625 94.5546 43.7193 93.7626 43.7193C92.6215 43.7193 91.4367 43.9625 91.2683 45.6711H92.6839C92.7275 45.3468 92.8522 44.8916 93.588 44.8916C93.9684 44.8916 94.5546 44.9228 94.5546 45.5401C94.5546 45.8519 94.274 45.9517 94.0433 45.9829L92.7213 46.1824C91.7859 46.3196 91.0938 46.8746 91.0938 47.9658C91.0938 49.1195 91.9543 49.5934 92.7961 49.5934C93.7938 49.5934 94.2677 49.1319 94.5982 48.789C94.6294 49.1008 94.6481 49.1881 94.7354 49.45H96.3193V49.2317C96.1385 49.1693 95.995 49.0197 95.995 48.3587V45.3406L95.9888 45.3344Z" fill="white"/>
<path d="M105.286 49.45H103.821V46.064C103.821 45.2346 103.453 44.9602 103.023 44.9602C102.287 44.9602 102.025 45.4404 102.025 46.1014V49.45H100.553V46.0951C100.553 45.6212 100.553 44.9602 99.674 44.9602C98.9819 44.9602 98.7636 45.4404 98.7636 46.0515V49.45H97.292V43.869H98.695V44.6858H98.7137C98.9008 44.3179 99.3124 43.7193 100.298 43.7193C101.108 43.7193 101.47 44.0124 101.85 44.611C102.037 44.3367 102.449 43.7193 103.341 43.7193C104.432 43.7193 105.28 44.3616 105.28 45.5838V49.4437L105.286 49.45Z" fill="white"/>
<path d="M107.694 46.1014C107.775 45.3655 108.143 44.929 108.835 44.929C109.309 44.929 109.883 45.2034 109.97 46.1014H107.694ZM109.908 47.81C109.789 48.209 109.372 48.4211 108.966 48.4211C107.782 48.4211 107.694 47.4795 107.657 47.0554H111.486V46.7935C111.486 44.2431 109.964 43.7193 108.867 43.7193C106.422 43.7193 106.191 45.8706 106.191 46.5441C106.191 48.8388 107.395 49.5996 108.973 49.5996C109.927 49.5996 111.037 49.1569 111.429 47.8162H109.92L109.908 47.81ZM110.631 41.5805H109.446L108.773 42.441L108.112 41.5805H106.927L108.124 43.1144H109.434L110.631 41.5805Z" fill="white"/>
<path d="M115.619 45.5651C115.557 45.2097 115.432 44.8293 114.634 44.8293C113.836 44.8293 113.73 45.1348 113.73 45.3718C113.73 46.251 117.222 45.615 117.222 47.6665C117.222 49.2941 115.65 49.5872 114.777 49.5872C113.505 49.5872 112.133 49.1444 112.09 47.6541H113.599C113.599 48.128 113.892 48.471 114.815 48.471C115.569 48.471 115.75 48.103 115.75 47.891C115.75 46.9557 112.289 47.6603 112.289 45.5713C112.289 44.7545 112.807 43.7069 114.547 43.7069C115.638 43.7069 116.941 43.9812 117.053 45.5526H115.619V45.5651Z" fill="white"/>
<path d="M119.941 43.869H120.851V44.9166H119.941V47.9472C119.941 48.2714 119.953 48.3961 120.552 48.3961C120.645 48.3961 120.751 48.3837 120.857 48.3774V49.4874C120.627 49.4999 120.396 49.5061 120.165 49.5061H119.978C118.706 49.5061 118.475 49.0259 118.475 48.3026V44.9166H117.721V43.869H118.475V42.3599H119.941V43.869Z" fill="white"/>
<path d="M126.83 49.45H125.365V46.064C125.365 45.6524 125.34 44.9602 124.411 44.9602C123.762 44.9602 123.257 45.403 123.257 46.251V49.45H121.792V43.869H123.195V44.6858H123.214C123.413 44.3491 123.831 43.7193 124.891 43.7193C125.951 43.7193 126.83 44.3616 126.83 45.5838V49.4437V49.45Z" fill="white"/>
<path d="M131.277 47.442C131.277 48.1217 130.616 48.5458 129.967 48.5458C129.687 48.5458 129.288 48.3899 129.288 47.8723C129.288 47.2612 129.737 47.1303 130.285 47.0305C130.896 46.9369 131.133 46.8434 131.283 46.7249V47.4358L131.277 47.442ZM132.717 45.3344C132.717 43.9625 131.277 43.7193 130.491 43.7193C129.35 43.7193 128.165 43.9625 127.997 45.6711H129.412C129.456 45.3468 129.581 44.8916 130.317 44.8916C130.697 44.8916 131.283 44.9228 131.283 45.5401C131.283 45.8519 131.003 45.9517 130.772 45.9829L129.45 46.1824C128.514 46.3196 127.822 46.8746 127.822 47.9658C127.822 49.1195 128.683 49.5934 129.525 49.5934C130.522 49.5934 130.996 49.1319 131.327 48.789C131.358 49.1008 131.377 49.1881 131.464 49.45H133.048V49.2317C132.867 49.1693 132.724 49.0197 132.724 48.3587V45.3406L132.717 45.3344Z" fill="white"/>
<path d="M139.072 49.45H137.601V46.064C137.601 45.6524 137.582 44.9602 136.647 44.9602C135.998 44.9602 135.493 45.403 135.493 46.251V49.45H134.021V43.869H135.425V44.6858H135.443C135.643 44.3491 136.061 43.7193 137.121 43.7193C138.181 43.7193 139.06 44.3616 139.06 45.5838V49.4437L139.072 49.45Z" fill="white"/>
<path d="M141.504 46.1014C141.585 45.3655 141.953 44.929 142.645 44.929C143.119 44.929 143.693 45.2034 143.78 46.1014H141.504ZM143.717 47.81C143.605 48.209 143.181 48.4211 142.776 48.4211C141.591 48.4211 141.504 47.4795 141.466 47.0554H145.295V46.7935C145.295 44.2431 143.774 43.7193 142.676 43.7193C140.232 43.7193 140.001 45.8706 140.001 46.5441C140.001 48.8389 141.204 49.5996 142.782 49.5996C143.736 49.5996 144.846 49.1569 145.239 47.8162H143.73L143.717 47.81Z" fill="white"/>
<path d="M151.069 47.4109C151.019 47.9908 150.563 49.5934 148.518 49.5934C146.473 49.5934 145.937 47.9908 145.937 46.8122C145.937 45.0101 146.722 43.7193 148.612 43.7193C149.491 43.7193 150.944 44.1184 151.075 45.8582H149.584C149.522 45.4903 149.291 44.9166 148.605 44.954C147.683 44.954 147.439 45.8769 147.439 46.569C147.439 47.1801 147.458 48.3836 148.574 48.3836C149.316 48.3836 149.572 47.6728 149.572 47.4109H151.062H151.069Z" fill="white"/>
<path d="M153.401 49.45H151.93V41.9172H153.401V45.9891L155.247 43.869H157.049L155.079 46.0328L157.105 49.45H155.341L154.006 47.0554L153.395 47.6852V49.45H153.401Z" fill="white"/>
<path d="M160.81 47.442C160.81 48.1217 160.149 48.5458 159.5 48.5458C159.22 48.5458 158.821 48.3899 158.821 47.8723C158.821 47.2612 159.27 47.1303 159.818 47.0305C160.429 46.9369 160.666 46.8434 160.816 46.7249V47.4358L160.81 47.442ZM162.244 45.3344C162.244 43.9625 160.81 43.7193 160.018 43.7193C158.877 43.7193 157.692 43.9625 157.524 45.6711H158.939C158.983 45.3468 159.107 44.8916 159.843 44.8916C160.217 44.8916 160.81 44.9228 160.81 45.5401C160.81 45.8519 160.529 45.9517 160.292 45.9829L158.97 46.1824C158.035 46.3196 157.343 46.8746 157.343 47.9658C157.343 49.1195 158.203 49.5934 159.039 49.5934C160.037 49.5934 160.511 49.1319 160.841 48.789C160.872 49.1008 160.891 49.1881 160.978 49.45H162.562V49.2317C162.381 49.1693 162.238 49.0197 162.238 48.3587V45.3406L162.244 45.3344ZM161.864 41.5805H160.249L159.263 43.1144H160.323L161.864 41.5805Z" fill="white"/>
<path d="M87.5954 60.3937C87.5954 59.502 87.8386 58.5978 88.8426 58.5978C89.7779 58.5978 90.0897 59.4271 90.0897 60.3064C90.0897 60.9674 89.8278 61.9963 88.8862 61.9963C87.9446 61.9963 87.5954 61.223 87.5954 60.3937ZM87.5954 57.4753H86.1924V65.2264H87.6578V62.3392H87.6765C87.8573 62.6448 88.2252 63.1998 89.2479 63.1998C90.9066 63.1998 91.5988 61.7344 91.5988 60.2004C91.5988 58.2673 90.5075 57.3257 89.2791 57.3257C88.2938 57.3257 87.8823 57.8433 87.6141 58.2798H87.5954V57.4753Z" fill="white"/>
<path d="M96.3445 60.269C96.3445 60.9799 96.1325 61.9713 95.0038 61.9713C93.8751 61.9713 93.6631 60.9861 93.6631 60.269C93.6631 59.5519 93.8751 58.5666 95.0038 58.5666C96.1325 58.5666 96.3445 59.5519 96.3445 60.269ZM97.8535 60.269C97.8535 58.2548 96.5004 57.3319 94.9976 57.3319C93.4948 57.3319 92.1416 58.2548 92.1416 60.269C92.1416 62.2831 93.4948 63.206 94.9976 63.206C96.5004 63.206 97.8535 62.2831 97.8535 60.269Z" fill="white"/>
<path d="M100.391 63.6487C100.391 65.1079 99.7179 65.3075 98.5954 65.3075H98.2275V64.1351H98.4894C98.6391 64.1351 98.9197 64.1351 98.9197 63.6238V57.4878H100.385V63.655L100.391 63.6487ZM100.391 56.8206H98.9259V55.455H100.391V56.8206Z" fill="white"/>
<path d="M103.36 57.4816V63.0626H101.895V57.4816H103.36ZM103.36 56.8206H101.895V55.455H103.36V56.8206Z" fill="white"/>
<path d="M108.03 59.1777C107.968 58.8223 107.843 58.4419 107.045 58.4419C106.247 58.4419 106.141 58.7475 106.141 58.9844C106.141 59.8636 109.633 59.2276 109.633 61.2792C109.633 62.9067 108.062 63.1998 107.189 63.1998C105.923 63.1998 104.545 62.757 104.501 61.2667H106.01C106.01 61.7406 106.303 62.0836 107.226 62.0836C107.981 62.0836 108.161 61.7157 108.161 61.5099C108.161 60.5745 104.701 61.2792 104.701 59.1902C104.701 58.3733 105.212 57.3195 106.958 57.3195C108.049 57.3195 109.352 57.5938 109.465 59.1652H108.03V59.1777ZM107.675 56.7208H106.365L105.168 55.1868H106.353L107.014 56.0474L107.687 55.1868H108.872L107.675 56.7208Z" fill="white"/>
<path d="M112.351 57.4816H113.262V58.5292H112.351V61.5598C112.351 61.884 112.364 62.0087 112.962 62.0087C113.056 62.0087 113.162 61.9963 113.268 61.99V63.1C113.037 63.1125 112.807 63.1187 112.576 63.1187H112.389C111.123 63.1187 110.892 62.6385 110.892 61.9152V58.5292H110.138V57.4816H110.892V55.9725H112.358V57.4816H112.351ZM112.906 55.5298H113.86V56.222C113.86 57.095 113.312 57.3132 112.938 57.3943V57.0139C113.355 56.8767 113.387 56.646 113.399 56.3966H112.906V55.5236V55.5298Z" fill="white"/>
<path d="M118.076 60.269C118.076 60.9799 117.864 61.9713 116.735 61.9713C115.607 61.9713 115.395 60.9861 115.395 60.269C115.395 59.5519 115.607 58.5666 116.735 58.5666C117.864 58.5666 118.076 59.5519 118.076 60.269ZM119.585 60.269C119.585 58.2548 118.232 57.3319 116.729 57.3319C115.226 57.3319 113.873 58.2548 113.873 60.269C113.873 62.2831 115.226 63.206 116.729 63.206C118.232 63.206 119.585 62.2831 119.585 60.269Z" fill="white"/>
<path d="M123.401 63.0626H121.861L119.859 57.4816H121.493L122.647 61.591H122.665L123.85 57.4816H125.415L123.401 63.0626Z" fill="white"/>
<path d="M131.283 63.0626H129.818V59.6766C129.818 59.265 129.799 58.5729 128.864 58.5729C128.215 58.5729 127.71 59.0156 127.71 59.8637V63.0626H126.238V57.4816H127.641V58.2985H127.66C127.86 57.9618 128.277 57.3319 129.337 57.3319C130.398 57.3319 131.277 57.9742 131.277 59.2027V63.0626H131.283Z" fill="white"/>
<path d="M135.729 61.0547C135.729 61.7344 135.068 62.1584 134.42 62.1584C134.139 62.1584 133.74 62.0025 133.74 61.485C133.74 60.8739 134.189 60.7429 134.738 60.6431C135.349 60.5496 135.586 60.4561 135.736 60.3376V61.0485L135.729 61.0547ZM137.164 58.947C137.164 57.5751 135.729 57.3319 134.944 57.3319C133.803 57.3319 132.612 57.5751 132.449 59.2837H133.865C133.909 58.9595 134.033 58.5105 134.769 58.5105C135.149 58.5105 135.736 58.5417 135.736 59.159C135.736 59.4708 135.455 59.5706 135.218 59.6018L133.896 59.8013C132.961 59.9385 132.269 60.4935 132.269 61.5847C132.269 62.7383 133.129 63.2123 133.965 63.2123C134.962 63.2123 135.436 62.7508 135.767 62.4016C135.798 62.7196 135.817 62.8007 135.904 63.0626H137.488V62.8443C137.307 62.782 137.164 62.6323 137.164 61.9713V58.9532V58.947Z" fill="white"/>
<path d="M89.379 72.7903C89.3167 72.4349 89.192 72.0545 88.3938 72.0545C87.5956 72.0545 87.4896 72.3601 87.4896 72.597C87.4896 73.4762 90.9816 72.8402 90.9816 74.8918C90.9816 76.5193 89.4102 76.8124 88.5372 76.8124C87.2651 76.8124 85.8933 76.3696 85.8496 74.8793H87.3587C87.3587 75.3532 87.6517 75.6962 88.5746 75.6962C89.3292 75.6962 89.51 75.3283 89.51 75.1163C89.51 74.1809 86.0491 74.8855 86.0491 72.7966C86.0491 71.9797 86.5667 70.9321 88.3065 70.9321C89.3977 70.9321 90.6948 71.2064 90.8133 72.7779H89.379V72.7903ZM89.0236 70.3334H87.7141L86.5168 68.7994H87.7016L88.3626 69.66L89.0361 68.7994H90.2209L89.0236 70.3334Z" fill="white"/>
<path d="M93.5699 76.6752H92.1045V69.1424H93.5699V73.2144L95.4157 71.0942H97.2178L95.2473 73.258L97.2739 76.6752H95.5092L94.1748 74.2807L93.5637 74.9105V76.6752H93.5699Z" fill="white"/>
<path d="M101.601 73.8816C101.601 74.5925 101.389 75.584 100.26 75.584C99.1316 75.584 98.9196 74.5987 98.9196 73.8816C98.9196 73.1645 99.1316 72.1855 100.26 72.1855C101.389 72.1855 101.601 73.1707 101.601 73.8816ZM103.11 73.8816C103.11 71.8675 101.757 70.9446 100.26 70.9446C98.7637 70.9446 97.4043 71.8675 97.4043 73.8816C97.4043 75.8957 98.7575 76.8186 100.26 76.8186C101.763 76.8186 103.11 75.8957 103.11 73.8816Z" fill="white"/>
<path d="M105.33 73.9252C105.33 73.046 105.642 72.2166 106.577 72.2166C107.581 72.2166 107.837 73.1208 107.837 74.0125C107.837 74.8419 107.469 75.6151 106.534 75.6151C105.598 75.6151 105.33 74.5862 105.33 73.9252ZM109.24 69.1424H107.775V71.8176H107.756C107.525 71.4621 107.083 70.9446 106.141 70.9446C104.913 70.9446 103.821 71.8862 103.821 73.8192C103.821 75.3532 104.513 76.8186 106.172 76.8186C106.783 76.8186 107.432 76.6004 107.787 75.9706H107.806V76.6752H109.246V69.1424H109.24Z" fill="white"/>
<path d="M113.637 74.6673C113.637 75.347 112.976 75.771 112.327 75.771C112.047 75.771 111.647 75.6151 111.647 75.0976C111.647 74.4865 112.096 74.3555 112.645 74.2557C113.256 74.1622 113.493 74.0687 113.643 73.9502V74.6611L113.637 74.6673ZM115.071 72.5596C115.071 71.1877 113.637 70.9446 112.845 70.9446C111.704 70.9446 110.519 71.1878 110.35 72.8963H111.766C111.81 72.5721 111.934 72.1231 112.67 72.1231C113.05 72.1231 113.637 72.1543 113.637 72.7716C113.637 73.0896 113.356 73.1832 113.125 73.2144L111.803 73.4139C110.868 73.5511 110.176 74.1061 110.176 75.1973C110.176 76.3509 111.036 76.8249 111.872 76.8249C112.87 76.8249 113.344 76.3634 113.674 76.0205C113.705 76.3322 113.724 76.4195 113.811 76.6814H115.395V76.4632C115.214 76.4008 115.071 76.2512 115.071 75.5902V72.5721V72.5596Z" fill="white"/>
</svg>
