<svg width="163" height="77" viewBox="0 0 163 77" fill="none" xmlns="http://www.w3.org/2000/svg">
<path d="M60.2639 37.0346C59.2786 38.0199 58.5366 38.7619 58.1687 39.1298C57.8008 38.7619 57.0649 38.0199 56.0797 37.0346H50.8479L50.8354 37.0471L55.2005 41.4183H61.1494L65.5144 37.0471L65.5019 37.0346H60.2639Z" fill="#F39200"/>
<path d="M4.6976 4.44663H8.08984L12.3301 0.206323V0.187614H5.26505L0.444824 5.00161V12.0729H0.463533L4.6976 7.83263V4.44039V4.44663Z" fill="#F39200"/>
<path d="M77.0267 64.9146L72.774 69.1736C72.774 70.745 72.774 71.9298 72.774 72.5097H69.4378L65.1851 76.7688H72.219L77.033 71.9548V64.9146H77.0267Z" fill="#F39200"/>
<path d="M4.6976 72.516C4.6976 71.9298 4.6976 70.745 4.6976 69.1612L0.444824 64.9021V71.9548L5.26505 76.7688H12.3239L8.0649 72.516C6.48103 72.516 5.29623 72.516 4.70384 72.516H4.6976Z" fill="#F39200"/>
<path d="M26.0975 58.074H16.9622L25.7795 47.8349V43.8939H11.6119V47.7414H19.8867L10.9634 58.2486V61.9152H26.0975V58.074Z" fill="#878787"/>
<path d="M29.8384 43.8939V68.9928H34.5588V59.6579C35.0515 60.4124 35.5566 60.9736 36.0679 61.3665C37.0095 62.0774 38.1943 62.4203 39.616 62.4203C41.8422 62.4203 43.6693 61.591 45.0848 59.9323C46.5003 58.2736 47.2112 55.8603 47.2112 52.6926C47.2112 49.5248 46.4878 47.4109 45.0411 45.852C43.5944 44.3055 41.8297 43.5323 39.7407 43.5323C38.3065 43.5323 37.0718 43.9314 36.0367 44.7295C35.4693 45.1847 34.933 45.7958 34.4341 46.5878V43.8939H29.8508H29.8384ZM34.8644 50.086C35.488 48.4585 36.6478 47.6479 38.3252 47.6479C39.7283 47.6479 40.7385 48.1904 41.362 49.2567C41.9856 50.3292 42.2974 51.5639 42.2974 52.9545C42.2974 54.6381 41.9607 55.9913 41.2872 57.0077C40.6137 58.0241 39.6285 58.5292 38.3439 58.5292C37.4585 58.5292 36.6852 58.286 36.0367 57.7872C34.933 56.9391 34.378 55.4612 34.378 53.366C34.378 52.044 34.5401 50.9466 34.8644 50.0923V50.086Z" fill="#878787"/>
<path d="M60.7745 51.1274C57.9684 50.5101 56.3409 50.0798 55.8857 49.8241C55.4242 49.5872 55.1935 49.1881 55.1935 48.6518C55.1935 48.2215 55.4118 47.8412 55.842 47.5231C56.2723 47.1989 56.9894 47.0368 58.0058 47.0368C59.2343 47.0368 60.1073 47.361 60.6186 48.0033C60.893 48.3587 61.0614 48.8389 61.1299 49.4438H65.8504C65.6446 47.2363 64.8277 45.6836 63.4185 44.7794C62.0029 43.8752 60.1759 43.4325 57.9372 43.4325C55.5739 43.4325 53.7406 44.0249 52.4373 45.2159C51.134 46.407 50.4855 47.8349 50.4855 49.4936C50.4855 50.9029 50.8971 51.9817 51.7327 52.7238C52.5683 53.4845 54.0025 54.1143 56.0353 54.6194C58.8601 55.2866 60.5001 55.7543 60.9553 56.0287C61.4168 56.3031 61.6475 56.7084 61.6475 57.2322C61.6475 57.756 61.3731 58.1925 60.8244 58.4731C60.2756 58.7475 59.5336 58.8847 58.6045 58.8847C57.0206 58.8847 55.9356 58.5729 55.3432 57.9431C55.0127 57.5939 54.7944 57.0015 54.6947 56.1596H49.9243C49.9243 58.0054 50.5978 59.5207 51.9447 60.7117C53.2979 61.9028 55.3868 62.4952 58.2116 62.4952C61.0364 62.4952 63.0381 61.9339 64.3663 60.8053C65.6883 59.6828 66.3555 58.2362 66.3555 56.459C66.3555 55.112 65.894 53.9896 64.9774 53.0917C64.042 52.1999 62.6452 51.539 60.7745 51.1025V51.1274Z" fill="#878787"/>
<path d="M65.583 72.516H54.5271C40.322 72.516 33.02 72.516 23.6477 72.516H11.9058L16.1648 76.775H61.324L65.583 72.5222V72.516Z" fill="#878787"/>
<path d="M72.7723 23.8024C72.7723 36.8538 72.7723 44.1808 72.7723 53.7838V65.3262L77.0251 61.0672V28.105V15.9079L72.7661 11.6489V23.7961L72.7723 23.8024Z" fill="#878787"/>
<path d="M4.697 65.3012V64.8834V53.154V22.7236V12.0729V11.7986V11.6863L0.437988 15.9453V22.8545V48.8513V61.0484L4.697 65.3012Z" fill="#878787"/>
<path d="M11.937 4.4404H20.1183C36.5807 4.4404 44.0823 4.4404 55.8553 4.4404H65.5581L61.2991 0.175148H16.196L11.9432 4.43416L11.937 4.4404Z" fill="#878787"/>
<path d="M87.6514 48.2402H90.576V49.4437H85.7495V48.3026L88.6117 45.0413H85.9491V43.869H90.47V45.0725L87.6514 48.2402Z" fill="#878787"/>
<path d="M94.5541 47.442C94.5541 48.1217 93.8931 48.5458 93.2446 48.5458C92.964 48.5458 92.5649 48.3899 92.5649 47.8723C92.5649 47.2612 93.0139 47.1303 93.5626 47.0305C94.1737 46.9369 94.4107 46.8434 94.5603 46.7249V47.4358L94.5541 47.442ZM95.9883 45.3344C95.9883 43.9625 94.5541 43.7193 93.7622 43.7193C92.621 43.7193 91.4362 43.9625 91.2679 45.6711H92.6834C92.727 45.3468 92.8517 44.8916 93.5876 44.8916C93.9679 44.8916 94.5541 44.9228 94.5541 45.5401C94.5541 45.8519 94.2735 45.9517 94.0428 45.9829L92.7208 46.1824C91.7854 46.3196 91.0933 46.8746 91.0933 47.9658C91.0933 49.1195 91.9538 49.5934 92.7956 49.5934C93.7933 49.5934 94.2673 49.1319 94.5977 48.789C94.6289 49.1008 94.6476 49.1881 94.7349 49.45H96.3188V49.2317C96.138 49.1693 95.9946 49.0197 95.9946 48.3587V45.3406L95.9883 45.3344Z" fill="#878787"/>
<path d="M105.286 49.45H103.82V46.064C103.82 45.2346 103.452 44.9602 103.022 44.9602C102.286 44.9602 102.024 45.4404 102.024 46.1014V49.45H100.553V46.0951C100.553 45.6212 100.553 44.9602 99.6736 44.9602C98.9814 44.9602 98.7631 45.4404 98.7631 46.0515V49.45H97.2915V43.869H98.6945V44.6858H98.7133C98.9003 44.3179 99.3119 43.7193 100.297 43.7193C101.108 43.7193 101.469 44.0124 101.85 44.611C102.037 44.3367 102.448 43.7193 103.34 43.7193C104.431 43.7193 105.279 44.3616 105.279 45.5838V49.4437L105.286 49.45Z" fill="#878787"/>
<path d="M107.694 46.1014C107.775 45.3655 108.143 44.929 108.835 44.929C109.309 44.929 109.882 45.2034 109.97 46.1014H107.694ZM109.907 47.81C109.789 48.209 109.371 48.4211 108.966 48.4211C107.781 48.4211 107.694 47.4795 107.656 47.0554H111.485V46.7935C111.485 44.2431 109.964 43.7193 108.866 43.7193C106.422 43.7193 106.191 45.8706 106.191 46.5441C106.191 48.8388 107.394 49.5996 108.972 49.5996C109.926 49.5996 111.036 49.1569 111.429 47.8162H109.92L109.907 47.81ZM110.631 41.5805H109.446L108.773 42.441L108.112 41.5805H106.927L108.124 43.1144H109.434L110.631 41.5805Z" fill="#878787"/>
<path d="M115.619 45.5651C115.556 45.2097 115.432 44.8293 114.634 44.8293C113.835 44.8293 113.729 45.1348 113.729 45.3718C113.729 46.251 117.221 45.615 117.221 47.6665C117.221 49.2941 115.65 49.5872 114.777 49.5872C113.505 49.5872 112.133 49.1444 112.089 47.6541H113.598C113.598 48.128 113.891 48.471 114.814 48.471C115.569 48.471 115.75 48.103 115.75 47.891C115.75 46.9557 112.289 47.6603 112.289 45.5713C112.289 44.7545 112.806 43.7069 114.546 43.7069C115.637 43.7069 116.941 43.9812 117.053 45.5526H115.619V45.5651Z" fill="#878787"/>
<path d="M119.94 43.869H120.851V44.9166H119.94V47.9472C119.94 48.2714 119.953 48.3961 120.551 48.3961C120.645 48.3961 120.751 48.3837 120.857 48.3774V49.4874C120.626 49.4999 120.395 49.5061 120.165 49.5061H119.978C118.705 49.5061 118.475 49.0259 118.475 48.3026V44.9166H117.72V43.869H118.475V42.3599H119.94V43.869Z" fill="#878787"/>
<path d="M126.83 49.45H125.365V46.064C125.365 45.6524 125.34 44.9602 124.411 44.9602C123.762 44.9602 123.257 45.403 123.257 46.251V49.45H121.792V43.869H123.195V44.6858H123.213C123.413 44.3491 123.831 43.7193 124.891 43.7193C125.951 43.7193 126.83 44.3616 126.83 45.5838V49.4437V49.45Z" fill="#878787"/>
<path d="M131.276 47.442C131.276 48.1217 130.615 48.5458 129.967 48.5458C129.686 48.5458 129.287 48.3899 129.287 47.8723C129.287 47.2612 129.736 47.1303 130.285 47.0305C130.896 46.9369 131.133 46.8434 131.283 46.7249V47.4358L131.276 47.442ZM132.717 45.3344C132.717 43.9625 131.276 43.7193 130.491 43.7193C129.35 43.7193 128.165 43.9625 127.996 45.6711H129.412C129.456 45.3468 129.58 44.8916 130.316 44.8916C130.696 44.8916 131.283 44.9228 131.283 45.5401C131.283 45.8519 131.002 45.9517 130.771 45.9829L129.449 46.1824C128.514 46.3196 127.822 46.8746 127.822 47.9658C127.822 49.1195 128.682 49.5934 129.524 49.5934C130.522 49.5934 130.996 49.1319 131.326 48.789C131.357 49.1008 131.376 49.1881 131.463 49.45H133.047V49.2317C132.866 49.1693 132.723 49.0197 132.723 48.3587V45.3406L132.717 45.3344Z" fill="#878787"/>
<path d="M139.072 49.45H137.6V46.064C137.6 45.6524 137.582 44.9602 136.646 44.9602C135.998 44.9602 135.493 45.403 135.493 46.251V49.45H134.021V43.869H135.424V44.6858H135.443C135.642 44.3491 136.06 43.7193 137.12 43.7193C138.18 43.7193 139.059 44.3616 139.059 45.5838V49.4437L139.072 49.45Z" fill="#878787"/>
<path d="M141.503 46.1014C141.584 45.3655 141.952 44.929 142.644 44.929C143.118 44.929 143.692 45.2034 143.779 46.1014H141.503ZM143.717 47.81C143.605 48.209 143.181 48.4211 142.775 48.4211C141.591 48.4211 141.503 47.4795 141.466 47.0554H145.295V46.7935C145.295 44.2431 143.773 43.7193 142.676 43.7193C140.231 43.7193 140 45.8706 140 46.5441C140 48.8389 141.204 49.5996 142.782 49.5996C143.736 49.5996 144.846 49.1569 145.239 47.8162H143.729L143.717 47.81Z" fill="#878787"/>
<path d="M151.068 47.4109C151.018 47.9908 150.563 49.5934 148.518 49.5934C146.472 49.5934 145.936 47.9908 145.936 46.8122C145.936 45.0101 146.722 43.7193 148.611 43.7193C149.49 43.7193 150.943 44.1184 151.074 45.8582H149.584C149.522 45.4903 149.291 44.9166 148.605 44.954C147.682 44.954 147.439 45.8769 147.439 46.569C147.439 47.1801 147.458 48.3836 148.574 48.3836C149.316 48.3836 149.571 47.6728 149.571 47.4109H151.062H151.068Z" fill="#878787"/>
<path d="M153.401 49.45H151.929V41.9172H153.401V45.9891L155.247 43.869H157.049L155.078 46.0328L157.105 49.45H155.34L154.006 47.0554L153.395 47.6852V49.45H153.401Z" fill="#878787"/>
<path d="M160.809 47.442C160.809 48.1217 160.148 48.5458 159.5 48.5458C159.219 48.5458 158.82 48.3899 158.82 47.8723C158.82 47.2612 159.269 47.1303 159.818 47.0305C160.429 46.9369 160.666 46.8434 160.816 46.7249V47.4358L160.809 47.442ZM162.244 45.3344C162.244 43.9625 160.809 43.7193 160.017 43.7193C158.876 43.7193 157.691 43.9625 157.523 45.6711H158.939C158.982 45.3468 159.107 44.8916 159.843 44.8916C160.217 44.8916 160.809 44.9228 160.809 45.5401C160.809 45.8519 160.529 45.9517 160.292 45.9829L158.97 46.1824C158.034 46.3196 157.342 46.8746 157.342 47.9658C157.342 49.1195 158.203 49.5934 159.038 49.5934C160.036 49.5934 160.51 49.1319 160.841 48.789C160.872 49.1008 160.89 49.1881 160.978 49.45H162.562V49.2317C162.381 49.1693 162.237 49.0197 162.237 48.3587V45.3406L162.244 45.3344ZM161.863 41.5805H160.248L159.263 43.1144H160.323L161.863 41.5805Z" fill="#878787"/>
<path d="M87.5949 60.3937C87.5949 59.502 87.8381 58.5978 88.8421 58.5978C89.7774 58.5978 90.0892 59.4271 90.0892 60.3064C90.0892 60.9674 89.8273 61.9963 88.8857 61.9963C87.9441 61.9963 87.5949 61.223 87.5949 60.3937ZM87.5949 57.4753H86.1919V65.2264H87.6573V62.3392H87.676C87.8568 62.6448 88.2247 63.1998 89.2474 63.1998C90.9061 63.1998 91.5983 61.7344 91.5983 60.2004C91.5983 58.2673 90.507 57.3257 89.2786 57.3257C88.2933 57.3257 87.8818 57.8433 87.6136 58.2798H87.5949V57.4753Z" fill="#878787"/>
<path d="M96.344 60.269C96.344 60.9799 96.132 61.9713 95.0033 61.9713C93.8746 61.9713 93.6626 60.9861 93.6626 60.269C93.6626 59.5519 93.8746 58.5666 95.0033 58.5666C96.132 58.5666 96.344 59.5519 96.344 60.269ZM97.8531 60.269C97.8531 58.2548 96.4999 57.3319 94.9971 57.3319C93.4943 57.3319 92.1411 58.2548 92.1411 60.269C92.1411 62.2831 93.4943 63.206 94.9971 63.206C96.4999 63.206 97.8531 62.2831 97.8531 60.269Z" fill="#878787"/>
<path d="M100.391 63.6487C100.391 65.1079 99.7174 65.3075 98.595 65.3075H98.2271V64.1351H98.489C98.6386 64.1351 98.9192 64.1351 98.9192 63.6238V57.4878H100.385V63.655L100.391 63.6487ZM100.391 56.8206H98.9255V55.455H100.391V56.8206Z" fill="#878787"/>
<path d="M103.359 57.4816V63.0626H101.894V57.4816H103.359ZM103.359 56.8206H101.894V55.455H103.359V56.8206Z" fill="#878787"/>
<path d="M108.03 59.1777C107.968 58.8223 107.843 58.4419 107.045 58.4419C106.246 58.4419 106.14 58.7475 106.14 58.9844C106.14 59.8636 109.633 59.2276 109.633 61.2792C109.633 62.9067 108.061 63.1998 107.188 63.1998C105.922 63.1998 104.544 62.757 104.5 61.2667H106.01C106.01 61.7406 106.303 62.0836 107.226 62.0836C107.98 62.0836 108.161 61.7157 108.161 61.5099C108.161 60.5745 104.7 61.2792 104.7 59.1902C104.7 58.3733 105.211 57.3195 106.957 57.3195C108.049 57.3195 109.352 57.5938 109.464 59.1652H108.03V59.1777ZM107.674 56.7208H106.365L105.168 55.1868H106.353L107.013 56.0474L107.687 55.1868H108.872L107.674 56.7208Z" fill="#878787"/>
<path d="M112.351 57.4816H113.261V58.5292H112.351V61.5598C112.351 61.884 112.363 62.0087 112.962 62.0087C113.056 62.0087 113.162 61.9963 113.268 61.99V63.1C113.037 63.1125 112.806 63.1187 112.575 63.1187H112.388C111.122 63.1187 110.892 62.6385 110.892 61.9152V58.5292H110.137V57.4816H110.892V55.9725H112.357V57.4816H112.351ZM112.906 55.5298H113.86V56.222C113.86 57.095 113.311 57.3132 112.937 57.3943V57.0139C113.355 56.8767 113.386 56.646 113.398 56.3966H112.906V55.5236V55.5298Z" fill="#878787"/>
<path d="M118.075 60.269C118.075 60.9799 117.863 61.9713 116.735 61.9713C115.606 61.9713 115.394 60.9861 115.394 60.269C115.394 59.5519 115.606 58.5666 116.735 58.5666C117.863 58.5666 118.075 59.5519 118.075 60.269ZM119.584 60.269C119.584 58.2548 118.231 57.3319 116.729 57.3319C115.226 57.3319 113.873 58.2548 113.873 60.269C113.873 62.2831 115.226 63.206 116.729 63.206C118.231 63.206 119.584 62.2831 119.584 60.269Z" fill="#878787"/>
<path d="M123.401 63.0626H121.861L119.859 57.4816H121.493L122.646 61.591H122.665L123.85 57.4816H125.415L123.401 63.0626Z" fill="#878787"/>
<path d="M131.282 63.0626H129.817V59.6766C129.817 59.265 129.798 58.5729 128.863 58.5729C128.215 58.5729 127.709 59.0156 127.709 59.8637V63.0626H126.238V57.4816H127.641V58.2985H127.66C127.859 57.9618 128.277 57.3319 129.337 57.3319C130.397 57.3319 131.276 57.9742 131.276 59.2027V63.0626H131.282Z" fill="#878787"/>
<path d="M135.729 61.0547C135.729 61.7344 135.068 62.1584 134.419 62.1584C134.139 62.1584 133.74 62.0025 133.74 61.485C133.74 60.8739 134.189 60.7429 134.737 60.6431C135.349 60.5496 135.585 60.4561 135.735 60.3376V61.0485L135.729 61.0547ZM137.163 58.947C137.163 57.5751 135.729 57.3319 134.943 57.3319C133.802 57.3319 132.611 57.5751 132.449 59.2837H133.864C133.908 58.9595 134.033 58.5105 134.769 58.5105C135.149 58.5105 135.735 58.5417 135.735 59.159C135.735 59.4708 135.455 59.5706 135.218 59.6018L133.896 59.8013C132.96 59.9385 132.268 60.4935 132.268 61.5847C132.268 62.7383 133.129 63.2123 133.964 63.2123C134.962 63.2123 135.436 62.7508 135.766 62.4016C135.797 62.7196 135.816 62.8007 135.903 63.0626H137.487V62.8443C137.307 62.782 137.163 62.6323 137.163 61.9713V58.9532V58.947Z" fill="#878787"/>
<path d="M89.3786 72.7903C89.3162 72.4349 89.1915 72.0545 88.3933 72.0545C87.5951 72.0545 87.4891 72.3601 87.4891 72.597C87.4891 73.4762 90.9811 72.8402 90.9811 74.8918C90.9811 76.5193 89.4097 76.8124 88.5367 76.8124C87.2646 76.8124 85.8928 76.3696 85.8491 74.8793H87.3582C87.3582 75.3532 87.6512 75.6962 88.5741 75.6962C89.3287 75.6962 89.5095 75.3283 89.5095 75.1163C89.5095 74.1809 86.0487 74.8855 86.0487 72.7966C86.0487 71.9797 86.5662 70.9321 88.306 70.9321C89.3973 70.9321 90.6943 71.2064 90.8128 72.7779H89.3786V72.7903ZM89.0231 70.3334H87.7136L86.5163 68.7994H87.7011L88.3621 69.66L89.0356 68.7994H90.2204L89.0231 70.3334Z" fill="#878787"/>
<path d="M93.5694 76.6752H92.104V69.1424H93.5694V73.2144L95.4152 71.0942H97.2173L95.2468 73.258L97.2734 76.6752H95.5087L94.1743 74.2807L93.5632 74.9105V76.6752H93.5694Z" fill="#878787"/>
<path d="M101.6 73.8816C101.6 74.5925 101.388 75.584 100.26 75.584C99.1311 75.584 98.9191 74.5987 98.9191 73.8816C98.9191 73.1645 99.1311 72.1855 100.26 72.1855C101.388 72.1855 101.6 73.1707 101.6 73.8816ZM103.11 73.8816C103.11 71.8675 101.756 70.9446 100.26 70.9446C98.7632 70.9446 97.4038 71.8675 97.4038 73.8816C97.4038 75.8957 98.757 76.8186 100.26 76.8186C101.763 76.8186 103.11 75.8957 103.11 73.8816Z" fill="#878787"/>
<path d="M105.33 73.9252C105.33 73.046 105.642 72.2166 106.577 72.2166C107.581 72.2166 107.837 73.1208 107.837 74.0125C107.837 74.8419 107.469 75.6151 106.533 75.6151C105.598 75.6151 105.33 74.5862 105.33 73.9252ZM109.24 69.1424H107.774V71.8176H107.756C107.525 71.4621 107.082 70.9446 106.14 70.9446C104.912 70.9446 103.821 71.8862 103.821 73.8192C103.821 75.3532 104.513 76.8186 106.172 76.8186C106.783 76.8186 107.431 76.6004 107.787 75.9706H107.805V76.6752H109.246V69.1424H109.24Z" fill="#878787"/>
<path d="M113.636 74.6673C113.636 75.347 112.975 75.771 112.327 75.771C112.046 75.771 111.647 75.6151 111.647 75.0976C111.647 74.4865 112.096 74.3555 112.645 74.2557C113.256 74.1622 113.493 74.0687 113.642 73.9502V74.6611L113.636 74.6673ZM115.07 72.5596C115.07 71.1877 113.636 70.9446 112.844 70.9446C111.703 70.9446 110.518 71.1878 110.35 72.8963H111.765C111.809 72.5721 111.934 72.1231 112.67 72.1231C113.05 72.1231 113.636 72.1543 113.636 72.7716C113.636 73.0896 113.356 73.1832 113.125 73.2144L111.803 73.4139C110.867 73.5511 110.175 74.1061 110.175 75.1973C110.175 76.3509 111.036 76.8249 111.871 76.8249C112.869 76.8249 113.343 76.3634 113.674 76.0205C113.705 76.3322 113.723 76.4195 113.811 76.6814H115.395V76.4632C115.214 76.4008 115.07 76.2512 115.07 75.5902V72.5721V72.5596Z" fill="#878787"/>
</svg>
