<svg width="83" height="63" viewBox="0 0 83 63" fill="none" xmlns="http://www.w3.org/2000/svg">
<path d="M16.8845 54.8248C17.3335 54.8248 17.5642 54.962 17.5642 55.2551C17.5642 55.5481 17.3335 55.6916 16.8845 55.6916H14.9576C14.5087 55.6916 14.2842 55.5357 14.2842 55.2176C14.2842 55.1179 14.3029 55.0306 14.3465 54.9495C14.3902 54.8684 14.4525 54.7749 14.5461 54.644L16.2671 52.4053H15.0262C14.7893 52.4053 14.6209 52.3741 14.5087 52.3056C14.3964 52.237 14.3465 52.131 14.3465 51.9813C14.3465 51.6945 14.571 51.551 15.0262 51.551H16.6538C16.9281 51.551 17.1401 51.5884 17.2711 51.6633C17.4083 51.7381 17.4769 51.8503 17.4769 52.0187C17.4769 52.1122 17.4519 52.1933 17.4145 52.2744C17.3709 52.3492 17.3023 52.4552 17.1963 52.5924L15.5189 54.8248" fill="white"/>
<path d="M19.2729 51.5573C19.7967 51.5573 20.2145 51.6508 20.5262 51.8503C20.6634 51.9376 20.7881 52.0374 20.9004 52.1621C21.0126 52.2868 21.1062 52.424 21.181 52.5612C21.2558 52.7109 21.3182 52.8668 21.3556 53.0414C21.3992 53.2097 21.418 53.3968 21.418 53.5839C21.418 53.9081 21.3743 54.195 21.2808 54.4506C21.1872 54.7125 21.05 54.9308 20.8754 55.1179C20.6946 55.3049 20.4764 55.4484 20.2269 55.5419C19.9713 55.6417 19.6844 55.6916 19.3664 55.6916H18.4872C18.3188 55.6916 18.1816 55.6728 18.0881 55.6354C17.9945 55.598 17.9322 55.5357 17.8885 55.4546C17.8511 55.3735 17.8262 55.2488 17.8262 55.0992V52.2245C17.8262 52.0624 17.8449 51.9376 17.8823 51.8441C17.9197 51.7506 17.9821 51.6757 18.0818 51.6321C18.1816 51.5884 18.3188 51.5635 18.4872 51.5635H19.2604L19.2729 51.5573ZM18.7989 54.8185H19.2354C19.9962 54.8185 20.3828 54.4008 20.3828 53.5776C20.3828 52.8169 19.99 52.4365 19.223 52.4365H18.8052" fill="white"/>
<path d="M22.9199 53.4342H23.3626C23.5559 53.4342 23.7118 53.3906 23.8116 53.297C23.9176 53.2035 23.9675 53.085 23.9675 52.9229C23.9675 52.8169 23.9426 52.7296 23.9051 52.6548C23.8615 52.5799 23.7929 52.5238 23.6994 52.4864C23.6058 52.4427 23.4998 52.424 23.3689 52.424H22.9137V53.4342H22.9199ZM22.9199 54.0578V55.0742C22.9199 55.517 22.764 55.7415 22.446 55.7415C22.2838 55.7415 22.1591 55.6853 22.0843 55.5793C22.0095 55.4671 21.9658 55.2987 21.9658 55.0742V52.2183C21.9658 52.0561 21.9845 51.9314 22.0219 51.8316C22.0594 51.7381 22.1217 51.6633 22.2215 51.6196C22.315 51.576 22.4522 51.551 22.6268 51.551H23.3689C23.8802 51.551 24.273 51.6695 24.5537 51.9002C24.8343 52.1372 24.9714 52.449 24.9714 52.8356C24.9714 53.1349 24.8841 53.3781 24.7033 53.5776C24.5287 53.771 24.2793 53.9019 23.9675 53.9518L24.722 54.7811C24.9091 54.9869 25.0026 55.1678 25.0026 55.3174C25.0026 55.4421 24.959 55.5481 24.8779 55.6354C24.7906 55.7165 24.6784 55.7602 24.5537 55.7602C24.4664 55.7602 24.3853 55.7352 24.3042 55.6791C24.2232 55.623 24.1421 55.5419 24.0423 55.4172" fill="white"/>
<path d="M26.4558 54.0453H27.4597L26.9733 52.5176L26.4558 54.0453ZM26.1876 54.9183L26.0442 55.3361C25.9507 55.6167 25.801 55.7539 25.589 55.7539C25.5017 55.7539 25.4206 55.7352 25.3583 55.6978C25.2834 55.6604 25.2336 55.6105 25.1962 55.5419C25.1525 55.4733 25.1338 55.3922 25.1338 55.3049C25.1338 55.1989 25.1463 55.1054 25.1837 55.0368L26.2812 52.1122C26.356 51.9002 26.4558 51.7506 26.5742 51.6508C26.6927 51.551 26.8424 51.5011 27.017 51.5011C27.1854 51.5011 27.3225 51.5448 27.441 51.6446C27.5595 51.7381 27.6593 51.8753 27.7154 52.0499L28.7817 55.0181C28.8254 55.1428 28.8441 55.2426 28.8441 55.3174C28.8441 55.4484 28.8004 55.5544 28.7069 55.6417C28.6133 55.7227 28.5011 55.7601 28.3701 55.7601C28.2454 55.7601 28.1457 55.7227 28.0646 55.6479C27.9835 55.5668 27.9149 55.4608 27.8713 55.3049L27.7466 54.9246" fill="white"/>
<path d="M30.0786 55.4234L28.8003 52.2557C28.7629 52.1746 28.7441 52.0811 28.7441 51.9875C28.7441 51.8503 28.7878 51.7443 28.8813 51.6508C28.9749 51.5635 29.0933 51.5198 29.243 51.5198C29.349 51.5198 29.4363 51.551 29.4987 51.6134C29.5673 51.6757 29.6296 51.7817 29.6795 51.9252L30.565 54.276L31.3881 51.9563C31.4442 51.7942 31.5066 51.6882 31.5752 51.6196C31.6438 51.551 31.7373 51.5198 31.862 51.5198C32.0054 51.5198 32.1177 51.5573 32.205 51.6383C32.286 51.7132 32.3297 51.8192 32.3297 51.9563C32.3297 52.0686 32.311 52.1746 32.2673 52.2868L31.0264 55.386C30.9641 55.5294 30.9017 55.6292 30.8269 55.6853C30.7521 55.7477 30.6585 55.7726 30.54 55.7726C30.4652 55.7726 30.3966 55.7602 30.3405 55.7414C30.2844 55.7103 30.2407 55.6791 30.1971 55.6292C30.1534 55.5793 30.1222 55.5107 30.0786 55.4234Z" fill="white"/>
<path d="M32.3926 53.6275C32.3926 53.3033 32.4425 53.0039 32.5422 52.7358C32.6358 52.4739 32.7792 52.2369 32.9663 52.0436C33.1471 51.8503 33.3654 51.7007 33.621 51.6071C33.8704 51.4949 34.1511 51.445 34.4566 51.445C34.7622 51.445 35.0365 51.4949 35.2922 51.6071C35.5479 51.7007 35.7661 51.8503 35.9532 52.0436C36.1403 52.2369 36.2837 52.4677 36.3772 52.7358C36.477 53.0039 36.5269 53.3033 36.5269 53.6275C36.5269 53.9518 36.477 54.2511 36.3835 54.5192C36.2837 54.7874 36.1465 55.0181 35.9594 55.2176C35.7724 55.4047 35.5541 55.5606 35.3047 55.6604C35.049 55.7726 34.7684 55.8225 34.4628 55.8225C34.1573 55.8225 33.8767 55.7726 33.621 55.6604C33.3654 55.5606 33.1409 55.4047 32.96 55.2114C32.7792 55.0181 32.642 54.7874 32.5422 54.5192C32.4425 54.2449 32.3926 53.9518 32.3926 53.6275ZM33.4402 53.64C33.4402 53.8956 33.4838 54.1139 33.5711 54.3072C33.6584 54.5005 33.7769 54.6502 33.9328 54.7499C34.0887 54.856 34.2633 54.9058 34.4628 54.9058C34.6624 54.9058 34.8432 54.856 34.9929 54.7499C35.1488 54.6502 35.2735 54.5005 35.3546 54.3072C35.4356 54.1139 35.4855 53.8894 35.4855 53.64C35.4855 53.3718 35.4419 53.1411 35.3546 52.9416C35.2673 52.742 35.1488 52.5986 34.9929 52.4864C34.837 52.3866 34.6624 52.3305 34.4566 52.3305C34.1511 52.3305 33.9016 52.449 33.7146 52.6797C33.5275 52.9104 33.4339 53.2284 33.4339 53.6337" fill="white"/>
<path d="M37.6113 52.4365H37.2559C36.8007 52.4365 36.5762 52.2931 36.5762 52C36.5762 51.7069 36.8069 51.5573 37.2559 51.5573H38.9208C39.376 51.5573 39.6005 51.7069 39.6005 52C39.6005 52.2931 39.3698 52.4365 38.9208 52.4365H38.5654V55.0742C38.5654 55.5232 38.4095 55.7414 38.0852 55.7414C37.9293 55.7414 37.8046 55.6853 37.7235 55.5731C37.6487 55.4671 37.6051 55.2987 37.6051 55.0742" fill="white"/>
<path d="M40.8168 55.0804C40.8168 55.5294 40.6546 55.7477 40.3366 55.7477C40.1682 55.7477 40.0498 55.6916 39.9749 55.5856C39.8939 55.4733 39.8564 55.3049 39.8564 55.0804V52.1497C39.8564 51.7319 40.0061 51.5198 40.2992 51.5198C40.399 51.5198 40.4925 51.5448 40.5673 51.5884C40.6484 51.6383 40.7295 51.7194 40.8043 51.8254L42.569 54.1201V52.1871C42.569 51.7443 42.7311 51.5198 43.0492 51.5198C43.3672 51.5198 43.5293 51.7381 43.5293 52.1871V55.1989C43.5293 55.3922 43.4919 55.5419 43.4233 55.6417C43.3547 55.7352 43.2425 55.7851 43.0928 55.7851C42.8995 55.7851 42.7186 55.6728 42.544 55.4421L40.8105 53.191" fill="white"/>
<path d="M45.2634 55.0804C45.2634 55.5294 45.1075 55.7477 44.7833 55.7477C44.6211 55.7477 44.4964 55.6915 44.4216 55.5855C44.3405 55.4733 44.3031 55.3049 44.3031 55.0804V52.1808C44.3031 51.7318 44.4652 51.5074 44.7895 51.5074C45.1138 51.5074 45.2696 51.7318 45.2696 52.1808V55.0804H45.2634ZM44.9392 51.1083C44.8269 51.2267 44.7209 51.2891 44.6211 51.2891C44.5214 51.2891 44.4403 51.2579 44.3904 51.1956C44.328 51.1394 44.2969 51.0646 44.2969 50.9648C44.2969 50.8838 44.3343 50.8027 44.4029 50.7092L44.8331 50.1293C44.9204 50.0108 45.0327 49.9422 45.1699 49.9422C45.2759 49.9422 45.3632 49.9734 45.4318 50.042C45.5066 50.1043 45.544 50.1916 45.544 50.2852C45.544 50.3912 45.4941 50.4972 45.3944 50.6094" fill="white"/>
<path d="M48.7232 53.5153H49.1348C49.353 53.5153 49.5152 53.4716 49.6212 53.3781C49.7272 53.2846 49.7833 53.1474 49.7833 52.9665C49.7833 52.7857 49.7272 52.6423 49.6274 52.5612C49.5214 52.4739 49.3593 52.4303 49.1348 52.4303H48.7232V53.5215V53.5153ZM48.7232 55.0804C48.7232 55.5232 48.5673 55.7477 48.2493 55.7477C48.0872 55.7477 47.9625 55.6916 47.8939 55.5855C47.8128 55.4733 47.7754 55.3049 47.7754 55.0804V52.2245C47.7754 52.0624 47.7941 51.9376 47.8315 51.8441C47.8627 51.7506 47.9313 51.6757 48.0311 51.6321C48.1308 51.5884 48.2556 51.5635 48.4364 51.5635H49.2969C49.6149 51.5635 49.8893 51.6196 50.12 51.7381C50.3508 51.8566 50.5254 52.0187 50.6438 52.2307C50.7686 52.4427 50.8309 52.6859 50.8309 52.9665C50.8309 53.2471 50.7686 53.509 50.6563 53.7148C50.5441 53.9206 50.3757 54.089 50.1574 54.2012C49.9392 54.3072 49.6773 54.3696 49.3717 54.3696H48.7295" fill="white"/>
<path d="M51.1367 53.6275C51.1367 53.3033 51.1866 53.0039 51.2864 52.7358C51.3862 52.4677 51.5296 52.2369 51.7104 52.0436C51.8975 51.8503 52.1095 51.7007 52.3652 51.6009C52.6208 51.4949 52.8952 51.445 53.1945 51.445C53.4938 51.445 53.7744 51.4949 54.0301 51.6009C54.2795 51.7007 54.504 51.8503 54.6849 52.0436C54.8719 52.2369 55.0154 52.4739 55.1151 52.7358C55.2149 53.0102 55.2648 53.3033 55.2648 53.6275C55.2648 53.9518 55.2149 54.2511 55.1214 54.5192C55.0216 54.7874 54.8844 55.0181 54.7036 55.2114C54.5165 55.4047 54.3045 55.5544 54.0488 55.6604C53.7932 55.7664 53.5125 55.8225 53.207 55.8225C52.9014 55.8225 52.6208 55.7664 52.3714 55.6604C52.1157 55.5606 51.9037 55.4047 51.7229 55.2114C51.542 55.0181 51.4049 54.7874 51.3051 54.5192C51.2053 54.2511 51.1554 53.9455 51.1554 53.6275H51.1367ZM52.1968 53.64C52.1968 53.8957 52.2467 54.1201 52.3277 54.3135C52.415 54.5068 52.5335 54.6564 52.6894 54.7562C52.8453 54.8622 53.0199 54.9121 53.2195 54.9121C53.419 54.9121 53.5936 54.8622 53.7495 54.7562C53.9054 54.6564 54.0239 54.5068 54.1112 54.3135C54.1922 54.1201 54.2359 53.8957 54.2359 53.64C54.2359 53.3843 54.1922 53.1411 54.1112 52.9478C54.0239 52.7483 53.9054 52.5986 53.7495 52.4926C53.5998 52.3928 53.419 52.343 53.2195 52.343C52.9077 52.343 52.6582 52.4552 52.4774 52.6922C52.2903 52.9291 52.1968 53.2409 52.1968 53.6462" fill="white"/>
<path d="M56.7428 54.1326V52.1808C56.7428 51.7319 56.9049 51.5074 57.223 51.5074C57.541 51.5074 57.7031 51.7319 57.7031 52.1746V54.4319C57.7031 54.7312 57.6595 54.9869 57.5597 55.1865C57.4661 55.3922 57.3352 55.5481 57.1481 55.6479C56.9611 55.7477 56.7428 55.7976 56.4809 55.7976C56.2689 55.7976 56.0756 55.7664 55.9134 55.704C55.7513 55.6417 55.6204 55.5606 55.5268 55.4546C55.4333 55.3486 55.3896 55.2363 55.3896 55.1179C55.3896 54.9994 55.4333 54.8871 55.5081 54.8061C55.5892 54.725 55.6952 54.6876 55.8261 54.6876C55.9134 54.6876 56.0195 54.725 56.1504 54.7936C56.2751 54.8622 56.3687 54.8934 56.4372 54.8934C56.5557 54.8934 56.643 54.8372 56.6867 54.7125C56.7241 54.5878 56.749 54.3945 56.749 54.1264" fill="white"/>
<path d="M59.4131 55.0804C59.4131 55.5232 59.2572 55.7477 58.9391 55.7477C58.7708 55.7477 58.6523 55.6915 58.5775 55.5793C58.4964 55.4733 58.459 55.3049 58.459 55.0742V52.1746C58.459 51.7319 58.6149 51.5074 58.9391 51.5074C59.2634 51.5074 59.4131 51.7319 59.4131 52.1746" fill="white"/>
<path d="M62.9358 54.4194C62.9358 54.6813 62.8734 54.9245 62.7362 55.1303C62.6053 55.3361 62.412 55.5045 62.1688 55.6229C61.9193 55.7414 61.6325 55.7975 61.3082 55.7975C61.0588 55.7975 60.8281 55.7664 60.6223 55.704C60.4103 55.6416 60.2544 55.5606 60.1297 55.4608C60.0174 55.361 59.9551 55.2488 59.9551 55.1366C59.9551 55.0555 59.9738 54.9807 60.0112 54.9121C60.0486 54.8497 60.1047 54.7936 60.1733 54.7624C60.2482 54.725 60.3292 54.7063 60.4228 54.7063C60.4976 54.7063 60.6473 54.7375 60.878 54.8123C61.1087 54.8871 61.2958 54.9183 61.4392 54.9183C61.5764 54.9183 61.6886 54.8747 61.7759 54.7936C61.8632 54.7125 61.9131 54.6128 61.9131 54.488C61.9131 54.382 61.8882 54.2947 61.8258 54.2324C61.7697 54.1638 61.6886 54.1077 61.5951 54.064C61.4953 54.0266 61.3581 53.9767 61.1773 53.9206C60.7595 53.7959 60.4602 53.6525 60.2731 53.4779C60.086 53.3033 59.9987 53.0601 59.9987 52.7483C59.9987 52.5051 60.0611 52.2744 60.192 52.081C60.3168 51.8815 60.4914 51.7256 60.7221 51.6071C60.9528 51.4949 61.2209 51.4388 61.5203 51.4388C61.8695 51.4388 62.1376 51.5011 62.3496 51.6196C62.5616 51.7381 62.6676 51.8815 62.6676 52.0561C62.6676 52.1746 62.6302 52.2743 62.5554 52.3429C62.4806 52.4115 62.3746 52.449 62.2436 52.449C62.175 52.449 62.0565 52.424 61.8882 52.3804C61.7073 52.3305 61.5764 52.2993 61.4953 52.2993C61.3456 52.2993 61.2334 52.3367 61.1523 52.3991C61.0713 52.4677 61.0276 52.5487 61.0276 52.6547C61.0276 52.7233 61.0463 52.7794 61.0775 52.8231C61.1087 52.8667 61.1586 52.9042 61.2209 52.9416C61.2833 52.9728 61.3706 53.0039 61.4641 53.0351C61.5639 53.0663 61.6699 53.1037 61.7884 53.1411C62.0441 53.2284 62.2623 53.3282 62.4307 53.4404C62.6053 53.5589 62.7362 53.6961 62.8173 53.852C62.8984 54.0079 62.942 54.1887 62.942 54.4007L62.9358 54.4194ZM61.5015 50.4286L62.0129 50.123C62.1251 50.0607 62.2124 50.0295 62.281 50.0295C62.3621 50.0295 62.4307 50.0544 62.4743 50.1106C62.5304 50.1729 62.5554 50.2415 62.5554 50.3288C62.5554 50.3974 62.5429 50.4535 62.5117 50.4972C62.4868 50.5471 62.4431 50.5969 62.3808 50.6406L61.7385 51.1394C61.6574 51.2018 61.5826 51.2267 61.4953 51.2267C61.408 51.2267 61.3269 51.2018 61.2521 51.1394L60.6098 50.6406C60.5475 50.5907 60.4976 50.5408 60.4726 50.4972C60.4477 50.4535 60.429 50.3974 60.429 50.3288C60.429 50.2415 60.4539 50.1604 60.5101 50.1106C60.56 50.0544 60.6285 50.0295 60.7034 50.0295C60.7782 50.0295 60.8655 50.0607 60.9777 50.123" fill="white"/>
<path d="M63.9641 52.4365H63.6149C63.1597 52.4365 62.9414 52.2868 62.9414 52C62.9414 51.7131 63.1597 51.5573 63.6149 51.5573H65.2736C65.7288 51.5573 65.9533 51.7007 65.9533 52C65.9533 52.2993 65.7288 52.4365 65.2736 52.4365H64.9181V55.0742C64.9181 55.5169 64.7622 55.7414 64.4442 55.7414C64.2821 55.7414 64.1636 55.6853 64.0825 55.5731C64.0015 55.4608 63.9641 55.2987 63.9641 55.0742V52.4365ZM64.5315 50.4411L65.0491 50.1355C65.1613 50.0731 65.2486 50.042 65.3172 50.042C65.3983 50.042 65.4606 50.0669 65.5168 50.123C65.5667 50.1854 65.5978 50.254 65.5978 50.3413C65.5978 50.4598 65.5355 50.5658 65.417 50.6531L64.7809 51.1519C64.7061 51.2143 64.6188 51.2392 64.5378 51.2392C64.4567 51.2392 64.3756 51.2143 64.2946 51.1519L63.6585 50.6531C63.5899 50.6032 63.54 50.5533 63.5151 50.5096C63.4902 50.466 63.4777 50.4099 63.4777 50.3413C63.4777 50.254 63.5026 50.1729 63.5587 50.123C63.6149 50.0669 63.6772 50.042 63.7583 50.042C63.8269 50.042 63.9142 50.0731 64.0327 50.1355" fill="white"/>
<path d="M65.9971 53.6275C65.9971 53.3033 66.047 53.0039 66.1467 52.7358C66.2465 52.4677 66.3899 52.2369 66.5708 52.0436C66.7516 51.8503 66.9698 51.7007 67.2255 51.6009C67.4749 51.4949 67.7493 51.445 68.0549 51.445C68.3604 51.445 68.641 51.4949 68.8842 51.6009C69.1399 51.7007 69.3581 51.8503 69.539 52.0436C69.726 52.2369 69.8695 52.4739 69.9692 52.7358C70.0628 53.0102 70.1127 53.3033 70.1127 53.6275C70.1127 53.9518 70.0628 54.2511 69.9692 54.5192C69.8695 54.7874 69.7323 55.0181 69.5515 55.2114C69.3644 55.4047 69.1524 55.5544 68.8967 55.6604C68.6473 55.7664 68.3604 55.8225 68.0549 55.8225C67.7493 55.8225 67.4687 55.7664 67.2193 55.6604C66.9636 55.5606 66.7516 55.4047 66.5708 55.2114C66.3837 55.0181 66.2465 54.7874 66.153 54.5192C66.0532 54.2511 66.0033 53.9455 66.0033 53.6275H65.9971ZM67.0447 53.64C67.0447 53.8957 67.0883 54.1201 67.1694 54.3135C67.2567 54.5068 67.3752 54.6564 67.5311 54.7562C67.687 54.8622 67.8616 54.9121 68.0611 54.9121C68.2606 54.9121 68.4415 54.8622 68.5911 54.7562C68.747 54.6564 68.8655 54.5068 68.9528 54.3135C69.0401 54.1201 69.0838 53.8957 69.0838 53.64C69.0838 53.3843 69.0401 53.1411 68.9528 52.9478C68.8655 52.7483 68.747 52.5986 68.5911 52.4926C68.4415 52.3928 68.2606 52.343 68.0611 52.343C67.7493 52.343 67.5061 52.4552 67.3253 52.6922C67.1382 52.9291 67.0509 53.2409 67.0509 53.6462" fill="white"/>
<path d="M71.5405 55.4234L70.2622 52.2619C70.2248 52.1746 70.2061 52.0811 70.2061 51.9938C70.2061 51.8566 70.2497 51.7443 70.3432 51.657C70.443 51.5697 70.5553 51.5261 70.6987 51.5261C70.8047 51.5261 70.892 51.5573 70.9606 51.6196C71.0229 51.682 71.0853 51.788 71.1352 51.9314L72.0207 54.2823L72.8375 51.9626C72.8937 51.8004 72.9623 51.6882 73.0246 51.6258C73.087 51.5573 73.1867 51.5261 73.3052 51.5261C73.4486 51.5261 73.5609 51.5697 73.642 51.6446C73.7293 51.7194 73.7667 51.8254 73.7667 51.9626C73.7667 52.0748 73.748 52.1808 73.7043 52.2868L72.4634 55.3922C72.4073 55.5294 72.3387 55.6354 72.2639 55.6915C72.189 55.7539 72.0955 55.7851 71.977 55.7851C71.9022 55.7851 71.8336 55.7726 71.7837 55.7539C71.7338 55.729 71.6839 55.6915 71.6465 55.6354C71.6029 55.5855 71.5655 55.517 71.528 55.4296" fill="white"/>
<path d="M75.0082 55.0804C75.0082 55.5232 74.846 55.7477 74.528 55.7477C74.3659 55.7477 74.2474 55.6916 74.1663 55.5856C74.0853 55.4733 74.0479 55.3049 74.0479 55.0804V52.1497C74.0479 51.7256 74.1913 51.5198 74.4906 51.5198C74.5904 51.5198 74.6839 51.5448 74.7587 51.5884C74.8398 51.6383 74.9146 51.7132 74.9957 51.8254L76.7604 54.1201V52.1871C76.7604 51.7381 76.9163 51.5198 77.2405 51.5198C77.5648 51.5198 77.7207 51.7381 77.7207 52.1871V55.1927C77.7207 55.3922 77.6833 55.5357 77.6147 55.6354C77.5461 55.7352 77.4339 55.7851 77.2842 55.7851C77.0909 55.7851 76.9101 55.6728 76.7355 55.4421L75.0082 53.191" fill="white"/>
<path d="M79.4161 54.0515H80.4201L79.9337 52.5175L79.4161 54.0515ZM79.148 54.9183L79.0045 55.3361C78.911 55.6167 78.7551 55.7539 78.5431 55.7539C78.4558 55.7539 78.381 55.7352 78.3061 55.6978C78.2376 55.6604 78.1814 55.6042 78.144 55.5419C78.1004 55.4733 78.0879 55.3922 78.0879 55.3049C78.0879 55.1989 78.1066 55.1054 78.1315 55.0306L79.2228 52.106C79.2976 51.9002 79.3974 51.7443 79.5159 51.6445C79.6344 51.5448 79.7778 51.4949 79.9524 51.4949C80.1145 51.4949 80.2579 51.5385 80.3764 51.6321C80.5011 51.7318 80.5884 51.8628 80.6508 52.0374L81.7171 55.0056C81.7607 55.1241 81.7794 55.2301 81.7794 55.2987C81.7794 55.4296 81.7296 55.5419 81.6423 55.6229C81.5487 55.704 81.4365 55.7477 81.3055 55.7477C81.1871 55.7477 81.081 55.7102 81 55.6292C80.9189 55.5544 80.8566 55.4359 80.8067 55.2862L80.6882 54.8996" fill="white"/>
<path d="M14.439 61.4222L14.9441 58.6037C14.9753 58.4478 15.0065 58.3293 15.0626 58.242C15.1062 58.1484 15.1748 58.0736 15.2621 58.03C15.3494 57.9801 15.4492 57.9614 15.5864 57.9614C15.9356 57.9614 16.1476 58.1484 16.2411 58.5164L16.8709 60.9919L17.4571 58.5164C17.5444 58.1422 17.7564 57.9614 18.0994 57.9614C18.2366 57.9614 18.3488 57.9863 18.4424 58.03C18.5359 58.0799 18.5982 58.1547 18.6544 58.2607C18.7042 58.3605 18.7417 58.4914 18.7728 58.6411L19.2343 61.4846C19.253 61.5656 19.2592 61.6467 19.2592 61.709C19.2592 61.8649 19.2156 61.9834 19.1283 62.0707C19.041 62.158 18.9225 62.2017 18.7853 62.2017C18.5172 62.2017 18.3613 62.0208 18.3176 61.6529L18.0183 59.1836C17.8936 59.7448 17.7814 60.2249 17.6754 60.6365C17.5756 61.0543 17.4883 61.3723 17.4197 61.5906C17.3511 61.8151 17.2887 61.9647 17.2513 62.0333C17.2139 62.0957 17.1578 62.1393 17.0954 62.1643C17.0331 62.1892 16.952 62.2017 16.8585 62.2017C16.7026 62.2017 16.5841 62.1705 16.503 62.0957C16.4157 62.0271 16.3534 61.9024 16.3035 61.7278L15.6924 59.1773L15.3681 61.5906C15.337 61.8026 15.2871 61.9522 15.206 62.052C15.1249 62.1456 15.0189 62.1954 14.8817 62.1954C14.7446 62.1954 14.6323 62.158 14.545 62.0645C14.4639 61.9772 14.4141 61.8587 14.4141 61.709C14.4141 61.6405 14.4265 61.5407 14.4515 61.4222" fill="white"/>
<path d="M20.6633 61.5282C20.6633 61.9772 20.5074 62.1954 20.1956 62.1954C20.0335 62.1954 19.915 62.1456 19.8402 62.0333C19.7653 61.9273 19.7217 61.7527 19.7217 61.5282V58.6286C19.7217 58.1859 19.8776 57.9614 20.1894 57.9614C20.5011 57.9614 20.657 58.1859 20.657 58.6286" fill="white"/>
<path d="M22.3654 61.5033C22.3654 61.946 22.2095 62.1705 21.8977 62.1705C21.7356 62.1705 21.6171 62.1206 21.5423 62.0084C21.4612 61.9024 21.4238 61.734 21.4238 61.5033V58.5725C21.4238 58.1547 21.5672 57.9427 21.8603 57.9427C21.9601 57.9427 22.0536 57.9676 22.1285 58.0113C22.2095 58.0611 22.2844 58.1422 22.3592 58.2482L24.099 60.543V58.6099C24.099 58.1671 24.2611 57.9427 24.5666 57.9427C24.8722 57.9427 25.0406 58.1671 25.0406 58.6099V61.6155C25.0406 61.8151 25.0031 61.9647 24.9345 62.0582C24.866 62.1518 24.7599 62.2017 24.6041 62.2017C24.417 62.2017 24.2361 62.0832 24.0678 61.8587L22.3654 59.6076" fill="white"/>
<path d="M26.7369 61.5282C26.7369 61.9772 26.5748 62.1954 26.263 62.1954C26.1009 62.1954 25.9824 62.1456 25.9075 62.0333C25.8327 61.9273 25.7891 61.7527 25.7891 61.5282V58.6286C25.7891 58.1859 25.9512 57.9614 26.263 57.9614C26.5748 57.9614 26.7369 58.1859 26.7369 58.6286" fill="white"/>
<path d="M30.2095 60.8049C30.2095 61.073 30.1471 61.3162 30.0162 61.5282C29.8852 61.734 29.6982 61.9024 29.455 62.0146C29.2118 62.1331 28.9312 62.1954 28.6069 62.1954C28.3575 62.1954 28.133 62.1643 27.9272 62.1019C27.7152 62.0333 27.5593 61.9585 27.4408 61.8525C27.3286 61.7527 27.2725 61.6467 27.2725 61.5345C27.2725 61.4534 27.2912 61.3786 27.3286 61.3162C27.366 61.2538 27.4221 61.204 27.4969 61.1666C27.5655 61.1354 27.6466 61.1104 27.7401 61.1104C27.815 61.1104 27.9646 61.1478 28.1891 61.2164C28.4136 61.285 28.6007 61.3224 28.7441 61.3224C28.875 61.3224 28.9935 61.2788 29.0808 61.1977C29.1681 61.1167 29.2118 61.0169 29.2118 60.8984C29.2118 60.7924 29.1806 60.7051 29.1245 60.6365C29.0746 60.5679 28.9935 60.5118 28.8938 60.4681C28.7877 60.4245 28.663 60.3808 28.4884 60.3247C28.0769 60.2 27.7776 60.0504 27.5967 59.882C27.4096 59.7074 27.3223 59.4642 27.3223 59.1524C27.3223 58.9092 27.3847 58.6847 27.5094 58.4852C27.6341 58.2856 27.8087 58.1297 28.0332 58.0175C28.2577 57.9053 28.5258 57.8429 28.8189 57.8429C29.1557 57.8429 29.43 57.9053 29.6358 58.0175C29.8416 58.136 29.9476 58.2794 29.9476 58.4478C29.9476 58.5662 29.9102 58.6723 29.8354 58.7409C29.7605 58.8094 29.6545 58.8469 29.5236 58.8469C29.455 58.8469 29.3427 58.8219 29.1681 58.772C28.9935 58.7221 28.8688 58.7034 28.7815 58.7034C28.6381 58.7034 28.5196 58.7346 28.4385 58.8032C28.3575 58.8718 28.3201 58.9529 28.3201 59.0589C28.3201 59.1337 28.3388 59.1898 28.37 59.2335C28.4074 59.2771 28.451 59.3145 28.5196 59.3457C28.5757 59.3831 28.663 59.4143 28.7566 59.4455C28.8501 59.4767 28.9623 59.5078 29.0808 59.5515C29.3365 59.6388 29.5423 59.7386 29.7169 59.857C29.8852 59.9693 30.0162 60.1065 30.0973 60.2624C30.1783 60.4183 30.222 60.5929 30.222 60.8049" fill="white"/>
<path d="M31.2264 58.8905H30.8772C30.4345 58.8905 30.21 58.7471 30.21 58.4602C30.21 58.1734 30.4345 58.0175 30.8772 58.0175H32.5172C32.9662 58.0175 33.1906 58.1609 33.1906 58.4602C33.1906 58.7596 32.9662 58.8905 32.5172 58.8905H32.168V61.5282C32.168 61.9772 32.0059 62.1954 31.6941 62.1954C31.5319 62.1954 31.4197 62.1456 31.3386 62.0333C31.2576 61.9211 31.2202 61.7527 31.2202 61.5282" fill="white"/>
<path d="M35.149 58.0611C35.598 58.0611 35.8162 58.2108 35.8162 58.5039C35.8162 58.7969 35.5918 58.9341 35.149 58.9341H34.382V59.6699H35.043C35.492 59.6699 35.7165 59.8134 35.7165 60.1065C35.7165 60.3995 35.492 60.543 35.043 60.543H34.382V61.31H35.174C35.6229 61.31 35.8474 61.4596 35.8474 61.7465C35.8474 62.0333 35.6229 62.1892 35.174 62.1892H34.0827C33.9081 62.1892 33.7834 62.1705 33.6961 62.1331C33.6088 62.0957 33.534 62.0395 33.5028 61.9522C33.4654 61.8712 33.4404 61.7465 33.4404 61.5906V58.7159C33.4404 58.56 33.4591 58.429 33.4965 58.3417C33.534 58.2482 33.6026 58.1796 33.6961 58.1297C33.7896 58.0798 33.9206 58.0611 34.0952 58.0611" fill="white"/>
<path d="M37.318 59.8508H37.7482C37.9415 59.8508 38.0912 59.8072 38.191 59.7136C38.2907 59.6326 38.3468 59.5016 38.3468 59.3395C38.3468 59.2335 38.3219 59.1462 38.2783 59.0713C38.2346 58.9965 38.166 58.9404 38.0787 58.903C37.9914 58.8656 37.8854 58.8406 37.7607 58.8406H37.3117V59.8446L37.318 59.8508ZM37.318 60.4806V61.497C37.318 61.9398 37.1621 62.1643 36.844 62.1643C36.6819 62.1643 36.5697 62.1081 36.4824 62.0021C36.4075 61.8899 36.3701 61.7278 36.3701 61.497V58.6411C36.3701 58.4852 36.3826 58.3542 36.42 58.2607C36.4574 58.1609 36.5198 58.0923 36.6195 58.0487C36.7131 58.005 36.844 57.9801 37.0124 57.9801H37.742C38.2471 57.9801 38.6337 58.1048 38.9081 58.3355C39.1824 58.5725 39.3134 58.8843 39.3134 59.2709C39.3134 59.5702 39.2323 59.8134 39.0577 60.0129C38.8831 60.2062 38.6399 60.331 38.3281 60.3871L39.0702 61.2164C39.2573 61.4222 39.3508 61.603 39.3508 61.7589C39.3508 61.8837 39.3134 61.9834 39.2261 62.0707C39.1388 62.158 39.0328 62.2017 38.9081 62.2017C38.8208 62.2017 38.7397 62.1705 38.6649 62.1206C38.5838 62.0645 38.4965 61.9772 38.3967 61.8649" fill="white"/>
<path d="M42.5692 60.8049C42.5692 61.073 42.5006 61.3162 42.3697 61.5282C42.2387 61.734 42.0517 61.9024 41.8085 62.0146C41.5653 62.1331 41.2784 62.1954 40.9604 62.1954C40.7172 62.1954 40.4927 62.1643 40.2807 62.1019C40.075 62.0333 39.9128 61.9585 39.7943 61.8525C39.6821 61.7527 39.626 61.6467 39.626 61.5344C39.626 61.4534 39.6447 61.3785 39.6821 61.3162C39.7195 61.2538 39.7756 61.204 39.8505 61.1665C39.9253 61.1354 40.0001 61.1104 40.0937 61.1104C40.1685 61.1104 40.3119 61.1478 40.5426 61.2164C40.7609 61.285 40.9417 61.3224 41.0976 61.3224C41.2348 61.3224 41.3408 61.2788 41.4343 61.1977C41.5154 61.1167 41.5591 61.0169 41.5591 60.8984C41.5591 60.7924 41.5341 60.7051 41.478 60.6365C41.4219 60.5679 41.3408 60.5118 41.241 60.4681C41.1413 60.4245 41.0103 60.3808 40.8357 60.3247C40.4179 60.2 40.1248 60.0503 39.9378 59.882C39.7569 59.7074 39.6634 59.4642 39.6634 59.1524C39.6634 58.9092 39.7257 58.6847 39.8505 58.4852C39.9752 58.2856 40.1498 58.1297 40.3805 58.0175C40.605 57.9052 40.8731 57.8429 41.1662 57.8429C41.5029 57.8429 41.7773 57.9052 41.9831 58.0175C42.1889 58.136 42.2949 58.2794 42.2949 58.4478C42.2949 58.5662 42.2575 58.6722 42.1826 58.7408C42.1078 58.8094 42.0018 58.8468 41.8708 58.8468C41.8085 58.8468 41.6838 58.8219 41.5154 58.772C41.347 58.7221 41.2161 58.7034 41.1288 58.7034C40.9854 58.7034 40.8731 58.7346 40.7921 58.8032C40.711 58.8718 40.6736 58.9528 40.6736 59.0589C40.6736 59.1337 40.6861 59.1898 40.7172 59.2335C40.7546 59.2771 40.7983 59.3145 40.8607 59.3457C40.923 59.3831 41.0103 59.4143 41.1038 59.4455C41.1974 59.4766 41.3096 59.5078 41.4219 59.5515C41.6775 59.6388 41.8895 59.7386 42.0579 59.857C42.2263 59.9693 42.3572 60.1065 42.4445 60.2624C42.5256 60.4183 42.5692 60.5928 42.5692 60.8049Z" fill="white"/>
<path d="M43.5795 58.8905H43.2366C42.7876 58.8905 42.5693 58.7471 42.5693 58.4602C42.5693 58.1734 42.7938 58.0175 43.2366 58.0175H44.8766C45.3255 58.0175 45.55 58.1609 45.55 58.4602C45.55 58.7596 45.3255 58.8905 44.8766 58.8905H44.5336V61.5282C44.5336 61.9772 44.3777 62.1954 44.0597 62.1954C43.9038 62.1954 43.7915 62.1456 43.7042 62.0333C43.6294 61.9211 43.5858 61.7527 43.5858 61.5282" fill="white"/>
<path d="M46.6667 61.84L45.4008 58.6785C45.3697 58.5912 45.3447 58.4976 45.3447 58.4103C45.3447 58.2732 45.3884 58.1671 45.4881 58.0736C45.5817 57.9863 45.6939 57.9427 45.8311 57.9427C45.9371 57.9427 46.0182 57.9738 46.0868 58.0362C46.1491 58.0986 46.2053 58.2046 46.2614 58.348L47.1344 60.6989L47.945 58.3854C48.0012 58.2295 48.0635 58.111 48.1321 58.0424C48.1945 57.9738 48.288 57.9427 48.4065 57.9427C48.5499 57.9427 48.6621 57.9801 48.7432 58.0611C48.8243 58.136 48.8679 58.242 48.8679 58.3729C48.8679 58.4852 48.8492 58.5912 48.8056 58.7034L47.5834 61.8088C47.5272 61.946 47.4649 62.052 47.3838 62.1081C47.309 62.1705 47.2217 62.2017 47.1032 62.2017C47.0221 62.2017 46.9598 62.1892 46.9099 62.1643C46.8538 62.1393 46.8101 62.1019 46.7665 62.052C46.7291 62.0021 46.6917 61.9335 46.6542 61.8462" fill="white"/>
<path d="M50.0843 60.4806H51.0695L50.5894 58.9466L50.0843 60.4806ZM49.8162 61.3598L49.6727 61.7714C49.5854 62.052 49.4358 62.1892 49.2175 62.1892C49.1365 62.1892 49.0554 62.1767 48.993 62.1331C48.9244 62.0957 48.8683 62.0458 48.8309 61.9772C48.7935 61.9024 48.7686 61.8275 48.7686 61.7402C48.7686 61.6405 48.7873 61.5469 48.8122 61.4721L49.8847 58.5538C49.9658 58.348 50.0593 58.1921 50.1778 58.0986C50.2963 57.9988 50.4397 57.9427 50.6143 57.9427C50.7765 57.9427 50.9136 57.9926 51.0321 58.0799C51.1568 58.1734 51.2441 58.3106 51.3065 58.4914L52.3541 61.4596C52.3915 61.5781 52.4165 61.6779 52.4165 61.7589C52.4165 61.8899 52.3666 61.9959 52.2793 62.077C52.192 62.158 52.0797 62.2017 51.9488 62.2017C51.8303 62.2017 51.7305 62.1643 51.6495 62.0832C51.5684 62.0084 51.506 61.8961 51.4562 61.7402L51.3439 61.3598" fill="white"/>
<path d="M55.2285 61.8026L53.9751 58.6411C53.9377 58.5538 53.9189 58.4665 53.9189 58.3729C53.9189 58.2357 53.9626 58.1235 54.0561 58.0362C54.1497 57.9489 54.2619 57.9053 54.4053 57.9053C54.5051 57.9053 54.5924 57.9302 54.661 57.9988C54.7296 58.0611 54.7857 58.1671 54.8356 58.3106L55.7086 60.6614L56.5192 58.3418C56.5754 58.1859 56.6377 58.0674 56.7063 58.005C56.7749 57.9364 56.8684 57.9053 56.9869 57.9053C57.1241 57.9053 57.2364 57.9427 57.3174 58.0175C57.4047 58.0986 57.4421 58.2046 57.4421 58.3355C57.4421 58.4478 57.4234 58.5538 57.3798 58.6598L56.1576 61.7589C56.1015 61.9024 56.0391 62.0021 55.9643 62.0645C55.8894 62.1268 55.7959 62.158 55.6774 62.158C55.6026 62.158 55.5402 62.1456 55.4841 62.1206C55.4342 62.0957 55.3843 62.0582 55.3469 62.0084C55.3095 61.9585 55.2721 61.8899 55.2285 61.8026Z" fill="white"/>
<path d="M58.6516 61.4596C58.6516 61.9086 58.4957 62.1269 58.1839 62.1269C58.0217 62.1269 57.9095 62.0707 57.8284 61.9647C57.7474 61.8525 57.71 61.6841 57.71 61.4596V58.5226C57.71 58.1048 57.8534 57.8928 58.1465 57.8928C58.2462 57.8928 58.3398 57.9177 58.4146 57.9614C58.4957 58.0113 58.5705 58.0923 58.6516 58.1921L60.3851 60.4869V58.5538C60.3851 58.1048 60.541 57.8803 60.859 57.8803C61.177 57.8803 61.3267 58.1048 61.3267 58.5538V61.5594C61.3267 61.7527 61.2955 61.9024 61.2269 62.0021C61.1521 62.0957 61.0461 62.1456 60.8964 62.1456C60.7094 62.1456 60.5348 62.0333 60.3602 61.8026L58.6516 59.5515" fill="white"/>
<path d="M63.0227 61.4596C63.0227 61.9086 62.8668 62.1268 62.555 62.1268C62.3928 62.1268 62.2806 62.0707 62.1995 61.9647C62.1185 61.8524 62.0811 61.6841 62.0811 61.4596V58.56C62.0811 58.111 62.237 57.8865 62.555 57.8865C62.873 57.8865 63.0227 58.111 63.0227 58.56" fill="white"/>
<path d="M64.3133 58.8157H63.9641C63.5151 58.8157 63.2969 58.6722 63.2969 58.3854C63.2969 58.0986 63.5151 57.9427 63.9641 57.9427H65.6041C66.0531 57.9427 66.2713 58.0923 66.2713 58.3854C66.2713 58.6785 66.0531 58.8157 65.6041 58.8157H65.2549V61.4534C65.2549 61.9024 65.099 62.1206 64.7872 62.1206C64.6313 62.1206 64.5128 62.0645 64.4318 61.9522C64.357 61.8462 64.3133 61.6779 64.3133 61.4534" fill="white"/>
<path d="M67.4683 59.8134H67.9048C68.0981 59.8134 68.2416 59.7697 68.3476 59.6762C68.4536 59.5889 68.5035 59.4642 68.5035 59.3021C68.5035 59.2023 68.4848 59.115 68.4411 59.0402C68.3975 58.9653 68.3289 58.9092 68.2416 58.8718C68.1543 58.8344 68.0483 58.8094 67.9173 58.8094H67.4746V59.8134H67.4683ZM67.4683 60.4432V61.4596C67.4683 61.9086 67.3062 62.1268 66.9944 62.1268C66.8323 62.1268 66.7138 62.0707 66.639 61.9647C66.5579 61.8587 66.5205 61.6903 66.5205 61.4596V58.6037C66.5205 58.4415 66.533 58.3168 66.5704 58.2233C66.6078 58.1297 66.6764 58.0611 66.7699 58.0175C66.8635 57.9676 66.9944 57.9427 67.1753 57.9427H67.8986C68.4037 57.9427 68.7903 58.0611 69.0647 58.2981C69.3391 58.5288 69.4762 58.8406 69.4762 59.2335C69.4762 59.5265 69.3889 59.776 69.2206 59.9693C69.046 60.1626 68.8028 60.2873 68.491 60.3434L69.233 61.1728C69.4201 61.3786 69.5137 61.5594 69.5137 61.7153C69.5137 61.84 69.47 61.946 69.3827 62.0333C69.3016 62.1206 69.1894 62.1643 69.0647 62.1643C68.9774 62.1643 68.8963 62.1331 68.8153 62.0832C68.7404 62.0271 68.6531 61.9398 68.5534 61.8213" fill="white"/>
<path d="M70.9423 60.4307H71.9276L71.4474 58.903L70.9361 60.4307H70.9423ZM70.6742 61.3037L70.537 61.7153C70.4435 61.9897 70.2938 62.1331 70.0818 62.1331C69.9945 62.1331 69.9197 62.1144 69.8511 62.077C69.7825 62.0396 69.7326 61.9834 69.6952 61.9148C69.6578 61.8463 69.6328 61.7714 69.6328 61.6841C69.6328 61.5781 69.6515 61.4846 69.6765 61.4097L70.749 58.4914C70.8238 58.2794 70.9174 58.1298 71.0359 58.03C71.1543 57.924 71.2978 57.8803 71.4661 57.8803C71.6345 57.8803 71.7717 57.924 71.8839 58.0175C72.0024 58.111 72.0959 58.2482 72.1583 58.4228L73.2059 61.391C73.2433 61.5158 73.2683 61.6093 73.2683 61.6904C73.2683 61.8213 73.2246 61.9273 73.1373 62.0021C73.0438 62.0832 72.9315 62.1331 72.8068 62.1331C72.6821 62.1331 72.5886 62.0894 72.5075 62.0146C72.4264 61.9398 72.3578 61.8275 72.3142 61.6716L72.1957 61.2913" fill="white"/>
<path d="M77.3329 62.1954C77.0398 62.1954 76.7654 62.1456 76.516 62.0395C76.2666 61.9398 76.0546 61.7901 75.8737 61.5968C75.6929 61.4035 75.5557 61.1728 75.4559 60.9046C75.3561 60.6365 75.3125 60.3372 75.3125 60.0067C75.3125 59.5764 75.3998 59.196 75.5806 58.8656C75.7615 58.5351 76.0047 58.2732 76.3165 58.0923C76.622 57.9177 76.965 57.8242 77.3454 57.8242C77.5761 57.8242 77.7943 57.8554 77.9814 57.9177C78.1747 57.9801 78.3181 58.0674 78.4241 58.1672C78.5301 58.2669 78.5863 58.3729 78.5863 58.4852C78.5863 58.5974 78.5426 58.691 78.4678 58.7783C78.3867 58.8656 78.2932 58.9092 78.1872 58.9092C78.1311 58.9092 78.0063 58.878 77.8255 58.8281C77.6447 58.772 77.4888 58.7471 77.3578 58.7471C77.1583 58.7471 76.9837 58.797 76.8278 58.903C76.6719 59.0027 76.5534 59.1586 76.4723 59.3519C76.385 59.5452 76.3476 59.7697 76.3476 60.0316C76.3476 60.2935 76.385 60.5118 76.4723 60.6989C76.5596 60.8859 76.6844 61.0294 76.834 61.1291C76.9899 61.2289 77.177 61.2788 77.3828 61.2788C77.5262 61.2788 77.6883 61.2476 77.8879 61.1728C78.0812 61.1042 78.2059 61.0668 78.262 61.0668C78.3618 61.0668 78.4491 61.1104 78.5239 61.1915C78.605 61.2725 78.6424 61.3661 78.6424 61.4783C78.6424 61.603 78.5863 61.7215 78.474 61.8338C78.3618 61.9398 78.2059 62.0333 78.0063 62.0957C77.8068 62.1643 77.5823 62.1954 77.3391 62.1954H77.3329ZM77.0647 56.8202L77.5698 56.5209C77.6821 56.4586 77.7632 56.4274 77.8317 56.4274C77.9128 56.4274 77.9752 56.4523 78.0251 56.5084C78.0749 56.5646 78.0999 56.6394 78.0999 56.7267C78.0999 56.7953 78.0874 56.8514 78.0625 56.9013C78.0375 56.9512 77.9876 56.9948 77.9253 57.0385L77.2955 57.5373C77.2206 57.5935 77.1396 57.6184 77.0585 57.6184C76.9774 57.6184 76.8901 57.5935 76.8215 57.5373L76.1855 57.0385C76.1232 56.9886 76.0795 56.9387 76.0483 56.9013C76.0234 56.8576 76.0109 56.7953 76.0109 56.7267C76.0109 56.6332 76.0358 56.5646 76.092 56.5084C76.1419 56.4523 76.2104 56.4274 76.2853 56.4274C76.3539 56.4274 76.4474 56.4586 76.5534 56.5209" fill="white"/>
<path d="M79.9588 59.8134H80.3953C80.5886 59.8134 80.7383 59.7697 80.838 59.6762C80.9378 59.5889 80.9939 59.4642 80.9939 59.3021C80.9939 59.2023 80.969 59.115 80.9253 59.0402C80.8817 58.9653 80.8131 58.9092 80.7258 58.8718C80.6385 58.8344 80.5325 58.8094 80.4015 58.8094H79.9588V59.8134ZM79.9588 60.4432V61.4596C79.9588 61.9086 79.8029 62.1268 79.4911 62.1268C79.329 62.1268 79.2105 62.0707 79.1357 61.9647C79.0609 61.8587 79.0234 61.6903 79.0234 61.4596V58.6037C79.0234 58.4415 79.0422 58.3168 79.0796 58.2233C79.117 58.1297 79.1793 58.0611 79.2729 58.0175C79.3664 57.9676 79.4974 57.9427 79.672 57.9427H80.4078C80.9129 57.9427 81.2995 58.0611 81.5739 58.2981C81.8482 58.5288 81.9854 58.8406 81.9854 59.2335C81.9854 59.5265 81.8981 59.776 81.7235 59.9693C81.5489 60.1626 81.312 60.2873 81.0002 60.3434L81.7422 61.1728C81.9293 61.3786 82.0291 61.5594 82.0291 61.7153C82.0291 61.84 81.9854 61.946 81.8981 62.0333C81.817 62.1206 81.7048 62.1643 81.5801 62.1643C81.4928 62.1643 81.4117 62.1331 81.3307 62.0832C81.2558 62.0271 81.1685 61.9398 81.0688 61.8213" fill="white"/>
<path d="M7.68036 59.3083H7.15033C6.97572 59.3083 6.97573 59.4891 6.97573 59.4891V60.3683C6.97573 60.755 6.65147 61.073 6.26485 61.073C5.87823 61.073 5.56021 60.755 5.56021 60.3683V59.4891C5.56021 59.4891 5.56021 59.3083 5.38561 59.3083H2.73542C2.3488 59.3083 2.03078 58.9965 2.03078 58.6036C2.03078 58.429 2.09314 58.2669 2.19914 58.1422L4.29435 55.3423C4.35671 55.2613 4.33177 55.068 4.13846 55.068H2.73542C2.3488 55.068 2.03078 54.7499 2.03078 54.3633C2.03078 53.9767 2.3488 53.6525 2.73542 53.6525H7.68036C9.23306 53.6525 10.4989 54.9245 10.4989 56.4835C10.4989 58.0424 9.23306 59.302 7.68036 59.302V59.3083ZM10.4989 51.5385H2.03078C1.44462 51.5385 0.970703 52.0187 0.970703 52.5986V61.073C0.970703 61.6591 1.44462 62.1268 2.03078 62.1268H10.4989C11.0851 62.1268 11.559 61.6529 11.559 61.073V52.5986C11.559 52.0187 11.0851 51.5385 10.4989 51.5385Z" fill="white"/>
<path d="M6.27111 57.5498C5.8845 57.5498 5.56648 57.2318 5.56648 56.8452C5.56648 56.4586 5.8845 56.1405 6.27111 56.1405C6.65773 56.1405 6.97576 56.4586 6.97576 56.8452C6.97576 57.2318 6.65773 57.5498 6.27111 57.5498ZM7.68039 55.0742H6.35218C6.28359 55.0742 6.2337 55.1116 6.21499 55.1366L4.35051 57.6309C4.30062 57.687 4.30062 57.9053 4.51264 57.9053H7.67416C8.45362 57.9053 9.08967 57.2692 9.08967 56.496C9.08967 55.7227 8.45362 55.0805 7.67416 55.0805" fill="white"/>
<path d="M27.785 39.4786C30.6597 39.4786 32.8796 40.7881 32.8796 43.7875C32.8796 46.7869 30.6597 48.1089 28.1779 48.1089H6.35279C3.47811 48.1089 1.25195 46.7994 1.25195 43.7875C1.25195 42.4157 2.10001 41.2433 2.761 40.4576C8.17986 33.9912 14.0602 28.1109 19.0238 20.9211C20.2024 19.2187 21.3123 17.1983 21.3123 14.8474C21.3123 12.1661 19.2857 9.8152 16.6106 9.8152C9.09651 9.8152 12.6883 20.3973 6.42138 20.3973C3.28481 20.3973 1.6448 18.1773 1.6448 15.6269C1.6448 7.39573 8.96557 0.798319 17.0034 0.798319C25.0413 0.798319 31.5015 6.09246 31.5015 14.386C31.5015 23.4715 21.3747 32.4821 15.8249 39.4786H27.785Z" fill="white"/>
<path d="M52.5963 1.69004C52.4903 1.6651 52.3905 1.62769 52.2782 1.61522C52.0163 1.5778 51.7482 1.54663 51.4801 1.54663C50.4512 1.54663 49.4971 1.85217 48.6927 2.38221C48.119 2.76259 35.1923 11.6797 35.1923 11.6797C33.2093 13.6627 33.2093 16.8803 35.1923 18.8633C37.1753 20.8462 39.9003 20.5594 42.3696 18.8633L46.3979 16.3877V43.457C46.3979 46.2631 48.674 48.5329 51.4801 48.5329C54.2861 48.5329 56.5622 46.2631 56.5622 43.457V6.62875C56.5622 4.20928 54.8598 2.20761 52.59 1.69628" fill="white"/>
<path d="M77.8826 1.69004C77.7766 1.66509 77.6768 1.62768 77.5646 1.61521C77.3027 1.5778 77.0345 1.54662 76.7726 1.54662C75.7437 1.54662 74.7834 1.85217 73.9853 2.38221C73.4053 2.76259 60.4786 11.6797 60.4786 11.6797C58.5019 13.6627 58.5019 16.8803 60.4786 18.8633C62.4678 20.8462 65.1929 20.5594 67.6622 18.8633L71.6905 16.3877V43.457C71.6905 46.2631 73.9665 48.5329 76.7726 48.5329C79.5787 48.5329 81.8485 46.2631 81.8485 43.457V6.62874C81.8485 4.20928 80.1462 2.20761 77.8826 1.69627" fill="white"/>
</svg>
