<svg width="202" height="55" viewBox="0 0 202 55" fill="none" xmlns="http://www.w3.org/2000/svg">
<path d="M10.5829 21.6286H0.139648V32.0718H10.5829V21.6286Z" fill="#00ABE5"/>
<path d="M31.4696 0.749786H21.0264V11.193H31.4696V0.749786Z" fill="#00ABE5"/>
<path d="M31.4696 42.515H21.0264V52.9582H31.4696V42.515Z" fill="#00ABE5"/>
<path d="M52.3563 21.6286H41.9131V32.0718H52.3563V21.6286Z" fill="#CA0538"/>
<path d="M4.10059 12.0851L13.6441 21.6285H21.0266V14.246L11.4831 4.70251L4.10059 12.0851ZM48.4036 12.0851L41.021 4.70251L31.4775 14.246V21.6285H38.8601L48.4036 12.0851ZM38.8601 32.0718H31.4775V39.4543L41.021 48.9978L48.4036 41.6153L38.8601 32.0718ZM4.10827 41.6153L11.4908 48.9978L21.0343 39.4543V32.0718H13.6518L4.10827 41.6153Z" fill="#00ABE5"/>
<path d="M70.7517 21.4517L69.7366 22.982C69.1752 22.5668 68.5831 22.3514 67.9525 22.3514C67.1988 22.3514 66.4606 22.7206 66.053 23.3127C65.6223 23.9587 65.4224 24.8892 65.4224 26.1888C65.4224 27.7192 65.5531 28.5651 65.8915 29.1803C66.3452 30.0031 67.0835 30.4338 68.0447 30.4338C68.6523 30.4338 69.1829 30.2569 69.7289 29.8878C69.7904 29.8417 69.875 29.7724 69.9519 29.7109L70.9824 31.1259C70.098 31.8488 69.1521 32.1718 67.8833 32.1718C66.3375 32.1718 65.1532 31.6719 64.2304 30.626C63.3307 29.6109 62.877 28.2652 62.877 26.6272C62.877 25.2276 63.1154 24.1202 63.6306 23.1512C64.4996 21.5286 66.1068 20.5596 67.9063 20.5596C69.0137 20.5596 70.1211 20.9134 70.7363 21.444L70.7517 21.4517ZM69.9827 18.1065L67.3757 20.0521L64.7072 18.1065L65.3686 17.0452L67.3757 18.1526L69.3213 17.0452L69.9827 18.1065Z" fill="#CA0538"/>
<path d="M77.6111 29.7955L78.4493 31.0798C77.5034 31.8488 76.5037 32.2179 75.3502 32.2179C72.9893 32.2179 71.459 30.5491 71.459 27.9576C71.459 26.4811 71.7666 25.4967 72.4895 24.6969C73.1662 23.9433 73.9814 23.5896 75.0811 23.5896C76.0269 23.5896 76.9267 23.9125 77.4573 24.4585C78.2109 25.2276 78.5493 26.3426 78.5493 28.0575V28.5574H73.7891V28.6189C73.7891 29.8878 74.412 30.6107 75.5271 30.6107C76.2653 30.6107 76.9575 30.3338 77.6188 29.7878L77.6111 29.7955ZM73.8199 26.9809H76.3115V26.8809C76.3115 26.2734 76.25 25.9504 76.0577 25.6428C75.8501 25.3198 75.5425 25.1583 75.1118 25.1583C74.289 25.1583 73.8276 25.8043 73.8276 26.9425V26.9732L73.8199 26.9809Z" fill="#CA0538"/>
<path d="M85.7168 24.297L85.0093 25.7428C84.1865 25.3275 83.5943 25.1507 82.9868 25.1507C82.3793 25.1507 81.9409 25.4736 81.9409 25.9581C81.9409 26.3734 82.2178 26.6041 82.9714 26.7963L83.9711 27.0501C84.9862 27.3039 85.3246 27.6115 85.6092 27.9806C85.9168 28.3651 86.0629 28.8342 86.0629 29.3802C86.0629 31.0875 84.6479 32.241 82.5408 32.241C81.5257 32.241 80.4183 31.918 79.2109 31.2951L79.98 29.7186C80.6413 30.1185 81.7795 30.6491 82.71 30.6491C83.3175 30.6491 83.802 30.2492 83.802 29.7186C83.802 29.1572 83.4021 28.865 82.5331 28.7035L81.5718 28.5266C81.0258 28.4267 80.3491 28.0422 80.0569 27.6884C79.7646 27.3347 79.5878 26.7425 79.5878 26.2119C79.5878 24.6047 80.8566 23.528 82.7715 23.528C84.0865 23.528 84.9555 23.9279 85.7168 24.297Z" fill="#CA0538"/>
<path d="M87.3232 20.5673L89.4919 20.0367C89.5918 20.6442 89.6226 21.6132 89.6226 22.7052V31.9795H87.4694V22.7052C87.4694 21.9823 87.454 21.4209 87.3232 20.5673ZM91.7758 23.7203H94.3674L91.7451 27.1962L94.9749 31.9872H92.4372L89.6687 27.327L91.7758 23.728V23.7203Z" fill="#CA0538"/>
<path d="M95.2522 24.7354C95.7828 24.397 96.0058 24.3047 96.5903 24.0587C97.3977 23.7357 98.0822 23.5742 98.8435 23.5742C100.228 23.5742 101.174 24.0894 101.497 25.0045C101.612 25.3429 101.658 25.5967 101.643 26.4811L101.597 29.2495V29.3956C101.597 30.28 101.743 30.6184 102.366 31.0798L101.227 32.3948C100.728 32.1871 100.282 31.818 100.066 31.3951C99.7586 31.6873 99.7279 31.718 99.5664 31.8257C99.1665 32.1179 98.582 32.2794 97.913 32.2794C96.0827 32.2794 95.083 31.3489 95.083 29.7109C95.083 27.7807 96.4134 26.8809 99.0357 26.8809C99.1972 26.8809 99.2895 26.8809 99.5202 26.8963V26.558C99.5202 25.6428 99.3434 25.3352 98.559 25.3352C97.8668 25.3352 97.0671 25.6736 96.1827 26.2657L95.2676 24.72L95.2522 24.7354ZM99.9432 19.7829L100.828 21.3594L97.4054 22.8898L96.7748 21.767L99.9432 19.7906V19.7829ZM99.4741 28.3805H99.3741C97.8822 28.3805 97.367 28.6574 97.367 29.634C97.367 30.28 97.7669 30.7106 98.3129 30.7106C98.7128 30.7106 99.1203 30.503 99.4356 30.1493L99.4664 28.3805H99.4741Z" fill="#CA0538"/>
<path d="M108.933 23.9279L110.847 23.5896C110.924 23.8818 110.978 24.1048 110.994 24.3586C111.363 23.9049 112.186 23.5896 113.016 23.5896C113.593 23.5896 114.193 23.7818 114.639 24.0894C115.523 24.6816 116.169 25.7428 116.169 27.6423C116.169 29.411 115.892 30.3261 115.031 31.2259C114.47 31.818 113.731 32.1564 112.832 32.1564C112.186 32.1564 111.578 31.9949 111.109 31.7257C111.14 31.918 111.14 32.4025 111.14 32.4025V34.971L109.063 35.517V25.9966C109.063 24.9199 109.048 24.6123 108.933 23.9202V23.9279ZM111.147 29.9724C111.44 30.2108 111.901 30.4569 112.339 30.4569C113.401 30.4569 113.816 29.734 113.816 27.8499C113.816 27.0655 113.754 26.4349 113.608 26.035C113.447 25.5813 113.108 25.3429 112.578 25.3429C112.047 25.3429 111.532 25.5659 111.147 25.9735V29.9724Z" fill="#CA0538"/>
<path d="M117.561 24.074L119.491 23.5588C119.683 23.8972 119.798 24.2663 119.829 24.7354C120.137 24.3201 120.652 23.8818 121.052 23.6895C121.229 23.6126 121.521 23.5588 121.759 23.5588C122.082 23.5588 122.228 23.5896 122.567 23.7357L121.975 25.6351C121.767 25.5198 121.59 25.4736 121.344 25.4736C120.86 25.4736 120.429 25.6967 120.029 26.1658V31.9872H117.876V26.4887C117.876 25.3814 117.745 24.5431 117.568 24.074H117.561Z" fill="#CA0538"/>
<path d="M123.43 23.9433L125.552 23.5434V28.8342C125.552 29.5725 125.598 29.957 125.729 30.1877C125.844 30.4107 126.16 30.5722 126.483 30.5722C127.013 30.5722 127.659 30.1877 127.821 29.7878V23.9971L129.882 23.5665V29.8493C129.882 30.3953 130.059 30.9567 130.382 31.3412L128.851 32.2102C128.574 32.018 128.351 31.7411 128.205 31.4028C127.675 31.918 126.906 32.1871 126.037 32.1871C124.883 32.1871 123.883 31.6411 123.607 30.8491C123.476 30.4799 123.43 30.0416 123.43 29.2111V23.9356V23.9433ZM126.79 19.683C127.805 19.683 128.636 20.5366 128.636 21.567C128.636 22.5975 127.782 23.4511 126.752 23.4511C125.721 23.4511 124.922 22.5975 124.922 21.567C124.922 20.5366 125.791 19.683 126.783 19.683H126.79ZM125.875 21.567C125.875 22.0669 126.275 22.4668 126.76 22.4668C127.244 22.4668 127.659 22.0669 127.659 21.567C127.659 21.0672 127.275 20.6673 126.79 20.6673C126.275 20.6673 125.875 21.0672 125.875 21.567Z" fill="#CA0538"/>
<path d="M131.772 24.1356L133.718 23.6049C133.864 23.8279 133.926 24.0202 134.01 24.4432C134.572 23.8972 135.264 23.6049 136.017 23.6049C136.694 23.6049 137.255 23.8279 137.686 24.2817C137.801 24.397 137.848 24.4585 138.009 24.6816C138.763 23.9125 139.439 23.6049 140.339 23.6049C140.985 23.6049 141.593 23.7972 141.962 24.1202C142.431 24.5201 142.569 25.0045 142.569 26.1273V31.9795H140.478V26.5426C140.478 25.5582 140.362 25.366 139.801 25.366C139.401 25.366 138.84 25.6428 138.371 26.0581V31.9718H136.333V26.6195C136.333 25.589 136.186 25.3506 135.594 25.3506C135.194 25.3506 134.648 25.5582 134.179 25.9812V31.9795H132.072V26.2427C132.072 25.0507 131.995 24.5354 131.765 24.1356H131.772Z" fill="#CA0538"/>
<path d="M143.639 23.8971L145.838 23.6434L147.268 28.4343C147.414 28.9342 147.699 30.1416 147.699 30.1416C147.699 30.1416 147.86 29.2264 147.953 28.8265C148.083 28.3113 148.099 28.2344 148.276 27.6884L149.514 23.7818H151.782L148.791 32.1256C148.23 33.7175 147.807 34.4096 147.214 34.8402C146.668 35.2401 145.961 35.5016 145.223 35.5939L144.484 34.1789C144.954 34.0482 145.5 33.8559 145.815 33.6329C146.053 33.456 146.246 33.233 146.422 32.9562C146.63 32.6178 146.699 32.4717 146.891 31.9949H146.345C146.215 31.6104 146.153 31.4489 146.007 31.0336C145.846 30.5338 145.592 29.7186 145.576 29.6801L143.631 23.9125L143.639 23.8971Z" fill="#CA0538"/>
<path d="M158.334 24.297L157.627 25.7428C156.804 25.3275 156.212 25.1507 155.604 25.1507C154.996 25.1507 154.558 25.4736 154.558 25.9581C154.558 26.3734 154.835 26.6041 155.589 26.7963L156.588 27.0501C157.603 27.3039 157.942 27.6115 158.226 27.9806C158.534 28.3651 158.68 28.8342 158.68 29.3802C158.68 31.0875 157.265 32.241 155.158 32.241C154.143 32.241 153.035 31.918 151.828 31.2951L152.597 29.7186C153.258 30.1185 154.397 30.6491 155.327 30.6491C155.935 30.6491 156.419 30.2492 156.419 29.7186C156.419 29.1572 156.019 28.865 155.15 28.7035L154.189 28.5266C153.643 28.4267 152.966 28.0422 152.674 27.6884C152.382 27.3347 152.205 26.7425 152.205 26.2119C152.205 24.6047 153.474 23.528 155.389 23.528C156.704 23.528 157.573 23.9279 158.334 24.297Z" fill="#CA0538"/>
<path d="M162.21 20.0828C162.287 20.5366 162.325 21.0672 162.325 22.2207V28.6343C162.325 30.0493 162.341 30.2415 162.471 30.4646C162.548 30.6107 162.725 30.6876 162.902 30.6876C162.979 30.6876 163.033 30.6876 163.141 30.6568L163.51 31.9411C163.141 32.0872 162.687 32.1641 162.225 32.1641C161.31 32.1641 160.572 31.7334 160.311 31.0413C160.149 30.626 160.118 30.3646 160.118 29.1957V23.0512C160.118 21.9746 160.088 21.3133 160.003 20.575L162.202 20.0751L162.21 20.0828Z" fill="#CA0538"/>
<path d="M167.593 23.5896C168.769 23.5896 169.684 23.9894 170.392 24.8277C171.053 25.5967 171.338 26.4964 171.338 27.8345C171.338 29.2495 171.015 30.2108 170.307 31.0182C169.677 31.7257 168.861 32.1564 167.593 32.1564C165.355 32.1564 163.894 30.4876 163.894 27.896C163.894 25.3045 165.37 23.5896 167.593 23.5896ZM167.623 25.1814C167.108 25.1814 166.693 25.5044 166.516 26.0196C166.37 26.4503 166.293 27.0347 166.293 27.8499C166.293 28.7958 166.393 29.5033 166.57 29.9262C166.762 30.38 167.246 30.603 167.662 30.603C168.592 30.603 169 29.7647 169 27.8191C169 26.7118 168.854 25.9889 168.569 25.6198C168.362 25.3429 168.023 25.1891 167.639 25.1891L167.623 25.1814Z" fill="#CA0538"/>
<path d="M171.745 23.8818L173.944 23.6049L175.136 27.3193C175.313 27.8653 175.552 28.765 175.667 29.2956C175.729 28.8112 175.905 28.0268 176.167 27.2039L177.274 23.751H179.528L176.521 31.9795H174.737L171.745 23.8741V23.8818Z" fill="#CA0538"/>
<path d="M180.181 24.7354C180.712 24.397 180.935 24.3047 181.519 24.0587C182.326 23.7357 183.011 23.5742 183.772 23.5742C185.156 23.5742 186.102 24.0894 186.425 25.0045C186.541 25.3429 186.587 25.5967 186.571 26.4811L186.525 29.2495V29.3956C186.525 30.28 186.671 30.6184 187.294 31.0798L186.156 32.3948C185.656 32.1871 185.21 31.818 184.995 31.3951C184.687 31.6873 184.657 31.718 184.495 31.8257C184.095 32.1179 183.511 32.2794 182.842 32.2794C181.011 32.2794 180.012 31.3489 180.012 29.7109C180.012 27.7807 181.342 26.8809 183.964 26.8809C184.126 26.8809 184.218 26.8809 184.449 26.8963V26.558C184.449 25.6428 184.272 25.3352 183.488 25.3352C182.796 25.3352 181.996 25.6736 181.111 26.2657L180.196 24.72L180.181 24.7354ZM184.872 19.7829L185.756 21.3594L182.334 22.8898L181.704 21.767L184.872 19.7906V19.7829ZM184.403 28.3805H184.303C182.811 28.3805 182.296 28.6574 182.296 29.634C182.296 30.28 182.696 30.7106 183.242 30.7106C183.641 30.7106 184.049 30.503 184.364 30.1493L184.395 28.3805H184.403Z" fill="#CA0538"/>
<path d="M62.8533 42.5304H68.9592V44.0069L65.3295 49.2132H69.1054L68.5901 50.705H62.5303V49.3746L66.4061 44.0377H62.8533V42.5227V42.5304Z" fill="#00ABE5"/>
<path d="M77.0029 39.1544V47.7059C77.0029 49.7284 77.1644 50.3897 77.3105 50.7127H75.3803C75.3188 50.582 75.2803 50.4589 75.2496 50.2282C74.719 50.6973 74.0884 50.9204 73.3501 50.9204C71.2584 50.9204 69.9434 49.2977 69.9434 46.7369C69.9434 44.1761 71.3737 42.3997 73.4655 42.3997C74.0576 42.3997 74.5267 42.5458 74.9266 42.8688C74.8958 42.6919 74.8651 42.1305 74.8651 41.646V38.8161L77.0029 39.1544ZM74.8958 44.6529C74.4959 44.2991 74.1114 44.1223 73.7192 44.1223C72.758 44.1223 72.335 44.9297 72.335 46.76C72.335 48.5902 72.7041 49.1055 73.8269 49.1055C74.2268 49.1055 74.6805 48.8286 74.8881 48.5749V44.6529H74.8958Z" fill="#00ABE5"/>
<path d="M78.9795 42.8073L80.9097 42.292C81.102 42.6304 81.2173 42.9995 81.2481 43.4686C81.5557 43.0533 82.0709 42.615 82.4708 42.4228C82.6477 42.3459 82.9399 42.292 83.1783 42.292C83.5013 42.292 83.6474 42.3228 83.9858 42.4689L83.3936 44.3684C83.186 44.253 83.0091 44.2069 82.763 44.2069C82.2786 44.2069 81.8479 44.4299 81.448 44.899V50.7204H79.2948V45.222C79.2948 44.1146 79.1641 43.2764 78.9872 42.8073H78.9795Z" fill="#00ABE5"/>
<path d="M84.3009 43.4609C84.8315 43.1226 85.0545 43.0303 85.6313 42.7842C86.4388 42.4612 87.1232 42.2997 87.8845 42.2997C89.2687 42.2997 90.2146 42.815 90.5376 43.7301C90.653 44.0684 90.6991 44.3222 90.6837 45.2066L90.6376 47.9751V48.1212C90.6376 49.0055 90.7837 49.3439 91.4066 49.813L90.2685 51.128C89.7686 50.9204 89.3226 50.5512 89.1072 50.1283C88.7996 50.4205 88.7689 50.4513 88.6074 50.5589C88.2075 50.8512 87.6231 51.0127 86.954 51.0127C85.1237 51.0127 84.124 50.0822 84.124 48.4442C84.124 46.5139 85.4621 45.6142 88.0768 45.6142C88.2383 45.6142 88.3305 45.6142 88.5612 45.6296V45.2912C88.5612 44.3761 88.3844 44.0685 87.6 44.0685C86.9079 44.0685 86.1081 44.4068 85.2237 44.999L84.3086 43.4532L84.3009 43.4609ZM88.5305 47.1137H88.4305C86.9386 47.1137 86.4234 47.3906 86.4234 48.3672C86.4234 49.0132 86.8233 49.4439 87.3693 49.4439C87.7692 49.4439 88.1767 49.2362 88.492 48.8825L88.5228 47.1137H88.5305Z" fill="#00ABE5"/>
<path d="M91.5996 42.615L93.799 42.3382L94.991 46.0525C95.1678 46.5985 95.4062 47.4982 95.5216 48.0289C95.5831 47.5444 95.76 46.76 96.0214 45.9371L97.1288 42.4843H99.382L96.3752 50.7127H94.5911L91.5996 42.6073V42.615Z" fill="#00ABE5"/>
<path d="M103.496 42.3228C104.672 42.3228 105.588 42.7227 106.295 43.5609C106.956 44.3299 107.241 45.2297 107.241 46.5677C107.241 47.9827 106.918 48.944 106.21 49.7515C105.58 50.459 104.765 50.8896 103.496 50.8896C101.258 50.8896 99.7969 49.2208 99.7969 46.6293C99.7969 44.0377 101.273 42.3228 103.496 42.3228ZM103.527 43.9146C103.011 43.9146 102.596 44.2376 102.419 44.7529C102.273 45.1835 102.196 45.768 102.196 46.5831C102.196 47.529 102.296 48.2365 102.473 48.6595C102.665 49.1132 103.15 49.3362 103.565 49.3362C104.496 49.3362 104.895 48.498 104.895 46.5524C104.895 45.445 104.749 44.7221 104.465 44.353C104.257 44.0761 103.919 43.9223 103.534 43.9223L103.527 43.9146Z" fill="#00ABE5"/>
<path d="M112.839 42.4689L112.293 43.8993H110.909V48.0981C110.909 49.1439 111.101 49.4131 111.839 49.4131C112.032 49.4131 112.224 49.367 112.608 49.2516L112.885 50.5359C112.255 50.7896 111.693 50.905 111.132 50.905C110.04 50.905 109.156 50.4205 108.917 49.6976C108.786 49.3439 108.771 49.1824 108.771 48.4288V43.8916H107.948V42.492H108.771C108.771 41.6845 108.771 41.1385 108.848 40.531L111.032 39.985C110.955 40.7386 110.901 41.623 110.901 42.4612H112.831L112.839 42.4689Z" fill="#00ABE5"/>
<path d="M113.739 42.8226L115.654 42.2766C115.846 42.615 115.962 42.9688 115.962 43.3071C116.462 42.9534 116.554 42.8919 116.908 42.6996C117.338 42.4766 117.907 42.3459 118.384 42.3459C119.299 42.3459 120.107 42.8303 120.36 43.5378C120.476 43.8454 120.522 44.1992 120.522 44.7144V50.7281H118.399V45.3758C118.399 44.4453 118.238 44.1684 117.677 44.1684C117.246 44.1684 116.677 44.4606 116.185 44.9067V50.7281H114.031V44.7606C114.031 44.0531 113.932 43.3763 113.739 42.8303V42.8226Z" fill="#00ABE5"/>
<path d="M125.151 38.5085L126.035 40.0849L122.613 41.6153L121.982 40.4925L125.151 38.5162V38.5085ZM122.467 42.6227L124.62 42.2843V50.705H122.467V42.6227Z" fill="#00ABE5"/>
<path d="M131.903 42.6611L133.818 42.3228C133.895 42.615 133.949 42.838 133.964 43.0918C134.333 42.6381 135.156 42.3228 135.987 42.3228C136.564 42.3228 137.163 42.515 137.609 42.8226C138.494 43.4148 139.14 44.476 139.14 46.3755C139.14 48.1442 138.863 49.0593 138.002 49.9591C137.44 50.5512 136.702 50.8896 135.802 50.8896C135.156 50.8896 134.549 50.7281 134.08 50.459C134.11 50.6512 134.11 51.1357 134.11 51.1357V53.7042L132.034 54.2502V44.7298C132.034 43.6532 132.019 43.3456 131.903 42.6534V42.6611ZM134.118 48.7056C134.41 48.944 134.872 49.1901 135.31 49.1901C136.371 49.1901 136.787 48.4672 136.787 46.5831C136.787 45.7987 136.725 45.1681 136.579 44.7682C136.417 44.3145 136.079 44.0761 135.548 44.0761C135.018 44.0761 134.503 44.2991 134.118 44.7067V48.7133V48.7056Z" fill="#00ABE5"/>
<path d="M143.962 42.3228C145.138 42.3228 146.053 42.7227 146.761 43.5609C147.422 44.3299 147.707 45.2297 147.707 46.5677C147.707 47.9827 147.384 48.944 146.676 49.7515C146.046 50.459 145.231 50.8896 143.962 50.8896C141.724 50.8896 140.263 49.2208 140.263 46.6293C140.263 44.0377 141.739 42.3228 143.962 42.3228ZM143.992 43.9146C143.477 43.9146 143.062 44.2376 142.885 44.7529C142.739 45.1835 142.662 45.768 142.662 46.5831C142.662 47.529 142.762 48.2365 142.939 48.6595C143.131 49.1132 143.616 49.3362 144.031 49.3362C144.961 49.3362 145.361 48.498 145.361 46.5524C145.361 45.445 145.215 44.7221 144.931 44.353C144.723 44.0761 144.385 43.9223 144 43.9223L143.992 43.9146Z" fill="#00ABE5"/>
<path d="M149.107 42.8226L151.244 42.3074V50.4897C151.244 52.0508 150.921 52.6737 150.637 53.0429C150.252 53.5427 149.706 53.9426 148.968 54.2502L148.068 53.0582C148.407 52.7814 148.691 52.4353 148.853 52.1277C149.03 51.774 149.107 51.3203 149.107 50.5512V42.8226ZM150.199 38.7084C150.921 38.7084 151.529 39.3005 151.529 40.0234C151.529 40.7463 150.921 41.3769 150.175 41.3769C149.43 41.3769 148.86 40.7847 148.86 40.0619C148.86 39.339 149.453 38.7084 150.199 38.7084Z" fill="#00ABE5"/>
<path d="M154.366 38.7238C155.089 38.7238 155.666 39.3159 155.666 40.0542C155.666 40.7924 155.074 41.3923 154.336 41.3923C153.597 41.3923 153.021 40.8001 153.021 40.0542C153.021 39.3082 153.628 38.7238 154.374 38.7238H154.366ZM153.259 42.6304L155.412 42.292V50.7127H153.259V42.6304Z" fill="#00ABE5"/>
<path d="M163.024 43.0303L162.317 44.476C161.494 44.0608 160.902 43.8839 160.294 43.8839C159.687 43.8839 159.249 44.2069 159.249 44.6913C159.249 45.1066 159.525 45.3373 160.279 45.5296L161.279 45.7833C162.294 46.0371 162.632 46.3447 162.917 46.7139C163.224 47.0984 163.37 47.5675 163.37 48.1135C163.37 49.8207 161.955 50.9742 159.848 50.9742C158.833 50.9742 157.726 50.6512 156.519 50.0283L157.288 48.4518C157.949 48.8517 159.087 49.3823 160.018 49.3823C160.625 49.3823 161.11 48.9825 161.11 48.4518C161.11 47.8904 160.71 47.5982 159.841 47.4367L158.879 47.2599C158.333 47.1599 157.657 46.7754 157.364 46.4216C157.072 46.0679 156.895 45.4757 156.895 44.9451C156.895 43.3379 158.164 42.2613 160.079 42.2613C161.394 42.2613 162.263 42.6611 163.024 43.0303ZM162.525 39.6697L159.918 41.6153L157.249 39.6697L157.91 38.6084L159.918 39.7158L161.863 38.6084L162.525 39.6697Z" fill="#00ABE5"/>
<path d="M168.978 42.4689L168.432 43.8993H167.048V48.0981C167.048 49.1439 167.24 49.4131 167.978 49.4131C168.17 49.4131 168.363 49.367 168.747 49.2516L169.024 50.5359C168.393 50.7896 167.832 50.905 167.271 50.905C166.179 50.905 165.294 50.4205 165.056 49.6976C164.925 49.3439 164.91 49.1824 164.91 48.4288V43.8916H164.087V42.492H164.91C164.91 41.6845 164.91 41.1385 164.987 40.531L167.171 39.985C167.094 40.7386 167.04 41.623 167.04 42.4612H168.97L168.978 42.4689ZM168.124 42.0998L167.448 41.3769C167.994 41.2308 168.363 40.9462 168.363 40.6386C168.363 40.4618 168.301 40.3618 168.04 40.2234C167.686 40.0157 167.524 39.7389 167.524 39.3082C167.524 38.7007 168.024 38.2009 168.647 38.2009C169.401 38.2009 169.947 38.8622 169.947 39.762C169.947 40.8847 169.224 41.8383 168.117 42.1075L168.124 42.0998Z" fill="#00ABE5"/>
<path d="M173.592 42.3228C174.768 42.3228 175.683 42.7227 176.391 43.5609C177.052 44.3299 177.337 45.2297 177.337 46.5677C177.337 47.9827 177.014 48.944 176.306 49.7515C175.676 50.459 174.86 50.8896 173.592 50.8896C171.354 50.8896 169.893 49.2208 169.893 46.6293C169.893 44.0377 171.369 42.3228 173.592 42.3228ZM173.622 43.9146C173.107 43.9146 172.692 44.2376 172.515 44.7529C172.369 45.1835 172.292 45.768 172.292 46.5831C172.292 47.529 172.392 48.2365 172.569 48.6595C172.761 49.1132 173.245 49.3362 173.661 49.3362C174.591 49.3362 174.991 48.498 174.991 46.5524C174.991 45.445 174.845 44.7221 174.561 44.353C174.353 44.0761 174.015 43.9223 173.63 43.9223L173.622 43.9146Z" fill="#00ABE5"/>
<path d="M177.736 42.615L179.936 42.3382L181.128 46.0525C181.305 46.5985 181.543 47.4982 181.658 48.0289C181.72 47.5444 181.897 46.76 182.158 45.9371L183.266 42.4843H185.519L182.512 50.7127H180.728L177.736 42.6073V42.615Z" fill="#00ABE5"/>
<path d="M186.257 42.8226L188.172 42.2766C188.364 42.615 188.479 42.9688 188.479 43.3071C188.979 42.9534 189.071 42.8919 189.425 42.6996C189.856 42.4766 190.425 42.3459 190.902 42.3459C191.817 42.3459 192.624 42.8303 192.878 43.5378C192.993 43.8454 193.04 44.1992 193.04 44.7144V50.7281H190.917V45.3758C190.917 44.4453 190.756 44.1684 190.194 44.1684C189.764 44.1684 189.194 44.4606 188.702 44.9067V50.7281H186.549V44.7606C186.549 44.0531 186.449 43.3763 186.257 42.8303V42.8226Z" fill="#00ABE5"/>
<path d="M194.747 43.4609C195.278 43.1225 195.501 43.0303 196.085 42.7842C196.893 42.4612 197.577 42.2997 198.339 42.2997C199.723 42.2997 200.669 42.8149 200.992 43.7301C201.107 44.0684 201.153 44.3222 201.138 45.2066L201.092 47.975V48.1211C201.092 49.0055 201.238 49.3439 201.861 49.813L200.723 51.128C200.223 50.9204 199.777 50.5512 199.561 50.1283C199.254 50.4205 199.223 50.4513 199.061 50.5589C198.662 50.8512 198.077 51.0126 197.408 51.0126C195.578 51.0126 194.578 50.0821 194.578 48.4441C194.578 46.5139 195.916 45.6142 198.531 45.6142C198.692 45.6142 198.785 45.6142 199.015 45.6295V45.2912C199.015 44.376 198.838 44.0684 198.054 44.0684C197.362 44.0684 196.562 44.4068 195.678 44.9989L194.763 43.4532L194.747 43.4609ZM198.977 47.1137H198.877C197.385 47.1137 196.87 47.3906 196.87 48.3672C196.87 49.0132 197.27 49.4438 197.816 49.4438C198.216 49.4438 198.615 49.2362 198.938 48.8825L198.969 47.1137H198.977Z" fill="#00ABE5"/>
</svg>
