<svg width="400" height="500" viewBox="0 0 400 500" fill="none" xmlns="http://www.w3.org/2000/svg">
<rect width="400" height="499.993" fill="#F0F0F0"/>
<path d="M55.5426 499.993C41.8446 500.009 28.7007 494.547 19 484.806C24.7617 449.492 38.1278 397.815 60.0845 387.856C92.2149 373.297 121.127 363.599 132.391 358.737C143.577 353.901 153.154 345.668 148.327 315.111C132.261 313.49 104.932 315.111 100.131 266.571C95.3294 218.03 100.131 187.291 100.131 179.214C85.6747 171.111 59.9547 161.413 87.2838 117.734C90.4761 127.432 109.76 124.191 148.327 104.665C186.893 85.139 214.171 94.9412 235.063 99.8031C255.956 104.665 268.803 128.922 272.021 143.482C278.432 143.482 299.324 170.98 280.041 208.202C260.757 245.424 251.258 250.338 251.258 274.622C251.258 285.077 245.912 283.247 243.239 281.078C244.822 290.775 240.046 345.38 255.904 352.202H256.086C272.151 358.659 320.347 371.598 352.451 405.579C372.435 426.699 379.495 460.262 381 483.761C376.186 488.873 370.391 492.949 363.967 495.739C357.543 498.529 350.623 499.976 343.627 499.993H55.5426Z" fill="#F4BB87"/>
<path d="M364 499.993H381.5C381.5 438.394 360.955 414.494 352.308 405.342C320.217 371.38 272.042 358.448 255.984 351.995L255.802 352.204C247.085 362.393 221.61 382.431 188.533 382.431C155.457 382.431 137.479 366.756 132.394 358.788C132.403 358.709 132.403 358.631 132.394 358.552C121.135 363.412 92.2353 373.104 60.1187 387.656C32 400.396 22.2592 464.672 16.5 499.993C30 499.993 41.8348 500.009 55.5269 499.993H343.487C350.503 500.004 358 499.993 364 499.993Z" fill="#008BD2"/>
<path d="M86.1783 115.935C58.5556 160.269 84.5459 170.257 99.1346 178.524C116.988 188.59 168.943 189.764 203.044 189.764C203.499 196.236 204.504 202.658 206.05 208.958C206.267 209.508 206.638 209.983 207.118 210.324C207.598 210.666 208.167 210.86 208.755 210.882C209.343 210.904 209.924 210.754 210.428 210.449C210.933 210.144 211.338 209.699 211.595 209.166C217.114 198.343 225.432 199.334 233.025 201.343C242.198 203.664 251.682 223.249 241.135 240.852C238.544 245.39 233.362 247.737 226.106 245.259C223.515 244.399 220.716 247.085 221.96 249.406C228.073 261.063 235.312 272.087 243.571 282.317C246.162 284.534 251.682 286.281 251.682 275.745C251.682 251.049 261.425 246.094 280.911 208.227C300.397 170.361 279.382 142.196 272.904 142.196C269.639 127.461 256.657 102.765 235.538 97.862C214.42 92.9592 186.849 83.0493 147.876 102.817C108.904 122.585 89.4433 125.818 86.1783 115.935Z" fill="#40596B"/>
</svg>
