<svg width="400" height="500" viewBox="0 0 400 500" fill="none" xmlns="http://www.w3.org/2000/svg">
<rect width="400" height="499.991" fill="#F0F0F0"/>
<path d="M50.1243 334.087C61.1008 317.549 98.0839 290.479 115.22 278.995L178.578 289.315L182 356.474L65.5493 445.992C58.6791 439.668 43.2805 422.574 36.4366 404.66C27.8555 382.3 36.4366 354.754 50.1243 334.087Z" fill="#40596B"/>
<path d="M368 497.928C363.261 499.305 358.351 500 353.417 499.991H60.6929C53.6222 500.011 46.6221 498.58 40.1232 495.786C39.321 472.625 42.4419 449.496 49.3532 427.383C56.0252 406.936 66.8111 388.156 83.4252 377.126C111.906 358.213 125.62 358.213 143.473 354.775C151.226 353.267 160.641 344.432 160.641 328.958C160.641 318.616 161.221 312.876 160.641 311.738C145.53 311.738 117.128 305.073 110.535 282.325C109.59 279.023 109.119 275.603 109.137 272.168V186.069L131.474 130.998L241.285 137.902L306.475 215.351L280.737 304.835L245.742 328.932C245.742 340.967 244.028 351.283 264.624 354.748C269.001 355.859 275.172 357.182 282.345 359.033L282.952 359.192L284.561 359.642H284.719H285.273C311.644 366.81 348.564 381.252 356.238 416.511C362.088 443.335 366.019 470.543 368 497.928Z" fill="#F4BB87"/>
<path d="M368 499.991C363 499.991 358.5 499.991 353.417 499.991H60.6934C53.6226 500.011 46 499.991 39.4997 499.991C38.6975 476.711 42.4424 449.234 49.3537 427.006C56.0256 406.453 66.8116 387.575 83.4256 376.488C111.907 357.477 125.62 357.477 143.474 354.021C152.052 358.535 161.042 362.203 170.32 364.975C179.226 367.808 188.488 369.348 197.825 369.548C216.707 369.548 245.663 360.827 260.932 355.403L264.756 353.994C269.134 355.111 275.305 356.44 282.478 358.301L283.084 358.461L284.693 358.913H284.851H285.405C311.776 366.118 348.697 380.636 356.371 416.078C362.176 443.044 366.062 472.467 368 499.991Z" fill="#FF77B8"/>
<path d="M112.423 194.356C123.397 192.983 130.687 178.904 132.977 172.036C132.977 182.338 136.398 194.356 158.663 194.356C176.48 194.356 188.902 181.757 192.875 175.47V194.356C192.875 204.684 204.876 216.702 220.272 216.702C235.668 216.702 239.115 208.118 244.247 208.118C249.379 208.118 264.801 208.118 264.801 233.898C264.932 239.891 263.161 245.771 259.746 250.69C256.331 255.608 251.448 259.31 245.8 261.263C243.951 261.899 242.325 263.058 241.116 264.599C239.907 266.141 239.167 268 238.984 269.953C238.405 284.718 236.668 301.412 242.563 328.063C245.616 341.799 247.695 353.843 263.117 355.56C275.091 356.881 283.092 357.832 285.382 358.994C298.947 334.92 310.394 309.705 319.594 283.635C334.99 238.943 329.858 183.949 299.04 137.54C275.256 101.723 237.431 90.9985 203.192 90.9985C168.953 90.9985 144.329 95.3066 118.536 112.227C87.9675 132.282 85 159.992 85 175.47C85 190.949 98.7377 196.099 112.423 194.356Z" fill="#40596B"/>
</svg>
