<svg width="20" height="22" viewBox="0 0 20 22" fill="none" xmlns="http://www.w3.org/2000/svg">
<path fill-rule="evenodd" clip-rule="evenodd" d="M8.39428 12.0318C10.7123 12.0318 12.5914 10.1527 12.5914 7.83468C12.5914 5.51666 10.7123 3.63754 8.39428 3.63754C6.07626 3.63754 4.19714 5.51666 4.19714 7.83468C4.19714 10.1527 6.07626 12.0318 8.39428 12.0318ZM8.39428 13.0811C11.2918 13.0811 13.6407 10.7322 13.6407 7.83468C13.6407 4.93716 11.2918 2.58826 8.39428 2.58826C5.49676 2.58826 3.14786 4.93716 3.14786 7.83468C3.14786 10.7322 5.49676 13.0811 8.39428 13.0811Z" fill="white"/>
<path fill-rule="evenodd" clip-rule="evenodd" d="M15.6881 20.9507C15.6066 20.1187 15.4285 19.3041 15.1588 18.5309C14.7766 17.435 14.2198 16.4496 13.5273 15.6273C12.8351 14.8053 12.0231 14.1648 11.1435 13.7321C10.2647 13.2999 9.3312 13.0811 8.39427 13.0811C7.45734 13.0811 6.5238 13.2999 5.64505 13.7321C4.76543 14.1648 3.95345 14.8053 3.26123 15.6273C2.56878 16.4496 2.01198 17.435 1.62972 18.5309C1.36004 19.3041 1.18198 20.1187 1.10049 20.9507L15.6881 20.9507ZM16.7419 20.9507C16.6573 20.0018 16.4583 19.0703 16.1496 18.1853C15.7277 16.976 15.1094 15.8771 14.3299 14.9514C13.5504 14.0258 12.6251 13.2915 11.6066 12.7906C10.5882 12.2896 9.49662 12.0318 8.39427 12.0318C7.29192 12.0318 6.20036 12.2896 5.18192 12.7906C4.16348 13.2915 3.23811 14.0258 2.45863 14.9514C1.67915 15.8771 1.06083 16.976 0.638976 18.1854C0.330289 19.0703 0.131223 20.0018 0.0466347 20.9507C0.0156247 21.2986 0 21.6489 0 22L16.7885 22C16.7885 21.6489 16.7729 21.2986 16.7419 20.9507Z" fill="white"/>
<path d="M15.3051 9.05882H14.4596C14.1739 9.05882 13.9327 8.84481 13.8987 8.56059L13.8085 7.85249C13.6285 7.79398 13.4548 7.72189 13.2899 7.63772L12.726 8.07594C12.4972 8.25296 13.1397 7.88797 12.9412 7.68377V7.22441C12.7385 7.02776 12.7641 6.87015 12.9412 6.64179L12.4515 6.03573C12.367 5.87078 12.3522 5.68004 12.2941 5.5L11.9786 5.17647C11.6955 5.14174 11.3235 4.81514 11.3235 4.52941L10.3529 3.88235C10.3529 3.59662 10.567 3.57974 10.8512 3.54577L11.5593 3.45556C11.6178 3.27552 11.6899 3.10189 11.774 2.93695L11.3362 2.37303C11.1588 2.1443 11.1796 1.82196 11.3841 1.62342L11.9786 1.02893C12.1753 0.82624 12.4976 0.806235 12.7256 0.982882L13.2895 1.42148C13.4544 1.33731 13.6281 1.26522 13.8085 1.20671L13.8987 0.497103C13.9327 0.214015 14.1739 0 14.4596 0H15.3051C15.5908 0 15.832 0.214015 15.866 0.498235L15.9562 1.20633C16.1366 1.26484 16.3102 1.33693 16.4752 1.4211L17.0391 0.982882C17.2682 0.805858 17.5898 0.82624 17.7883 1.03082L18.3828 1.6253C18.5855 1.82196 18.6059 2.14392 18.4289 2.37228L17.9907 2.93657C18.0752 3.10151 18.1473 3.27514 18.2054 3.45519L18.915 3.5454C19.1977 3.57974 19.4118 3.82093 19.4118 4.10667V4.95216C19.4118 5.23789 19.1977 5.47908 18.9135 5.51305L18.2054 5.60326C18.1469 5.7833 18.0748 5.95693 17.9907 6.12187L18.4289 6.68579C18.6063 6.91452 18.5855 7.23649 18.3809 7.43503L17.7865 8.02951C17.5898 8.2322 17.2675 8.25296 17.0395 8.07556L16.4752 7.63734C16.3102 7.72189 16.1366 7.79398 15.9566 7.85211L15.8664 8.56172C15.832 8.84481 15.5908 9.05882 15.3051 9.05882ZM13.2706 7.22441C13.302 7.22441 13.334 7.23234 13.3627 7.24819C13.5707 7.36444 13.796 7.45805 14.0323 7.52599C14.1048 7.54675 14.158 7.60865 14.1675 7.68339L14.2731 8.51378C14.2845 8.60852 14.3664 8.68137 14.4596 8.68137H15.3051C15.3983 8.68137 15.4802 8.60852 15.4912 8.51567L15.5972 7.68377C15.6067 7.60903 15.6599 7.54713 15.7324 7.52637C15.9686 7.45843 16.194 7.36482 16.402 7.24857C16.468 7.21158 16.5503 7.21799 16.6096 7.26442L17.2701 7.77775C17.346 7.83663 17.4524 7.83173 17.5173 7.76492L18.1156 7.16666C18.1839 7.10023 18.1892 6.99379 18.1303 6.91754L17.617 6.257C17.5706 6.19737 17.5641 6.11546 17.6011 6.0494C17.7174 5.84143 17.811 5.61609 17.8789 5.37981C17.8997 5.30734 17.9616 5.25412 18.0363 5.24468L18.8667 5.13899C18.9615 5.12729 19.0343 5.04539 19.0343 4.95216V4.10667C19.0343 4.01343 18.9615 3.93153 18.8686 3.92058L18.0367 3.81452C17.962 3.80508 17.9001 3.75186 17.8793 3.67939C17.8114 3.44311 17.7178 3.21777 17.6015 3.00979C17.5645 2.94374 17.5706 2.86183 17.6174 2.8022L18.1307 2.14166C18.1899 2.06541 18.1847 1.95897 18.1182 1.8948L17.52 1.29654C17.4539 1.22785 17.3471 1.22256 17.2709 1.28182L16.6103 1.79516C16.5503 1.84158 16.4684 1.848 16.4023 1.81101C16.1951 1.69475 15.9698 1.60152 15.7327 1.53321C15.6603 1.51245 15.6071 1.45054 15.5976 1.37581L15.4919 0.545416C15.4802 0.450299 15.3983 0.377451 15.3051 0.377451H14.4596C14.3664 0.377451 14.2845 0.450299 14.2735 0.543152L14.1675 1.37505C14.158 1.44979 14.1048 1.51169 14.0323 1.53283C13.7953 1.60077 13.5699 1.69438 13.3627 1.81025C13.2967 1.84762 13.2148 1.84083 13.1548 1.79478L12.4942 1.28145C12.418 1.22219 12.3119 1.22747 12.2474 1.2939L11.6491 1.89254C11.5808 1.95897 11.5755 2.06541 11.6344 2.14166L12.1477 2.8022C12.1941 2.86183 12.2006 2.94374 12.1636 3.00979C12.0469 3.21777 11.9537 3.44311 11.8858 3.67939C11.865 3.75186 11.8031 3.80508 11.7284 3.81452L10.898 3.9202C10.8032 3.93153 10.7304 4.01343 10.7304 4.10667L11.6344 4.20588C11.6344 4.29911 11.7072 4.38102 11.8001 4.39196L12.2941 4.85294C12.3688 4.86238 12.4307 4.9156 12.4515 4.98807C12.5194 5.22435 13.0381 5.74085 13.1544 5.94883C13.1914 6.01488 13.1853 6.09679 13.1385 6.15642L13.3503 6.64179C13.291 6.71804 13.2963 6.82448 13.3627 6.88865V7.08176C13.4288 7.15008 13.5348 7.15536 13.6118 7.09648L13.1544 7.26366C13.1887 7.238 13.2295 7.22441 13.2706 7.22441Z" fill="white"/>
<path d="M14.8823 6.41664C13.8417 6.41664 12.9951 5.57002 12.9951 4.52939C12.9951 3.48876 13.8417 2.64214 14.8823 2.64214C15.923 2.64214 16.7696 3.48876 16.7696 4.52939C16.7696 5.57002 15.923 6.41664 14.8823 6.41664ZM14.8823 3.01959C14.0497 3.01959 13.3725 3.69673 13.3725 4.52939C13.3725 5.36205 14.0497 6.03919 14.8823 6.03919C15.715 6.03919 16.3921 5.36205 16.3921 4.52939C16.3921 3.69673 15.715 3.01959 14.8823 3.01959Z" fill="white"/>
</svg>
