<svg width="32" height="35" viewBox="0 0 32 35" fill="none" xmlns="http://www.w3.org/2000/svg">
<path d="M17 7.34667C17 6.90508 17.3308 6.53233 17.77 6.47983L18.865 6.34042C18.9554 6.06217 19.0663 5.79383 19.1969 5.53892L18.5196 4.66742C18.2455 4.31392 18.2776 3.81575 18.5937 3.50892L19.5125 2.59075C19.8165 2.2775 20.3146 2.246 20.667 2.51958L21.5385 3.19683C21.7934 3.06617 22.0618 2.95533 22.3406 2.86492L22.4801 1.76825C22.5326 1.33075 22.9053 1 23.3469 1H24.6537C25.0953 1 25.468 1.33075 25.5205 1.77L25.6599 2.86492C25.9388 2.95533 26.2071 3.06675 26.4621 3.19683L27.333 2.51958C27.6865 2.246 28.1847 2.2775 28.491 2.59367L29.4098 3.51242C29.723 3.81575 29.7551 4.31392 29.4809 4.66683L28.8037 5.53892C28.9337 5.79383 29.0452 6.06217 29.1356 6.34042L30.2323 6.47983C30.6698 6.53233 31.0006 6.90508 31 7.34667V8.65333C31 9.09492 30.6692 9.46767 30.23 9.52017L29.1356 9.65958C29.0458 9.93783 28.9343 10.2062 28.8037 10.4611L29.4809 11.3326C29.7551 11.6861 29.723 12.1837 29.4068 12.4905L28.4881 13.4093C28.1847 13.7225 27.6865 13.7546 27.3336 13.4804L26.4615 12.8032C26.2065 12.9332 25.9382 13.0447 25.6599 13.1351L25.5205 14.2317C25.468 14.6692 25.0953 15 24.6537 15H23.3469C22.9053 15 22.5326 14.6692 22.4801 14.2288L22.3406 13.1345C22.0624 13.0447 21.794 12.9332 21.5391 12.8026L20.6676 13.4798M24.0003 10.9167C22.392 10.9167 21.0835 9.60825 21.0835 8C21.0835 6.39175 22.392 5.08333 24.0003 5.08333C25.6086 5.08333 26.9171 6.39175 26.9171 8C26.9171 9.60825 25.6086 10.9167 24.0003 10.9167Z" stroke="black"/>
<path fill-rule="evenodd" clip-rule="evenodd" d="M12.973 19.5946C16.5554 19.5946 19.4595 16.6905 19.4595 13.1081C19.4595 9.52572 16.5554 6.62162 12.973 6.62162C9.39059 6.62162 6.48649 9.52572 6.48649 13.1081C6.48649 16.6905 9.39059 19.5946 12.973 19.5946ZM12.973 21.2162C17.451 21.2162 21.0811 17.5861 21.0811 13.1081C21.0811 8.63012 17.451 5 12.973 5C8.49499 5 4.86487 8.63012 4.86487 13.1081C4.86487 17.5861 8.49499 21.2162 12.973 21.2162Z" fill="black"/>
<path fill-rule="evenodd" clip-rule="evenodd" d="M24.2452 33.3784C24.1193 32.0925 23.8441 30.8335 23.4273 29.6387C22.8365 27.9451 21.976 26.4221 20.9059 25.1513C19.8361 23.8809 18.5812 22.8911 17.2218 22.2224C15.8637 21.5544 14.421 21.2162 12.973 21.2162C11.525 21.2162 10.0822 21.5544 8.72417 22.2224C7.36475 22.8911 6.10988 23.8809 5.04009 25.1513C3.96993 26.4221 3.10942 27.9451 2.51866 29.6387C2.10189 30.8335 1.82669 32.0925 1.70075 33.3784L24.2452 33.3784ZM25.8739 33.3784C25.7431 31.9118 25.4355 30.4723 24.9584 29.1046C24.3065 27.2355 23.3509 25.5373 22.1462 24.1067C20.9416 22.6762 19.5115 21.5415 17.9375 20.7673C16.3636 19.9931 14.6766 19.5946 12.973 19.5946C11.2693 19.5946 9.58238 19.9931 8.00843 20.7673C6.43448 21.5415 5.00435 22.6762 3.7997 24.1067C2.59504 25.5373 1.63946 27.2355 0.987508 29.1046C0.510447 30.4723 0.202799 31.9118 0.0720718 33.3784C0.0241472 33.916 0 34.4573 0 35L25.9459 35C25.9459 34.4573 25.9218 33.916 25.8739 33.3784Z" fill="black"/>
</svg>
