<svg width="34" height="34" viewBox="0 0 34 34" fill="none" xmlns="http://www.w3.org/2000/svg">
<path d="M18.5867 34H15.4133C14.3409 34 13.4357 33.1967 13.3082 32.13L12.9696 29.4723C12.2938 29.2528 11.6422 28.9822 11.0231 28.6663L8.90658 30.311C8.04808 30.9754 6.83967 30.8989 6.0945 30.1325L3.86325 27.9012C3.1025 27.1632 3.026 25.9547 3.69042 25.0977L5.33517 22.9798C5.01783 22.3607 4.74725 21.709 4.52908 21.0332L1.86575 20.6947C0.80325 20.5643 0 19.6591 0 18.5867V15.4133C0 14.3409 0.80325 13.4357 1.87 13.3082L4.52767 12.9696C4.74725 12.2938 5.01783 11.6422 5.33375 11.0231L3.69042 8.90658C3.02458 8.04808 3.1025 6.83825 3.87033 6.09308L6.10158 3.86183C6.83967 3.10108 8.0495 3.026 8.90517 3.689L11.0217 5.33517C11.6407 5.01925 12.2924 4.74867 12.9696 4.52908L13.3082 1.86575C13.4357 0.80325 14.3409 0 15.4133 0H18.5867C19.6591 0 20.5643 0.80325 20.6918 1.87L21.0304 4.52767C21.7076 4.74725 22.3592 5.01783 22.9783 5.33375L25.0948 3.689C25.9548 3.02458 27.1617 3.10108 27.9069 3.86892L30.1382 6.10017C30.8989 6.83825 30.9754 8.04667 30.311 8.90375L28.6663 11.0217C28.9836 11.6407 29.2542 12.2924 29.4723 12.9682L32.1357 13.3067C33.1967 13.4357 34 14.3409 34 15.4133V18.5867C34 19.6591 33.1967 20.5643 32.13 20.6918L29.4723 21.0304C29.2528 21.7062 28.9822 22.3578 28.6663 22.9769L30.311 25.0934C30.9768 25.9519 30.8989 27.1603 30.1311 27.9055L27.8998 30.1368C27.1617 30.8975 25.9519 30.9754 25.0962 30.3096L22.9783 28.6648C22.3592 28.9822 21.7076 29.2527 21.0318 29.4709L20.6932 32.1342C20.5643 33.1967 19.6591 34 18.5867 34V34ZM10.9508 27.115C11.0684 27.115 11.1888 27.1447 11.2965 27.2042C12.0771 27.6406 12.9228 27.9919 13.8097 28.2469C14.0817 28.3248 14.2814 28.5572 14.3168 28.8377L14.7135 31.9543C14.756 32.3099 15.0634 32.5833 15.4133 32.5833H18.5867C18.9366 32.5833 19.244 32.3099 19.2851 31.9614L19.6832 28.8391C19.7186 28.5586 19.9183 28.3262 20.1903 28.2483C21.0772 27.9933 21.9229 27.642 22.7035 27.2057C22.9514 27.0668 23.2602 27.0909 23.4827 27.2652L25.9618 29.1918C26.2466 29.4128 26.6461 29.3944 26.8898 29.1437L29.1352 26.8982C29.3916 26.6489 29.4114 26.2494 29.1904 25.9632L27.2638 23.4841C27.0895 23.2602 27.0654 22.9528 27.2042 22.7049C27.6406 21.9243 27.9919 21.0786 28.2469 20.1917C28.3248 19.9197 28.5572 19.72 28.8377 19.6846L31.9543 19.2879C32.3099 19.244 32.5833 18.9366 32.5833 18.5867V15.4133C32.5833 15.0634 32.3099 14.756 31.9614 14.7149L28.8391 14.3168C28.5586 14.2814 28.3262 14.0817 28.2483 13.8097C27.9933 12.9228 27.642 12.0771 27.2057 11.2965C27.0668 11.0486 27.0895 10.7412 27.2652 10.5173L29.1918 8.03817C29.4143 7.752 29.3944 7.3525 29.1451 7.11167L26.8997 4.86625C26.6518 4.60842 26.2508 4.58858 25.9647 4.811L23.4855 6.73767C23.2602 6.91192 22.9528 6.936 22.7049 6.79717C21.9272 6.36083 21.0814 6.01092 20.1917 5.7545C19.9197 5.67658 19.72 5.44425 19.6846 5.16375L19.2879 2.04708C19.244 1.69008 18.9366 1.41667 18.5867 1.41667H15.4133C15.0634 1.41667 14.756 1.69008 14.7149 2.03858L14.3168 5.16092C14.2814 5.44142 14.0817 5.67375 13.8097 5.75308C12.92 6.00808 12.0742 6.35942 11.2965 6.79433C11.0486 6.93458 10.7412 6.90908 10.5159 6.73625L8.03675 4.80958C7.75058 4.58717 7.3525 4.607 7.11025 4.85633L4.86483 7.10317C4.60842 7.3525 4.58858 7.752 4.80958 8.03817L6.73625 10.5173C6.9105 10.7412 6.93458 11.0486 6.79575 11.2965C6.358 12.0771 6.00808 12.9228 5.75308 13.8097C5.67517 14.0817 5.44283 14.2814 5.16233 14.3168L2.04567 14.7135C1.69008 14.756 1.41667 15.0634 1.41667 15.4133V18.5867C1.41667 18.9366 1.69008 19.244 2.03858 19.2851L5.16092 19.6832C5.44142 19.7186 5.67375 19.9183 5.75167 20.1903C6.00667 21.0772 6.358 21.9229 6.79433 22.7035C6.93317 22.9514 6.9105 23.2588 6.73483 23.4827L4.80817 25.9618C4.58575 26.248 4.60558 26.6475 4.85492 26.8883L7.10033 29.1337C7.34825 29.3902 7.74633 29.41 8.03533 29.189L10.5145 27.2623C10.6434 27.166 10.7964 27.115 10.9508 27.115V27.115Z" fill="black"/>
<path d="M17 24.0833C13.0942 24.0833 9.91666 20.9057 9.91666 17C9.91666 13.0942 13.0942 9.91666 17 9.91666C20.9057 9.91666 24.0833 13.0942 24.0833 17C24.0833 20.9057 20.9057 24.0833 17 24.0833ZM17 11.3333C13.8748 11.3333 11.3333 13.8748 11.3333 17C11.3333 20.1252 13.8748 22.6667 17 22.6667C20.1252 22.6667 22.6667 20.1252 22.6667 17C22.6667 13.8748 20.1252 11.3333 17 11.3333Z" fill="black"/>
</svg>
