<svg width="46" height="46" viewBox="0 0 46 46" fill="none" xmlns="http://www.w3.org/2000/svg">
<path d="M46 38.9064V45.8255H0V38.9064C0 37.076 1.12125 35.4267 2.82612 34.7664L12.5254 30.9523L20.0962 39.2715L22.472 34.4319V34.4223L23 33.3385L23.5376 34.4224L25.9143 39.2715L33.4745 30.9523L43.1834 34.7664C44.8787 35.4373 46 37.076 46 38.9064Z" fill="white"/>
<path d="M29.785 29.5148H29.7946V25.576C29.2915 26.3389 28.7068 27.1132 28.0274 27.8875L27.0883 28.9225C26.2258 29.8608 24.9992 30.4079 23.7246 30.4079H22.2871C21.0124 30.4079 19.7848 29.8617 18.9233 28.9225L17.9842 27.8875C17.297 27.1065 16.7058 26.3216 16.2007 25.5511V29.5081L16.216 29.5158L22.1289 32.8508L23.001 33.3395L23.8732 32.8508L29.785 29.5148Z" fill="white"/>
<g opacity="0.1">
<g opacity="0.1">
<path opacity="0.1" d="M20.5766 30.0572C20.5708 30.0553 20.5651 30.0533 20.5593 30.0514C20.5497 30.0476 20.5392 30.0447 20.5296 30.0418C20.52 30.037 20.5095 30.0361 20.4961 30.0313L24.11 32.7156L29.7852 29.5147H29.791L29.7948 25.5961C29.7852 25.6104 28.4474 27.3632 28.0277 27.8856L27.0886 28.9215C26.2261 29.8598 24.9994 30.4069 23.7248 30.4069H22.2873C21.9969 30.4069 21.7123 30.3753 21.4334 30.3159C21.1382 30.2594 20.8536 30.1712 20.5766 30.0572Z" fill="white"/>
</g>
</g>
<path d="M16.2744 17.55C16.4239 19.2702 15.5891 20.7489 14.4104 20.8505C13.2298 20.954 12.1516 19.642 11.9993 17.9218C11.8498 16.2016 12.6845 14.7248 13.8651 14.6213C15.0449 14.5178 16.1249 15.8288 16.2744 17.55Z" fill="white"/>
<path d="M34.0094 17.9237C33.8599 19.6439 32.7799 20.9549 31.6002 20.8514C30.4195 20.7479 29.5838 19.2712 29.7362 17.5509C29.8857 15.8307 30.9657 14.5188 32.1454 14.6223C33.3261 14.7238 34.1608 16.2026 34.0094 17.9237Z" fill="white"/>
<path d="M32.7797 17.5557C32.5985 19.482 31.6862 23.7265 28.0273 27.8856L27.0881 28.9206C26.2256 29.8597 24.999 30.407 23.7244 30.407H22.2869C21.0123 30.407 19.7847 29.8607 18.9231 28.9206L17.984 27.8856C14.3231 23.7265 13.4224 19.481 13.2297 17.5557C12.971 14.9011 13.0764 11.5278 13.2297 10.6557C14.1019 5.54785 18.4728 2.37573 23.0057 2.37573C27.5377 2.37573 31.9077 5.54785 32.7797 10.6557C32.933 11.5278 33.0384 14.9021 32.7797 17.5557Z" fill="white"/>
<path d="M15.5339 4.79744C15.5339 4.79744 15.601 -1.65505 24.9821 0.406329C24.9821 0.406329 29.6368 1.86872 32.6315 6.19469C32.6315 6.19469 35.4414 10.2753 33.9138 13.7081C33.4174 14.8226 32.8845 16.0982 32.9459 17.1226C32.9459 17.1226 32.4255 14.9481 32.115 13.1359C31.8553 11.6179 31.2018 10.1958 30.1984 9.02854L30.1686 8.99305C28.5443 7.11182 26.0018 6.23207 23.5974 6.85217C22.4503 7.14829 21.145 7.72617 19.7094 8.75066C19.7094 8.75066 15.8013 6.12767 13.8693 10.719C13.8693 10.719 13.0087 14.0752 13.1304 16.7259C13.1304 16.7248 7.75128 5.46256 15.5339 4.79744Z" fill="#CBF2FE"/>
<path d="M33.4746 30.9524L26.403 40.229L23 33.3386L23.8721 32.8499L29.785 29.5149H29.7946L29.8041 29.5052L33.4746 30.9524Z" fill="white"/>
<path d="M12.5254 30.9524L19.6085 40.229L23 33.3386L22.1279 32.8499L16.215 29.5149L16.1959 29.5052L12.5254 30.9524Z" fill="white"/>
<path d="M19.6084 45.8256L21.5433 41.4174L20.7085 40.1906L20.0971 39.2706L22.4719 34.4225L22.9999 33.3386L23.5375 34.4225V34.432L25.9142 39.2706L25.2913 40.182L24.4565 41.4174L26.4029 45.8256H19.6084Z" fill="#CBF2FE"/>
<path d="M25.9142 39.2706L25.2913 40.182L23.0095 35.514L20.7086 40.1906L20.0972 39.2706L22.4719 34.4225L22.9999 33.3386L23.5376 34.4225V34.432L25.9142 39.2706Z" fill="#CBF2FE"/>
<path d="M11.4254 41.0838C11.4254 41.8888 10.7738 42.5415 9.96879 42.5415C9.1619 42.5415 8.50928 41.8879 8.50928 41.0838C8.50928 40.2798 9.16289 39.6262 9.96879 39.6262C10.7738 39.6262 11.4254 40.2788 11.4254 41.0838Z" fill="white"/>
</svg>
