<svg width="44" height="46" viewBox="0 0 44 46" fill="none" xmlns="http://www.w3.org/2000/svg">
<path d="M40.3134 31.1384C36.7366 36.8314 30.9188 39.4388 25.633 39.4388C18.2593 39.4388 17.8861 33.9512 13.1697 33.6328C6.99113 33.2145 4.45836 38.927 5.08033 43.2354C5.19323 44.016 5.35899 44.7876 5.58254 45.5418C5.65065 45.7715 5.47309 46 5.22584 46H0.905751C0.736459 46 0.587238 45.8899 0.545426 45.7314C-0.223261 42.8131 -0.230601 39.8529 0.852789 36.8195C2.5235 32.1418 7.74226 28.2471 13.1448 28.0888C15.7082 28.0137 18.6133 28.2109 20.4984 26.5292C21.7002 25.4574 22.1356 23.7978 22.237 22.2198C22.3375 20.6417 22.1643 19.047 22.4111 17.4847C22.8354 14.8066 24.5657 12.3569 26.9689 10.9738C27.1992 10.8413 27.1827 10.5174 26.9395 10.4088C24.8301 9.46648 23.0713 7.79763 22.0714 5.76716C21.2421 4.08313 20.9413 2.1638 21.1902 0.314812C21.2145 0.135035 21.3724 0 21.5599 0H26.1303C26.3423 0 26.5114 0.170434 26.5015 0.375008C26.425 1.95608 26.7999 4.06597 28.6165 5.57831C31.6068 8.06617 40.786 6.91662 43.1103 16.7822C44.2853 21.7663 42.5094 27.6435 40.3134 31.1384V31.1384Z" fill="white"/>
<path d="M11.0764 33.7394C10.8294 33.688 10.5703 33.6513 10.2961 33.6328C4.11754 33.2145 1.58476 38.9269 2.20674 43.2353C2.34258 44.1748 2.55508 45.1012 2.85259 46H5.22555C5.4728 46 5.65036 45.7714 5.58225 45.5417C5.3587 44.7876 5.19294 44.0159 5.08005 43.2353C4.5338 39.451 6.42193 34.584 11.0764 33.7394V33.7394Z" fill="white"/>
<path d="M43.2155 16.9809C40.8913 7.11528 31.712 8.26483 28.7217 5.77697C26.9052 4.26463 26.5303 2.15473 26.6068 0.573662C26.6166 0.369088 26.4475 0.198654 26.2356 0.198654H23.7604C23.6054 1.80731 23.8839 4.14154 25.8483 5.77697C28.8386 8.26483 38.0178 7.11528 40.3421 16.9809C41.5171 21.9649 39.7412 27.8423 37.5452 31.3371C34.3043 36.4956 29.2235 39.1205 24.3658 39.568C24.7952 39.6129 25.251 39.6375 25.7383 39.6375C31.024 39.6375 36.8418 37.0302 40.4187 31.3371C42.6146 27.8422 44.3905 21.9649 43.2155 16.9809Z" fill="#CBF2FE"/>
</svg>
