<svg width="46" height="46" viewBox="0 0 46 46" fill="none" xmlns="http://www.w3.org/2000/svg">
<path d="M43.6209 2.98889C41.6279 0.995896 39.016 -0.000647572 36.4041 3.15705e-07C34.3774 3.15705e-07 32.3507 0.600129 30.6131 1.79974L30.6587 5.15376L27.1863 4.98975L23.9264 8.24964L24.0905 11.722L20.6181 11.558L17.3582 14.8179L17.5222 18.2903L14.1681 18.2447C11.4218 22.2211 11.8182 27.7133 15.3574 31.2525C16.8997 32.7949 18.9212 33.5657 20.9427 33.5657C22.9642 33.5657 24.9857 32.7949 26.5281 31.2525L43.6209 14.1597C46.7056 11.0749 46.7056 6.07357 43.6209 2.98889Z" fill="#F8D070"/>
<path d="M13.4937 19.3703C13.6922 18.9841 13.9169 18.6081 14.1679 18.2446L17.5219 18.2903L16.8837 21.9193L14.3788 20.7731L13.4937 19.3703Z" fill="#F9ED80"/>
<path d="M22.0128 19.4725L17.358 14.8177L15.3572 16.8185C14.911 17.2647 14.5146 17.7426 14.168 18.2444L18.7044 22.7808C19.1616 23.2381 19.7598 23.4663 20.3585 23.4663C20.9574 23.4663 21.5556 23.2381 22.0127 22.7808C22.9266 21.8672 22.9266 20.3863 22.0128 19.4725Z" fill="#F9ED80"/>
<path d="M19.4228 22.7718C18.1191 21.4682 16.7148 20.377 15.2768 19.5126L2.45068 32.3386C3.31506 33.7766 4.40619 35.1809 5.70993 36.4846C11.4818 42.2565 19.2309 43.8663 23.0177 40.0795C26.8045 36.2927 25.1946 28.5436 19.4228 22.7718Z" fill="#B2B0BC"/>
<path d="M27.5942 28.904C27.5817 28.8368 27.29 27.2363 27.5709 25.303C27.8554 23.3446 28.6182 21.7064 29.8056 20.4747C30.5084 19.7458 31.715 19.89 32.2409 20.7553C32.6032 21.3512 32.5302 22.1221 32.0457 22.6239C30.0039 24.7389 30.6365 28.294 30.644 28.3342L27.5942 28.904Z" fill="#60D9A7"/>
<path d="M17.4024 30.7525C16.8278 30.1779 16.1157 29.8251 15.372 29.6937C13.7596 29.409 12.3473 30.8214 12.632 32.4337C12.7633 33.1773 13.1161 33.8896 13.6907 34.464C14.8867 35.66 16.6786 35.8953 18.11 35.1718C18.8336 33.7404 18.5984 31.9485 17.4024 30.7525Z" fill="#90D3F1"/>
<path d="M5.50538 29.2839L2.45068 32.3386C3.31506 33.7766 4.40619 35.1809 5.70993 36.4846C10.1984 40.9731 15.8822 42.944 19.9689 41.8179C13.9807 40.475 7.98234 34.9673 5.50538 29.2839Z" fill="#A19DAE"/>
<path d="M30.0425 23.9233C29.4515 24.1001 28.8197 24.1001 28.2286 23.9233C28.1167 23.8898 28.0052 23.8595 27.8937 23.8291C27.754 24.2975 27.6455 24.7889 27.5709 25.303C27.29 27.2363 27.5817 28.8369 27.5942 28.9041L30.6441 28.3342C30.6377 28.2998 30.1736 25.6839 31.3262 23.6051C30.9017 23.6891 30.4738 23.7943 30.0425 23.9233Z" fill="#00CD8C"/>
<path d="M29.2339 45.2063C29.264 45.2227 29.294 45.2389 29.324 45.2547C31.6186 46.4684 34.4178 46.1692 36.4697 44.5793C46.6834 36.6658 41.1177 21.1568 29.136 26.216C17.1541 21.1568 11.5884 36.6658 21.8022 44.5793C23.854 46.1692 26.6534 46.4684 28.9478 45.2547C28.9778 45.2389 29.0079 45.2227 29.0379 45.2063C29.099 45.1731 29.173 45.1731 29.2339 45.2063Z" fill="#FF5B6E"/>
<path d="M4.56931 17.6291C3.95873 17.8524 3.57601 18.4609 3.62044 19.1095C3.68152 20.0022 2.94034 20.7433 2.04774 20.6822C1.39911 20.6379 0.79065 21.0205 0.567314 21.6311C-0.521415 24.6077 0.190521 28.5841 2.45081 32.3386C5.70765 32.2556 8.93922 30.9719 11.4247 28.4865C13.9102 26.001 15.1938 22.7694 15.2769 19.5126C11.5223 17.2523 7.54589 16.5404 4.56931 17.6291Z" fill="#90D3F1"/>
<path d="M10.3065 26.1868C11.1237 25.3696 10.9543 23.8753 9.92816 22.8491C8.90201 21.823 7.40768 21.6536 6.59049 22.4708C5.7733 23.288 5.9427 24.7823 6.96885 25.8085C7.995 26.8346 9.48932 27.004 10.3065 26.1868Z" fill="white"/>
<path d="M8.30252 22.3138C8.03134 22.0427 8.03134 21.6033 8.30243 21.3322L9.06203 20.5725C9.33322 20.3014 9.77277 20.3013 10.0437 20.5725C10.3149 20.8436 10.3149 21.283 10.0438 21.5541L9.28417 22.3138C9.01316 22.5848 8.57353 22.585 8.30252 22.3138Z" fill="#423E4F"/>
<path d="M28.5813 12.9043L23.9266 8.24951L20.6182 11.5579L25.273 16.2127C26.1867 17.1264 27.6675 17.1264 28.5813 16.2127C29.0379 15.7561 29.2668 15.1573 29.2668 14.5586C29.2668 13.9597 29.0386 13.3615 28.5813 12.9043Z" fill="#F9ED80"/>
<path d="M35.1496 6.33622L30.6132 1.7998C30.1114 2.14642 29.6335 2.54284 29.1866 2.9897L27.1865 4.98982L31.8413 9.64461C32.7551 10.5583 34.2359 10.5583 35.1497 9.64461C35.6069 9.18739 35.8352 8.5892 35.8352 7.99046C35.8351 7.39153 35.6068 6.79335 35.1496 6.33622Z" fill="#F9ED80"/>
<path d="M4.32099 24.1496C4.32099 21.6322 5.03191 19.2676 6.27816 17.2141C5.68072 17.2946 5.10836 17.432 4.56931 17.6291C3.95873 17.8525 3.57601 18.4609 3.62044 19.1096C3.68152 20.0022 2.94034 20.7433 2.04774 20.6823C1.39911 20.6379 0.79065 21.0205 0.567314 21.6311C-0.521415 24.6077 0.190521 28.5842 2.45081 32.3387C3.88311 32.3021 5.3104 32.0331 6.67162 31.5321C5.20397 29.0947 4.32099 26.5222 4.32099 24.1496Z" fill="#59C2E7"/>
<path d="M20.5764 34.5861C20.5764 30.8193 22.3986 27.4559 25.253 25.2431C16.0781 24.6406 12.7682 37.5803 21.8016 44.5793C23.6171 45.986 26.0175 46.3814 28.1358 45.6133C23.6819 43.7339 20.5764 39.5038 20.5764 34.5861Z" fill="#DB2E43"/>
</svg>
