<svg width="63" height="49" viewBox="0 0 63 49" fill="none" xmlns="http://www.w3.org/2000/svg">
<path d="M59.4371 22.1884C59.3531 22.1142 59.2676 22.041 59.181 21.9688L59.164 21.9547L59.1695 21.933C60.941 14.9265 55.9243 8.02951 48.7128 7.55705L48.6927 7.55568C46.4248 0.751934 38.3741 -2.11841 32.3134 1.71596L31.7688 2.06053L31.7655 2.05853C25.6473 -1.80431 17.5245 0.83461 14.8447 7.55568L14.826 7.55693C7.61296 8.03163 2.59664 14.9309 4.36945 21.9389L4.37345 21.9546L4.35659 21.9687C4.26966 22.041 4.18424 22.1143 4.10006 22.1886C-2.81608 28.2905 1.6561 39.7436 10.8792 39.7438L52.6586 39.744C61.8821 39.744 66.3544 28.2896 59.4371 22.1884Z" fill="#FF5B6E"/>
<path d="M37.9862 18.707C38.7209 18.707 39.3166 18.1114 39.3166 17.3766V13.2491C39.3166 12.5144 38.721 11.9186 37.9862 11.9186H32.5284V10.5882C32.5284 8.78903 31.0698 7.33044 29.2706 7.33044C27.4715 7.33044 26.0129 8.78903 26.0129 10.5882V11.9186H20.5551C19.8203 11.9186 19.2246 12.5142 19.2246 13.2491V17.3766C19.2246 18.1113 19.8202 18.707 20.5551 18.707C22.3542 18.707 23.8128 20.1656 23.8128 21.9648C23.8128 23.7639 22.3542 25.2225 20.5551 25.2225C19.8203 25.2225 19.2246 25.8181 19.2246 26.553V30.6803C19.2246 31.4151 19.8202 32.0108 20.5551 32.0108H26.0129V30.6803C26.0129 28.8812 27.4715 27.4226 29.2706 27.4226C31.0698 27.4226 32.5284 28.8812 32.5284 30.6803V32.0108H37.9862C38.7209 32.0108 39.3166 31.4152 39.3166 30.6803V26.553C39.3166 25.8182 38.721 25.2225 37.9862 25.2225C36.187 25.2225 34.7284 23.7639 34.7284 21.9648C34.7284 20.1655 36.187 18.707 37.9862 18.707Z" fill="#CBF2FE"/>
<path d="M55.2249 35.6964C55.9597 35.6964 56.5554 35.1008 56.5554 34.366V30.2385C56.5554 29.5037 55.9598 28.908 55.2249 28.908H49.7671V27.5776C49.7671 25.7784 48.3086 24.3198 46.5094 24.3198C44.7102 24.3198 43.2516 25.7784 43.2516 27.5776V28.908H37.7938C37.0591 28.908 36.4634 29.5036 36.4634 30.2385V34.3658C36.4634 35.1006 37.059 35.6963 37.7938 35.6963C39.593 35.6963 41.0516 37.1549 41.0516 38.954C41.0516 40.7532 39.593 42.2118 37.7938 42.2118C37.0591 42.2118 36.4634 42.8074 36.4634 43.5422V47.6696C36.4634 48.4043 37.059 49 37.7938 49H43.2516V47.6696C43.2516 45.8704 44.7102 44.4118 46.5094 44.4118C48.3086 44.4118 49.7671 45.8703 49.7671 47.6696V49H55.2249C55.9597 49 56.5554 48.4044 56.5554 47.6696V43.5421C56.5554 42.8074 55.9598 42.2117 55.2249 42.2117C53.4258 42.2117 51.9672 40.7531 51.9672 38.9539C51.9673 37.155 53.4258 35.6964 55.2249 35.6964Z" fill="#D62127"/>
<path d="M12.5 25.9546C12.5 15.218 18.0193 5.77201 26.3742 0.294342C21.5622 -0.0268742 16.7814 2.6976 14.8443 7.55581L14.8256 7.55706C7.6126 8.03176 2.59628 14.9312 4.36896 21.9391L4.37296 21.9548L4.3561 21.969C4.2693 22.0413 4.18375 22.1146 4.09957 22.1889C-2.81657 28.2908 1.65561 39.7439 10.8787 39.7439H15.7699C13.6791 35.5983 12.5 30.9144 12.5 25.9546Z" fill="#DB2E43"/>
<path d="M43.8761 37.9554C43.8761 32.5833 45.1421 27.7928 47.9791 24.6704C47.5376 24.447 47.0389 24.3202 46.5102 24.3202C44.7111 24.3202 43.2525 25.7788 43.2525 27.5779V28.9083H37.7948C37.0601 28.9083 36.4644 29.504 36.4644 30.2387V34.3661C36.4644 35.1008 37.06 35.6965 37.7948 35.6965C39.594 35.6965 41.0526 37.155 41.0526 38.9542C41.0526 40.7533 39.594 42.2119 37.7948 42.2119C37.0601 42.2119 36.4644 42.8076 36.4644 43.5422V47.6697C36.4644 48.4044 37.06 49 37.7948 49H43.2526V47.6697C43.2526 46.3177 44.0764 45.1581 45.2494 44.6651C44.366 42.6061 43.8761 40.3381 43.8761 37.9554Z" fill="#D62127"/>
<path d="M26.6364 20.9659C26.6364 15.5938 27.9024 10.8032 30.7394 7.68088C30.298 7.45745 29.7993 7.33069 29.2706 7.33069C27.4715 7.33069 26.0129 8.78928 26.0129 10.5884V11.9188H20.5551C19.8203 11.9188 19.2246 12.5145 19.2246 13.2492V17.3766C19.2246 18.1113 19.8202 18.707 20.5551 18.707C22.3542 18.707 23.8128 20.1655 23.8128 21.9646C23.8128 23.7638 22.3542 25.2224 20.5551 25.2224C19.8203 25.2224 19.2246 25.8181 19.2246 26.5527V30.6802C19.2246 31.4149 19.8202 32.0105 20.5551 32.0105H26.0129V30.6802C26.0129 29.3281 26.8366 28.1685 28.0096 27.6756C27.1263 25.6167 26.6364 23.3486 26.6364 20.9659Z" fill="#008BD2"/>
</svg>
