<svg width="41" height="47" viewBox="0 0 41 47" fill="none" xmlns="http://www.w3.org/2000/svg">
<path d="M7.66622 15.3333C7.30205 15.3333 6.93405 15.2298 6.6063 15.0132C5.72463 14.4267 5.48505 13.2384 6.07155 12.3567C8.75105 8.32216 13.8225 6.57799 18.4072 8.11324L19.0225 8.31832C20.0249 8.65374 20.5673 9.74049 20.2319 10.7429C19.8965 11.7472 18.8078 12.2858 17.8054 11.9523L17.1901 11.7472C14.248 10.7621 10.9859 11.8852 9.26472 14.4766C8.89672 15.0324 8.28722 15.3333 7.66622 15.3333V15.3333Z" fill="white"/>
<path d="M30.6678 38.3334C30.1349 38.3334 29.6021 38.1111 29.2226 37.676C27.5072 35.7114 25.0327 34.5825 22.4318 34.5825H19.4552C18.3953 34.5825 17.5386 33.7238 17.5386 32.6658C17.5386 31.6078 18.3953 30.7491 19.4552 30.7491H22.4318C26.1425 30.7491 29.6692 32.3553 32.1129 35.1556C32.8068 35.9548 32.7243 37.1642 31.927 37.86C31.5648 38.1781 31.1143 38.3334 30.6678 38.3334V38.3334Z" fill="white"/>
<path d="M27.6012 46H18.2575C17.876 46 17.5081 45.8486 17.2397 45.5783L15.4438 43.7786C13.5482 41.8753 12.1644 39.5063 11.4418 36.9303L11.1486 36.5987L10.8879 36.6122C9.8893 37.2082 9.09005 38.0708 8.57255 39.1096L6.46038 43.3301C6.25338 43.7441 5.86047 44.0335 5.40238 44.1063C4.94813 44.1849 4.48238 44.0316 4.15655 43.7019L0.419049 39.951C-0.0467007 39.4833 -0.134867 38.7569 0.208216 38.1915L1.89105 35.4162C3.8633 32.2019 6.88588 29.7486 10.4068 28.5008C11.0546 28.2708 11.5568 27.7802 11.783 27.1534C12.0398 26.4519 12.3503 25.7562 12.7049 25.0815L15.1755 20.4796C18.0716 15.088 16.7625 8.3145 12.0628 4.37383L9.86247 2.5415C9.39672 2.15433 9.22613 1.518 9.43122 0.94875C9.6363 0.3795 10.1787 0 10.7825 0H20.1262C20.454 0 20.7702 0.111167 21.0251 0.31625C25.1843 3.64933 27.3712 8.8205 26.8729 14.1507C26.8537 14.3539 26.9917 14.5398 27.1834 14.5762C32.1341 15.4732 35.6857 17.9247 38.3576 22.2889L40.0442 25.07C40.3873 25.6354 40.2991 26.3618 39.8334 26.8295L36.0959 30.5804C35.7701 30.9082 35.3024 31.0615 34.8501 30.9848C34.3939 30.912 34.001 30.6226 33.7921 30.2086L31.6799 25.99C30.8385 24.3091 29.3032 23.1323 27.4632 22.7623L24.362 22.1375L23.8982 22.3598L22.7252 24.5621C19.9959 29.6451 20.8948 35.7976 24.9601 39.8762L28.6228 43.5505C29.033 43.9607 29.1537 44.5797 28.9314 45.1164C28.7071 45.6492 28.182 46 27.6012 46V46Z" fill="white"/>
<path d="M14.802 7.56323C11.3596 7.63415 8.05913 9.3649 6.07155 12.3568C5.48505 13.2385 5.72463 14.4287 6.6063 15.0133C6.93405 15.2299 7.30205 15.3334 7.66622 15.3334C8.28722 15.3334 8.89672 15.0325 9.26472 14.4766C10.57 12.514 12.7569 11.3927 15.0185 11.3927C15.4766 11.3927 15.9385 11.4387 16.3966 11.5326C16.088 10.1411 15.5514 8.79565 14.802 7.56323V7.56323Z" fill="#CBF2FE"/>
<path d="M16.4367 0H10.7825C10.1788 0 9.63634 0.3795 9.43125 0.94875C9.22617 1.518 9.39675 2.15433 9.8625 2.5415L12.0648 4.37575C13.1668 5.29958 14.083 6.38058 14.8018 7.56125C15.5512 8.79558 16.0878 10.1392 16.3964 11.5326C17.0538 14.4938 16.6839 17.6755 15.1774 20.4815L12.7068 25.0834C12.3503 25.7581 12.0398 26.4538 11.7849 27.1553C11.5588 27.7821 11.0566 28.2728 10.4088 28.5028C6.88784 29.7505 3.86525 32.2038 1.893 35.4181L0.210169 38.1934C-0.132914 38.7588 -0.0447472 39.4853 0.421003 39.9529L4.1585 43.7038C4.42875 43.976 4.79292 44.1274 5.1705 44.1274C5.24909 44.1274 5.32767 44.1217 5.40625 44.1083C5.86242 44.0354 6.25534 43.746 6.46425 43.332L8.57642 39.1115C9.09584 38.0727 9.89509 37.2083 10.8918 36.6141L11.1524 36.6007L11.4457 36.9322C12.1683 39.5082 13.5521 41.8772 15.4477 43.7805L17.2436 45.5803C17.5138 45.8505 17.8799 46.0019 18.2613 46.0019H23.7679C20.3026 41.9424 14.9685 34.9696 15.2158 30.751C15.5799 24.5257 23.0032 19.3622 21.8398 12.2283C21.0252 7.24883 18.1176 2.44567 16.4367 0V0Z" fill="#CBF2FE"/>
</svg>
