<svg width="45" height="45" viewBox="0 0 45 45" fill="none" xmlns="http://www.w3.org/2000/svg">
<path d="M39.5167 2.85498C37.1565 2.85498 35.0611 4.36529 34.3147 6.60431L28.2321 24.852C27.4097 27.3193 25.1008 28.9837 22.5 28.984V26.129C19.8993 26.129 17.5904 27.3199 16.768 24.8526L10.6852 6.60431C9.93885 4.3652 7.84345 2.85498 5.48332 2.85498L0 9.83807V16.6935L0.770273 18.4379V32.6612C0.770273 39.4757 5.52428 44.2849 12.3387 44.2849C12.3387 44.2849 13.9513 44.1064 14.1996 42.8648L15.0165 38.7805C15.5593 36.0665 18.6859 33.4421 21.4537 33.4421H23.5462C26.3141 33.4421 29.4627 36.0665 30.0055 38.7805L31.9439 44.9016C32.173 44.9658 32.4137 44.9999 32.6612 44.9999C39.4757 45 45 39.4758 45 32.6613V9.83807L39.5167 2.85498Z" fill="#FF5B6E"/>
<path d="M39.5167 0C37.1565 0 35.0611 1.51022 34.3148 3.74933L28.2322 21.997C27.4097 24.4644 25.1009 26.1287 22.5 26.1291C19.8993 26.1291 17.5904 24.465 16.768 21.9977L10.6853 3.74933C9.93894 1.51022 7.84354 0 5.48332 0C2.45487 0 0 2.45496 0 5.48332V9.83804C2.40495 9.83804 4.3548 7.88818 4.3548 5.48323C4.3548 4.86088 4.86088 4.3548 5.48323 4.3548C5.9698 4.3548 6.40002 4.66453 6.55383 5.12631L12.6367 23.3753C14.0543 27.627 18.0183 30.4838 22.5007 30.4838C26.9828 30.4831 30.9467 27.626 32.3633 23.3742L38.4465 5.12596C38.6 4.66453 39.0302 4.3548 39.5168 4.3548C40.1391 4.3548 40.6452 4.86088 40.6452 5.48323C40.6452 7.88818 42.595 9.83804 45 9.83804V5.48332C45 2.45496 42.5451 0 39.5167 0V0Z" fill="#DB2E43"/>
<path d="M31.9439 44.9017L30.6631 38.4958C29.9846 35.1033 27.0059 32.6613 23.5462 32.6613H21.4538C17.9943 32.6613 15.0157 35.103 14.3369 38.4953L13.5196 42.5802C13.4073 43.1414 12.9126 43.5483 12.3403 43.5484C6.33603 43.5492 1.4516 38.6649 1.4516 32.6613V18.1452C1.4516 17.3435 0.80165 16.6936 0 16.6936V32.6613C0 39.5045 5.57077 45.0464 12.4247 44.9997C13.6585 44.9912 14.6999 44.0811 14.9419 42.8712L15.6769 39.1966C16.3029 36.0664 18.6859 34.1129 21.4537 34.1129H23.5462C26.3141 34.1129 28.6971 36.0665 29.24 38.7806L30.0568 42.8649C30.2562 43.8618 31.0037 44.636 31.9439 44.9017Z" fill="#FF5B6E"/>
</svg>
