<svg width="44" height="46" viewBox="0 0 44 46" fill="none" xmlns="http://www.w3.org/2000/svg">
<path d="M3.88003 31.7993C2.80927 31.6228 1.19335 30.5268 0.924899 28.9697C0.613772 27.165 1.74238 24.8787 1.74238 24.8787C1.74238 24.8787 0.257812 23.8514 0.257812 21.711C0.257812 19.895 2.08235 18.3156 2.08235 18.3156C2.08235 18.3156 0.285664 16.7788 0.285664 14.6919C0.285664 12.1257 2.24623 11.1503 2.24623 11.1503C2.24623 11.1503 -0.885804 7.47275 1.87589 5.19611C1.49037 3.80228 2.01739 2.25887 3.2637 1.48217C4.40211 0.772677 5.96709 0.804841 7.09247 1.52323C7.27054 1.63688 7.50512 1.61208 7.64994 1.45989C8.40274 0.668729 9.45022 0.147008 10.5503 0.0270674C11.6756 -0.0957485 12.8425 0.20343 13.7658 0.842216C13.9128 0.944009 14.1084 0.9432 14.2574 0.844103C15.0726 0.301719 16.2615 0.00433703 17.2096 0.0451259C18.1374 0.0850164 19.0471 0.433609 19.7599 1.014C19.918 1.14265 20.1442 1.14301 20.304 1.0166C20.9979 0.467749 21.904 0.0647118 22.844 0.0280557C23.7996 -0.00922932 25.0356 0.444569 25.7913 1.10285C25.9442 1.23609 26.17 1.23429 26.3317 1.11193C28.2523 -0.342099 30.9499 -0.351712 32.2938 1.19889C32.4375 1.36475 32.683 1.39942 32.8687 1.27975C33.9378 0.590565 35.0286 0.190313 36.2383 0.163809C37.4029 0.138293 38.6547 0.672143 39.2029 1.6394C39.3502 1.89913 39.6423 2.04091 39.946 2.02968C41.0489 1.98871 42.1602 2.52426 42.6725 3.48595C43.2388 4.54915 43.0228 5.95161 42.1836 6.82003C42.1023 6.90413 42.093 7.03377 42.1644 7.1264C42.8145 7.96949 44.2076 9.53726 43.5861 11.4645C43.3372 12.2366 42.6975 12.9119 41.8873 13.0832C41.8933 13.0615 41.9007 13.096 41.9068 13.0742C42.9108 14.0551 43.484 15.4434 43.4573 16.83C43.4324 18.1286 42.8817 19.4093 41.9569 20.3416C41.8579 20.4414 41.8664 20.6026 41.9736 20.6936C42.7995 21.3945 43.2426 22.3254 43.1864 23.4153C43.1311 24.4893 42.5569 25.5241 41.6771 26.168C41.5542 26.2579 41.5487 26.4412 41.6653 26.539C42.6143 27.3359 42.9932 28.5509 43.0959 29.7999C43.1745 30.7559 43.0348 31.7767 42.4363 32.5373C41.9358 33.1735 41.0524 33.5562 40.2697 33.4002C40.0182 33.3501 39.7709 33.4817 39.6688 33.7117C39.1982 34.7706 38.0317 35.5971 36.8766 35.7943C35.7277 35.9905 34.5414 35.7102 33.4991 35.1845C33.258 35.0628 32.9612 35.1308 32.8069 35.3487C32.0693 36.3905 30.1849 37.4774 27.3996 35.7092C26.2596 34.9855 24.4473 35.9232 23.5987 36.9605C22.7499 37.9978 22.4121 39.3448 22.2336 40.6611C22.0353 42.1231 22.32 44.0553 22.51 45.5973C22.5364 45.8114 22.369 46 22.1533 46H19.4086C19.1937 46 19.0269 45.8133 19.0521 45.5999C19.4142 42.5234 18.2397 36.8033 20.2555 33.3945C21.2986 31.6306 24.5082 28.1267 28.7714 28.9047C29.1335 28.9707 29.4865 28.7812 29.6407 28.4546C29.9804 27.7351 30.6586 26.0851 32.825 26.2755C33.169 26.3057 33.3362 25.8485 33.1224 25.5906C32.4912 24.8294 32.089 23.8257 32.0693 22.888C32.0463 21.7953 32.4932 20.7034 33.2667 19.9158C33.4504 19.7288 33.46 19.4308 33.2941 19.2278C32.6586 18.45 32.3597 17.5126 32.2835 16.4872C32.2042 15.4213 32.4895 14.3337 33.0765 13.4324C33.18 13.2735 33.1132 13.0654 32.9417 12.9792C32.3632 12.6882 31.9365 12.1951 31.7307 11.5723C31.5503 11.0265 31.5754 10.4214 31.7853 9.88657C31.8297 9.77354 31.6984 9.67535 31.5953 9.74246C30.6058 10.3862 29.0828 10.5837 27.7771 10.2944C27.1242 10.1497 25.9896 9.58101 25.3749 8.91886C25.1913 8.72121 24.8827 8.69408 24.6661 8.85669C23.7722 9.52773 22.5917 9.91253 21.4842 10.0224C20.4037 10.1297 19.2941 9.92529 18.3241 9.4493C17.9961 9.2883 17.599 9.32262 17.3081 9.5413C15.7271 10.7296 13.9348 11.0187 12.1692 10.2094C11.9561 10.1117 11.7274 10.3143 11.803 10.5318C12.369 12.1622 12.0045 14.0346 10.8992 15.3826C10.5996 15.7479 10.5929 16.2743 10.8735 16.6545C11.606 17.6469 11.9947 18.8864 11.9652 20.1099C11.9356 21.342 11.4662 22.557 10.671 23.5127C10.3686 23.8761 10.3511 24.4019 10.6285 24.7848C11.4178 25.8744 11.8525 27.1653 11.7897 28.5152C11.7401 29.5814 11.3191 30.7379 10.346 31.2238C9.74779 31.5225 9.04566 31.5179 8.38657 31.6452C7.6371 31.7899 6.82554 32.2203 6.81907 33.0345C6.81215 33.9039 6.95186 34.722 8.32997 35.6792C8.45728 35.7677 8.52286 35.9223 8.49312 36.0744C8.43652 36.3646 8.36258 36.6717 8.30257 36.9654C8.26205 37.1635 8.07715 37.2974 7.87599 37.2757C7.2178 37.2045 6.59689 37.1469 5.97598 36.8802C3.59334 35.8561 3.5256 32.501 3.88003 31.7993Z" fill="#FED19A"/>
<path d="M43.5864 11.4643C44.2077 9.53785 42.816 7.97053 42.1655 7.12726C42.0937 7.0341 42.1017 6.90481 42.1838 6.81991C43.023 5.95148 43.2391 4.54903 42.6728 3.48573C42.1606 2.52405 41.0491 1.98858 39.9463 2.02946C39.6426 2.04078 39.3504 1.89892 39.2032 1.63918C38.6549 0.671928 37.4031 0.138079 36.2386 0.163594C35.7439 0.174465 35.2693 0.248766 34.8077 0.378859C35.4905 0.617034 36.0915 1.04622 36.4277 1.63927C36.5749 1.89901 36.867 2.04078 37.1708 2.02955C38.2736 1.98858 39.3851 2.52414 39.8973 3.48582C40.4636 4.54912 40.2475 5.95157 39.4082 6.82C39.3262 6.90481 39.3181 7.0341 39.39 7.12735C40.0405 7.97062 41.4321 9.53794 40.8109 11.4644C40.5643 12.2292 39.934 12.8982 39.1347 13.0773C40.1367 14.058 40.7086 15.4447 40.682 16.8299C40.6571 18.1288 40.1062 19.4097 39.1811 20.3421C39.0817 20.4423 39.0904 20.6018 39.1982 20.6932C40.0242 21.3943 40.4674 22.3252 40.4112 23.4151C40.3558 24.4891 39.7816 25.5239 38.9018 26.1679C38.7778 26.2586 38.7721 26.44 38.8897 26.5386C39.8389 27.3355 40.2179 28.5507 40.3206 29.7999C40.3992 30.7559 40.2594 31.7767 39.661 32.5373C39.1605 33.1735 38.2772 33.5561 37.4944 33.4002C37.2429 33.35 36.9956 33.4816 36.8934 33.7116C36.5007 34.5954 35.623 35.3158 34.6719 35.6451C35.3905 35.8495 36.1413 35.9199 36.8769 35.7943C38.032 35.5971 39.1985 34.7704 39.6691 33.7116C39.7712 33.4816 40.0185 33.35 40.27 33.4002C41.0527 33.5561 41.9361 33.1735 42.4366 32.5373C43.0349 31.7767 43.1748 30.756 43.0962 29.7999C42.9935 28.5507 42.6146 27.3355 41.6653 26.5386C41.5478 26.44 41.5535 26.2586 41.6774 26.1679C42.5573 25.5239 43.1314 24.4891 43.1868 23.4151C43.2429 22.3252 42.7998 21.3942 41.9738 20.6932C41.866 20.6018 41.8573 20.4423 41.9567 20.3421C42.8819 19.4097 43.4328 18.1288 43.4577 16.8299C43.4843 15.4447 42.9123 14.058 41.9103 13.0773C42.7095 12.8981 43.3397 12.2291 43.5864 11.4643ZM41.8991 13.08C41.9011 13.0796 41.9031 13.0789 41.9052 13.0785C41.9033 13.0822 41.9012 13.0817 41.8991 13.08Z" fill="#F4BB87"/>
<path d="M39.1307 13.0785C39.1283 13.079 39.126 13.0798 39.1235 13.0803C39.126 13.0823 39.1284 13.0828 39.1307 13.0785Z" fill="#F4BB87"/>
<path d="M11.8406 10.646C11.5176 10.6664 10.382 10.7295 10.2141 11.485C9.99913 12.4527 9.22899 14.0343 8.12365 15.3823C7.82016 15.7523 7.8207 16.2769 8.10388 16.6621C8.8326 17.6531 9.21911 18.8893 9.18973 20.1096C9.16008 21.3418 8.69074 22.5568 7.89554 23.5124C7.59276 23.8762 7.5695 24.3944 7.84738 24.7767C8.64025 25.8679 9.07707 27.1618 9.01418 28.5149C8.96458 29.581 8.27504 29.8323 7.49025 30.5856C6.53495 31.5025 6.37395 32.1427 6.81912 33.0342C6.82559 32.2199 7.63715 31.7896 8.38662 31.6448C9.04571 31.5175 9.74784 31.5222 10.346 31.2234C11.3191 30.7376 11.7401 29.581 11.7897 28.5149C11.8527 27.1617 11.4158 25.8679 10.6229 24.7767C10.3451 24.3944 10.3683 23.8762 10.6711 23.5124C11.4663 22.5568 11.9356 21.3418 11.9653 20.1096C11.9946 18.8893 11.6081 17.6532 10.8794 16.6621C10.5962 16.2769 10.5957 15.7523 10.8992 15.3823C11.9788 14.0657 12.3511 12.249 11.8406 10.646Z" fill="#F4BB87"/>
</svg>
