<svg width="44" height="48" viewBox="0 0 44 48" fill="none" xmlns="http://www.w3.org/2000/svg">
<path d="M17.3881 21.3612L17.3114 25.0441L11.0571 28.4626V40.9896H32.0942V28.4626L26.2848 24.8522L25.9664 21.1693L17.3796 21.3612H17.3881Z" fill="white"/>
<path d="M14.5013 10.6194C14.5013 10.6194 14.1431 9.8319 13.1808 10.2214C12.2185 10.6108 13.2234 14.5027 13.5916 15.0457C13.9597 15.5887 14.551 15.2432 14.7657 15.2219C15.0727 17.5417 15.0997 19.1394 16.0279 20.1173C16.9078 21.0441 18.9205 22.9317 19.9823 23.5898C20.5607 23.7238 21.1485 23.8131 21.7406 23.8571C22.3325 23.8148 22.9203 23.7274 23.4989 23.5955C24.5593 22.9374 26.5734 21.0498 27.4519 20.123C28.38 19.1451 28.4085 17.5474 28.7141 15.2276C28.9301 15.2489 29.5214 15.5943 29.8896 15.0514C30.2577 14.5084 31.2627 10.6179 30.3004 10.2271C29.3381 9.83616 28.9799 10.6251 28.9799 10.6251C28.9799 10.6251 29.9308 7.569 28.2407 4.56127C27.0823 2.50021 24.4399 1.43414 21.7406 1.35312C19.0399 1.4313 16.3989 2.50021 15.2418 4.56127C13.5504 7.569 14.5013 10.6251 14.5013 10.6251V10.6194Z" fill="white"/>
<path d="M14.2473 26.1287C14.9211 31.685 29.1993 31.5301 29.232 26.1287L33.9227 34.1114L30.2085 42.2358C25.1733 43.6265 19.8733 43.7563 14.7761 42.6139L8.11816 34.7482L14.2559 26.1287H14.2473Z" fill="#CBF2FE"/>
<path d="M15.6103 25.6979C-0.989057 31.0965 3.75255 28.6718 0 46.9997C2.39435 46.9997 4.21792 46.9997 7.23072 46.9997H8.19575H8.43583H9.03839H9.64095H15.6103C19.2819 46.9997 17.6553 47.0034 21.7409 46.9997V42.2163L15.6117 25.6979H15.6103Z" fill="white"/>
<path d="M27.8661 25.7362C44.4797 31.0821 39.632 28.6733 43.3845 46.9996C40.9743 46.9996 40.3717 46.9996 37.9615 46.9996H35.3347C34.9487 46.9996 34.9487 46.9996 34.3461 46.9996C33.7436 46.9996 34.3461 46.9996 33.7436 46.9996C33.7436 46.9996 33.2258 46.9996 33.141 46.9996C32.5385 46.9996 32.5385 46.9996 32.5385 46.9996H30.7308C27.1154 46.9996 25.7789 47.0042 21.6924 46.9996L21.7412 42.2161L27.8661 25.7276V25.7362Z" fill="white"/>
<path d="M21.7394 23.8558C21.7394 23.8558 20.5241 23.7918 19.9754 23.6298C19.4268 23.4677 16.0225 20.1586 16.0225 20.1586L16.1291 15.2817L20.8851 15.0671C20.8851 15.0671 21.4537 14.7288 21.738 14.7999C22.0223 14.7288 22.5909 15.0671 22.5909 15.0671L27.3469 15.2832L27.4535 20.1601C27.4535 20.1601 24.0421 23.4691 23.4991 23.6312C22.9562 23.7932 21.7394 23.8558 21.7394 23.8558Z" fill="#CBF2FE"/>
<path d="M21.7393 14.7985V16.1445V17.0827L21.7464 19.347V21.5118V23.8572C21.7464 23.8572 22.9631 23.7918 23.5103 23.6298C24.0576 23.4677 27.4647 20.1586 27.4647 20.1586L27.3581 15.2817L22.595 15.0671C22.595 15.0671 22.0264 14.7288 21.7421 14.7999L21.7393 14.7985Z" fill="#CBF2FE"/>
<path d="M14.1729 9.65714L16.4813 15.4039L16.2098 15.5077L13.9028 9.7609L14.1729 9.65714Z" fill="#CBF2FE"/>
<path d="M29.4875 9.84182L27.317 15.5915L27.0327 15.5133L29.2032 9.76364L29.4875 9.84182Z" fill="#CBF2FE"/>
<path d="M21.7181 0C21.7181 0 14.5911 1.06891 14.0126 2.55856C13.4341 4.04821 12.9508 3.72128 13.0929 5.48669C13.2351 7.25209 13.174 10.2229 13.174 10.2229C19.2861 7.99408 24.1942 7.91305 30.2509 10.2229C30.2509 10.2229 30.1884 7.25352 30.3334 5.48669C30.4783 3.71986 29.9965 4.06527 29.418 2.56567C28.8394 1.06607 21.7181 0 21.7181 0Z" fill="#CBF2FE"/>
</svg>
