<svg width="41" height="46" viewBox="0 0 41 46" fill="none" xmlns="http://www.w3.org/2000/svg">
<path d="M35.2641 19.4075C35.1391 19.1121 35.0891 18.7911 35.1055 18.4708C35.1211 18.1678 35.1289 17.8649 35.1289 17.5645C35.1289 7.87939 27.2495 0 17.5645 0L15.7676 17.5645L17.5645 46H25.0157C26.1202 46 27.0157 45.1046 27.0157 44V39.9141C27.0157 38.8095 27.9111 37.9141 29.0157 37.9141H33.1289C34.2335 37.9141 35.1289 37.0186 35.1289 35.9141V33.3255C35.1289 32.221 36.0243 31.3256 37.1289 31.3256H37.289C38.7209 31.3256 39.6889 29.8649 39.1309 28.5462L35.2641 19.4075Z" fill="white"/>
<path d="M0 17.5645C0 22.0694 1.73961 26.3958 4.8162 29.6451C5.19108 30.041 5.41794 30.5587 5.41794 31.1039V44C5.41794 45.1046 6.31337 46 7.41794 46H17.5645V0C7.87939 0 0 7.87939 0 17.5645Z" fill="white"/>
<path d="M27.043 17.5645H29.7383C29.7383 10.8518 24.2771 5.39062 17.5645 5.39062L16.666 6.73828L17.5645 8.08594C22.7909 8.08594 27.043 12.338 27.043 17.5645Z" fill="#CBF2FE"/>
<path d="M21.6523 17.5645C21.6523 20.3473 19.9673 22.743 17.5645 23.7878L16.666 25.1564L17.5645 26.6521C21.482 25.4881 24.3477 21.855 24.3477 17.5646C24.3477 13.8243 21.3047 10.7814 17.5645 10.7814L16.666 12.129L17.5645 13.4767C19.8185 13.4766 21.6523 15.3104 21.6523 17.5645V17.5645Z" fill="#CBF2FE"/>
<path d="M18.957 17.5645H17.5645L16.666 19.0274L17.5645 20.6341C18.4172 19.8843 18.957 18.7866 18.957 17.5645V17.5645Z" fill="white"/>
<path d="M14.8691 24.3477C11.1289 24.3477 8.08594 21.3047 8.08594 17.5645C8.08594 12.338 12.338 8.08594 17.5645 8.08594V5.39062C10.8518 5.39062 5.39062 10.8518 5.39062 17.5645C5.39062 22.7909 9.64266 27.043 14.8691 27.043C15.8052 27.043 16.7098 26.906 17.5645 26.652V23.7878C16.7377 24.1471 15.8266 24.3477 14.8691 24.3477V24.3477Z" fill="#CBF2FE"/>
<path d="M10.7812 17.5645C10.7812 19.8185 12.615 21.6523 14.8691 21.6523C15.9011 21.6523 16.8443 21.2672 17.5645 20.6341V17.5645H16.2617C16.2617 18.3323 15.637 18.957 14.8691 18.957C14.1012 18.957 13.4766 18.3323 13.4766 17.5645C13.4766 15.3104 15.3104 13.4766 17.5645 13.4766V10.7812C13.8242 10.7812 10.7812 13.8242 10.7812 17.5645Z" fill="#CBF2FE"/>
</svg>
