<svg width="23" height="48" viewBox="0 0 23 48" fill="none" xmlns="http://www.w3.org/2000/svg">
<path d="M11.4284 48C11.0071 48 10.6665 47.6594 10.6665 47.2381V45.7143C10.6665 45.2929 11.0071 44.9524 11.4284 44.9524C11.8497 44.9524 12.1903 45.2929 12.1903 45.7143V47.2381C12.1903 47.6594 11.8497 48 11.4284 48Z" fill="white"/>
<path d="M12.9524 37.9909V38.7566V44.9524C12.9524 45.3714 12.6095 45.7143 12.1905 45.7143C11.7715 45.7143 11.0857 45.7143 10.6667 45.7143C10.2476 45.7143 9.90479 45.3714 9.90479 44.9524V38.7566C9.90479 38.3375 9.90479 37.9931 9.90479 37.9909C9.90479 37.9886 10.1311 38.0107 10.4076 38.0396C10.6842 38.0693 11.6602 38.0853 11.9429 38.0739C12.2255 38.064 12.9524 37.9886 12.9524 37.9909Z" fill="white"/>
<path d="M11.4286 0C5.12 0 0 5.11238 0 11.4286V25.1429C0 31.4514 5.12 36.5714 11.4286 36.5714C17.7371 36.5714 22.8571 31.4514 22.8571 25.1429V11.4286C22.8571 5.11238 17.7371 0 11.4286 0Z" fill="white"/>
<path d="M15.2384 27.4292C16.5031 27.4292 17.5241 28.4502 17.5241 29.7149C17.5241 30.9797 16.5031 32.0007 15.2384 32.0007C13.9736 32.0007 12.9526 30.9797 12.9526 29.7149C12.9526 28.4502 13.9736 27.4292 15.2384 27.4292Z" fill="white"/>
<path d="M7.61921 27.4292C8.88397 27.4292 9.90492 28.4502 9.90492 29.7149C9.90492 30.9797 8.88397 32.0007 7.61921 32.0007C6.35445 32.0007 5.3335 30.9797 5.3335 29.7149C5.3335 28.4502 6.35445 27.4292 7.61921 27.4292Z" fill="white"/>
<path d="M15.2384 26.6667C16.5031 26.6667 17.5241 27.6876 17.5241 28.9524C17.5241 30.2171 16.5031 31.2381 15.2384 31.2381C13.9736 31.2381 12.9526 30.2171 12.9526 28.9524C12.9526 27.6876 13.9736 26.6667 15.2384 26.6667Z" fill="#CBF2FE"/>
<path d="M22.8571 28.1905C22.8571 33.9809 18.5448 38.7733 12.9524 39.5124C12.4571 39.5809 11.9467 39.619 11.4286 39.619C10.9105 39.619 10.4 39.5809 9.90476 39.5124C4.31238 38.7733 0 33.9809 0 28.1905V25.1429C0 31.4514 5.12 36.5714 11.4286 36.5714C17.7371 36.5714 22.8571 31.4514 22.8571 25.1429V28.1905Z" fill="#CBF2FE"/>
<path d="M7.61921 26.6667C8.88397 26.6667 9.90492 27.6876 9.90492 28.9524C9.90492 30.2171 8.88397 31.2381 7.61921 31.2381C6.35445 31.2381 5.3335 30.2171 5.3335 28.9524C5.3335 27.6876 6.35445 26.6667 7.61921 26.6667Z" fill="#CBF2FE"/>
<path d="M19.0479 9.90477C19.4669 9.90477 19.8098 10.2476 19.8098 10.6667V22.8572C19.8098 23.2762 19.4669 23.6191 19.0479 23.6191H3.80976C3.39071 23.6191 3.04785 23.2762 3.04785 22.8572V10.6667C3.04785 10.2476 3.39071 9.90477 3.80976 9.90477H19.0479Z" fill="#008BD2"/>
<path d="M6.85565 17.5238C6.43432 17.5238 6.09375 17.1832 6.09375 16.7619V14.4762C6.09375 14.0549 6.43432 13.7143 6.85565 13.7143C7.27699 13.7143 7.61756 14.0549 7.61756 14.4762V16.7619C7.61756 17.1832 7.27699 17.5238 6.85565 17.5238Z" fill="white"/>
<path d="M9.14088 17.5238H6.85517C6.43383 17.5238 6.09326 17.1833 6.09326 16.7619C6.09326 16.3406 6.43383 16 6.85517 16H9.14088C9.56221 16 9.90279 16.3406 9.90279 16.7619C9.90279 17.1833 9.56221 17.5238 9.14088 17.5238Z" fill="white"/>
<path d="M9.14081 19.8095C8.71948 19.8095 8.37891 19.469 8.37891 19.0476V14.4762C8.37891 14.0549 8.71948 13.7143 9.14081 13.7143C9.56214 13.7143 9.90272 14.0549 9.90272 14.4762V19.0476C9.90272 19.469 9.56214 19.8095 9.14081 19.8095Z" fill="white"/>
<path d="M16.0032 15.2381H13.7175C13.2961 15.2381 12.9556 14.8975 12.9556 14.4762C12.9556 14.0549 13.2961 13.7143 13.7175 13.7143H16.0032C16.4245 13.7143 16.7651 14.0549 16.7651 14.4762C16.7651 14.8975 16.4245 15.2381 16.0032 15.2381Z" fill="white"/>
<path d="M13.7175 17.5246C13.2961 17.5246 12.9556 17.1832 12.9556 16.7627V14.4762C12.9556 14.0549 13.2961 13.7143 13.7175 13.7143C14.1388 13.7143 14.4794 14.0549 14.4794 14.4762V16.7627C14.4794 17.1832 14.1388 17.5246 13.7175 17.5246Z" fill="white"/>
<path d="M16.0032 17.5245H13.7175C13.2961 17.5245 12.9556 17.1831 12.9556 16.7626C12.9556 16.342 13.2961 16.0007 13.7175 16.0007H16.0032C16.4245 16.0007 16.7651 16.342 16.7651 16.7626C16.7651 17.1831 16.4245 17.5245 16.0032 17.5245Z" fill="white"/>
<path d="M16.0026 19.8094C15.5813 19.8094 15.2407 19.4688 15.2407 19.0475V16.7626C15.2407 16.342 15.5813 16.0007 16.0026 16.0007C16.424 16.0007 16.7645 16.342 16.7645 16.7626V19.0475C16.7645 19.4688 16.424 19.8094 16.0026 19.8094Z" fill="white"/>
<path d="M16.0032 19.8095H13.7175C13.2961 19.8095 12.9556 19.469 12.9556 19.0476C12.9556 18.6263 13.2961 18.2857 13.7175 18.2857H16.0032C16.4245 18.2857 16.7651 18.6263 16.7651 19.0476C16.7651 19.469 16.4245 19.8095 16.0032 19.8095Z" fill="white"/>
<path d="M11.4513 19.8095C11.0299 19.8095 10.6855 19.469 10.6855 19.0476C10.6855 18.6263 11.0223 18.2857 11.4429 18.2857H11.4513C11.8718 18.2857 12.2132 18.6263 12.2132 19.0476C12.2132 19.469 11.8718 19.8095 11.4513 19.8095V19.8095Z" fill="white"/>
</svg>
