<svg width="44" height="44" viewBox="0 0 44 44" fill="none" xmlns="http://www.w3.org/2000/svg">
<path d="M22.0003 18.2417C21.542 18.2417 21.1753 17.875 21.1753 17.4167V4.12505C21.1753 3.66674 21.542 3.30005 22.0003 3.30005C22.4586 3.30005 22.8253 3.66674 22.8253 4.12505V17.4167C22.8253 17.875 22.4586 18.2417 22.0003 18.2417Z" fill="white"/>
<path d="M27.7752 16.0417C27.3169 16.0417 26.9502 15.675 26.9502 15.2167V7.33335C26.9502 7.15005 27.0419 6.87505 27.2252 6.78335L31.5335 2.47505C31.8085 2.20005 32.3585 2.20005 32.6335 2.47505C33.0002 2.75005 33.0002 3.30005 32.6335 3.57505L28.6002 7.60835V15.2167C28.6002 15.675 28.2335 16.0417 27.7752 16.0417Z" fill="white"/>
<path d="M32.2669 20.8083C31.8086 20.8083 31.4419 20.4416 31.4419 19.9833V11.6416C31.4419 11.4583 31.5336 11.1833 31.7169 11.0916L40.4252 2.38325C40.7002 2.10825 41.2502 2.10825 41.5252 2.38325C41.8002 2.65825 41.8002 3.20825 41.5252 3.48325L33.0919 11.9166V19.8916C33.0919 20.4416 32.7252 20.8083 32.2669 20.8083Z" fill="white"/>
<path d="M40.9747 6.05C42.6454 6.05 43.9997 4.69566 43.9997 3.025C43.9997 1.35434 42.6454 0 40.9747 0C39.304 0 37.9497 1.35434 37.9497 3.025C37.9497 4.69566 39.304 6.05 40.9747 6.05Z" fill="#CBF2FE"/>
<path d="M32.0836 6.05C33.7543 6.05 35.1086 4.69566 35.1086 3.025C35.1086 1.35434 33.7543 0 32.0836 0C30.4129 0 29.0586 1.35434 29.0586 3.025C29.0586 4.69566 30.4129 6.05 32.0836 6.05Z" fill="#CBF2FE"/>
<path d="M22.0001 6.05C23.6708 6.05 25.0251 4.69566 25.0251 3.025C25.0251 1.35434 23.6708 0 22.0001 0C20.3294 0 18.9751 1.35434 18.9751 3.025C18.9751 4.69566 20.3294 6.05 22.0001 6.05Z" fill="#CBF2FE"/>
<path d="M16.2251 16.0417C15.7668 16.0417 15.4001 15.675 15.4001 15.2167V7.60835L11.3668 3.57505C11.0001 3.30005 11.0001 2.75005 11.3668 2.47505C11.6418 2.20005 12.1918 2.20005 12.4668 2.47505L16.7751 6.78335C16.9584 6.96666 17.0501 7.15005 17.0501 7.33335V15.3084C17.0501 15.675 16.6834 16.0417 16.2251 16.0417Z" fill="white"/>
<path d="M11.7335 20.8084C11.2752 20.8084 10.9085 20.4417 10.9085 19.9834V12.0084L2.47522 3.57505C2.10852 3.30005 2.10852 2.75005 2.47522 2.47505C2.75022 2.20005 3.30022 2.20005 3.57522 2.47505L12.2835 11.1834C12.4668 11.3667 12.5585 11.5501 12.5585 11.7334V20.0751C12.4669 20.4417 12.1002 20.8084 11.7335 20.8084Z" fill="white"/>
<path d="M3.025 6.05C4.69566 6.05 6.05 4.69566 6.05 3.025C6.05 1.35434 4.69566 0 3.025 0C1.35434 0 0 1.35434 0 3.025C0 4.69566 1.35434 6.05 3.025 6.05Z" fill="#CBF2FE"/>
<path d="M11.9166 6.05C13.5873 6.05 14.9416 4.69566 14.9416 3.025C14.9416 1.35434 13.5873 0 11.9166 0C10.2459 0 8.8916 1.35434 8.8916 3.025C8.8916 4.69566 10.2459 6.05 11.9166 6.05Z" fill="#CBF2FE"/>
<path d="M22.0003 16.775V39.325C22.0003 41.525 20.167 43.3583 17.967 43.3583C15.767 43.3583 13.9336 41.525 13.9336 39.325C13.9336 38.775 14.0253 38.225 14.2086 37.7667C13.9336 37.8584 13.7503 37.8584 13.4753 37.8584C11.4586 37.8584 9.80859 36.2084 9.80859 34.1917C9.80859 33.4584 9.9919 32.8167 10.3586 32.2667C8.43359 31.9 7.05859 30.25 7.05859 28.325C7.05859 26.4917 8.25029 25.025 9.90029 24.475C9.53359 23.8333 9.35029 23.1 9.35029 22.275C9.35029 19.8 11.367 17.6917 13.9336 17.6917H14.0253C13.9336 17.4167 13.9336 17.1417 13.9336 16.775C13.9336 14.575 15.7669 12.7417 17.9669 12.7417C20.167 12.7417 22.0003 14.575 22.0003 16.775Z" fill="white"/>
<path d="M17.9665 44C15.3998 44 13.2915 41.8917 13.2915 39.325C13.2915 39.05 13.2915 38.775 13.3832 38.5C10.9999 38.4083 9.1665 36.4833 9.1665 34.1917C9.1665 33.6417 9.2582 33.0917 9.4415 32.6334C7.69981 31.9917 6.4165 30.2501 6.4165 28.2334C6.4165 26.4001 7.42481 24.8417 8.9832 24.0167C8.79989 23.4667 8.6165 22.825 8.6165 22.1834C8.6165 19.5251 10.6332 17.3251 13.1998 17.0501C13.1998 16.9584 13.1998 16.8668 13.1998 16.7751C13.1998 14.2084 15.3081 12.1001 17.8748 12.1001C20.4415 12.1001 22.5498 14.2084 22.5498 16.7751V39.3251C22.6415 41.8917 20.5331 44 17.9665 44ZM14.2081 37.125C14.3914 37.125 14.5748 37.2167 14.6664 37.3083C14.8497 37.4916 14.8497 37.7666 14.7581 37.95C14.5748 38.4083 14.4831 38.775 14.4831 39.2333C14.4831 41.1583 16.0414 42.625 17.8748 42.625C19.7998 42.625 21.2665 41.0667 21.2665 39.2333V16.775C21.2665 14.85 19.7082 13.3833 17.8748 13.3833C15.9498 13.3833 14.4831 14.9416 14.4831 16.775C14.4831 17.05 14.4831 17.325 14.5748 17.5083C14.6665 17.6916 14.5748 17.9666 14.3915 18.0583C14.2082 18.2416 14.0248 18.2416 13.8415 18.2416C11.7332 18.2416 9.89981 19.9833 9.89981 22.1833C9.89981 22.825 10.0831 23.4666 10.3581 24.0166C10.4498 24.1999 10.4498 24.3833 10.3581 24.5666C10.2664 24.7499 10.1748 24.8416 9.99142 24.9333C8.61642 25.3916 7.60811 26.675 7.60811 28.1416C7.60811 29.7916 8.79981 31.1666 10.3581 31.5333C10.5414 31.5333 10.7248 31.7166 10.8164 31.9C10.9081 32.0833 10.9081 32.3583 10.7247 32.5417C10.4497 33 10.2664 33.55 10.2664 34.1917C10.2664 35.8417 11.6414 37.2167 13.2914 37.2167C13.4747 37.2167 13.7497 37.2167 13.8414 37.125C14.1165 37.125 14.1165 37.125 14.2081 37.125Z" fill="#CBF2FE"/>
<path d="M16.2247 19.9833C16.0414 19.9833 15.7664 19.8916 15.6747 19.6166C15.4914 19.3416 15.583 18.8833 15.9497 18.7916C17.4164 17.9666 17.0497 16.7749 17.0497 16.7749C16.958 16.4082 17.1414 16.0416 17.508 15.9499C17.8747 15.8582 18.2413 16.0416 18.333 16.4082C18.5163 17.1415 18.5163 18.8832 16.683 19.8915C16.408 19.9833 16.3164 19.9833 16.2247 19.9833Z" fill="#CBF2FE"/>
<path d="M16.0417 33.8251C15.8584 33.8251 15.675 33.7334 15.4917 33.5501C14.575 32.1751 12.8334 32.3584 12.8334 32.3584C12.4667 32.3584 12.1917 32.1751 12.1001 31.8084C12.1001 31.4417 12.2834 31.1667 12.6501 31.0751C12.7418 31.0751 15.1251 30.8001 16.5001 32.8168C16.6834 33.0918 16.5918 33.4585 16.3168 33.7335C16.225 33.8251 16.1333 33.8251 16.0417 33.8251Z" fill="#CBF2FE"/>
<path d="M10.8164 32.9084C10.6331 32.9084 10.4497 32.9084 10.3581 32.9084C9.99141 32.8167 9.80811 32.5417 9.80811 32.1751C9.8998 31.8084 10.1748 31.6251 10.5414 31.6251C10.6331 31.6251 12.4664 31.8084 13.1081 30.4334C13.2914 30.0667 13.6581 29.9751 13.9331 30.0667C14.2998 30.25 14.3914 30.6167 14.2998 30.8917C13.4747 32.4501 11.9164 32.9084 10.8164 32.9084Z" fill="#CBF2FE"/>
<path d="M17.8748 31.8999C17.6915 31.8999 17.4165 31.8082 17.3248 31.6249C16.0415 29.6082 16.3165 28.2332 16.7748 27.3166C17.4165 26.0333 18.7915 25.4833 19.2498 25.3916C19.6165 25.3916 19.8915 25.6666 19.8915 26.0333C19.8915 26.4 19.6165 26.675 19.3415 26.675C19.1582 26.675 18.2415 27.1333 17.8748 27.9583C17.5081 28.7833 17.6915 29.7 18.4248 30.8916C18.6081 31.1666 18.5165 31.6249 18.2415 31.8083C18.0581 31.8999 17.9665 31.8999 17.8748 31.8999Z" fill="#CBF2FE"/>
<path d="M14.2079 38.4083C14.1162 38.4083 13.9329 38.4083 13.8412 38.3166C13.5662 38.1333 13.4745 37.7666 13.6579 37.3999C14.2079 36.5749 15.7662 35.1999 17.9662 36.2082C18.3329 36.3915 18.4245 36.7582 18.2412 37.0332C18.0579 37.3999 17.6912 37.4915 17.4162 37.3082C15.6745 36.5749 14.7579 37.8582 14.6662 38.0415C14.6663 38.3167 14.3913 38.4083 14.2079 38.4083Z" fill="#CBF2FE"/>
<path d="M14.5746 37.95C14.4829 37.95 14.3913 37.95 14.2996 37.8583C13.9329 37.675 13.8413 37.3083 13.9329 37.0333C13.9329 36.9416 14.2996 36.025 13.1996 35.2916C12.9246 35.1083 12.8329 34.6499 13.0163 34.3749C13.1996 34.0999 13.658 34.0082 13.933 34.1916C15.4913 35.2916 15.308 36.8499 15.033 37.4916C15.0329 37.8583 14.7579 37.95 14.5746 37.95Z" fill="#CBF2FE"/>
<path d="M17.4165 40.7001C17.1415 40.7001 16.8665 40.7001 16.5915 40.6084C16.2248 40.5167 16.0415 40.1501 16.1332 39.8751C16.2249 39.5084 16.5915 39.3251 16.8665 39.4168C18.4248 39.7835 18.8832 38.5918 18.9748 38.5001C19.0665 38.1334 19.5248 38.0418 19.7998 38.1334C20.1665 38.2251 20.2582 38.6834 20.1665 38.9584C19.7998 39.6918 18.9748 40.7001 17.4165 40.7001Z" fill="#CBF2FE"/>
<path d="M19.433 21.8166C19.3413 21.8166 19.158 21.8166 19.0663 21.7249C16.8663 20.1666 17.0496 17.4166 17.0496 17.3249C17.0496 16.9582 17.4163 16.6832 17.7829 16.7749C18.1496 16.7749 18.4246 17.1416 18.3329 17.5082C18.3329 17.5999 18.1496 19.6165 19.7996 20.7165C20.0746 20.8998 20.1663 21.3582 19.9829 21.6332C19.7997 21.7249 19.6164 21.8166 19.433 21.8166Z" fill="#CBF2FE"/>
<path d="M13.2914 25.8499C13.1081 25.8499 13.0164 25.8499 12.9247 25.7583C12.0997 25.1166 10.9997 24.8416 9.89974 25.1166C9.53304 25.2082 9.16643 25.0249 9.16643 24.6583C9.07474 24.2916 9.25813 23.9249 9.62474 23.9249C11.0914 23.5582 12.558 23.9249 13.7497 24.8416C14.0247 25.0249 14.1164 25.4833 13.8414 25.7583C13.658 25.7583 13.4747 25.8499 13.2914 25.8499Z" fill="#CBF2FE"/>
<path d="M11.5499 25.0251C11.1832 25.0251 10.9082 24.7501 10.9082 24.3834C10.9082 24.0167 11.1832 23.7417 11.5499 23.7417C11.6416 23.7417 13.1082 23.65 13.7499 21.3584C13.8416 20.9917 14.2082 20.8084 14.4832 20.9001C14.8499 20.9918 15.0332 21.3584 14.9415 21.6334C14.1166 24.9334 11.7332 25.0251 11.5499 25.0251Z" fill="#CBF2FE"/>
<path d="M17.0495 29.8834C16.8662 29.8834 16.6828 29.7917 16.5912 29.7001C16.4995 29.6084 14.2995 27.4084 11.4579 28.7834C11.1829 28.9667 10.7246 28.7834 10.6329 28.5084C10.4496 28.2334 10.6329 27.7751 10.9079 27.6834C13.8412 26.2167 16.4996 27.8667 17.5079 28.8751C17.7829 29.1501 17.7829 29.5168 17.5079 29.7918C17.3245 29.7918 17.2328 29.8834 17.0495 29.8834Z" fill="#CBF2FE"/>
<path d="M22 16.775V39.325C22 41.525 23.8333 43.3583 26.0333 43.3583C28.2333 43.3583 30.0666 41.525 30.0666 39.325C30.0666 38.775 29.9749 38.225 29.7916 37.7667C30.0666 37.8584 30.2499 37.8584 30.5249 37.8584C32.5416 37.8584 34.1916 36.2084 34.1916 34.1917C34.1916 33.4584 34.0083 32.8167 33.6416 32.2667C35.5666 31.9 36.9416 30.25 36.9416 28.325C36.9416 26.4917 35.7499 25.025 34.0999 24.475C34.4666 23.8333 34.6499 23.1 34.6499 22.275C34.6499 19.8 32.6332 17.6917 30.0666 17.6917H29.975C30.0667 17.4167 30.0667 17.1417 30.0667 16.775C30.0667 14.575 28.2334 12.7417 26.0334 12.7417C23.8333 12.7417 22 14.575 22 16.775Z" fill="white"/>
<path d="M26.0334 43.9999C23.4667 43.9999 21.3584 41.8915 21.3584 39.3249V16.7749C21.3584 14.2082 23.4667 12.0999 26.0334 12.0999C28.6001 12.0999 30.7084 14.2082 30.7084 16.7749C30.7084 16.8665 30.7084 16.9582 30.7084 17.0499C33.2751 17.3249 35.2917 19.5249 35.2917 22.1832C35.2917 22.8249 35.2 23.4665 34.925 24.0165C36.4833 24.8415 37.4917 26.3998 37.4917 28.2332C37.4917 30.2499 36.3 31.9915 34.4667 32.6332C34.65 33.0915 34.7417 33.6415 34.7417 34.1915C34.7417 36.4832 32.9084 38.4082 30.6167 38.4998C30.7084 38.7748 30.7084 39.0498 30.7084 39.3248C30.7084 41.8915 28.6001 43.9999 26.0334 43.9999ZM26.0334 13.3832C24.1084 13.3832 22.6417 14.9415 22.6417 16.7749V39.3249C22.6417 41.2498 24.2 42.7165 26.0334 42.7165C27.9584 42.7165 29.4251 41.1582 29.4251 39.3249C29.4251 38.8665 29.3334 38.4082 29.1501 38.0415C29.0584 37.8582 29.0584 37.5832 29.2418 37.3999C29.4251 37.2165 29.6085 37.1248 29.8835 37.2165C30.0668 37.2165 30.2502 37.3082 30.4335 37.3082C32.0835 37.3082 33.4585 35.9332 33.4585 34.2832C33.4585 33.7332 33.2752 33.1832 33.0002 32.6332C32.9085 32.4499 32.9085 32.2665 32.9085 31.9915C33.0002 31.8082 33.1835 31.6249 33.3668 31.6249C35.0168 31.3499 36.1168 29.8832 36.1168 28.2332C36.1168 26.7665 35.2001 25.4832 33.7335 25.0249C33.5502 24.9332 33.3668 24.8415 33.3668 24.6582C33.2751 24.4749 33.2751 24.2915 33.3668 24.1082C33.6418 23.5582 33.8251 22.9165 33.8251 22.2749C33.8251 20.0749 32.0834 18.3332 29.8834 18.3332C29.7001 18.3332 29.4251 18.3332 29.3334 18.1499C29.1501 17.9665 29.1501 17.7832 29.1501 17.5999C29.2418 17.4165 29.2418 17.1415 29.2418 16.8665C29.4251 14.9415 27.9584 13.3832 26.0334 13.3832Z" fill="#CBF2FE"/>
<path d="M27.7749 19.9832C27.6832 19.9832 27.5916 19.9832 27.4999 19.8915C25.6666 18.7915 25.5749 17.1415 25.8499 16.4082C25.9416 16.0415 26.3082 15.8582 26.6749 15.9499C27.0416 16.0416 27.2249 16.4082 27.1332 16.7749C27.1332 16.8666 26.8582 17.9666 28.2332 18.7916C28.5082 18.9749 28.6915 19.3416 28.5082 19.6166C28.2332 19.8916 27.9582 19.9832 27.7749 19.9832Z" fill="#CBF2FE"/>
<path d="M27.9584 33.8248C27.8667 33.8248 27.6834 33.8248 27.5917 33.7332C27.3167 33.5498 27.225 33.0915 27.4084 32.8165C28.7834 30.8915 31.1667 31.0748 31.2584 31.0748C31.6251 31.0748 31.9001 31.4415 31.8084 31.8081C31.8084 32.1748 31.4417 32.3581 31.0751 32.3581C30.9834 32.3581 29.3334 32.1748 28.4168 33.5498C28.4168 33.7332 28.2334 33.8248 27.9584 33.8248Z" fill="#CBF2FE"/>
<path d="M33.1833 32.9082C32.0833 32.9082 30.525 32.5415 29.7916 30.8915C29.6083 30.5248 29.7916 30.1582 30.1583 30.0665C30.525 29.8832 30.8916 30.0665 30.9833 30.4332C31.625 31.8999 33.4583 31.7166 33.55 31.6249C33.9167 31.5332 34.1917 31.8082 34.2833 32.1749C34.375 32.5416 34.1 32.8166 33.7333 32.9082C33.55 32.9082 33.3667 32.9082 33.1833 32.9082Z" fill="#CBF2FE"/>
<path d="M26.1253 31.8998C26.0336 31.8998 25.8503 31.8998 25.7586 31.8081C25.4836 31.6248 25.3919 31.2581 25.5753 30.8914C26.3086 29.7914 26.492 28.7831 26.1253 27.9581C25.7586 27.1331 24.842 26.6747 24.6586 26.6747C24.2919 26.6747 24.0169 26.3998 24.1086 26.0331C24.1086 25.6664 24.4753 25.3914 24.7503 25.3914C25.2086 25.3914 26.5836 26.0331 27.2253 27.3164C27.6836 28.1414 27.867 29.6081 26.5836 31.6247C26.5836 31.8081 26.3086 31.8998 26.1253 31.8998Z" fill="#CBF2FE"/>
<path d="M29.792 38.4081C29.6087 38.4081 29.3337 38.3164 29.242 38.1331C29.1504 37.9498 28.2337 36.6664 26.492 37.3998C26.1254 37.5831 25.7587 37.3998 25.667 37.1248C25.4837 36.7581 25.667 36.3915 25.942 36.2998C28.142 35.2915 29.792 36.6665 30.2504 37.4915C30.4337 37.7665 30.3421 38.2248 30.0671 38.4082C30.0671 38.3165 29.8837 38.4081 29.792 38.4081Z" fill="#CBF2FE"/>
<path d="M29.4249 37.9499C29.1499 37.9499 28.9666 37.7666 28.8749 37.5832C28.5999 36.9416 28.5082 35.3832 29.9749 34.2832C30.2499 34.0999 30.6166 34.0999 30.8916 34.4666C31.0749 34.7416 31.0749 35.1082 30.7083 35.3832C29.6083 36.2082 29.975 37.1249 29.975 37.1249C30.1583 37.4916 29.975 37.8582 29.6083 37.9499C29.6082 37.9499 29.5166 37.9499 29.4249 37.9499Z" fill="#CBF2FE"/>
<path d="M26.5834 40.6999C25.0251 40.6999 24.1084 39.5999 23.8334 38.9582C23.7417 38.5915 23.8334 38.2249 24.2001 38.1332C24.5668 38.0415 24.9334 38.1332 25.0251 38.4999C25.1168 38.5916 25.5751 39.6916 27.1334 39.4166C27.5001 39.3249 27.7751 39.5999 27.8668 39.8749C27.9585 40.2416 27.6835 40.5166 27.4085 40.6082C27.1334 40.6999 26.8584 40.6999 26.5834 40.6999Z" fill="#CBF2FE"/>
<path d="M24.5669 21.8167C24.3836 21.8167 24.2002 21.725 24.0169 21.5417C23.8336 21.2667 23.8336 20.9 24.2002 20.625C25.8502 19.4333 25.6669 17.5083 25.6669 17.4167C25.6669 17.05 25.8502 16.775 26.2169 16.6833C26.5836 16.6833 26.8586 16.8667 26.9502 17.2333C26.9502 17.325 27.2252 19.9833 24.9335 21.6333C24.8419 21.8167 24.7502 21.8167 24.5669 21.8167Z" fill="#CBF2FE"/>
<path d="M30.7086 25.8498C30.5253 25.8498 30.3419 25.7581 30.2503 25.5748C30.067 25.2998 30.067 24.9331 30.342 24.6581C31.5337 23.7414 33.0003 23.4664 34.467 23.7414C34.8337 23.8331 35.017 24.1997 34.9253 24.4747C34.8336 24.8414 34.467 25.0247 34.192 24.933C33.1837 24.658 32.0837 24.933 31.167 25.5747C30.9836 25.8498 30.8003 25.8498 30.7086 25.8498Z" fill="#CBF2FE"/>
<path d="M32.4502 25.0249C32.2669 25.0249 29.8835 24.9332 29.0585 21.7249C28.9668 21.3582 29.1502 20.9916 29.5168 20.9916C29.8835 20.8999 30.2501 21.0833 30.2501 21.4499C30.8918 23.8332 32.4501 23.8332 32.4501 23.8332C32.8168 23.8332 33.0918 24.1082 33.0918 24.4749C33.0919 24.6582 32.8169 25.0249 32.4502 25.0249Z" fill="#CBF2FE"/>
<path d="M26.9502 29.8832C26.7669 29.8832 26.6752 29.7915 26.4919 29.6999C26.2169 29.4249 26.2169 29.0582 26.4919 28.7832C27.5002 27.7749 30.1585 26.1249 33.0919 27.5916C33.3669 27.7749 33.5502 28.1416 33.3669 28.4166C33.1836 28.6916 32.8169 28.8749 32.5419 28.6916C29.7002 27.3166 27.5002 29.6083 27.4086 29.6083C27.3169 29.7916 27.1335 29.8832 26.9502 29.8832Z" fill="#CBF2FE"/>
</svg>
