<svg width="50" height="44" viewBox="0 0 50 44" fill="none" xmlns="http://www.w3.org/2000/svg">
<path d="M25 43.5802C23.9837 43.5802 23.0128 43.2007 22.2664 42.5115L4.81953 26.4027C1.75664 23.5748 0 19.5632 0 15.3965C0 7.13809 6.71875 0.419434 14.9771 0.419434C18.6876 0.419434 22.2632 1.80674 25 4.26875C27.7367 1.80674 31.3124 0.419434 35.0229 0.419434C43.2812 0.419434 50 7.13809 50 15.3965C50 19.5632 48.2434 23.5749 45.1805 26.4028L27.8268 42.4227C27.0683 43.1693 26.0657 43.5802 25 43.5802Z" fill="#FF5B6E"/>
<path d="M35.023 0.419434C31.3124 0.419434 27.7368 1.80674 25 4.26875V43.5802C26.0657 43.5802 27.0683 43.1693 27.8268 42.4226L45.1805 26.4027C48.2434 23.5748 50 19.5632 50 15.3965C50 7.13809 43.2813 0.419434 35.023 0.419434Z" fill="#DB2E43"/>
<path d="M29.9937 22.6417C29.5095 22.6417 29.0564 22.8811 28.7836 23.2811L25.9923 27.3731L22.8588 16.448C22.6939 15.8732 22.1962 15.4564 21.6015 15.3948C21.0066 15.3332 20.4342 15.6394 20.1551 16.1682L16.7395 22.6415H1.875C2.45625 23.694 3.16367 24.6795 3.98799 25.5712H17.6229C18.1662 25.5712 18.6649 25.2705 18.9186 24.79L21.0468 20.7564L24.0363 31.1795C24.193 31.7254 24.6509 32.1316 25.2115 32.2218C25.2895 32.2343 25.3674 32.2405 25.4447 32.2405C25.9237 32.2405 26.379 32.0049 26.6546 31.601L30.7678 25.571H46.0126C46.8368 24.6793 47.5443 23.6938 48.1256 22.6414H29.9937V22.6417Z" fill="#F2F4F7"/>
<path d="M29.9935 22.6417C29.5092 22.6417 29.0562 22.8811 28.7833 23.2811L25.992 27.373L25 23.9145V32.1716C25.0685 32.1934 25.139 32.2104 25.2112 32.2221C25.2892 32.2346 25.3671 32.2407 25.4444 32.2407C25.9234 32.2407 26.3787 32.0052 26.6543 31.6013L30.7675 25.5713H46.0123C46.8365 24.6796 47.544 23.694 48.1253 22.6416H29.9935V22.6417Z" fill="#C7E7FF"/>
</svg>
