<svg width="63" height="49" viewBox="0 0 63 49" fill="none" xmlns="http://www.w3.org/2000/svg">
<path d="M58.7037 22.1884C58.6197 22.1142 58.5342 22.041 58.4476 21.9688L58.4306 21.9547L58.4361 21.933C60.2076 14.9265 55.1909 8.02951 47.9794 7.55705L47.9593 7.55568C45.6914 0.751934 37.6407 -2.11841 31.58 1.71596L31.0354 2.06053L31.0321 2.05853C24.9139 -1.80431 16.7911 0.83461 14.1113 7.55568L14.0926 7.55693C6.87956 8.03163 1.86324 14.9309 3.63605 21.9389L3.64005 21.9546L3.62319 21.9687C3.53626 22.041 3.45084 22.1143 3.36666 22.1886C-3.54948 28.2905 0.922697 39.7436 10.1458 39.7438L51.9252 39.744C61.1487 39.744 65.621 28.2896 58.7037 22.1884V22.1884Z" fill="white"/>
<path d="M37.2528 18.707C37.9875 18.707 38.5832 18.1114 38.5832 17.3766V13.2491C38.5832 12.5144 37.9876 11.9186 37.2528 11.9186H31.795V10.5882C31.795 8.78903 30.3364 7.33044 28.5372 7.33044C26.7381 7.33044 25.2795 8.78903 25.2795 10.5882V11.9186H19.8217C19.0869 11.9186 18.4912 12.5142 18.4912 13.2491V17.3766C18.4912 18.1113 19.0868 18.707 19.8217 18.707C21.6208 18.707 23.0794 20.1656 23.0794 21.9648C23.0794 23.7639 21.6208 25.2225 19.8217 25.2225C19.0869 25.2225 18.4912 25.8181 18.4912 26.553V30.6803C18.4912 31.4151 19.0868 32.0108 19.8217 32.0108H25.2795V30.6803C25.2795 28.8812 26.7381 27.4226 28.5372 27.4226C30.3364 27.4226 31.795 28.8812 31.795 30.6803V32.0108H37.2528C37.9875 32.0108 38.5832 31.4152 38.5832 30.6803V26.553C38.5832 25.8182 37.9876 25.2225 37.2528 25.2225C35.4536 25.2225 33.995 23.7639 33.995 21.9648C33.995 20.1655 35.4536 18.707 37.2528 18.707V18.707Z" fill="#008BD2"/>
<path d="M54.4916 35.6964C55.2263 35.6964 55.822 35.1008 55.822 34.366V30.2385C55.822 29.5037 55.2264 28.908 54.4916 28.908H49.0337V27.5776C49.0337 25.7784 47.5752 24.3198 45.776 24.3198C43.9768 24.3198 42.5182 25.7784 42.5182 27.5776V28.908H37.0604C36.3257 28.908 35.73 29.5036 35.73 30.2385V34.3658C35.73 35.1006 36.3256 35.6963 37.0604 35.6963C38.8596 35.6963 40.3182 37.1549 40.3182 38.954C40.3182 40.7532 38.8596 42.2118 37.0604 42.2118C36.3257 42.2118 35.73 42.8074 35.73 43.5422V47.6696C35.73 48.4043 36.3256 49 37.0604 49H42.5182V47.6696C42.5182 45.8704 43.9768 44.4118 45.776 44.4118C47.5752 44.4118 49.0337 45.8703 49.0337 47.6696V49H54.4916C55.2263 49 55.822 48.4044 55.822 47.6696V43.5421C55.822 42.8074 55.2264 42.2117 54.4916 42.2117C52.6924 42.2117 51.2338 40.7531 51.2338 38.9539C51.2339 37.155 52.6924 35.6964 54.4916 35.6964Z" fill="#CBF2FE"/>
<path d="M11.7666 25.9546C11.7666 15.218 17.2859 5.77201 25.6408 0.294342C20.8288 -0.0268742 16.048 2.6976 14.1109 7.55581L14.0922 7.55706C6.8792 8.03176 1.86288 14.9312 3.63556 21.9391L3.63956 21.9548L3.6227 21.969C3.5359 22.0413 3.45035 22.1146 3.36617 22.1889C-3.54997 28.2908 0.922208 39.7439 10.1453 39.7439H15.0365C12.9457 35.5983 11.7666 30.9144 11.7666 25.9546V25.9546Z" fill="#CBF2FE"/>
<path d="M43.1427 37.9554C43.1427 32.5833 44.4087 27.7928 47.2457 24.6704C46.8042 24.447 46.3055 24.3202 45.7768 24.3202C43.9777 24.3202 42.5191 25.7788 42.5191 27.5779V28.9083H37.0614C36.3267 28.9083 35.731 29.504 35.731 30.2387V34.3661C35.731 35.1008 36.3266 35.6965 37.0614 35.6965C38.8606 35.6965 40.3192 37.155 40.3192 38.9542C40.3192 40.7533 38.8606 42.2119 37.0614 42.2119C36.3267 42.2119 35.731 42.8076 35.731 43.5422V47.6697C35.731 48.4044 36.3266 49 37.0614 49H42.5192V47.6697C42.5192 46.3177 43.343 45.1581 44.516 44.6651C43.6326 42.6061 43.1427 40.3381 43.1427 37.9554V37.9554Z" fill="#CBF2FE"/>
<path d="M25.903 20.9659C25.903 15.5938 27.169 10.8032 30.006 7.68088C29.5646 7.45745 29.0659 7.33069 28.5372 7.33069C26.7381 7.33069 25.2795 8.78928 25.2795 10.5884V11.9188H19.8217C19.0869 11.9188 18.4912 12.5145 18.4912 13.2492V17.3766C18.4912 18.1113 19.0868 18.707 19.8217 18.707C21.6208 18.707 23.0794 20.1655 23.0794 21.9646C23.0794 23.7638 21.6208 25.2224 19.8217 25.2224C19.0869 25.2224 18.4912 25.8181 18.4912 26.5527V30.6802C18.4912 31.4149 19.0868 32.0105 19.8217 32.0105H25.2795V30.6802C25.2795 29.3281 26.1032 28.1685 27.2762 27.6756C26.3929 25.6167 25.903 23.3486 25.903 20.9659Z" fill="#008BD2"/>
</svg>
