<svg width="36" height="46" viewBox="0 0 36 46" fill="none" xmlns="http://www.w3.org/2000/svg">
<path d="M3.28882 33.2207C1.13706 30.2279 0 26.6942 0 23C0 19.3058 1.13706 15.7722 3.28882 12.7794L5.47616 14.3535C3.65736 16.8843 2.69531 19.8744 2.69531 23C2.69531 26.1257 3.65736 29.1158 5.47616 31.6466L3.28882 33.2207Z" fill="#008BD2"/>
<path d="M31.7503 33.2207L29.563 31.6466C31.3818 29.1158 32.3438 26.1257 32.3438 23C32.3438 19.8744 31.3818 16.8843 29.563 14.3535L31.7503 12.7794C33.9021 15.7722 35.0391 19.3058 35.0391 23C35.0391 26.6942 33.9021 30.2279 31.7503 33.2207Z" fill="#008BD2"/>
<path d="M17.5194 21.6003C19.8841 20.8722 22.089 20.6179 23.7181 20.4429C25.9581 20.2007 27.4373 20.0414 28.0032 18.753C28.5336 17.5501 27.6492 16.3472 27.3163 15.8945C25.3158 13.1742 24.2577 10.0644 24.2577 6.9018V0H17.5194H10.7812V6.9018C10.7812 10.0643 9.72307 13.1741 7.72261 15.8945C6.15915 18.0213 5.72215 19.8007 6.42365 21.1852C7.30152 22.9224 9.41248 23 9.43351 23C12.1118 23 14.9673 22.3848 17.5194 21.6003Z" fill="#FED19A"/>
<path d="M28.6152 24.8148C27.7374 23.0776 25.6264 23 25.6054 23C22.9271 23 20.0716 23.6153 17.5195 24.3997C15.1548 25.1278 12.9499 25.3823 11.3208 25.5571C9.08079 25.7993 7.6016 25.9586 7.03568 27.247C6.50533 28.4499 7.38966 29.6528 7.72262 30.1055C9.72308 32.8258 10.7812 35.9356 10.7812 39.0982V46H17.5195H24.2577V39.0982C24.2577 35.9357 25.3158 32.8259 27.3163 30.1055C28.8797 27.9787 29.3167 26.1993 28.6152 24.8148Z" fill="#FED19A"/>
<path d="M28.0033 18.753C28.5337 17.5501 27.6493 16.3472 27.3164 15.8945C25.3159 13.1742 24.2578 10.0644 24.2578 6.9018V0H17.5195V21.6003C19.8842 20.8722 22.0891 20.6179 23.7182 20.4429C25.9582 20.2007 27.4375 20.0414 28.0033 18.753Z" fill="#F4BB87"/>
<path d="M24.2578 39.0982C24.2578 35.9357 25.3159 32.8259 27.3164 30.1055C28.8798 27.9787 29.3168 26.1993 28.6153 24.8148C27.7375 23.0776 25.6265 23 25.6055 23C22.927 23 20.0718 23.6153 17.5195 24.3997V46H24.2578V39.0982Z" fill="#F4BB87"/>
</svg>
