<svg width="30" height="46" viewBox="0 0 30 46" fill="none" xmlns="http://www.w3.org/2000/svg">
<path d="M1.8125 40.2469C2.91095 41.2943 4.41869 41.9413 6.08327 41.9413C9.44309 41.9413 12.1668 39.3076 12.1668 36.0589C12.1668 34.4494 11.4976 32.9916 10.4145 31.9294L3.64981 33.7645L1.8125 40.2469Z" fill="white"/>
<path d="M6.08348 30.1768C4.40355 30.1768 2.88261 30.8351 1.78174 31.8997L6.11377 36.0885L10.4148 31.9297C9.31139 30.8478 7.77874 30.1768 6.08348 30.1768Z" fill="white"/>
<path d="M0 36.0592C0 37.6985 0.693981 39.1806 1.81277 40.2473L6.11371 36.0884L1.78174 31.8996C0.680787 32.964 0 34.4347 0 36.0592Z" fill="white"/>
<path d="M15.817 26.3681C11.6202 26.3681 7.82759 24.1293 5.91929 20.5255C3.83761 16.5945 2.7373 12.1818 2.7373 7.76492C2.7373 6.17109 3.71933 4.69666 5.57727 3.50093C5.99651 3.23076 6.56329 3.34082 6.84241 3.74656C7.12162 4.1522 7.00789 4.69998 6.58838 4.96987C5.66415 5.56482 4.56245 6.53262 4.56245 7.76483C4.56245 11.9034 5.59353 16.0378 7.54392 19.7212C9.1626 22.7782 12.2554 24.6033 15.8171 24.6033C19.3789 24.6033 22.4716 22.7782 24.0903 19.7212C26.0407 16.0378 27.0718 11.9034 27.0718 7.76483C27.0718 6.53244 25.9699 5.56482 25.0459 4.96987C24.6264 4.69989 24.5126 4.1522 24.7918 3.74656C25.071 3.34082 25.6375 3.23076 26.057 3.50093C27.9148 4.69657 28.897 6.17118 28.897 7.76492C28.897 12.1818 27.7966 16.5945 25.715 20.5255C23.8065 24.1293 20.0138 26.3681 15.817 26.3681Z" fill="#CBF2FE"/>
<path d="M21.9007 30.7064C19.7361 30.7064 17.9447 29.1361 17.6777 27.1121C19.8373 26.7902 21.8372 25.9139 23.4867 24.5953C24.4763 23.8041 25.3399 22.8537 26.0359 21.7684C26.3193 21.3267 26.1597 20.7459 25.681 20.509L24.4445 19.8969C23.9246 19.6395 23.4992 19.8911 23.4992 20.4557C21.7332 22.8635 18.8696 24.2943 15.8168 24.2943C12.764 24.2943 9.90051 22.8635 8.13438 20.4557C8.13438 19.891 7.70901 19.6395 7.18915 19.8969L5.95263 20.509C5.47384 20.7459 5.31449 21.3269 5.59797 21.7688C7.46446 24.6786 10.5344 26.6179 14.0129 27.12L16.8197 30.8774C17.8709 32.2844 19.5568 33.1179 21.3519 33.1179C22.7967 33.1179 24.1855 33.6587 25.2268 34.627C26.2109 35.542 26.7671 36.8051 26.7671 38.1252C26.7671 39.7743 25.9147 41.3145 24.4955 42.2293C23.6035 42.8042 22.5346 43.0664 21.467 42.9718C18.6728 42.7241 16.0598 41.6819 13.8097 40.1104C13.8062 40.1165 13.8028 40.1225 13.8097 40.1104C13.2138 39.7254 12.644 39.2957 12.1049 38.8232L8.88151 36.0883L6.38729 38.765L9.8508 41.6088C13.1245 44.3992 17.2696 45.9457 21.6638 45.9994C26.041 46.0527 29.7723 42.6514 29.8089 38.4187C29.8457 34.1722 26.2838 30.7064 21.9007 30.7064Z" fill="white"/>
<path d="M7.22156 20.9521C9.11368 23.8331 12.2466 25.4855 15.8171 25.4855C19.3877 25.4855 22.5207 23.8331 24.4127 20.9521L24.9435 20.1436L24.052 19.7022C23.6363 19.4963 23.1223 19.6247 22.8721 20.006C21.3352 22.3464 18.7529 23.7207 15.8172 23.7207C12.8816 23.7207 10.2992 22.3464 8.76236 20.006C8.51196 19.6247 7.99814 19.4965 7.58244 19.7022L6.69092 20.1436L7.22156 20.9521Z" fill="white"/>
<path d="M21.9006 32.4712C19.347 32.4712 17.1275 30.9236 16.2365 28.7268C15.8713 27.8261 15.0114 27.1868 14.0133 27.1198C14.2998 31.0866 17.727 34.2359 21.9006 34.2359C24.2473 34.2359 26.1567 36.0808 26.1591 38.3494C26.1615 40.6226 24.1549 42.4857 21.8042 42.471C18.9165 42.4532 16.1602 41.6294 13.8101 40.1104C13.8072 40.1156 13.8042 40.1207 13.8012 40.1259C13.2914 41.014 13.6392 42.1259 14.5793 42.5793C16.7925 43.6467 19.245 44.2191 21.7862 44.2357C21.7997 44.2357 21.8134 44.2358 21.8268 44.2358C23.4409 44.2358 25.027 43.6002 26.1846 42.4883C27.3454 41.3733 27.9844 39.9045 27.9843 38.3526C27.9837 35.1095 25.2546 32.4712 21.9006 32.4712Z" fill="white"/>
<path d="M6.08329 32.8237C4.23835 32.8237 2.7373 34.2751 2.7373 36.059C2.7373 37.8429 4.23835 39.2943 6.08329 39.2943C7.92822 39.2943 9.42927 37.8429 9.42927 36.059C9.42927 34.2751 7.92822 32.8237 6.08329 32.8237Z" fill="#CBF2FE"/>
<path d="M6.08344 34.5884C5.24478 34.5884 4.5625 35.2481 4.5625 36.0591C4.5625 36.8701 5.24469 37.5298 6.08344 37.5298C6.9221 37.5298 7.60438 36.8702 7.60438 36.0591C7.60429 35.2482 6.922 34.5884 6.08344 34.5884Z" fill="white"/>
<path d="M21.7159 0.00147335C22.807 -0.034914 23.7426 0.606402 24.0957 1.51402L25.5917 2.22119C26.0443 2.4352 26.2278 2.9555 26.0014 3.38343L25.1818 4.93299C24.9555 5.36092 24.4051 5.53433 23.9525 5.3204L22.3462 4.56121C22.1716 4.59859 21.9906 4.62024 21.804 4.62024C20.4095 4.62024 19.2878 3.51595 19.364 2.18193C19.4318 1.00154 20.4664 0.0431616 21.7159 0.00147335Z" fill="white"/>
<path d="M21.1713 3.1173C21.8433 3.1173 22.388 2.59063 22.388 1.94094C22.388 1.29126 21.8433 0.764587 21.1713 0.764587C20.4993 0.764587 19.9546 1.29126 19.9546 1.94094C19.9546 2.59063 20.4993 3.1173 21.1713 3.1173Z" fill="white"/>
<path d="M9.91862 0.00147335C8.82752 -0.034914 7.89195 0.606402 7.53887 1.51402L6.04284 2.22119C5.59025 2.4352 5.40674 2.9555 5.63308 3.38343L6.45269 4.93299C6.67903 5.36092 7.22946 5.53433 7.68205 5.3204L9.28829 4.56121C9.46287 4.59859 9.64397 4.62024 9.83054 4.62024C11.225 4.62024 12.3467 3.51595 12.2705 2.18193C12.2028 1.00154 11.1682 0.0431616 9.91862 0.00147335Z" fill="white"/>
<path d="M9.24748 3.1173C9.91945 3.1173 10.4642 2.59063 10.4642 1.94094C10.4642 1.29126 9.91945 0.764587 9.24748 0.764587C8.5755 0.764587 8.03076 1.29126 8.03076 1.94094C8.03076 2.59063 8.5755 3.1173 9.24748 3.1173Z" fill="white"/>
</svg>
