<svg width="46" height="46" viewBox="0 0 46 46" fill="none" xmlns="http://www.w3.org/2000/svg">
<path d="M15.3332 24.5334L7.6665 42.9334H11.4998L23.3319 24.7782L16.0999 22.2334L15.3332 24.5334Z" fill="#008BD2"/>
<path d="M23.3605 8.59731L26.2534 9.61516L25.4898 11.7849L22.5972 10.767L23.3605 8.59731Z" fill="#F5BB87"/>
<path d="M22.5651 27.0782L15.333 24.5333L19.9169 11.451C20.3388 10.2527 21.652 9.62338 22.8503 10.0449L24.2841 10.5495C25.576 11.004 26.4093 12.2599 26.3273 13.6263L26.1951 15.8166C26.1525 16.5271 26.0106 17.2294 25.7744 17.901L22.5651 27.0782Z" fill="#80D6FB"/>
<path d="M16.0999 22.2334L15.2658 24.7367C14.8488 25.9889 15.2789 27.368 16.3353 28.1601L23.7666 33.7334V42.9334H27.5999V33.222C27.5999 32.5591 27.3847 31.9126 26.9867 31.3821L22.9999 26.0667L23.3319 24.7782L16.0999 22.2334Z" fill="#008BD2"/>
<path d="M12.266 45.9999H9.19935C8.3522 45.9999 7.66602 45.3141 7.66602 44.4666V42.9333H12.266C13.1132 42.9333 13.7994 43.6195 13.7994 44.4666C13.7994 45.3141 13.1132 45.9999 12.266 45.9999Z" fill="#F5BB87"/>
<path d="M28.3656 45.9999H25.299C24.4518 45.9999 23.7656 45.3141 23.7656 44.4666V42.9333H28.3656C29.2128 42.9333 29.899 43.6195 29.899 44.4666C29.899 45.3141 29.2128 45.9999 28.3656 45.9999Z" fill="#FCD19C"/>
<path d="M24.5499 9.83118C22.5528 9.12815 21.5042 6.94008 22.2065 4.94293L22.7153 3.49606C23.4183 1.49891 25.6064 0.450356 27.6039 1.15264C29.601 1.85566 30.6496 4.04374 29.9473 6.04089L29.439 7.48738C28.7359 9.48454 26.5471 10.5335 24.5499 9.83118Z" fill="#FCD19C"/>
<path d="M27.3098 4.29987L26.9066 5.4465C26.8393 5.63817 26.6981 5.7954 26.5147 5.88374L25.8233 6.21504L26.0778 5.4918L25.355 5.23724C25.0735 6.0361 24.1979 6.45575 23.3997 6.17499L22.0259 5.69208C22.0603 5.44126 22.1202 5.19045 22.2078 4.943L22.7169 3.49614L23.2257 2.04965C23.7879 0.45193 25.5388 -0.387737 27.1365 0.174911L28.7058 0.727077L32.1988 1.95607L31.4352 4.1258C31.154 4.92466 30.2784 5.34393 29.4803 5.06317L27.3098 4.29987Z" fill="black"/>
<path d="M25.5689 6.93851L25.2069 6.81123C24.6084 6.60047 24.2932 5.94424 24.5039 5.34453C24.7151 4.74595 25.3713 4.43075 25.9706 4.64151L26.3326 4.76878L25.5689 6.93851Z" fill="#F5BB87"/>
<path d="M25.4626 6.08765C25.2634 6.0169 25.1582 5.79828 25.2282 5.59837C25.2986 5.39885 25.5172 5.29403 25.7171 5.36366L26.0791 5.49094L25.8246 6.21418L25.4626 6.08765Z" fill="#FCD19C"/>
<path d="M44.4665 42.9333H42.9331V26.8334C42.9331 25.5655 41.9014 24.5334 40.6331 24.5334H5.36653C4.09861 24.5334 3.06653 25.5655 3.06653 26.8334V42.9333H1.5332V26.8334C1.5332 24.7198 3.25296 23 5.36653 23H40.6331C42.7471 23 44.4665 24.7198 44.4665 26.8334V42.9333Z" fill="black"/>
<path d="M0 42.9333H4.60001V46H0V42.9333Z" fill="#008BD2"/>
<path d="M41.3999 42.9333H45.9999V46H41.3999V42.9333Z" fill="#008BD2"/>
<path d="M27.325 20.8389L25.7433 15.5404L22.8047 16.4175L24.3901 21.7261C24.6379 22.5557 25.2252 23.2419 26.0061 23.6151L30.3961 25.7133C31.1643 26.0806 32.0844 25.7526 32.4464 24.9822C32.8051 24.2193 32.4809 23.3107 31.7209 22.9458L27.325 20.8389Z" fill="#F5BB87"/>
<path d="M25.7431 15.5403L22.8045 16.4174L21.708 12.7443C21.4658 11.9335 21.9274 11.0785 22.7386 10.837C23.5498 10.5948 24.4044 11.0564 24.6459 11.8672L25.7431 15.5403Z" fill="#80D6FB"/>
<path d="M22.5845 15.6826L25.5227 14.8055L25.7421 15.54L22.8035 16.4171L22.5845 15.6826Z" fill="#008BD2"/>
</svg>
