<svg width="50" height="44" viewBox="0 0 50 44" fill="none" xmlns="http://www.w3.org/2000/svg">
<path d="M25 43.1607C23.9837 43.1607 23.0128 42.7813 22.2664 42.0921L4.81953 25.9833C1.75664 23.1554 0 19.1438 0 14.9771C0 6.71865 6.71875 0 14.9771 0C18.6876 0 22.2632 1.3873 25 3.84932C27.7367 1.3873 31.3124 0 35.023 0C43.2813 0 50 6.71865 50 14.9771C50 19.1438 48.2434 23.1555 45.1805 25.9834L27.8268 42.0032C27.0683 42.7499 26.0657 43.1607 25 43.1607Z" fill="white"/>
<path d="M35.023 0C31.3124 0 27.7368 1.3873 25 3.84932V43.1607C26.0657 43.1607 27.0683 42.7499 27.8268 42.0031L45.1805 25.9833C48.2434 23.1554 50 19.1438 50 14.9771C50 6.71865 43.2813 0 35.023 0V0Z" fill="white"/>
<path d="M29.9938 22.2223C29.5095 22.2223 29.0564 22.4617 28.7836 22.8617L25.9923 26.9537L22.8588 16.0286C22.6939 15.4538 22.1962 15.037 21.6015 14.9753C21.0066 14.9138 20.4342 15.22 20.1551 15.7488L16.7395 22.2221H1.875C2.45625 23.2746 3.16367 24.2601 3.98799 25.1518H17.6229C18.1662 25.1518 18.6649 24.851 18.9186 24.3706L21.0468 20.337L24.0363 30.7601C24.193 31.306 24.6509 31.7122 25.2115 31.8024C25.2895 31.8149 25.3674 31.821 25.4447 31.821C25.9237 31.821 26.379 31.5855 26.6546 31.1816L30.7678 25.1516H46.0126C46.8368 24.2599 47.5443 23.2744 48.1256 22.2219H29.9938V22.2223Z" fill="#CBF2FE"/>
<path d="M29.9935 22.2223C29.5092 22.2223 29.0562 22.4616 28.7833 22.8616L25.992 26.9536L25 23.495V31.7521C25.0685 31.7739 25.139 31.791 25.2112 31.8026C25.2892 31.8151 25.3671 31.8213 25.4444 31.8213C25.9234 31.8213 26.3787 31.5857 26.6543 31.1818L30.7675 25.1519H46.0123C46.8365 24.2602 47.544 23.2746 48.1253 22.2222H29.9935V22.2223Z" fill="#CBF2FE"/>
</svg>
