<svg width="51" height="48" viewBox="0 0 51 48" fill="none" xmlns="http://www.w3.org/2000/svg">
<path d="M3.29443 6.17407V46.0382L25.5002 45.7325L29.2192 18.1976L25.5002 6.17407H3.29443Z" fill="#F1F1F1"/>
<path d="M47.7073 6.17407H25.5V45.7325L47.7073 45.4267V6.17407Z" fill="#E6E6F3"/>
<path d="M11.528 46.1345L0 44.2427V43.5323C0 40.3541 2.58566 37.7684 5.764 37.7684C8.94233 37.7684 11.528 40.3541 11.528 43.5323V46.1345Z" fill="#AAE392"/>
<path d="M51.0002 44.2427L39.4722 46.1345V43.5322C39.4722 40.354 42.0578 37.7683 45.2362 37.7683C48.4145 37.7683 51.0002 40.354 51.0002 43.5323V44.2427Z" fill="#71C6A1"/>
<path d="M17.8813 34.6532H20.8687V45.7326H17.8813V34.6532Z" fill="#D6D6EA"/>
<path d="M30.1323 34.6532H33.1197V45.7326H30.1323V34.6532Z" fill="#BAC1E3"/>
<path d="M4.69818 0L0 4.69818V7.86655H25.5L28.337 3.93328L25.5 0H4.69818Z" fill="#CBF2FE"/>
<path d="M51 4.69818L46.3018 0H25.5V7.86655H51V4.69818Z" fill="#008BD2"/>
<path d="M13.9424 33.1777V36.1469H25.5003L27.5528 32.3132L25.5003 28.4795H18.6406L13.9424 33.1777Z" fill="#CBF2FE"/>
<path d="M37.0595 36.1469V33.1777L32.3613 28.4795H25.5V36.1469H37.0595Z" fill="#008BD2"/>
<path d="M10.5869 12.361H13.5743V16.3638H10.5869V12.361Z" fill="#D6D6EA"/>
<path d="M17.2969 12.361H20.2843V16.3637H17.2969V12.361Z" fill="#D6D6EA"/>
<path d="M10.5869 19.9222H13.5743V23.925H10.5869V19.9222Z" fill="#D6D6EA"/>
<path d="M17.2969 19.9221H20.2843V23.9249H17.2969V19.9221Z" fill="#D6D6EA"/>
<path d="M24.0068 39.5189V45.2386H25.4998L26.247 42.3788L25.4998 39.5189H24.0068Z" fill="#CA6D72"/>
<path d="M25.5 39.5189H26.9945V45.2386H25.5V39.5189Z" fill="#A54B52"/>
<path d="M0 47.2302H25.5L26.9945 45.7325L25.5 44.2427H0V47.2302Z" fill="#71C6A1"/>
<path d="M25.5 44.2427H51V47.2302H25.5V44.2427Z" fill="#33A98C"/>
<path d="M24.0063 12.3608V16.3635H25.5001L26.5924 14.3622L25.5001 12.3608H24.0063Z" fill="#D6D6EA"/>
<path d="M24.0063 19.9221V23.9249H25.5001L26.2473 21.9236L25.5001 19.9221H24.0063Z" fill="#D6D6EA"/>
<path d="M37.4258 12.361H40.4132V16.3638H37.4258V12.361Z" fill="#BAC1E3"/>
<path d="M30.7158 12.361H33.7032V16.3637H30.7158V12.361Z" fill="#BAC1E3"/>
<path d="M37.4258 19.9221H40.4132V23.9249H37.4258V19.9221Z" fill="#BAC1E3"/>
<path d="M30.7158 19.9221H33.7032V23.9249H30.7158V19.9221Z" fill="#BAC1E3"/>
<path d="M25.5 12.3608H26.9937V16.3635H25.5V12.3608Z" fill="#BAC1E3"/>
<path d="M25.5 19.9221H26.9937V23.9249H25.5V19.9221Z" fill="#BAC1E3"/>
</svg>
