<svg width="44" height="46" viewBox="0 0 44 46" fill="none" xmlns="http://www.w3.org/2000/svg">
<path d="M3.62221 31.7993C2.55146 31.6228 0.935539 30.5268 0.667087 28.9697C0.355959 27.165 1.48457 24.8787 1.48457 24.8787C1.48457 24.8787 0 23.8514 0 21.711C0 19.895 1.82454 18.3156 1.82454 18.3156C1.82454 18.3156 0.0278515 16.7788 0.0278515 14.6919C0.0278515 12.1257 1.98841 11.1503 1.98841 11.1503C1.98841 11.1503 -1.14362 7.47275 1.61808 5.19611C1.23256 3.80228 1.75958 2.25887 3.00589 1.48217C4.14429 0.772677 5.70928 0.804841 6.83465 1.52323C7.01272 1.63688 7.2473 1.61208 7.39213 1.45989C8.14493 0.668729 9.19241 0.147008 10.2925 0.0270674C11.4178 -0.0957485 12.5847 0.20343 13.5079 0.842216C13.655 0.944009 13.8506 0.9432 13.9996 0.844103C14.8148 0.301719 16.0037 0.00433703 16.9518 0.0451259C17.8795 0.0850164 18.7893 0.433609 19.5021 1.014C19.6602 1.14265 19.8864 1.14301 20.0462 1.0166C20.7401 0.467749 21.6461 0.0647118 22.5862 0.0280557C23.5418 -0.00922932 24.7778 0.444569 25.5335 1.10285C25.6864 1.23609 25.9122 1.23429 26.0739 1.11193C27.9945 -0.342099 30.6921 -0.351712 32.036 1.19889C32.1797 1.36475 32.4252 1.39942 32.6109 1.27975C33.68 0.590565 34.7708 0.190313 35.9805 0.163809C37.1451 0.138293 38.3969 0.672143 38.9451 1.6394C39.0924 1.89913 39.3845 2.04091 39.6882 2.02968C40.791 1.98871 41.9024 2.52426 42.4147 3.48595C42.981 4.54915 42.765 5.95161 41.9258 6.82003C41.8445 6.90413 41.8352 7.03377 41.9066 7.1264C42.5567 7.96949 43.9498 9.53726 43.3283 11.4645C43.0794 12.2366 42.4397 12.9119 41.6295 13.0832C41.6355 13.0615 41.6429 13.096 41.649 13.0742C42.653 14.0551 43.2262 15.4434 43.1995 16.83C43.1746 18.1286 42.6239 19.4093 41.6991 20.3416C41.6001 20.4414 41.6086 20.6026 41.7158 20.6936C42.5417 21.3945 42.9847 22.3254 42.9286 23.4153C42.8732 24.4893 42.2991 25.5241 41.4193 26.168C41.2964 26.2579 41.2908 26.4412 41.4075 26.539C42.3565 27.3359 42.7353 28.5509 42.8381 29.7999C42.9167 30.7559 42.7769 31.7767 42.1785 32.5373C41.678 33.1735 40.7946 33.5562 40.0119 33.4002C39.7604 33.3501 39.5131 33.4817 39.411 33.7117C38.9404 34.7706 37.7739 35.5971 36.6188 35.7943C35.4699 35.9905 34.2836 35.7102 33.2413 35.1845C33.0002 35.0628 32.7034 35.1308 32.5491 35.3487C31.8115 36.3905 29.9271 37.4774 27.1418 35.7092C26.0018 34.9855 24.1895 35.9232 23.3409 36.9605C22.4921 37.9978 22.1543 39.3448 21.9758 40.6611C21.7775 42.1231 22.0622 44.0553 22.2522 45.5973C22.2786 45.8114 22.1112 46 21.8955 46H19.1508C18.9359 46 18.7691 45.8133 18.7942 45.5999C19.1564 42.5234 17.9819 36.8033 19.9977 33.3945C21.0408 31.6306 24.2504 28.1267 28.5136 28.9047C28.8757 28.9707 29.2287 28.7812 29.3829 28.4546C29.7226 27.7351 30.4008 26.0851 32.5672 26.2755C32.9111 26.3057 33.0783 25.8485 32.8646 25.5906C32.2334 24.8294 31.8312 23.8257 31.8115 22.888C31.7885 21.7953 32.2353 20.7034 33.0089 19.9158C33.1925 19.7288 33.2022 19.4308 33.0363 19.2279C32.4007 18.45 32.1018 17.5126 32.0257 16.4872C31.9464 15.4213 32.2317 14.3337 32.8187 13.4324C32.9222 13.2735 32.8554 13.0654 32.6839 12.9792C32.1053 12.6882 31.6787 12.1951 31.4728 11.5723C31.2924 11.0265 31.3176 10.4214 31.5275 9.88657C31.5719 9.77354 31.4406 9.67535 31.3375 9.74246C30.348 10.3862 28.825 10.5837 27.5193 10.2944C26.8664 10.1497 25.7318 9.58101 25.1171 8.91886C24.9335 8.72121 24.6249 8.69408 24.4083 8.85669C23.5143 9.52773 22.3339 9.91253 21.2264 10.0224C20.1459 10.1297 19.0363 9.92529 18.0663 9.4493C17.7383 9.2883 17.3412 9.32262 17.0503 9.5413C15.4693 10.7296 13.677 11.0187 11.9113 10.2094C11.6983 10.1117 11.4696 10.3143 11.5451 10.5318C12.1112 12.1622 11.7467 14.0346 10.6414 15.3826C10.3418 15.7479 10.3351 16.2742 10.6157 16.6545C11.3482 17.6469 11.7369 18.8864 11.7074 20.1099C11.6777 21.342 11.2084 22.557 10.4132 23.5127C10.1108 23.8761 10.0933 24.4019 10.3707 24.7848C11.16 25.8744 11.5946 27.1653 11.5318 28.5152C11.4822 29.5814 11.0612 30.738 10.0882 31.2238C9.48997 31.5225 8.78785 31.5179 8.12876 31.6452C7.37928 31.7899 6.56773 32.2203 6.56126 33.0345C6.55434 33.9039 6.69405 34.722 8.07216 35.6792C8.19946 35.7677 8.26505 35.9223 8.23531 36.0744C8.17871 36.3646 8.10477 36.6717 8.04475 36.9654C8.00423 37.1635 7.81934 37.2974 7.61818 37.2757C6.95998 37.2045 6.33908 37.1469 5.71817 36.8802C3.33552 35.8561 3.26778 32.501 3.62221 31.7993V31.7993Z" fill="white"/>
<path d="M43.3286 11.4643C43.9499 9.53785 42.5582 7.97053 41.9077 7.12726C41.8358 7.0341 41.8439 6.90481 41.926 6.81991C42.7652 5.95148 42.9813 4.54903 42.415 3.48573C41.9028 2.52405 40.7913 1.98858 39.6885 2.02946C39.3847 2.04078 39.0926 1.89892 38.9454 1.63918C38.3971 0.671928 37.1453 0.138079 35.9808 0.163594C35.4861 0.174465 35.0115 0.248766 34.5499 0.378859C35.2327 0.617034 35.8337 1.04622 36.1699 1.63927C36.3171 1.89901 36.6092 2.04078 36.913 2.02955C38.0158 1.98858 39.1272 2.52414 39.6394 3.48582C40.2058 4.54912 39.9897 5.95157 39.1504 6.82C39.0684 6.90481 39.0603 7.0341 39.1322 7.12735C39.7827 7.97062 41.1742 9.53794 40.5531 11.4644C40.3064 12.2292 39.6762 12.8982 38.8769 13.0773C39.8789 14.058 40.4508 15.4447 40.4242 16.8299C40.3993 18.1288 39.8484 19.4097 38.9233 20.3421C38.8238 20.4423 38.8326 20.6018 38.9404 20.6932C39.7664 21.3943 40.2096 22.3252 40.1533 23.4151C40.098 24.4891 39.5238 25.5239 38.644 26.1679C38.52 26.2586 38.5143 26.44 38.6319 26.5386C39.5811 27.3355 39.9601 28.5507 40.0628 29.7999C40.1414 30.7559 40.0016 31.7767 39.4032 32.5373C38.9026 33.1735 38.0194 33.5561 37.2366 33.4002C36.9851 33.35 36.7378 33.4816 36.6356 33.7116C36.2429 34.5954 35.3651 35.3158 34.4141 35.6451C35.1327 35.8495 35.8835 35.9199 36.6191 35.7943C37.7742 35.5971 38.9406 34.7704 39.4112 33.7116C39.5134 33.4816 39.7607 33.35 40.0122 33.4002C40.7949 33.5561 41.6783 33.1735 42.1788 32.5373C42.7771 31.7767 42.917 30.756 42.8384 29.7999C42.7357 28.5507 42.3568 27.3355 41.4075 26.5386C41.29 26.44 41.2957 26.2586 41.4196 26.1679C42.2994 25.5239 42.8735 24.4891 42.929 23.4151C42.9851 22.3252 42.542 21.3942 41.716 20.6932C41.6082 20.6018 41.5995 20.4423 41.6989 20.3421C42.6241 19.4097 43.175 18.1288 43.1998 16.8299C43.2264 15.4447 42.6545 14.058 41.6525 13.0773C42.4517 12.8981 43.0819 12.2291 43.3286 11.4643V11.4643ZM41.6412 13.08C41.6433 13.0796 41.6453 13.0789 41.6474 13.0785C41.6455 13.0822 41.6434 13.0817 41.6412 13.08Z" fill="#CBF2FE"/>
<path d="M38.8729 13.0785C38.8705 13.079 38.8681 13.0798 38.8657 13.0803C38.8681 13.0823 38.8706 13.0828 38.8729 13.0785Z" fill="white"/>
<path d="M11.5827 10.646C11.2598 10.6664 10.1241 10.7295 9.95631 11.485C9.74132 12.4527 8.97118 14.0343 7.86584 15.3823C7.56235 15.7523 7.56289 16.2769 7.84607 16.6621C8.57479 17.6531 8.9613 18.8893 8.93192 20.1096C8.90227 21.3418 8.43293 22.5568 7.63772 23.5124C7.33495 23.8762 7.31168 24.3944 7.58957 24.7767C8.38244 25.8679 8.81926 27.1618 8.75636 28.5149C8.70677 29.581 8.01722 29.8323 7.23244 30.5856C6.27714 31.5025 6.11614 32.1427 6.56131 33.0342C6.56778 32.2199 7.37933 31.7896 8.12881 31.6448C8.7879 31.5175 9.49003 31.5222 10.0882 31.2235C11.0613 30.7376 11.4823 29.581 11.5319 28.5149C11.5949 27.1617 11.158 25.8679 10.3651 24.7767C10.0873 24.3944 10.1105 23.8762 10.4133 23.5124C11.2085 22.5568 11.6778 21.3418 11.7075 20.1096C11.7368 18.8893 11.3503 17.6532 10.6216 16.6621C10.3384 16.2769 10.3379 15.7523 10.6414 15.3823C11.721 14.0657 12.0933 12.249 11.5827 10.646V10.646Z" fill="white"/>
</svg>
