<svg width="44" height="46" viewBox="0 0 44 46" fill="none" xmlns="http://www.w3.org/2000/svg">
<path d="M43.3988 21.8995L42.0132 34.1228L38.7997 33.7344L40.2765 21.512C40.9128 16.239 39.5608 10.9597 36.4674 6.64382L32.5262 1.41409C32.2998 1.11365 32.5142 0.683838 32.8903 0.683838H33.9784L35.8017 0.775017C35.9449 0.775017 36.0796 0.842215 36.1658 0.956553L38.9728 4.71111C38.9802 4.72032 38.9876 4.73053 38.995 4.74065C42.5694 9.72056 44.1331 15.8147 43.3988 21.8995V21.8995Z" fill="white"/>
<path d="M43.4908 21.8994L42.0137 34.1228L40.2165 33.9058L41.6672 21.8994C42.4012 15.8151 40.8375 9.72068 37.2633 4.7405C37.256 4.73047 37.2487 4.72044 37.2414 4.71132L34.3428 0.865405C34.2571 0.751432 34.1222 0.68396 33.979 0.68396H35.8026C35.9457 0.68396 36.0807 0.751432 36.1664 0.865405L39.0649 4.71132C39.0722 4.72044 39.0795 4.73047 39.0868 4.7405C42.661 9.72068 44.2247 15.8151 43.4908 21.8994V21.8994Z" fill="#CBF2FE"/>
<path d="M0.177152 21.8995L1.65397 34.1228L4.86747 33.7344L3.29947 21.512C2.66323 16.2391 4.01523 10.9597 7.10855 6.64394L11.0497 1.41421C11.2761 1.11378 11.153 0.775139 10.7768 0.775139L8.99221 0.68396H7.86524C7.72209 0.68396 7.58733 0.751159 7.50117 0.865497L4.60296 4.71123C4.59558 4.72044 4.58819 4.73065 4.58081 4.74077C1.0066 9.72059 -0.55711 15.8147 0.177152 21.8995V21.8995Z" fill="white"/>
<path d="M11.1411 1.4143L7.19947 6.64431C4.10669 10.9598 2.75451 16.239 3.39094 21.5119L4.86712 33.7344L1.65399 34.1228L1.62754 33.9058L3.04355 33.7344L1.56737 21.5119C0.930939 16.239 2.28312 10.9598 5.3759 6.64431L9.31756 1.4143C9.54368 1.11341 9.32941 0.68396 8.95284 0.68396H10.7764C11.153 0.68396 11.3673 1.11341 11.1411 1.4143V1.4143Z" fill="#CBF2FE"/>
<path d="M24.3477 30.9003C24.0158 30.9003 23.7245 30.6583 23.6726 30.3202L23.0052 25.9758C22.6383 23.587 23.2966 21.1367 24.8112 19.2533L26.4507 17.2148C26.6876 16.9204 27.1178 16.8738 27.4122 17.1105C27.7065 17.3472 27.7532 17.7776 27.5166 18.0719L25.877 20.1104C24.6023 21.6955 24.0482 23.7577 24.3571 25.7681L25.0244 30.1125C25.0817 30.4858 24.8255 30.835 24.4523 30.8923C24.4171 30.8977 24.3821 30.9003 24.3477 30.9003V30.9003Z" fill="white"/>
<path d="M32.5659 29.2458C32.2198 29.2458 31.9228 28.9839 31.8865 28.6322L31.1469 21.4714C30.8826 18.9133 30.0166 16.4122 28.6428 14.2383L27.7011 12.7613C27.498 12.4428 27.5916 12.0201 27.91 11.8171C28.2285 11.614 28.6512 11.7075 28.8544 12.026L29.7976 13.5053C31.285 15.8589 32.2215 18.5641 32.5074 21.3309L33.247 28.4918C33.2858 28.8674 33.0128 29.2034 32.6371 29.2422C32.6131 29.2446 32.5893 29.2458 32.5659 29.2458V29.2458Z" fill="white"/>
<path d="M28.124 29.2909C27.7746 29.2909 27.4766 29.0246 27.4438 28.6698L26.5183 18.6274C26.3539 16.8434 26.5924 15.011 27.2079 13.3283L27.9752 11.2304C29.0767 8.21891 28.5965 3.93315 26.8332 1.03977C26.6367 0.717276 26.7388 0.296486 27.0613 0.0999962C27.3837 -0.0964938 27.8045 0.00544387 28.0011 0.328125C28.943 1.87369 29.5925 3.84671 29.8299 5.88373C30.0761 7.99625 29.879 10.0076 29.2598 11.7004L28.4925 13.7982C27.9462 15.2919 27.7344 16.9184 27.8804 18.502L28.8059 28.5445C28.8405 28.9206 28.5637 29.2536 28.1877 29.2882C28.1662 29.2899 28.145 29.2909 28.124 29.2909V29.2909Z" fill="white"/>
<path d="M19.3194 30.9003C19.2849 30.9003 19.2499 30.8977 19.2148 30.8923C18.8415 30.835 18.5854 30.4859 18.6427 30.1125L19.31 25.7681C19.6188 23.7576 19.0648 21.6955 17.79 20.1104L16.1505 18.0719C15.9138 17.7775 15.9605 17.3471 16.2549 17.1105C16.549 16.8738 16.9795 16.9204 17.2163 17.2148L18.8558 19.2533C20.3704 21.1367 21.0287 23.587 20.6618 25.9758L19.9945 30.3202C19.9426 30.6583 19.6513 30.9003 19.3194 30.9003V30.9003Z" fill="white"/>
<path d="M11.1011 29.2458C11.0776 29.2458 11.0539 29.2446 11.0301 29.2421C10.6544 29.2033 10.3813 28.8673 10.4202 28.4916L11.1598 21.3309C11.4457 18.5641 12.3822 15.8588 13.8681 13.5076L14.8127 12.0259C15.0158 11.7075 15.4385 11.614 15.757 11.817C16.0754 12.0201 16.169 12.4428 15.9659 12.7613L15.0227 14.2407C13.6503 16.4122 12.7844 18.9134 12.5201 21.4715L11.7805 28.6322C11.7442 28.984 11.4472 29.2458 11.1011 29.2458V29.2458Z" fill="white"/>
<path d="M15.5431 29.291C15.5222 29.291 15.5009 29.29 15.4796 29.288C15.1036 29.2534 14.8267 28.9204 14.8614 28.5443L15.7869 18.5019C15.9328 16.9184 15.7211 15.2918 15.1748 13.7982L14.4075 11.7003C13.7883 10.0076 13.5912 7.99627 13.8374 5.88375C14.0748 3.84673 14.7243 1.87371 15.6661 0.328144C15.8627 0.00555423 16.2832 -0.0965658 16.606 0.100015C16.9285 0.296505 17.0305 0.717295 16.834 1.03979C15.0707 3.93317 14.5906 8.21893 15.6921 11.2305L16.4594 13.3283C17.0748 15.011 17.3133 16.8434 17.149 18.6273L16.2235 28.6698C16.1905 29.0245 15.8924 29.291 15.5431 29.291V29.291Z" fill="white"/>
<path d="M11.9987 43.4434C11.5326 43.4434 11.0756 43.4959 10.6307 43.4216C6.7272 42.7698 3.75195 39.3762 3.75195 35.2878V29.9575C3.75195 25.839 6.77097 22.4257 10.7166 21.8098C11.1344 21.7447 11.5626 21.802 11.9987 21.802C16.5533 21.802 20.1543 25.403 20.1543 29.9576V35.2879C20.1542 39.8424 16.5532 43.4434 11.9987 43.4434V43.4434Z" fill="white"/>
<path d="M20.2452 29.9578V35.2881C20.2452 39.8425 16.5533 43.5343 11.9981 43.5343C11.5321 43.5343 11.0753 43.496 10.6304 43.4212C14.5346 42.7702 17.5098 39.3766 17.5098 35.2881V29.9578C17.5098 27.6802 16.5871 25.6186 15.0945 24.126C13.9073 22.9398 12.36 22.1128 10.6304 21.8238C11.0753 21.749 11.5321 21.7107 11.9981 21.7107C14.2757 21.7107 16.3372 22.6343 17.8298 24.126C19.3224 25.6186 20.2452 27.6802 20.2452 29.9578V29.9578Z" fill="white"/>
<path d="M11.9072 42.9571C11.9072 45.0808 9.86349 46.4762 7.88683 45.6997C7.79118 45.6621 7.69608 45.7145 7.60171 45.6744C3.56067 43.9572 0.719727 39.9482 0.719727 35.288V29.9577C0.719727 25.2967 3.56186 21.2869 7.60418 19.5704C7.69773 19.5306 7.792 19.5833 7.88683 19.546C9.86349 18.7695 11.9072 20.1649 11.9072 22.2887C11.9072 23.5242 11.2536 24.5577 10.1031 25.0081C8.16192 25.768 6.6923 27.7505 6.6923 29.9577V35.288C6.6923 37.4953 8.16192 39.4778 10.1031 40.2376C11.2536 40.688 11.9072 41.7215 11.9072 42.9571V42.9571Z" fill="white"/>
<path d="M11.9982 42.9571C11.9982 45.0806 9.86371 46.5678 7.88696 45.7909C7.7894 45.7526 7.69275 45.7134 7.59701 45.6715C8.56442 45.1782 9.26285 44.1716 9.26285 42.9571C9.26285 41.7216 8.51883 40.5965 7.36815 40.1461C5.42696 39.3865 4.04834 37.4955 4.04834 35.2881V29.9577C4.04834 27.7503 5.42696 25.8593 7.36815 25.0988C7.94349 24.8736 8.41762 24.4797 8.74678 23.9883C9.07684 23.4968 9.26285 22.906 9.26285 22.2887C9.26285 21.0742 8.56442 20.0676 7.59701 19.5743C7.69275 19.5324 7.7894 19.4932 7.88696 19.4549C9.86371 18.678 11.9982 20.1651 11.9982 22.2887C11.9982 22.906 11.8122 23.4968 11.4821 23.9883C11.153 24.4797 10.6789 24.8736 10.1035 25.0988C8.16232 25.8593 6.7837 27.7503 6.7837 29.9577V35.2881C6.7837 37.4955 8.16232 39.3865 10.1035 40.1461C11.2542 40.5965 11.9982 41.7216 11.9982 42.9571Z" fill="#CBF2FE"/>
<path d="M31.669 43.4434C36.2236 43.4434 39.8246 39.8424 39.8246 35.2879V29.9576C39.8246 25.403 36.2236 21.802 31.669 21.802C30.7457 21.802 29.8577 21.8626 29.0288 22.1426C25.7691 23.2434 23.4224 26.3264 23.4224 29.9576V35.2879C23.4224 38.9178 25.7677 42 29.0257 43.1018C29.8554 43.3825 30.7444 43.4434 31.669 43.4434V43.4434Z" fill="white"/>
<path d="M31.6689 42.9571C31.6689 44.1718 32.3675 45.1782 33.3354 45.6717C34.0596 46.041 34.9345 46.032 35.7805 45.6997C39.9723 44.053 42.8564 40.057 42.8564 35.288V29.9577C42.8564 25.1887 39.9723 21.1927 35.7805 19.546C34.9323 19.2128 34.0551 19.2051 33.3299 19.5767C32.3648 20.0713 31.6689 21.0761 31.6689 22.2886C31.6689 23.5241 32.4137 24.6487 33.5642 25.0992C35.5054 25.859 36.8838 27.7504 36.8838 29.9576V35.2879C36.8838 37.4952 35.5054 39.3865 33.5642 40.1464C32.4136 40.5968 31.6689 41.7215 31.6689 42.9571V42.9571Z" fill="white"/>
<path d="M36.8836 29.9578V35.2881C36.8836 37.4955 35.505 39.3866 33.5638 40.1461C32.4131 40.5965 31.6691 41.7217 31.6691 42.9571C31.6691 43.155 31.6873 43.3474 31.7229 43.5334C31.7056 43.5343 31.6873 43.5343 31.6691 43.5343C30.7454 43.5343 29.8574 43.3829 29.0286 43.103C29.0258 43.0547 29.0249 43.0064 29.0249 42.9571C29.0249 41.7217 29.7689 40.5965 30.9196 40.1461C32.8608 39.3866 34.2394 37.4955 34.2394 35.2881V29.9578C34.2394 27.7504 32.8608 25.8593 30.9196 25.0989C30.3443 24.8737 29.8701 24.4798 29.541 23.9883C29.2109 23.4969 29.0249 22.906 29.0249 22.2888C29.0249 22.2395 29.0258 22.1903 29.0286 22.142C29.8574 21.863 30.7454 21.7107 31.6691 21.7107C31.6873 21.7107 31.7056 21.7107 31.7229 21.7116C31.6873 21.8976 31.6691 22.09 31.6691 22.2888C31.6691 22.906 31.8551 23.4969 32.1852 23.9883C32.5143 24.4798 32.9884 24.8737 33.5638 25.0989C35.505 25.8593 36.8836 27.7504 36.8836 29.9578V29.9578Z" fill="#CBF2FE"/>
<path d="M42.947 29.9577V35.288C42.947 40.0566 39.9718 44.1442 35.7804 45.7909C34.9342 46.1237 34.0589 46.0407 33.335 45.6714C37.3733 43.9536 40.2116 39.9454 40.2116 35.288V29.9577C40.2116 25.3003 37.3733 21.2921 33.335 19.5743C34.0589 19.205 34.9342 19.122 35.7804 19.4548C39.9718 21.1015 42.947 25.1891 42.947 29.9577V29.9577Z" fill="white"/>
</svg>
