<svg width="46" height="46" viewBox="0 0 46 46" fill="none" xmlns="http://www.w3.org/2000/svg">
<path d="M46 38.9936V45.9127H0V38.9936C0 37.1632 1.12125 35.5138 2.82612 34.8536L12.5254 31.0394L20.0962 39.3587L22.472 34.5191V34.5095L23 33.4257L23.5376 34.5096L25.9143 39.3587L33.4745 31.0394L43.1834 34.8536C44.8787 35.5244 46 37.1632 46 38.9936Z" fill="#F2F2F2"/>
<path d="M29.785 29.6019H29.7946V25.6632C29.2915 26.4261 28.7068 27.2003 28.0274 27.9747L27.0883 29.0097C26.2258 29.9479 24.9992 30.4951 23.7246 30.4951H22.2871C21.0124 30.4951 19.7848 29.9488 18.9233 29.0097L17.9842 27.9747C17.297 27.1937 16.7058 26.4088 16.2007 25.6383V29.5953L16.216 29.6029L22.1289 32.9379L23.001 33.4267L23.8732 32.9379L29.785 29.6019Z" fill="#F4BB87"/>
<g opacity="0.1">
<g opacity="0.1">
<path opacity="0.1" d="M20.5766 30.1443C20.5708 30.1424 20.5651 30.1405 20.5593 30.1386C20.5497 30.1347 20.5392 30.1318 20.5296 30.129C20.52 30.1242 20.5095 30.1232 20.4961 30.1185L24.11 32.8027L29.7852 29.6019H29.791L29.7948 25.6832C29.7852 25.6976 28.4474 27.4504 28.0277 27.9727L27.0886 29.0087C26.2261 29.9469 24.9994 30.4941 23.7248 30.4941H22.2873C21.9969 30.4941 21.7123 30.4625 21.4334 30.4031C21.1382 30.3466 20.8536 30.2583 20.5766 30.1443Z" fill="#F4BB87"/>
</g>
</g>
<path d="M16.2744 17.6371C16.4239 19.3574 15.5891 20.836 14.4104 20.9376C13.2298 21.0411 12.1516 19.7291 11.9993 18.009C11.8498 16.2887 12.6845 14.812 13.8651 14.7085C15.0449 14.605 16.1249 15.916 16.2744 17.6371Z" fill="#F4BB87"/>
<path d="M34.0094 18.0109C33.8599 19.7311 32.7799 21.0421 31.6002 20.9386C30.4195 20.8351 29.5838 19.3583 29.7362 17.6381C29.8857 15.9179 30.9657 14.606 32.1454 14.7095C33.3261 14.811 34.1608 16.2897 34.0094 18.0109Z" fill="#F4BB87"/>
<path d="M32.7797 17.6429C32.5985 19.5691 31.6862 23.8136 28.0273 27.9728L27.0881 29.0078C26.2256 29.9469 24.999 30.4941 23.7244 30.4941H22.2869C21.0123 30.4941 19.7847 29.9479 18.9231 29.0078L17.984 27.9728C14.3231 23.8136 13.4224 19.5682 13.2297 17.6429C12.971 14.9883 13.0764 11.615 13.2297 10.7429C14.1019 5.635 18.4728 2.46289 23.0057 2.46289C27.5377 2.46289 31.9077 5.635 32.7797 10.7429C32.933 11.615 33.0384 14.9893 32.7797 17.6429Z" fill="#FED19A"/>
<path d="M15.5339 4.8846C15.5339 4.8846 15.601 -1.56789 24.9821 0.493487C24.9821 0.493487 29.6368 1.95587 32.6315 6.28185C32.6315 6.28185 35.4414 10.3625 33.9138 13.7952C33.4174 14.9097 32.8845 16.1853 32.9459 17.2097C32.9459 17.2097 32.4255 15.0352 32.115 13.2231C31.8553 11.7051 31.2018 10.283 30.1984 9.1157L30.1686 9.08021C28.5443 7.19898 26.0018 6.31922 23.5974 6.93933C22.4503 7.23545 21.145 7.81333 19.7094 8.83781C19.7094 8.83781 15.8013 6.21483 13.8693 10.8062C13.8693 10.8062 13.0087 14.1623 13.1304 16.8131C13.1304 16.812 7.75128 5.54971 15.5339 4.8846Z" fill="#40596B"/>
<path d="M33.4746 31.0395L26.403 40.3162L23 33.4258L23.8721 32.937L29.785 29.602H29.7946L29.8041 29.5924L33.4746 31.0395Z" fill="#CDD6E0"/>
<path d="M12.5254 31.0395L19.6085 40.3162L23 33.4258L22.1279 32.937L16.215 29.602L16.1959 29.5924L12.5254 31.0395Z" fill="#CDD6E0"/>
<path d="M19.6084 45.9128L21.5433 41.5045L20.7085 40.2778L20.0971 39.3578L22.4719 34.5097L22.9999 33.4258L23.5375 34.5097V34.5192L25.9142 39.3578L25.2913 40.2692L24.4565 41.5045L26.4029 45.9128H19.6084Z" fill="#334A5E"/>
<path d="M25.9142 39.3578L25.2913 40.2692L23.0095 35.6012L20.7086 40.2778L20.0972 39.3578L22.4719 34.5097L22.9999 33.4258L23.5376 34.5097V34.5192L25.9142 39.3578Z" fill="#2A4356"/>
<path d="M11.4254 41.171C11.4254 41.976 10.7738 42.6286 9.96879 42.6286C9.1619 42.6286 8.50928 41.975 8.50928 41.171C8.50928 40.367 9.16289 39.7134 9.96879 39.7134C10.7738 39.7134 11.4254 40.366 11.4254 41.171Z" fill="#F2F2F2"/>
</svg>
