<svg width="73" height="72" viewBox="0 0 73 72" fill="none" xmlns="http://www.w3.org/2000/svg">
<path d="M21.2164 35.1192L24.9694 33.4285H15.8022V38.5713L18.3737 41.1428V39.7195C18.3737 37.7588 19.4627 35.996 21.2164 35.1192Z" fill="#D2AA82"/>
<path d="M21.2164 35.1192L24.9694 33.4285H15.8022V38.5713L18.3737 41.1428V39.7195C18.3737 37.7588 19.4627 35.996 21.2164 35.1192Z" fill="white" fill-opacity="0.6"/>
<path d="M56.9451 33.4285H47.7805L51.4371 35.0742C53.2834 35.996 54.3737 37.7588 54.3737 39.7195V41.1428L56.9451 38.5713V33.4285Z" fill="#D2AA82"/>
<path d="M56.9451 33.4285H47.7805L51.4371 35.0742C53.2834 35.996 54.3737 37.7588 54.3737 39.7195V41.1428L56.9451 38.5713V33.4285Z" fill="white" fill-opacity="0.6"/>
<path d="M21.2165 35.1192L28.6119 31.7879C28.3625 31.5964 28.1272 31.3894 27.9073 31.1695L25.7769 29.0391C24.6043 27.8678 23.856 26.3854 23.6079 24.7782L21.2165 23.5825C19.4627 22.7056 18.3737 20.9429 18.3737 18.9822V17.9999C18.3737 16.0829 19.428 14.4076 20.9876 13.5231C20.9593 13.3045 20.9452 13.0821 20.9452 12.8571V10.2856H13.2309C11.8102 10.2856 10.6595 11.4364 10.6595 12.8571V20.5714H8.08803C6.66732 20.5714 5.5166 21.7221 5.5166 23.1428V24.1251C5.5166 25.0996 6.06689 25.9894 6.9386 26.4252L10.6595 28.2856V28.7266C10.6595 30.0908 11.2007 31.3984 12.1663 32.3626L14.2967 34.4931C15.261 35.4574 16.5699 35.9999 17.9327 35.9999H19.968C20.3332 35.6528 20.7485 35.3532 21.2165 35.1192Z" fill="#F0C8A0"/>
<path d="M21.2165 35.1192L28.6119 31.7879C28.3625 31.5964 28.1272 31.3894 27.9073 31.1695L25.7769 29.0391C24.6043 27.8678 23.856 26.3854 23.6079 24.7782L21.2165 23.5825C19.4627 22.7056 18.3737 20.9429 18.3737 18.9822V17.9999C18.3737 16.0829 19.428 14.4076 20.9876 13.5231C20.9593 13.3045 20.9452 13.0821 20.9452 12.8571V10.2856H13.2309C11.8102 10.2856 10.6595 11.4364 10.6595 12.8571V20.5714H8.08803C6.66732 20.5714 5.5166 21.7221 5.5166 23.1428V24.1251C5.5166 25.0996 6.06689 25.9894 6.9386 26.4252L10.6595 28.2856V28.7266C10.6595 30.0908 11.2007 31.3984 12.1663 32.3626L14.2967 34.4931C15.261 35.4574 16.5699 35.9999 17.9327 35.9999H19.968C20.3332 35.6528 20.7485 35.3532 21.2165 35.1192Z" fill="white" fill-opacity="0.6"/>
<path d="M64.6594 20.5714H62.0879V12.8571C62.0879 11.4364 60.9372 10.2856 59.5165 10.2856H51.8022V13.5475C53.3374 14.4385 54.3736 16.1009 54.3736 17.9999V18.9822C54.3736 20.9429 53.2834 22.7056 51.5309 23.5825L49.1395 24.7782C48.8926 26.3854 48.1431 27.8678 46.9705 29.0391L44.8426 31.1695C44.6215 31.3894 44.3862 31.5964 44.1355 31.7892L51.4371 35.0755C51.9372 35.3249 52.3769 35.6412 52.7588 36.0012H54.8146C56.1788 36.0012 57.4864 35.4599 58.4506 34.4944L60.5811 32.3639C61.5454 31.3996 62.0879 30.0908 62.0879 28.7279V28.2856L65.8088 26.4252C66.6805 25.9894 67.2308 25.0984 67.2308 24.1251V23.1428C67.2308 21.7221 66.0801 20.5714 64.6594 20.5714Z" fill="#F0C8A0"/>
<path d="M64.6594 20.5714H62.0879V12.8571C62.0879 11.4364 60.9372 10.2856 59.5165 10.2856H51.8022V13.5475C53.3374 14.4385 54.3736 16.1009 54.3736 17.9999V18.9822C54.3736 20.9429 53.2834 22.7056 51.5309 23.5825L49.1395 24.7782C48.8926 26.3854 48.1431 27.8678 46.9705 29.0391L44.8426 31.1695C44.6215 31.3894 44.3862 31.5964 44.1355 31.7892L51.4371 35.0755C51.9372 35.3249 52.3769 35.6412 52.7588 36.0012H54.8146C56.1788 36.0012 57.4864 35.4599 58.4506 34.4944L60.5811 32.3639C61.5454 31.3996 62.0879 30.0908 62.0879 28.7279V28.2856L65.8088 26.4252C66.6805 25.9894 67.2308 25.0984 67.2308 24.1251V23.1428C67.2308 21.7221 66.0801 20.5714 64.6594 20.5714Z" fill="white" fill-opacity="0.6"/>
<path d="M64.6595 23.1428C61.8193 23.1428 59.5166 20.8401 59.5166 17.9999V10.2856H62.088C63.5087 10.2856 64.6595 11.4364 64.6595 12.8571V23.1428Z" fill="#DC9600"/>
<path d="M64.6595 23.1428C61.8193 23.1428 59.5166 20.8401 59.5166 17.9999V10.2856H62.088C63.5087 10.2856 64.6595 11.4364 64.6595 12.8571V23.1428Z" fill="white" fill-opacity="0.6"/>
<path d="M31.2305 33.4285V28.2856H41.5162V33.4285L36.3733 38.5714L31.2305 33.4285Z" fill="#D2AA82"/>
<path d="M49.2305 15.4285H46.6591V7.71425C46.6591 6.29354 45.5084 5.14282 44.0877 5.14282H28.6591C27.2384 5.14282 26.0877 6.29354 26.0877 7.71425V15.4285H23.5163C22.0955 15.4285 20.9448 16.5793 20.9448 18V18.9823C20.9448 19.9568 21.4951 20.8465 22.3668 21.2824L26.0877 23.1428V23.5838C26.0877 24.948 26.629 26.2555 27.5945 27.2198L29.725 29.3503C30.6893 30.3145 31.9981 30.8571 33.361 30.8571H39.3858C40.75 30.8571 42.0575 30.3158 43.0218 29.3503L45.1523 27.2198C46.1165 26.2555 46.6591 24.9467 46.6591 23.5838V23.1428L50.38 21.2824C51.2517 20.8465 51.802 19.9555 51.802 18.9823V18C51.802 16.5793 50.6513 15.4285 49.2305 15.4285Z" fill="#F0C8A0"/>
<path d="M49.2307 18C46.3906 18 44.0879 15.6973 44.0879 12.8571V5.14282H46.6593C48.08 5.14282 49.2307 6.29354 49.2307 7.71425V18Z" fill="#DC9600"/>
<path d="M41.5166 0H31.2309C26.97 0 23.5166 3.45343 23.5166 7.71429V12.8571C23.5166 14.2779 24.6673 15.4286 26.088 15.4286H32.5539C36.6463 15.4286 40.5703 13.8034 43.4632 10.9093L45.1526 9.21986C46.1182 8.25557 46.6595 6.948 46.6595 5.58386V5.14286C46.6595 2.30271 44.3567 0 41.5166 0Z" fill="#FAB400"/>
<path d="M8.08789 66.8572H23.5165V72H8.08789V66.8572Z" fill="#505050"/>
<path d="M8.08789 66.8572H13.2307V72H8.08789V66.8572Z" fill="#3C3C3C"/>
<path d="M49.2319 66.8572H64.6605V72H49.2319V66.8572Z" fill="#505050"/>
<path d="M49.2319 66.8572H54.3748V72H49.2319V66.8572Z" fill="#3C3C3C"/>
<path d="M72.3672 33.4285H71.9828C70.7253 33.4285 69.653 34.3375 69.446 35.5769L67.7746 45.6055C67.4223 47.7205 66.4182 49.6722 64.9023 51.1868L62.0892 53.9999L64.118 49.9422C64.4755 49.2286 64.6606 48.4405 64.6606 47.642V46.8166C64.6606 45.671 63.2759 45.0976 62.4659 45.9076L54.8159 53.5576C52.8873 55.4862 51.8035 58.1026 51.8035 60.8309V66.857H62.0892V64.3769C62.0892 62.672 62.7668 61.0366 63.9715 59.8319L69.3599 54.4435C71.2898 52.5136 72.3736 49.9036 72.3723 47.1753C72.371 41.8525 72.3685 33.4298 72.3672 33.4285Z" fill="#F0C8A0"/>
<path d="M18.3736 18C18.3736 16.083 19.4279 14.4077 20.9875 13.5231C20.9592 13.3045 20.945 13.0821 20.945 12.8571V7.71425C20.945 6.82454 21.0697 5.96697 21.2832 5.14282H15.8022C11.5413 5.14282 8.08789 8.59625 8.08789 12.8571V18C8.08789 19.4207 9.2386 20.5714 10.6593 20.5714H17.1252C17.6215 20.5714 18.1152 20.5457 18.605 20.4981C18.4572 20.0147 18.3736 19.5068 18.3736 18.9823V18Z" fill="#FAB400"/>
<path d="M18.3736 18C18.3736 16.083 19.4279 14.4077 20.9875 13.5231C20.9592 13.3045 20.945 13.0821 20.945 12.8571V7.71425C20.945 6.82454 21.0697 5.96697 21.2832 5.14282H15.8022C11.5413 5.14282 8.08789 8.59625 8.08789 12.8571V18C8.08789 19.4207 9.2386 20.5714 10.6593 20.5714H17.1252C17.6215 20.5714 18.1152 20.5457 18.605 20.4981C18.4572 20.0147 18.3736 19.5068 18.3736 18.9823V18Z" fill="white" fill-opacity="0.6"/>
<path d="M56.9449 5.14282H51.1013C51.541 5.90139 51.802 6.77568 51.802 7.71425V13.5475C53.3372 14.4385 54.3735 16.101 54.3735 18V18.9823C54.3735 19.0465 54.3632 19.1095 54.3606 19.1738C56.0295 18.4153 57.5723 17.3738 58.8927 16.0534L60.5822 14.364C61.5465 13.3997 62.089 12.0908 62.089 10.728V10.2857C62.0877 7.44554 59.785 5.14282 56.9449 5.14282Z" fill="#FAB400"/>
<path d="M56.9449 5.14282H51.1013C51.541 5.90139 51.802 6.77568 51.802 7.71425V13.5475C53.3372 14.4385 54.3735 16.101 54.3735 18V18.9823C54.3735 19.0465 54.3632 19.1095 54.3606 19.1738C56.0295 18.4153 57.5723 17.3738 58.8927 16.0534L60.5822 14.364C61.5465 13.3997 62.089 12.0908 62.089 10.728V10.2857C62.0877 7.44554 59.785 5.14282 56.9449 5.14282Z" fill="white" fill-opacity="0.6"/>
<path d="M9.38259 42.9584C10.4047 42.9584 11.3703 43.3608 12.1006 44.0911L18.3736 50.3641V41.143L15.8022 38.5715L7.06445 42.5058L7.24702 43.6025C7.86031 43.1962 8.59445 42.9584 9.38259 42.9584Z" fill="#3CC8B4"/>
<path d="M9.38259 42.9584C10.4047 42.9584 11.3703 43.3608 12.1006 44.0911L18.3736 50.3641V41.143L15.8022 38.5715L7.06445 42.5058L7.24702 43.6025C7.86031 43.1962 8.59445 42.9584 9.38259 42.9584Z" fill="white" fill-opacity="0.6"/>
<path d="M51.802 53.141V39.7195C51.802 38.7449 51.2517 37.8552 50.38 37.4193L41.5163 33.4285L36.3734 38.5713L31.2305 33.4285L22.3668 37.4193C21.4951 37.8552 20.9448 38.7449 20.9448 39.7195V53.1385C22.606 55.3486 23.5163 58.0178 23.5163 60.8309V61.7142H49.2318V60.8309C49.2318 58.0178 50.1421 55.3512 51.802 53.141Z" fill="#FA6450"/>
<path d="M31.2305 33.4285L22.3668 37.4193C21.4951 37.8552 20.9448 38.7449 20.9448 39.7195V53.1385C22.606 55.3486 23.5163 58.0178 23.5163 60.8309V61.7142H26.0877V39.7195C26.0877 38.7449 26.638 37.8552 27.5097 37.4193L32.8274 35.0253L31.2305 33.4285Z" fill="#DC4632"/>
<path d="M63.3658 42.9584C64.154 42.9584 64.8894 43.1962 65.5014 43.6025L65.684 42.5058L56.945 38.5715L54.3735 41.143V50.3654L60.6478 44.0911C61.3768 43.3608 62.3424 42.9584 63.3658 42.9584Z" fill="#3CC8B4"/>
<path d="M63.3658 42.9584C64.154 42.9584 64.8894 43.1962 65.5014 43.6025L65.684 42.5058L56.945 38.5715L54.3735 41.143V50.3654L60.6478 44.0911C61.3768 43.3608 62.3424 42.9584 63.3658 42.9584Z" fill="white" fill-opacity="0.6"/>
<path d="M0.382471 33.4285H0.7669C2.02433 33.4285 3.09661 34.3375 3.30361 35.5769L4.97504 45.6055C5.32733 47.7205 6.33147 49.6722 7.84733 51.1868L10.6592 53.9999L8.63033 49.9422C8.27418 49.2286 8.08776 48.4418 8.08776 47.6433V46.8179C8.08776 45.6723 9.47247 45.0989 10.2825 45.9089L17.9325 53.5589C19.861 55.4875 20.9449 58.1039 20.9449 60.8322V66.857H10.6592V64.3769C10.6592 62.672 9.98161 61.0366 8.7769 59.8319L3.38847 54.4435C1.45733 52.5123 0.373471 49.9036 0.374757 47.174C0.377328 41.8525 0.381186 33.4298 0.382471 33.4285Z" fill="#F0C8A0"/>
</svg>
