<svg width="94" height="93" viewBox="0 0 94 93" fill="none" xmlns="http://www.w3.org/2000/svg">
<path d="M93.3538 78.9579V92.9998H0V78.9579C0 75.2433 2.2755 71.896 5.73543 70.5561L25.4194 62.8156L40.784 79.6989L45.6054 69.8773V69.8577L46.6769 67.6583L47.768 69.8579L52.5912 79.6989L67.9342 62.8156L87.6377 70.5561C91.0783 71.9176 93.3538 75.2433 93.3538 78.9579Z" fill="#F2F2F2"/>
<path d="M60.4465 59.8983H60.466V51.9049C59.445 53.4531 58.2586 55.0244 56.8798 56.5959L54.9739 58.6964C53.2235 60.6005 50.7341 61.7109 48.1474 61.7109H45.23C42.6433 61.7109 40.1519 60.6023 38.4036 58.6964L36.4976 56.5959C35.1032 55.0109 33.9032 53.418 32.8782 51.8544V59.8848L32.9094 59.9003L44.9091 66.6685L46.679 67.6603L48.4489 66.6685L60.4465 59.8983Z" fill="#F4BB87"/>
<g opacity="0.1">
<g opacity="0.1">
<path opacity="0.1" d="M41.7588 60.9989C41.7472 60.9951 41.7355 60.9911 41.7238 60.9873C41.7043 60.9794 41.683 60.9736 41.6635 60.9677C41.644 60.9581 41.6226 60.9561 41.5955 60.9464L48.9296 66.3939L60.4471 59.898H60.4588L60.4666 51.9454C60.4471 51.9746 57.7322 55.5317 56.8803 56.5918L54.9744 58.6943C53.224 60.5983 50.7346 61.7087 48.1479 61.7087H45.2306C44.6413 61.7087 44.0637 61.6446 43.4977 61.524C42.8986 61.4094 42.321 61.2303 41.7588 60.9989Z" fill="#F4BB87"/>
</g>
</g>
<path d="M33.0279 35.6165C33.3313 39.1076 31.6372 42.1084 29.245 42.3146C26.849 42.5246 24.661 39.8621 24.3518 36.3711C24.0484 32.88 25.7424 29.8831 28.1385 29.673C30.5327 29.463 32.7245 32.1235 33.0279 35.6165Z" fill="#F4BB87"/>
<path d="M69.0199 36.3749C68.7165 39.866 66.5247 42.5266 64.1305 42.3166C61.7345 42.1065 60.0384 39.1095 60.3477 35.6184C60.6511 32.1273 62.8429 29.4649 65.2371 29.675C67.6331 29.881 69.3271 32.882 69.0199 36.3749Z" fill="#F4BB87"/>
<path d="M66.5241 35.6282C66.1565 39.5374 64.3049 48.1513 56.8794 56.5919L54.9735 58.6924C53.2232 60.5983 50.7338 61.7089 48.147 61.7089H45.2297C42.643 61.7089 40.1516 60.6003 38.4032 58.6924L36.4973 56.5919C29.0679 48.1513 27.2398 39.5354 26.8489 35.6282C26.3238 30.2408 26.5376 23.395 26.8489 21.6251C28.6188 11.259 37.4892 4.82141 46.6886 4.82141C55.8859 4.82141 64.7545 11.259 66.5243 21.6251C66.8353 23.395 67.0492 30.2428 66.5241 35.6282Z" fill="#FED19A"/>
<path d="M31.5249 9.73608C31.5249 9.73608 31.6611 -3.3588 50.6994 0.824617C50.6994 0.824617 60.1456 3.79243 66.2233 12.5717C66.2233 12.5717 71.9257 20.853 68.8255 27.8195C67.8181 30.0814 66.7367 32.6701 66.8613 34.7491C66.8613 34.7491 65.8052 30.3361 65.1751 26.6585C64.6479 23.5778 63.3217 20.6917 61.2854 18.3228L61.225 18.2508C57.9285 14.4329 52.7687 12.6475 47.8891 13.906C45.5611 14.507 42.9122 15.6797 39.9987 17.7589C39.9987 17.7589 32.0675 12.4357 28.1466 21.7536C28.1466 21.7536 26.4001 28.5646 26.6471 33.9441C26.6471 33.9419 15.7306 11.0859 31.5249 9.73608Z" fill="#40596B"/>
<path d="M67.9343 62.8156L53.5829 81.6419L46.6768 67.6583L48.4467 66.6664L60.4464 59.8983H60.466L60.4853 59.8788L67.9343 62.8156Z" fill="#CDD6E0"/>
<path d="M25.4194 62.8157L39.7941 81.642L46.6769 67.6585L44.907 66.6666L32.9072 59.8984L32.8684 59.8789L25.4194 62.8157Z" fill="#CDD6E0"/>
<path d="M39.7939 93L43.7206 84.0537L42.0266 81.5642L40.7858 79.6971L45.6052 69.8581L46.6768 67.6584L47.7679 69.8581V69.8774L52.5911 79.6971L51.327 81.5467L49.6329 84.0537L53.583 93H39.7939Z" fill="#334A5E"/>
<path d="M52.5911 79.6971L51.327 81.5467L46.6963 72.0732L42.0267 81.5642L40.7859 79.6971L45.6053 69.8581L46.6768 67.6584L47.7679 69.8581V69.8774L52.5911 79.6971Z" fill="#2A4356"/>
<path d="M23.1872 83.3769C23.1872 85.0105 21.8647 86.335 20.231 86.335C18.5935 86.335 17.269 85.0085 17.269 83.3769C17.269 81.7452 18.5955 80.4187 20.231 80.4187C21.8647 80.4187 23.1872 81.7432 23.1872 83.3769Z" fill="#F2F2F2"/>
</svg>
