<svg width="88" height="73" viewBox="0 0 88 73" fill="none" xmlns="http://www.w3.org/2000/svg">
<path d="M68.8275 17.6938L65.6683 20.8545H17.7158C14.7743 20.8545 12.3896 18.47 12.3896 15.5284V8.76385C12.3896 5.82241 14.7741 3.43774 17.7158 3.43774H65.99L68.8277 5.62899C67.2939 6.89909 66.3824 8.60644 66.0914 10.3975C65.6651 13.0267 66.5766 15.8321 68.8275 17.6938Z" fill="#ECF4FF"/>
<path d="M68.8275 5.62953C67.2937 6.89962 66.3822 8.60697 66.0912 10.398H12.3896V7.5778C12.3896 5.29155 14.2431 3.43811 16.5293 3.43811H65.9899L68.8275 5.62953Z" fill="#BAC0C9"/>
<path d="M14.6037 11.5155C14.5224 14.909 17.2587 17.6966 20.6357 17.6966H70.0349C71.5887 17.6966 72.8484 18.9562 72.8484 20.5101C72.8484 22.064 71.5887 23.3236 70.0349 23.3236L43.897 28.9517L20.6357 23.3236C17.4155 23.3236 14.5006 22.0182 12.3896 19.9072C10.2719 17.7895 8.96446 14.8599 8.97492 11.6244C8.99566 5.17087 14.3555 0.00183105 20.8093 0.00183105H70.035C71.5889 0.00183105 72.8485 1.26147 72.8485 2.81535C72.8485 4.36923 71.5889 5.62887 70.035 5.62887H20.7489C17.4547 5.62887 14.6825 8.22222 14.6037 11.5155Z" fill="#FF5B6E"/>
<path d="M16.6193 19.9064C18.7303 22.0174 21.645 23.3228 24.8652 23.3228H20.6364C17.4161 23.3228 14.5014 22.0174 12.3904 19.9064C10.2724 17.7884 8.96526 14.8596 8.97589 11.6234C8.99527 5.17058 14.3565 0 20.8095 0H25.0384C18.5855 0 13.226 5.17041 13.2047 11.6234C13.1939 14.8596 14.5012 17.7884 16.6193 19.9064Z" fill="#D62127"/>
<path d="M8.56104 41.0168L11.7202 44.1776H75.8893C78.7282 44.1776 81.0295 41.8762 81.0295 39.0373V31.9013C81.0295 29.0624 78.7282 26.7611 75.8893 26.7611H11.3987L8.56104 28.9524C10.0949 30.2225 11.0064 31.9298 11.2974 33.7208C11.7235 36.3495 10.812 39.155 8.56104 41.0168Z" fill="#ECF4FF"/>
<path d="M8.56104 28.9524C10.0949 30.2225 11.0064 31.9299 11.2974 33.7209H81.0295V29.7866C81.0295 28.1156 79.6749 26.761 78.0039 26.761H11.3987L8.56104 28.9524Z" fill="#BAC0C9"/>
<path d="M78.8156 34.8381C78.8969 38.2316 76.1605 41.0192 72.7835 41.0192H7.3538C5.79992 41.0192 4.54028 42.2788 4.54028 43.8327C4.54028 45.3866 5.79992 46.6463 7.3538 46.6463H13.0031L21.9859 49.3162L72.7835 46.6463C76.0038 46.6463 78.9187 45.3408 81.0296 43.2298C83.1473 41.1122 84.4548 38.1825 84.4444 34.947C84.4236 28.4935 79.0637 23.3245 72.61 23.3245H7.3538C5.79992 23.3245 4.54028 24.5841 4.54028 26.138C4.54028 27.6919 5.79992 28.9515 7.3538 28.9515H72.6704C75.9645 28.9517 78.7367 31.5449 78.8156 34.8381Z" fill="#F9ED80"/>
<path d="M10.433 43.8316C10.433 44.6089 10.7475 45.3119 11.2563 45.8224C11.7667 46.3312 12.4698 46.6456 13.2471 46.6456H7.35407C6.57679 46.6456 5.87375 46.3312 5.36328 45.8224C4.85452 45.3119 4.54004 44.6089 4.54004 43.8316C4.54004 42.277 5.7995 41.0176 7.35407 41.0176H13.2471C11.6925 41.0176 10.433 42.277 10.433 43.8316Z" fill="#FFA000"/>
<path d="M10.4333 26.1368C10.4333 26.9141 10.7478 27.6171 11.2565 28.1259C11.767 28.6363 12.47 28.9508 13.2473 28.9508H7.35432C6.57703 28.9508 5.874 28.6363 5.36352 28.1259C4.85476 27.6171 4.54028 26.9141 4.54028 26.1368C4.54028 24.5822 5.79975 23.3228 7.35432 23.3228H13.2473C11.6927 23.3228 10.4333 24.5822 10.4333 26.1368Z" fill="#FFA000"/>
<path d="M83.3759 66.0857L79.9048 69.5585H10.0811C6.58578 69.5585 3.7522 66.7249 3.7522 63.2296V56.7512C3.7522 53.2559 6.58578 50.4224 10.0811 50.4224H80.2582L83.3761 52.83C81.6908 54.2256 80.6893 56.1015 80.3695 58.0693C79.9012 60.9576 80.9028 64.04 83.3759 66.0857Z" fill="#ECF4FF"/>
<path d="M70.1361 51.9148V60.8497C70.1361 61.9686 68.9508 62.6894 67.9572 62.175L62.8522 59.5309C62.4216 59.308 61.9097 59.308 61.4792 59.5309L56.3762 62.1747C55.3827 62.6893 54.1973 61.9684 54.1973 60.8496V51.915C54.1973 51.0907 54.8655 50.4225 55.6898 50.4225H68.6438C69.4679 50.4223 70.1361 51.0905 70.1361 51.9148Z" fill="#BAC0C9"/>
<path d="M83.3758 52.83C81.6906 54.2256 80.689 56.1015 80.3692 58.0693H3.75195V54.4487C3.75195 52.2251 5.55464 50.4224 7.7783 50.4224H80.2579L83.3758 52.83Z" fill="#BAC0C9"/>
<path d="M6.18473 59.2959C6.09539 63.0244 9.10199 66.0873 12.8123 66.0873H84.7024C86.4098 66.0873 87.7937 67.4712 87.7937 69.1786C87.7937 70.8859 86.4098 72.2699 84.7024 72.2699H12.8123C9.27398 72.2699 6.07139 70.8355 3.75205 68.5162C1.42517 66.1895 -0.0112508 62.9706 6.63842e-05 59.4156C0.0228722 52.3247 5.91192 46.6454 13.0028 46.6454H84.7024C86.4098 46.6454 87.7937 48.0293 87.7937 49.7367C87.7937 51.444 86.4098 52.828 84.7024 52.828H12.9368C9.31719 52.8282 6.27133 55.6775 6.18473 59.2959Z" fill="#D7E9FC"/>
<path d="M4.9346 59.4154C4.95741 52.3245 10.8465 46.6451 17.9374 46.6451H13.0031C5.91217 46.6451 0.0231184 52.3245 0.000312536 59.4154C-0.0111761 62.9703 1.42542 66.1892 3.7523 68.5159C6.07163 70.8353 9.27422 72.2696 12.8126 72.2696H17.7468C14.2085 72.2696 11.0059 70.8353 8.68659 68.5159C6.35971 66.1892 4.92311 62.9703 4.9346 59.4154Z" fill="#128ACB"/>
<path d="M72.7841 36.7338V56.4879C72.7841 57.6422 71.561 58.3861 70.5361 57.8552L65.7268 55.3642C65.1543 55.0678 64.4733 55.0678 63.9008 55.3644L59.0934 57.855C58.0683 58.3861 56.8452 57.6421 56.8452 56.4877V36.7338H72.7841Z" fill="#FF5B6E"/>
<path d="M56.8452 36.7338H72.7841V42.3882H56.8452V36.7338Z" fill="#D62127"/>
</svg>
