<svg width="79" height="79" viewBox="0 0 79 79" fill="none" xmlns="http://www.w3.org/2000/svg">
<path d="M55.6185 38.2004L60.9888 35.0993L54.0454 23.0705L48.6277 26.2008C47.9248 25.715 47.188 25.2877 46.4218 24.9216V18.6699H32.535V24.9217C31.7688 25.2879 31.032 25.7151 30.3291 26.201L24.9114 23.0706L17.968 35.0995L23.3383 38.2005C23.2569 39.1055 23.2572 39.8982 23.3383 40.7998L17.968 43.9009L24.9114 55.9297L30.3291 52.7993C31.032 53.2852 31.7688 53.7124 32.535 54.0786V60.3301H46.4218V54.0783C47.188 53.7121 47.9248 53.2849 48.6277 52.799L54.0454 55.9294L60.9888 43.9005L55.6185 40.7995C55.6998 39.8947 55.6996 39.1019 55.6185 38.2004ZM39.4782 46.4434C35.6495 46.4434 32.5349 43.3287 32.5349 39.5C32.5349 35.6713 35.6495 32.5566 39.4782 32.5566C43.307 32.5566 46.4216 35.6713 46.4216 39.5C46.4216 43.3287 43.3071 46.4434 39.4782 46.4434Z" fill="#CFD7E6"/>
<path d="M32.5642 6.91173L35.837 10.1845L37.1636 8.85865V14.041H41.7925V8.85865L43.1193 10.1845L46.3921 6.91173L39.4781 0L32.5642 6.91173Z" fill="#FFDF40"/>
<path d="M41.7925 70.1414V64.959H37.1636V70.1414L35.837 68.8155L32.5642 72.0883L39.4781 79L46.3921 72.0883L43.1193 68.8155L41.7925 70.1414Z" fill="#FFDF40"/>
<path d="M21.4758 16.256V11.6271H11.698V21.4049H16.3269V19.5288L19.9049 23.1068L23.1777 19.834L19.5997 16.256H21.4758Z" fill="#FFDF40"/>
<path d="M62.6294 59.2858L59.1825 55.8391L55.9099 59.1117L59.3566 62.5586H57.4807V67.1875H67.2583V57.4099H62.6294V59.2858Z" fill="#FFBE40"/>
<path d="M72.0882 32.4934L68.8155 35.7662L70.1413 37.0928H65.0298V41.7217H70.1413L68.8155 43.0485L72.0882 46.3213L79 39.4073L72.0882 32.4934Z" fill="#FFBE40"/>
<path d="M14.1118 41.7217V37.0928H8.85865L10.1845 35.7662L6.91173 32.4934L0 39.4073L6.91173 46.3213L10.1845 43.0485L8.85865 41.7217H14.1118Z" fill="#FFDF40"/>
<path d="M19.9049 55.708L16.3269 59.2858V57.4099H11.698V67.1875H21.4758V62.5586H19.5997L23.1777 58.9808L19.9049 55.708Z" fill="#FFDF40"/>
<path d="M59.1825 22.9756L62.6294 19.5288V21.4049H67.2583V11.6271H57.4807V16.256H59.3566L55.9099 19.7028L59.1825 22.9756Z" fill="#FFBE40"/>
<path d="M55.6183 38.2004L60.9886 35.0993L54.0453 23.0705L48.6276 26.2008C47.9246 25.715 47.1879 25.2877 46.4216 24.9216V18.6699H39.4783V32.5566C43.307 32.5566 46.4216 35.6713 46.4216 39.5C46.4216 43.3287 43.307 46.4434 39.4783 46.4434V60.3301H46.4216V54.0783C47.1879 53.7121 47.9246 53.2849 48.6276 52.799L54.0453 55.9294L60.9886 43.9005L55.6183 40.7995C55.6997 39.8947 55.6994 39.1019 55.6183 38.2004Z" fill="#A3B1CC"/>
<path d="M43.1193 68.8155L41.7925 70.1414V64.959H39.478V79L46.3921 72.0883L43.1193 68.8155Z" fill="#FFBE40"/>
<path d="M41.7927 14.041V8.85865L43.1195 10.1845L46.3923 6.91173L39.4783 0V14.041H41.7927Z" fill="#FFBE40"/>
</svg>
