<svg width="103" height="80" viewBox="0 0 103 80" fill="none" xmlns="http://www.w3.org/2000/svg">
<path d="M83.8785 64.0511H102.291L93.0917 48.0954H74.6653L83.8785 64.0511Z" fill="#A2A3A2"/>
<path d="M47.0396 64.0512H65.4591L74.6654 80H93.0918L65.4591 32.1466H47.0396L56.2459 48.0954H37.8264L47.0396 64.0512Z" fill="#DF0635"/>
<path d="M0.973389 80H19.4067L56.2457 16.1908L47.0394 0.235107L0.973389 80Z" fill="#DF0635"/>
<path d="M67.8191 17.7023C67.8013 15.9391 68.3072 14.2103 69.2726 12.7348C70.238 11.2592 71.6196 10.1034 73.2423 9.41348C74.865 8.72359 76.656 8.53073 78.3884 8.8593C80.1208 9.18788 81.7167 10.0231 82.9741 11.2593C84.2316 12.4954 85.0939 14.0769 85.452 15.8034C85.8101 17.53 85.6478 19.3239 84.9858 20.9582C84.3237 22.5925 83.1915 23.9935 81.7327 24.984C80.2739 25.9744 78.5539 26.5097 76.7907 26.5221C75.6185 26.547 74.4532 26.337 73.3634 25.9045C72.2736 25.4719 71.2815 24.8257 70.4454 24.0037C69.6093 23.1818 68.9462 22.2008 68.4951 21.1185C68.0441 20.0363 67.8142 18.8747 67.8191 17.7023ZM76.7907 25.0521C77.746 25.0555 78.6921 24.866 79.5724 24.4948C80.4526 24.1237 81.2488 23.5786 81.9133 22.8922C82.5777 22.2059 83.0967 21.3924 83.4391 20.5006C83.7815 19.6087 83.9403 18.657 83.9059 17.7023C83.9357 16.7461 83.773 15.7936 83.4276 14.9014C83.0822 14.0093 82.5611 13.1956 81.8952 12.5087C81.2293 11.8217 80.4322 11.2756 79.5512 10.9026C78.6702 10.5297 77.7232 10.3375 76.7666 10.3375C75.8099 10.3375 74.8629 10.5297 73.9819 10.9026C73.1009 11.2756 72.3038 11.8217 71.6379 12.5087C70.972 13.1956 70.4509 14.0093 70.1055 14.9014C69.7601 15.7936 69.5975 16.7461 69.6272 17.7023C69.5909 18.6599 69.7486 19.615 70.0909 20.5101C70.4331 21.4052 70.9528 22.2219 71.6187 22.911C72.2847 23.6001 73.083 24.1475 73.9659 24.5202C74.8488 24.8929 75.7979 25.0832 76.7562 25.0797L76.7907 25.0521ZM74.9274 22.7954H73.3953V12.6575H77.2531C79.6478 12.6575 80.8348 13.5408 80.8348 15.5422C80.8348 17.3572 79.6961 18.144 78.2055 18.3027L81.0902 22.7678H79.3373L76.6596 18.3786H74.8929L74.9274 22.7954ZM76.7631 17.1019C78.0674 17.1019 79.2338 17.0053 79.2338 15.4456C79.2338 14.1895 78.0881 13.9618 77.0184 13.9618H74.9481V17.1019H76.7631Z" fill="#A2A3A2"/>
</svg>
