<svg width="78" height="83" viewBox="0 0 78 83" fill="none" xmlns="http://www.w3.org/2000/svg">
<path d="M72.2252 55.7874C65.8171 65.987 55.394 70.6583 45.9239 70.6583C32.7133 70.6583 32.0446 60.8268 23.5948 60.2564C12.5253 59.5069 7.98757 69.7413 9.1019 77.4603C9.30415 78.8588 9.60113 80.2413 10.0016 81.5924C10.1237 82.004 9.80555 82.4133 9.36258 82.4133H1.62274C1.31944 82.4133 1.05209 82.216 0.977182 81.9321C-0.399993 76.7036 -0.413144 71.4002 1.52785 65.9656C4.52108 57.585 13.871 50.6073 23.5502 50.3236C28.1428 50.1892 33.3475 50.5425 36.7248 47.5295C38.878 45.6093 39.6579 42.636 39.8397 39.8089C40.0197 36.9815 39.7094 34.1244 40.1517 31.3254C40.9118 26.5274 44.0117 22.1386 48.3173 19.6606C48.7298 19.4231 48.7004 18.8429 48.2646 18.6483C44.4855 16.9601 41.3344 13.9702 39.5431 10.3324C38.0572 7.31531 37.5183 3.87665 37.9643 0.564016C38.0078 0.241928 38.2906 0 38.6267 0H46.815C47.1947 0 47.4977 0.305348 47.4798 0.671862C47.3428 3.5045 48.0145 7.28457 51.2691 9.99407C56.6265 14.4513 73.072 12.3918 77.2362 30.0669C79.3413 38.9963 76.1596 49.5259 72.2252 55.7874Z" fill="#FF5B6E"/>
<path d="M19.8448 60.4472C19.4022 60.3551 18.9381 60.2895 18.4469 60.2563C7.37735 59.5069 2.83965 69.7412 3.95398 77.4602C4.19735 79.1432 4.57806 80.8031 5.11108 82.4133H9.36246C9.80543 82.4133 10.1235 82.0038 10.0015 81.5923C9.60101 80.2411 9.30403 78.8586 9.10178 77.4602C8.12312 70.6801 11.5059 61.9604 19.8448 60.4472Z" fill="#DB2E43"/>
<path d="M77.2364 30.0669C73.0722 12.3918 56.6267 14.4513 51.2693 9.99407C48.0149 7.28457 47.3432 3.5045 47.4802 0.671862C47.4978 0.305348 47.1949 0 46.8151 0H42.3807C42.103 2.88205 42.6019 7.06405 46.1213 9.99407C51.4787 14.4513 67.9242 12.3918 72.0884 30.0669C74.1935 38.9963 71.0118 49.5261 67.0774 55.7874C61.2711 65.0293 52.1684 69.7322 43.4654 70.534C44.2346 70.6143 45.0513 70.6584 45.9242 70.6584C55.3942 70.6584 65.8173 65.9872 72.2256 55.7874C76.1598 49.526 79.3415 38.9963 77.2364 30.0669Z" fill="#DB2E43"/>
</svg>
