<svg width="24" height="48" viewBox="0 0 24 48" fill="none" xmlns="http://www.w3.org/2000/svg">
<path d="M12.0949 48C11.6736 48 11.333 47.6594 11.333 47.2381V45.7143C11.333 45.2929 11.6736 44.9524 12.0949 44.9524C12.5162 44.9524 12.8568 45.2929 12.8568 45.7143V47.2381C12.8568 47.6594 12.5162 48 12.0949 48Z" fill="#AAB2BD"/>
<path d="M13.6189 37.9909V38.7566V44.9524C13.6189 45.3714 13.2761 45.7143 12.857 45.7143C12.438 45.7143 11.7522 45.7143 11.3332 45.7143C10.9141 45.7143 10.5713 45.3714 10.5713 44.9524V38.7566C10.5713 38.3375 10.5713 37.9931 10.5713 37.9909C10.5713 37.9886 10.7976 38.0107 11.0741 38.0396C11.3507 38.0693 12.3267 38.0853 12.6094 38.0739C12.8921 38.064 13.6189 37.9886 13.6189 37.9909Z" fill="#CCD1D9"/>
<path d="M12.0951 0C5.7865 0 0.666504 5.11238 0.666504 11.4286V25.1429C0.666504 31.4514 5.7865 36.5714 12.0951 36.5714C18.4036 36.5714 23.5236 31.4514 23.5236 25.1429V11.4286C23.5236 5.11238 18.4036 0 12.0951 0Z" fill="#656D78"/>
<path d="M15.9049 27.4292C17.1696 27.4292 18.1906 28.4502 18.1906 29.7149C18.1906 30.9797 17.1696 32.0007 15.9049 32.0007C14.6401 32.0007 13.6191 30.9797 13.6191 29.7149C13.6191 28.4502 14.6401 27.4292 15.9049 27.4292Z" fill="#545C66"/>
<path d="M8.28571 27.4292C9.55048 27.4292 10.5714 28.4502 10.5714 29.7149C10.5714 30.9797 9.55048 32.0007 8.28571 32.0007C7.02095 32.0007 6 30.9797 6 29.7149C6 28.4502 7.02095 27.4292 8.28571 27.4292Z" fill="#545C66"/>
<path d="M15.9049 26.6667C17.1696 26.6667 18.1906 27.6876 18.1906 28.9524C18.1906 30.2171 17.1696 31.2381 15.9049 31.2381C14.6401 31.2381 13.6191 30.2171 13.6191 28.9524C13.6191 27.6876 14.6401 26.6667 15.9049 26.6667Z" fill="#AAB2BD"/>
<path d="M23.5236 28.1905C23.5236 33.9809 19.2113 38.7733 13.6189 39.5124C13.1236 39.5809 12.6132 39.619 12.0951 39.619C11.577 39.619 11.0665 39.5809 10.5713 39.5124C4.97888 38.7733 0.666504 33.9809 0.666504 28.1905V25.1429C0.666504 31.4514 5.7865 36.5714 12.0951 36.5714C18.4036 36.5714 23.5236 31.4514 23.5236 25.1429V28.1905Z" fill="#545C66"/>
<path d="M8.28571 26.6667C9.55048 26.6667 10.5714 27.6876 10.5714 28.9524C10.5714 30.2171 9.55048 31.2381 8.28571 31.2381C7.02095 31.2381 6 30.2171 6 28.9524C6 27.6876 7.02095 26.6667 8.28571 26.6667Z" fill="#AAB2BD"/>
<path d="M19.7144 9.90477C20.1334 9.90477 20.4763 10.2476 20.4763 10.6667V22.8572C20.4763 23.2762 20.1334 23.6191 19.7144 23.6191H4.47626C4.05721 23.6191 3.71436 23.2762 3.71436 22.8572V10.6667C3.71436 10.2476 4.05721 9.90477 4.47626 9.90477H19.7144Z" fill="#008BD2"/>
<path d="M7.52216 17.5238C7.10083 17.5238 6.76025 17.1832 6.76025 16.7619V14.4762C6.76025 14.0549 7.10083 13.7143 7.52216 13.7143C7.94349 13.7143 8.28406 14.0549 8.28406 14.4762V16.7619C8.28406 17.1832 7.94349 17.5238 7.52216 17.5238Z" fill="#E6E9ED"/>
<path d="M9.80738 17.5238H7.52167C7.10034 17.5238 6.75977 17.1833 6.75977 16.7619C6.75977 16.3406 7.10034 16 7.52167 16H9.80738C10.2287 16 10.5693 16.3406 10.5693 16.7619C10.5693 17.1833 10.2287 17.5238 9.80738 17.5238Z" fill="#E6E9ED"/>
<path d="M9.80731 19.8095C9.38598 19.8095 9.04541 19.469 9.04541 19.0476V14.4762C9.04541 14.0549 9.38598 13.7143 9.80731 13.7143C10.2286 13.7143 10.5692 14.0549 10.5692 14.4762V19.0476C10.5692 19.469 10.2286 19.8095 9.80731 19.8095Z" fill="#E6E9ED"/>
<path d="M16.6697 15.2381H14.384C13.9626 15.2381 13.6221 14.8975 13.6221 14.4762C13.6221 14.0549 13.9626 13.7143 14.384 13.7143H16.6697C17.091 13.7143 17.4316 14.0549 17.4316 14.4762C17.4316 14.8975 17.091 15.2381 16.6697 15.2381Z" fill="#E6E9ED"/>
<path d="M14.384 17.5246C13.9626 17.5246 13.6221 17.1832 13.6221 16.7627V14.4762C13.6221 14.0549 13.9626 13.7143 14.384 13.7143C14.8053 13.7143 15.1459 14.0549 15.1459 14.4762V16.7627C15.1459 17.1832 14.8053 17.5246 14.384 17.5246Z" fill="#E6E9ED"/>
<path d="M16.6697 17.5245H14.384C13.9626 17.5245 13.6221 17.1831 13.6221 16.7626C13.6221 16.342 13.9626 16.0007 14.384 16.0007H16.6697C17.091 16.0007 17.4316 16.342 17.4316 16.7626C17.4316 17.1831 17.091 17.5245 16.6697 17.5245Z" fill="#E6E9ED"/>
<path d="M16.6691 19.8094C16.2478 19.8094 15.9072 19.4688 15.9072 19.0475V16.7626C15.9072 16.342 16.2478 16.0007 16.6691 16.0007C17.0905 16.0007 17.431 16.342 17.431 16.7626V19.0475C17.431 19.4688 17.0905 19.8094 16.6691 19.8094Z" fill="#E6E9ED"/>
<path d="M16.6697 19.8095H14.384C13.9626 19.8095 13.6221 19.469 13.6221 19.0476C13.6221 18.6263 13.9626 18.2857 14.384 18.2857H16.6697C17.091 18.2857 17.4316 18.6263 17.4316 19.0476C17.4316 19.469 17.091 19.8095 16.6697 19.8095Z" fill="#E6E9ED"/>
<path d="M12.1178 19.8095C11.6964 19.8095 11.3521 19.469 11.3521 19.0476C11.3521 18.6263 11.6888 18.2857 12.1094 18.2857H12.1178C12.5383 18.2857 12.8797 18.6263 12.8797 19.0476C12.8797 19.469 12.5383 19.8095 12.1178 19.8095V19.8095Z" fill="#E6E9ED"/>
</svg>
