<svg width="63" height="82" viewBox="0 0 63 82" fill="none" xmlns="http://www.w3.org/2000/svg">
<path d="M5.86268 59.2195C2.02694 53.8845 0 47.5854 0 41.0001C0 34.4148 2.02694 28.1157 5.86268 22.7808L9.76184 25.5867C6.51964 30.0981 4.80469 35.4283 4.80469 41.0001C4.80469 46.572 6.51964 51.9021 9.76184 56.4136L5.86268 59.2195Z" fill="#008BD2"/>
<path d="M56.5984 59.2195L52.6992 56.4136C55.9414 51.9021 57.6564 46.572 57.6564 41.0001C57.6564 35.4283 55.9414 30.0981 52.6992 25.5867L56.5984 22.7808C60.4341 28.1157 62.4611 34.4148 62.4611 41.0001C62.4611 47.5854 60.4341 53.8845 56.5984 59.2195Z" fill="#008BD2"/>
<path d="M31.2303 38.5049C35.4456 37.207 39.376 36.7536 42.2801 36.4416C46.2731 36.01 48.9099 35.7261 49.9188 33.4293C50.8642 31.2849 49.2877 29.1407 48.6942 28.3337C45.1282 23.4845 43.242 17.9409 43.242 12.3032V0H31.2303H19.2186V12.3032C19.2186 17.9407 17.3324 23.4844 13.7664 28.3337C10.9793 32.1249 10.2003 35.2968 11.4508 37.7648C13.0157 40.8616 16.7787 41 16.8162 41C21.5906 41 26.6807 39.9033 31.2303 38.5049Z" fill="#FED19A"/>
<path d="M51.0096 44.2352C49.4447 41.1384 45.6817 41 45.6442 41C40.8698 41 35.7797 42.0968 31.2302 43.4951C27.0149 44.793 23.0845 45.2467 20.1804 45.5584C16.1873 45.99 13.5505 46.2739 12.5417 48.5707C11.5963 50.7151 13.1727 52.8593 13.7663 53.6663C17.3323 58.5155 19.2185 64.0591 19.2185 69.6968V82H31.2302H43.2419V69.6968C43.2419 64.0593 45.1281 58.5156 48.6941 53.6663C51.4811 49.8751 52.2601 46.7032 51.0096 44.2352Z" fill="#FED19A"/>
<path d="M49.9189 33.4293C50.8643 31.2849 49.2879 29.1407 48.6944 28.3337C45.1283 23.4845 43.2422 17.9409 43.2422 12.3032V0H31.2305V38.5049C35.4458 37.207 39.3762 36.7536 42.2803 36.4416C46.2733 36.01 48.9103 35.7261 49.9189 33.4293Z" fill="#F4BB87"/>
<path d="M43.2422 69.6968C43.2422 64.0593 45.1284 58.5156 48.6944 53.6663C51.4814 49.8751 52.2604 46.7032 51.0099 44.2352C49.445 41.1384 45.682 41 45.6445 41C40.87 41 35.7802 42.0968 31.2305 43.4951V82H43.2422V69.6968Z" fill="#F4BB87"/>
</svg>
