<svg width="29" height="40" viewBox="0 0 29 40" fill="none" xmlns="http://www.w3.org/2000/svg">
<path fill-rule="evenodd" clip-rule="evenodd" d="M21.7392 29.4668C26.1978 22.6078 28.459 17.4961 28.459 14.2749C28.459 6.42875 22.0757 0.0454102 14.2295 0.0454102C6.38334 0.0454102 0 6.42875 0 14.2749C0 17.4961 2.2612 22.6078 6.71985 29.4667C9.90403 34.3645 13.1319 38.468 13.3081 38.6919C13.3122 38.6972 13.3146 38.7003 13.3154 38.7012L14.2295 39.8548L15.1436 38.7013C15.1444 38.7004 15.1468 38.6973 15.1509 38.6921C15.3265 38.4688 18.5547 34.3649 21.7392 29.4668ZM22.1944 13.9598C22.1944 18.3588 18.6283 21.9249 14.2293 21.9249C9.83027 21.9249 6.26416 18.3588 6.26416 13.9598C6.26416 9.56074 9.83027 5.99463 14.2293 5.99463C18.6283 5.99463 22.1944 9.56074 22.1944 13.9598Z" fill="white"/>
</svg>
