<svg width="38" height="39" viewBox="0 0 38 39" fill="none" xmlns="http://www.w3.org/2000/svg">
<path d="M17.0443 10.7323L6.85727 0.546265L4.75021 2.65333L14.937 12.8401L17.0443 10.7323Z" fill="white"/>
<path d="M3.33519 4.06672L1.74375 5.65816C0.746616 6.65529 0.175461 7.99721 0.0346146 9.61187C0.0218239 9.75848 0.0125847 9.90734 0.00689316 10.0584C0.00231171 10.1797 0 10.3024 0 10.4265C0 12.0255 0.380226 13.8536 1.14379 15.854C2.74172 20.0383 5.85623 24.5765 9.91281 28.6331C13.9214 32.6417 18.4131 35.7382 22.56 37.3514C26.9814 39.0713 30.595 38.9293 32.7357 36.9512L32.7685 36.9206L34.4788 35.2103L24.2914 25.0229L22.8641 26.4502C20.8195 25.0994 18.835 23.4687 16.954 21.592L16.9541 21.5909C16.9393 21.5771 16.9249 21.5628 16.9105 21.5484L16.9075 21.5455C15.0484 19.6864 13.4269 17.7227 12.0778 15.6999L13.5231 14.2546L3.33519 4.06672Z" fill="white"/>
<path d="M37.9991 31.6882L27.8121 21.5022L25.7056 23.6087L35.8921 33.7952L37.9991 31.6882Z" fill="white"/>
</svg>
