<svg width="191" height="64" viewBox="0 0 191 64" fill="none" xmlns="http://www.w3.org/2000/svg">
<path d="M190.084 22.043C190.087 22.1119 190.074 22.1806 190.045 22.2435C190.016 22.3064 189.973 22.3617 189.918 22.4047C189.765 22.5087 189.587 22.5711 189.402 22.5855C189.059 22.6091 188.714 22.6091 188.371 22.5855C188.009 22.6113 187.646 22.6113 187.285 22.5855C187.116 22.5728 186.955 22.5097 186.824 22.4047C186.775 22.3582 186.736 22.3019 186.711 22.2395C186.685 22.1771 186.674 22.1101 186.677 22.043V20.9038C186.093 21.5162 185.4 22.0186 184.633 22.3866C183.824 22.7489 182.943 22.9281 182.055 22.911C181.338 22.9213 180.624 22.8238 179.937 22.6217C179.316 22.4445 178.739 22.1428 178.243 21.7356C177.761 21.3483 177.382 20.8519 177.138 20.2891C176.869 19.6471 176.737 18.9578 176.751 18.2638C176.73 17.5054 176.901 16.7537 177.249 16.0759C177.595 15.4454 178.111 14.9201 178.74 14.557C179.494 14.1154 180.324 13.8149 181.189 13.671C182.318 13.4633 183.466 13.3664 184.614 13.3817H186.032V12.5137C186.041 12.1121 185.998 11.7111 185.903 11.3203C185.818 11.0117 185.66 10.7269 185.443 10.4885C185.213 10.2469 184.92 10.0717 184.596 9.9822C184.165 9.86442 183.718 9.80959 183.27 9.81946C182.648 9.80909 182.027 9.88829 181.429 10.0545C180.944 10.181 180.47 10.3443 180.011 10.5427C179.65 10.6899 179.3 10.859 178.961 11.0491C178.755 11.1734 178.521 11.2477 178.28 11.266C178.166 11.2662 178.055 11.2279 177.967 11.1575C177.864 11.0672 177.782 10.9562 177.727 10.8321C177.662 10.6447 177.618 10.4505 177.598 10.2534C177.579 10.0248 177.579 9.79494 177.598 9.56631C177.594 9.30427 177.625 9.04278 177.69 8.78878C177.744 8.58901 177.852 8.40755 178.004 8.26439C178.233 8.0485 178.501 7.87677 178.795 7.75809C179.227 7.54614 179.677 7.37071 180.14 7.23371C180.689 7.06525 181.249 6.93236 181.815 6.8359C183.413 6.56902 185.05 6.63059 186.622 7.01672C187.361 7.19751 188.048 7.5441 188.629 8.02933C189.178 8.51227 189.574 9.13988 189.771 9.83754C190.028 10.6633 190.152 11.5236 190.139 12.3871V22.0249L190.084 22.043ZM186.032 15.9132H184.467C183.899 15.9075 183.332 15.9559 182.773 16.0578C182.361 16.1264 181.967 16.2738 181.613 16.4918C181.338 16.6664 181.115 16.9099 180.968 17.197C180.832 17.4859 180.763 17.8009 180.766 18.1192C180.751 18.3852 180.796 18.6512 180.898 18.8982C180.999 19.1451 181.156 19.3669 181.355 19.5477C181.805 19.909 182.377 20.0898 182.957 20.054C183.522 20.0603 184.077 19.9098 184.559 19.62C185.112 19.2733 185.609 18.8466 186.032 18.3543V15.9132ZM184.596 0.633709C184.668 0.515194 184.761 0.410928 184.872 0.326311C184.991 0.231849 185.129 0.163967 185.277 0.127407C185.481 0.0658338 185.691 0.0293883 185.903 0.0189142H186.824C187.217 -0.00630474 187.61 -0.00630474 188.003 0.0189142C188.221 0.0387738 188.434 0.100187 188.629 0.199736C188.682 0.228036 188.728 0.269617 188.76 0.320362C188.792 0.371107 188.811 0.429256 188.813 0.489051C188.789 0.610198 188.731 0.722634 188.647 0.814531L185.461 4.55754C185.385 4.6507 185.299 4.73556 185.204 4.8107C185.102 4.88527 184.99 4.94609 184.872 4.99152L184.357 5.08193H183.565C183.264 5.10531 182.963 5.10531 182.662 5.08193C182.496 5.0609 182.334 5.01198 182.184 4.93727C182.147 4.90277 182.12 4.86005 182.104 4.8128C182.087 4.76556 182.083 4.71519 182.092 4.66604C182.122 4.53021 182.178 4.4013 182.257 4.28631L184.596 0.669873V0.633709ZM15.4567 62.1132C15.484 62.2139 15.484 62.3198 15.4567 62.4206C15.3642 62.525 15.2426 62.6005 15.1068 62.6375C14.8811 62.7161 14.6458 62.7648 14.407 62.7822C14.0329 62.8046 13.6578 62.8046 13.2837 62.7822C12.7481 62.7959 12.2122 62.7656 11.6816 62.6918C11.4458 62.6621 11.2194 62.5819 11.0187 62.4567C10.8895 62.352 10.7831 62.2229 10.7057 62.077L4.31574 52.2403V62.1132C4.32514 62.2178 4.29204 62.3217 4.22367 62.4025C4.13125 62.5069 4.00957 62.5824 3.87379 62.6195C3.66616 62.6946 3.44954 62.7433 3.22927 62.7641C2.87975 62.7861 2.52915 62.7861 2.17963 62.7641C1.83626 62.7862 1.49178 62.7862 1.14841 62.7641C0.912866 62.772 0.67736 62.7476 0.448651 62.6918C0.314864 62.6504 0.1943 62.5757 0.0987669 62.4748C0.0303955 62.3941 -0.00269964 62.2901 0.00669462 62.1855V42.5121C-0.00269964 42.4075 0.0303955 42.3035 0.0987669 42.2228C0.1943 42.1219 0.314864 42.0471 0.448651 42.0058C0.671207 41.9426 0.899331 41.9002 1.12999 41.8792C1.47337 41.8571 1.81785 41.8571 2.16122 41.8792C2.51074 41.8572 2.86134 41.8572 3.21086 41.8792C3.4289 41.9038 3.64448 41.9461 3.85537 42.0058C3.99116 42.0428 4.11283 42.1183 4.20525 42.2228C4.27362 42.3035 4.30673 42.4075 4.29733 42.5121V51.3723L10.5031 42.5301C10.5741 42.4007 10.6676 42.2845 10.7793 42.1866C10.9057 42.0893 11.0493 42.0158 11.2029 41.9696C11.4251 41.9086 11.6537 41.8722 11.8842 41.8611H12.9338C13.2895 41.8391 13.6462 41.8391 14.0019 41.8611C14.2326 41.8822 14.4607 41.9245 14.6832 41.9877C14.8146 42.0341 14.934 42.1082 15.0331 42.2047C15.1034 42.2854 15.1425 42.3878 15.1436 42.494C15.1406 42.6897 15.0901 42.8819 14.9963 43.0545C14.8858 43.2534 14.7017 43.5608 14.4254 43.9767L8.62479 51.4447L14.9595 60.8836C15.1321 61.1634 15.2741 61.4604 15.383 61.7696C15.4054 61.8831 15.4054 61.9997 15.383 62.1132H15.4567ZM22.1964 62.1132C22.2022 62.2173 22.1695 62.32 22.1044 62.4025C22.0096 62.4912 21.8965 62.559 21.7729 62.6014C21.5696 62.663 21.3593 62.6994 21.1468 62.7099C20.8096 62.7315 20.4712 62.7315 20.134 62.7099C19.8029 62.7319 19.4707 62.7319 19.1396 62.7099C18.9269 62.701 18.7164 62.6645 18.5135 62.6014C18.3857 62.5681 18.2705 62.499 18.182 62.4025C18.1117 62.3218 18.0726 62.2194 18.0716 62.1132V40.9932C18.0692 40.8864 18.1087 40.7828 18.182 40.7038C18.2635 40.5959 18.3807 40.5192 18.5135 40.4869C18.714 40.4092 18.9249 40.3604 19.1396 40.3422C19.4707 40.3202 19.8029 40.3202 20.134 40.3422C20.4712 40.3206 20.8096 40.3206 21.1468 40.3422C21.3611 40.3628 21.5717 40.4114 21.7729 40.4869C21.9012 40.5287 22.0157 40.6037 22.1044 40.7038C22.1727 40.7846 22.2058 40.8886 22.1964 40.9932V62.1674V62.1132ZM30.4278 62.1132C30.4615 62.2068 30.4615 62.3089 30.4278 62.4025C30.343 62.524 30.2292 62.6233 30.0964 62.6918C29.8931 62.7534 29.6827 62.7898 29.4703 62.8003C29.133 62.8219 28.7947 62.8219 28.4575 62.8003C28.1264 62.8223 27.7941 62.8223 27.4631 62.8003C27.2506 62.7898 27.0403 62.7534 26.837 62.6918C26.7092 62.6585 26.594 62.5894 26.5055 62.4929C26.4352 62.4122 26.3961 62.3098 26.395 62.2036V47.8644C26.3932 47.8141 26.4021 47.764 26.4211 47.7173C26.4401 47.6706 26.4689 47.6283 26.5055 47.5932C26.587 47.4852 26.7042 47.4085 26.837 47.3762C27.0415 47.3162 27.251 47.2739 27.4631 47.2496C27.7941 47.2276 28.1264 47.2276 28.4575 47.2496C28.7947 47.228 29.133 47.228 29.4703 47.2496C29.6823 47.2739 29.8918 47.3162 30.0964 47.3762C30.2246 47.4181 30.3391 47.493 30.4278 47.5932C30.4637 47.6801 30.4637 47.7774 30.4278 47.8644V62.1674V62.1132ZM30.7409 42.928C30.7751 43.2266 30.7487 43.5289 30.6634 43.8176C30.5781 44.1062 30.4354 44.3753 30.2437 44.6096C29.7059 44.9755 29.0534 45.1421 28.4022 45.0797C27.7022 45.1845 26.9882 45.0157 26.4134 44.6096C26.2229 44.389 26.0805 44.1323 25.995 43.8555C25.9095 43.5787 25.8827 43.2877 25.9162 43.0003C25.8799 42.6974 25.907 42.3905 25.9956 42.0982C26.0843 41.806 26.2327 41.5346 26.4318 41.3006C26.9635 40.9207 27.6192 40.7469 28.2733 40.8123C28.9243 40.7515 29.5764 40.918 30.1148 41.2825C30.4814 41.7444 30.6529 42.3271 30.5936 42.9099L30.7409 42.928ZM48.5111 62.1674C48.5448 62.261 48.5448 62.3631 48.5111 62.4567C48.4226 62.5532 48.3074 62.6223 48.1796 62.6556C47.9772 62.7205 47.7664 62.757 47.5535 62.7641C47.2225 62.7861 46.8902 62.7861 46.5591 62.7641C46.228 62.7858 45.8958 62.7858 45.5647 62.7641C45.3168 62.7798 45.068 62.7554 44.8282 62.6918C44.7004 62.6585 44.5852 62.5894 44.4967 62.4929C44.463 62.3993 44.463 62.2972 44.4967 62.2036V53.9943C44.5129 53.4411 44.4572 52.8881 44.331 52.3488C44.2392 51.9904 44.09 51.6486 43.889 51.3362C43.6912 51.054 43.4256 50.8242 43.1156 50.6671C42.7768 50.5074 42.4049 50.4269 42.0291 50.4321C41.4556 50.4572 40.9034 50.6527 40.4455 50.9926C39.8151 51.4657 39.2515 52.0191 38.7697 52.6381V62.1674C38.7754 62.2716 38.7427 62.3743 38.6776 62.4567C38.5828 62.5454 38.4698 62.6132 38.3462 62.6556C38.1429 62.7172 37.9325 62.7536 37.7201 62.7641C37.3828 62.7863 37.0445 62.7863 36.7073 62.7641C36.3438 62.766 35.9807 62.7418 35.6208 62.6918C35.4083 62.6813 35.198 62.6449 34.9947 62.5833C34.8669 62.55 34.7517 62.4809 34.6632 62.3844C34.5929 62.3037 34.5538 62.2013 34.5527 62.0951V47.8282C34.5266 47.7396 34.5266 47.6456 34.5527 47.557C34.6247 47.4594 34.7288 47.3892 34.8474 47.3581C35.0272 47.2993 35.2121 47.2569 35.3998 47.2315H36.2469H37.1124C37.2891 47.2519 37.4623 47.2944 37.628 47.3581C37.7392 47.394 37.8359 47.4636 37.9042 47.557C37.9303 47.6456 37.9303 47.7396 37.9042 47.8282V49.4918C38.6076 48.72 39.435 48.0664 40.3534 47.557C41.1611 47.1443 42.0577 46.9273 42.9683 46.9241C43.8279 46.9012 44.6823 47.0616 45.4727 47.3943C46.1266 47.6947 46.6957 48.1479 47.13 48.7143C47.565 49.2902 47.8724 49.9493 48.0323 50.6491C48.3083 51.511 48.4692 52.4045 48.5111 53.3071V62.1674ZM56.6872 62.1674C56.7139 62.2621 56.7139 62.3621 56.6872 62.4567C56.5924 62.5454 56.4794 62.6132 56.3558 62.6556C56.1466 62.7187 55.9299 62.7552 55.7113 62.7641C55.0504 62.8364 54.3834 62.8364 53.7225 62.7641C53.5098 62.7552 53.2993 62.7188 53.0964 62.6556C52.9686 62.6223 52.8534 62.5532 52.7649 62.4567C52.6946 62.376 52.6555 62.2736 52.6544 62.1674V47.8644C52.6526 47.8141 52.6615 47.764 52.6805 47.7173C52.6996 47.6706 52.7283 47.6283 52.7649 47.5932C52.8464 47.4852 52.9636 47.4085 53.0964 47.3762C53.3005 47.3144 53.5101 47.272 53.7225 47.2496C54.3834 47.1773 55.0504 47.1773 55.7113 47.2496C55.9296 47.2722 56.1454 47.3146 56.3558 47.3762C56.4841 47.4181 56.5985 47.493 56.6872 47.5932C56.7155 47.6814 56.7155 47.7761 56.6872 47.8644V62.1674ZM57.0003 42.9822C57.0362 43.2822 57.009 43.5863 56.9203 43.8756C56.8316 44.1648 56.6833 44.4331 56.4847 44.6638C55.9497 45.0357 55.2949 45.2029 54.6432 45.134C53.9945 45.1985 53.3432 45.0386 52.8017 44.6819C52.6181 44.4578 52.4813 44.2002 52.3991 43.9241C52.317 43.6479 52.2911 43.3586 52.323 43.0726C52.2551 42.4639 52.4336 41.8534 52.8201 41.3729C53.354 40.9977 54.0079 40.8243 54.6616 40.8847C55.3133 40.8157 55.9681 40.9829 56.5031 41.3548C56.6923 41.5798 56.8337 41.8397 56.9191 42.1192C57.0045 42.3987 57.0321 42.6921 57.0003 42.9822ZM74.2917 62.1855C74.2969 62.3025 74.2556 62.4168 74.1766 62.5045C74.0976 62.5922 73.987 62.6464 73.8682 62.6556C73.6594 62.7203 73.4425 62.7569 73.2237 62.7641C72.868 62.7866 72.5113 62.7866 72.1556 62.7641H71.0692C70.8523 62.7623 70.6363 62.738 70.4246 62.6918C70.2709 62.655 70.1267 62.5873 70.0011 62.4929C69.8965 62.3931 69.8094 62.277 69.7433 62.1493L64.8818 54.6091V62.1855C64.9085 62.2802 64.9085 62.3801 64.8818 62.4748C64.787 62.5635 64.674 62.6313 64.5503 62.6737C64.3411 62.7368 64.1245 62.7732 63.9058 62.7822C63.2449 62.8545 62.5779 62.8545 61.917 62.7822C61.7044 62.7733 61.4938 62.7368 61.2909 62.6737C61.1631 62.6404 61.048 62.5713 60.9595 62.4748C60.8892 62.3941 60.85 62.2917 60.849 62.1855V40.9932C60.8466 40.8864 60.8862 40.7828 60.9595 40.7038C61.0409 40.5959 61.1581 40.5192 61.2909 40.4869C61.4914 40.4092 61.7023 40.3604 61.917 40.3422C62.5779 40.2699 63.2449 40.2699 63.9058 40.3422C64.1264 40.3609 64.3433 40.4096 64.5503 40.4869C64.6786 40.5287 64.7931 40.6037 64.8818 40.7038C64.9105 40.7982 64.9105 40.8988 64.8818 40.9932V53.6507L69.2093 47.9548C69.2925 47.8287 69.3915 47.7133 69.5039 47.6112C69.6279 47.5104 69.7722 47.4364 69.9274 47.3943C70.1509 47.335 70.3787 47.2926 70.6088 47.2677H71.6216H72.6528C72.8772 47.2906 73.099 47.333 73.3158 47.3943C73.4516 47.4207 73.5746 47.4907 73.6656 47.5932C73.7026 47.6862 73.7026 47.7895 73.6656 47.8825C73.6628 48.0625 73.6253 48.2405 73.5551 48.4069C73.4578 48.6143 73.3341 48.8087 73.1868 48.9855L69.0067 53.6507L73.9418 61.1548C74.0535 61.3283 74.152 61.5096 74.2365 61.6973C74.259 61.8411 74.259 61.9874 74.2365 62.1312L74.2917 62.1855ZM88.8394 62.1855C88.8431 62.2518 88.83 62.318 88.801 62.378C88.7721 62.438 88.7283 62.4899 88.6736 62.529C88.5211 62.6331 88.3432 62.6954 88.158 62.7099C87.4555 62.8064 86.7428 62.8064 86.0403 62.7099C85.8717 62.6971 85.711 62.634 85.58 62.529C85.5309 62.4861 85.4923 62.433 85.4668 62.3736C85.4413 62.3142 85.4297 62.2499 85.4326 62.1855V61.0463C84.8484 61.6534 84.1556 62.1498 83.3886 62.511C82.5814 62.8789 81.7004 63.0643 80.8105 63.0534C80.0928 63.0582 79.3785 62.9545 78.6928 62.746C78.0718 62.5689 77.495 62.2672 76.9987 61.86C76.5166 61.4727 76.1375 60.9763 75.8938 60.4134C75.6228 59.7721 75.4911 59.0824 75.5071 58.3882C75.4885 57.6358 75.6593 56.8905 76.0043 56.2184C76.3505 55.5828 76.8661 55.0516 77.4959 54.6814C78.2531 54.2473 79.0821 53.9474 79.9451 53.7954C81.1177 53.5913 82.3087 53.5064 83.4991 53.5422H84.917V52.6743C84.9268 52.2786 84.8835 51.8834 84.7881 51.4989C84.7165 51.1774 84.5569 50.8812 84.3265 50.6423C84.0961 50.4033 83.8036 50.2306 83.4807 50.1427C83.0482 50.0318 82.6016 49.9831 82.1548 49.9981C81.534 49.9911 80.9149 50.0641 80.3133 50.2151C79.8204 50.3422 79.3397 50.5116 78.877 50.7214L77.8458 51.2096C77.6394 51.3339 77.4058 51.4083 77.1644 51.4266C77.1074 51.4312 77.05 51.424 76.9961 51.4053C76.9421 51.3866 76.8928 51.3569 76.8514 51.3181C76.7486 51.2278 76.667 51.1168 76.612 50.9926C76.5516 50.8286 76.5084 50.6589 76.4831 50.4863C76.4633 50.2637 76.4633 50.0399 76.4831 49.8173C76.4471 49.5532 76.4471 49.2857 76.4831 49.0217C76.5404 48.8236 76.6481 48.6431 76.7961 48.4973C77.0302 48.2873 77.2977 48.1162 77.588 47.991C78.0236 47.7868 78.4727 47.6116 78.9322 47.4666C79.4814 47.2981 80.0411 47.1652 80.608 47.0688C81.2163 46.9675 81.8325 46.9191 82.4495 46.9241C83.4357 46.9061 84.4202 47.0155 85.3774 47.2496C86.1073 47.4223 86.7875 47.7562 87.3662 48.226C87.9113 48.7122 88.3069 49.3386 88.5079 50.0343C88.7656 50.86 88.8899 51.7203 88.8762 52.5838V62.2397L88.8394 62.1855ZM84.7881 56.0375H83.2229C82.6547 56.0318 82.0873 56.0803 81.5287 56.1822C81.1205 56.2636 80.7286 56.4102 80.3686 56.6162C80.0981 56.7957 79.8767 57.0379 79.7241 57.3214C79.5864 57.6162 79.5172 57.9374 79.5215 58.2617C79.5092 58.5247 79.5556 58.7872 79.6574 59.0308C79.7592 59.2744 79.9139 59.4933 80.1108 59.6721C80.5579 60.0399 81.1305 60.2273 81.7129 60.1964C82.2778 60.2027 82.8332 60.0523 83.3149 59.7625C83.8682 59.4087 84.3647 58.976 84.7881 58.4786V56.0737V56.0375ZM110.79 58.0808C110.809 58.8235 110.651 59.5603 110.329 60.2326C110.024 60.8501 109.569 61.3842 109.003 61.7877C108.402 62.2253 107.721 62.5446 106.996 62.728C106.175 62.9506 105.326 63.0601 104.473 63.0534C103.949 63.0495 103.426 63.0072 102.908 62.9269C102.458 62.8625 102.014 62.7597 101.582 62.6195C101.249 62.5148 100.923 62.388 100.606 62.2397C100.394 62.1463 100.196 62.0246 100.017 61.8781C99.8848 61.7267 99.7902 61.5472 99.7409 61.3537C99.7025 60.9991 99.7025 60.6415 99.7409 60.2869C99.7409 59.9795 99.7409 59.7263 99.7409 59.5274C99.7249 59.3832 99.7249 59.2377 99.7409 59.0934C99.7777 59.004 99.8343 58.9237 99.9066 58.8584C99.9913 58.8377 100.08 58.8377 100.164 58.8584C100.349 58.886 100.525 58.954 100.68 59.0573C100.966 59.2231 101.261 59.374 101.564 59.5093C101.959 59.6793 102.365 59.8243 102.779 59.9433C103.293 60.0949 103.827 60.1681 104.363 60.1603C104.698 60.1641 105.032 60.1276 105.357 60.0518C105.621 59.9879 105.87 59.8776 106.094 59.7263C106.305 59.5984 106.476 59.4173 106.591 59.2019C106.689 58.9667 106.739 58.7148 106.738 58.4606C106.748 58.1571 106.643 57.8608 106.444 57.6288C106.221 57.3741 105.945 57.1705 105.634 57.0321C105.274 56.8377 104.898 56.6744 104.51 56.5438L103.221 56.0556C102.779 55.8702 102.349 55.6588 101.932 55.4227C101.513 55.1863 101.129 54.8942 100.791 54.5548C100.453 54.195 100.185 53.7785 99.9987 53.3252C99.7779 52.748 99.6777 52.133 99.7041 51.517C99.694 50.8624 99.8324 50.2139 100.109 49.6184C100.378 49.0453 100.782 48.5432 101.288 48.1537C101.829 47.7192 102.456 47.3991 103.129 47.2134C103.934 46.9716 104.773 46.8557 105.615 46.8699C106.063 46.8423 106.512 46.8423 106.959 46.8699C107.351 46.9292 107.739 47.0138 108.12 47.123C108.425 47.1919 108.722 47.295 109.003 47.4304C109.187 47.5055 109.36 47.6027 109.519 47.7197C109.607 47.7836 109.682 47.8634 109.74 47.9548C109.751 48.051 109.751 48.148 109.74 48.2441C109.753 48.3825 109.753 48.5217 109.74 48.66C109.751 48.8648 109.751 49.07 109.74 49.2748C109.74 49.5641 109.74 49.8173 109.74 49.9981C109.756 50.1363 109.756 50.2758 109.74 50.414C109.716 50.505 109.665 50.5869 109.593 50.6491C109.514 50.6675 109.432 50.6675 109.353 50.6491C109.188 50.6244 109.03 50.5625 108.893 50.4682C108.642 50.334 108.384 50.2132 108.12 50.1066C107.807 49.98 107.438 49.8715 107.033 49.7449C106.582 49.631 106.118 49.5763 105.652 49.5822C105.323 49.5754 104.995 49.6119 104.676 49.6907C104.432 49.7468 104.205 49.8583 104.013 50.0162C103.843 50.1477 103.705 50.3144 103.608 50.5044C103.528 50.6939 103.485 50.8961 103.479 51.1011C103.473 51.4126 103.585 51.7152 103.792 51.951C104.028 52.1908 104.302 52.3922 104.602 52.5477C104.98 52.7248 105.367 52.8817 105.763 53.0178C106.204 53.1625 106.628 53.3433 107.07 53.506C107.522 53.684 107.959 53.8956 108.377 54.1389C108.802 54.3686 109.192 54.6546 109.538 54.9888C109.88 55.3479 110.155 55.7643 110.348 56.2184C110.564 56.7594 110.671 57.3369 110.661 57.9181L110.79 58.0808ZM118.726 60.3592C118.818 61.0708 118.627 61.7898 118.192 62.3663C117.667 62.7605 117.01 62.9476 116.351 62.8907C116.012 62.9751 115.655 62.9708 115.318 62.8782C114.981 62.7857 114.674 62.6081 114.429 62.3632C114.183 62.1182 114.007 61.8144 113.917 61.4819C113.828 61.1493 113.829 60.7997 113.92 60.4677C113.835 59.7508 114.025 59.0285 114.454 58.4425C114.985 58.0574 115.638 57.8714 116.296 57.9181C116.952 57.8629 117.606 58.0428 118.137 58.4244C118.549 58.9836 118.733 59.6737 118.653 60.3592H118.726ZM132.224 49.1301C132.224 49.528 132.224 49.8354 132.224 50.0885C132.214 50.2854 132.177 50.48 132.114 50.6671C132.09 50.7778 132.032 50.8787 131.948 50.9564C131.859 50.9854 131.762 50.9854 131.672 50.9564H131.396L131.028 50.8299L130.567 50.7214C130.39 50.7017 130.211 50.7017 130.033 50.7214C129.794 50.7185 129.556 50.7615 129.333 50.848C129.079 50.957 128.843 51.1034 128.634 51.2819C128.34 51.4974 128.08 51.7532 127.86 52.0414C127.549 52.423 127.26 52.8214 126.995 53.2348V62.1674C127 62.2716 126.968 62.3743 126.903 62.4567C126.808 62.5454 126.695 62.6132 126.571 62.6556C126.368 62.7172 126.158 62.7536 125.945 62.7641C125.608 62.7857 125.269 62.7857 124.932 62.7641C124.601 62.7861 124.269 62.7861 123.938 62.7641C123.725 62.7536 123.515 62.7172 123.312 62.6556C123.184 62.6223 123.069 62.5532 122.98 62.4567C122.91 62.376 122.871 62.2736 122.87 62.1674V47.8282C122.872 47.7308 122.904 47.6364 122.962 47.557C123.034 47.4594 123.138 47.3892 123.257 47.3581C123.436 47.2993 123.621 47.2569 123.809 47.2315H124.656H125.522C125.698 47.2519 125.871 47.2944 126.037 47.3581C126.148 47.394 126.245 47.4636 126.313 47.557C126.34 47.6454 126.34 47.7398 126.313 47.8282V49.6364C126.647 49.1743 127.01 48.7334 127.4 48.3164C127.689 48.0075 128.01 47.7287 128.357 47.4847C128.643 47.3001 128.953 47.1541 129.278 47.0507C129.58 46.98 129.889 46.9436 130.199 46.9422H130.659C130.828 46.9547 130.994 46.9851 131.156 47.0326C131.314 47.0591 131.468 47.1015 131.617 47.1592C131.726 47.1807 131.828 47.2307 131.911 47.3038C131.97 47.3516 132.015 47.4141 132.04 47.4847C132.058 47.5742 132.058 47.6663 132.04 47.7559C132.04 47.8644 132.04 48.0271 132.04 48.2441C132.04 48.4792 132.04 48.7866 132.04 49.1663L132.224 49.1301ZM136.644 60.3592C136.73 61.0678 136.546 61.7826 136.128 62.3663C135.6 62.7559 134.945 62.9424 134.287 62.8907C133.948 62.977 133.592 62.9738 133.255 62.8816C132.917 62.7893 132.611 62.6113 132.366 62.3654C132.121 62.1196 131.947 61.8146 131.861 61.4814C131.774 61.1482 131.779 60.7985 131.875 60.4677C131.786 59.7532 131.969 59.0317 132.39 58.4425C132.922 58.0603 133.574 57.8746 134.232 57.9181C134.888 57.8629 135.542 58.0428 136.073 58.4244C136.485 58.9836 136.669 59.6737 136.589 60.3592H136.644ZM155.519 54.826C155.528 55.9582 155.367 57.0854 155.04 58.1712C154.731 59.1252 154.223 60.0057 153.549 60.757C152.861 61.5082 152.003 62.0904 151.044 62.4567C148.807 63.2159 146.376 63.2159 144.139 62.4567C143.227 62.1406 142.406 61.6134 141.745 60.9197C141.088 60.2058 140.608 59.3515 140.345 58.4244C140.019 57.3327 139.864 56.1986 139.885 55.0611C139.873 53.9215 140.041 52.787 140.382 51.6978C140.692 50.7438 141.2 49.8633 141.874 49.1121C142.564 48.3679 143.422 47.7922 144.378 47.4304C145.494 47.0105 146.682 46.8078 147.877 46.8337C149.036 46.8034 150.19 46.9811 151.284 47.3581C152.194 47.6675 153.011 48.1959 153.659 48.8951C154.319 49.6002 154.799 50.4493 155.059 51.3723C155.385 52.4764 155.54 53.6224 155.519 54.7718V54.826ZM151.284 54.9888C151.289 54.3342 151.233 53.6806 151.118 53.0359C151.023 52.4856 150.824 51.9579 150.529 51.4808C150.263 51.0509 149.889 50.6958 149.442 50.4501C148.92 50.224 148.356 50.1072 147.785 50.1072C147.214 50.1072 146.65 50.224 146.128 50.4501C145.674 50.6672 145.287 50.9977 145.004 51.4085C144.696 51.8736 144.472 52.3875 144.341 52.9274C144.187 53.5978 144.113 54.2835 144.12 54.9707C144.113 55.6262 144.174 56.2807 144.305 56.9236C144.405 57.4697 144.598 57.9953 144.875 58.4786C145.136 58.9074 145.512 59.2577 145.962 59.4912C146.492 59.754 147.081 59.8785 147.674 59.8529C148.233 59.8664 148.787 59.7551 149.295 59.5274C149.749 59.3104 150.136 58.9798 150.418 58.5691C150.733 58.1074 150.958 57.5924 151.081 57.0501C151.221 56.3839 151.288 55.7051 151.284 55.0249V54.9888ZM163.622 60.4134C163.713 61.125 163.522 61.844 163.088 62.4206C162.562 62.8148 161.905 63.0018 161.246 62.9449C160.59 63.0001 159.936 62.8203 159.405 62.4386C158.984 61.8899 158.793 61.2043 158.871 60.5219C158.785 59.8051 158.976 59.0828 159.405 58.4967C159.98 58.1553 160.639 57.9748 161.311 57.9748C161.982 57.9748 162.642 58.1553 163.216 58.4967C163.628 59.056 163.812 59.746 163.732 60.4315L163.622 60.4134Z" fill="#008BD2"/>
<path d="M17.5929 11.8447C17.6322 13.5102 17.3703 15.1693 16.8194 16.745C16.3799 18.0051 15.634 19.1409 14.6465 20.054C13.6535 20.9357 12.4698 21.5848 11.1845 21.9527C9.60747 22.3776 7.97655 22.5785 6.34145 22.5494H1.2774C0.948449 22.5588 0.6274 22.4494 0.375085 22.242C0.240292 22.1073 0.1374 21.9452 0.0737408 21.767C0.0100814 21.5889 -0.0127794 21.3991 0.00678871 21.2113V3.0206C-0.0127794 2.83278 0.0100814 2.64303 0.0737408 2.46488C0.1374 2.28673 0.240292 2.12455 0.375085 1.98992C0.6274 1.78245 0.948449 1.67308 1.2774 1.68252H6.70975C8.33689 1.64715 9.95936 1.8669 11.516 2.33348C12.7532 2.72937 13.8853 3.39022 14.8306 4.26827C15.7516 5.15042 16.4567 6.22617 16.8931 7.41457C17.3796 8.81691 17.6163 10.2911 17.5929 11.7724V11.8447ZM13.1365 12.0617C13.1475 11.1342 13.0298 10.2095 12.7866 9.3132C12.5904 8.48974 12.2133 7.71832 11.6817 7.05293C11.1495 6.40592 10.4589 5.90199 9.67452 5.58827C8.65294 5.2048 7.56338 5.02649 6.47036 5.06389H4.31584V19.2946H6.52561C7.53975 19.3237 8.55076 19.1705 9.50879 18.8425C10.2876 18.5615 10.9835 18.0956 11.5344 17.4864C12.1015 16.831 12.5107 16.0584 12.7314 15.2261C13.0223 14.1962 13.1588 13.1302 13.1365 12.0617ZM24.9956 22.0792C25.0314 22.1662 25.0314 22.2635 24.9956 22.3505C24.9102 22.4506 24.7938 22.5205 24.6641 22.5494C24.4537 22.6109 24.2379 22.6533 24.0196 22.6759H23.0252H22.0308C21.8185 22.6535 21.6088 22.6112 21.4047 22.5494C21.3387 22.5398 21.2753 22.5172 21.2184 22.483C21.1614 22.4488 21.1121 22.4038 21.0732 22.3505C21.0125 22.3163 20.9629 22.2659 20.9302 22.205C20.8976 22.1442 20.8834 22.0754 20.8891 22.0069V7.70389C20.8902 7.5977 20.9293 7.49528 20.9996 7.41457C21.0881 7.31809 21.2032 7.24898 21.3311 7.21567C21.5342 7.14659 21.744 7.09812 21.9572 7.07101H22.9515H23.9459C24.1651 7.09848 24.3809 7.14694 24.5905 7.21567C24.7141 7.25807 24.8271 7.32588 24.9219 7.41457C24.9556 7.50817 24.9556 7.61029 24.9219 7.70389V22.0069L24.9956 22.0792ZM25.3086 2.8217C25.3445 3.12173 25.3173 3.4258 25.2286 3.71507C25.1399 4.00434 24.9916 4.27264 24.793 4.50334C24.2546 4.86781 23.6026 5.03428 22.9515 4.97348C22.3023 5.04598 21.6482 4.88542 21.1101 4.52142C20.919 4.2975 20.7765 4.03774 20.691 3.75795C20.6055 3.47817 20.5789 3.18422 20.6129 2.89403C20.5335 2.29573 20.6991 1.69096 21.0732 1.21238C21.6103 0.84501 22.2634 0.678265 22.9147 0.742245C23.5664 0.673307 24.2212 0.840498 24.7562 1.21238C24.9454 1.43738 25.0868 1.69727 25.1722 1.97675C25.2576 2.25624 25.2852 2.54967 25.2534 2.83978L25.3086 2.8217ZM39.3038 17.9565C39.321 18.699 39.1634 19.4353 38.8435 20.1083C38.5341 20.7177 38.0869 21.2496 37.536 21.6633C36.9241 22.0942 36.2378 22.4127 35.5104 22.6036C34.6863 22.8115 33.8384 22.9148 32.9876 22.911C32.4638 22.9121 31.9407 22.8759 31.4223 22.8025C30.9738 22.7295 30.5309 22.6268 30.0965 22.4951C29.7627 22.3905 29.4366 22.2636 29.1205 22.1154C28.9134 22.0226 28.7211 21.9007 28.5496 21.7538C28.404 21.609 28.3021 21.4275 28.255 21.2294C28.2181 20.8686 28.2181 20.5052 28.255 20.1444C28.255 19.837 28.255 19.5839 28.255 19.4031C28.2713 19.2499 28.3021 19.0986 28.3471 18.951C28.3834 18.8665 28.4403 18.7919 28.5128 18.734C28.5974 18.7134 28.686 18.7134 28.7706 18.734C28.9629 18.7548 29.1467 18.8233 29.3046 18.9329C29.5831 19.0961 29.8722 19.2411 30.1701 19.3669C30.5614 19.5512 30.968 19.7024 31.3855 19.819C31.8989 19.9706 32.4331 20.0438 32.9692 20.0359C33.3039 20.0397 33.6378 20.0033 33.9636 19.9275C34.2243 19.8557 34.4726 19.746 34.7001 19.602C34.912 19.4678 35.0837 19.2805 35.1973 19.0595C35.3105 18.8348 35.3673 18.5868 35.3631 18.3362C35.3757 18.0268 35.2706 17.7239 35.0684 17.4864C34.8449 17.2357 34.5765 17.0273 34.2766 16.8716C33.9066 16.6911 33.5253 16.5341 33.1349 16.4014L31.9379 15.859C31.496 15.6797 31.0656 15.4744 30.6489 15.2442C30.2322 15.0119 29.8535 14.7193 29.5256 14.3762C29.1788 14.0135 28.904 13.5903 28.7154 13.1285C28.493 12.5517 28.3928 11.9365 28.4207 11.3203C28.4217 10.696 28.5599 10.0792 28.8258 9.51211C29.0988 8.93631 29.5019 8.42921 30.0044 8.02937C30.558 7.61333 31.1811 7.29515 31.8459 7.08909C32.647 6.85727 33.4783 6.74153 34.3134 6.74553C34.7638 6.74495 35.2135 6.78124 35.6577 6.85403C36.0492 6.90785 36.4367 6.98637 36.8178 7.08909C37.1244 7.16339 37.421 7.27263 37.7017 7.41457C37.8823 7.48807 38.055 7.57893 38.2174 7.68581C38.3116 7.75053 38.3876 7.83761 38.4383 7.93896C38.4893 8.02962 38.5265 8.12708 38.5488 8.22827C38.5488 8.33677 38.5488 8.48142 38.5488 8.64416C38.5595 8.84896 38.5595 9.05416 38.5488 9.25896C38.5488 9.54827 38.5488 9.78334 38.5488 9.96416C38.5648 10.1084 38.5648 10.2539 38.5488 10.3981C38.5247 10.4841 38.473 10.5602 38.4015 10.6151C38.3228 10.6336 38.2408 10.6336 38.1621 10.6151C38.0046 10.5928 37.8538 10.5373 37.7202 10.4524L36.9283 10.0907C36.5804 9.94822 36.2237 9.82744 35.8603 9.7291C35.4027 9.6164 34.9324 9.56171 34.4608 9.56635C34.132 9.55957 33.8037 9.59606 33.4848 9.67485C33.2409 9.73097 33.0139 9.84244 32.8218 10.0003C32.6434 10.1232 32.5032 10.2922 32.4167 10.4885C32.335 10.6774 32.2912 10.8801 32.2878 11.0853C32.2814 11.3914 32.3932 11.6886 32.6009 11.917C32.8342 12.1678 33.1158 12.3706 33.4295 12.5138C33.799 12.7005 34.1803 12.8636 34.5712 13.002C35.0132 13.1466 35.4367 13.3094 35.8787 13.4902C36.3266 13.6694 36.7632 13.8747 37.1861 14.105C37.6174 14.3319 38.009 14.6249 38.3463 14.9729C38.6985 15.3836 38.9644 15.8587 39.1287 16.3707C39.2931 16.8828 39.3526 17.4217 39.3038 17.9565ZM50.6657 20.5965C50.7124 20.9506 50.7124 21.3092 50.6657 21.6633C50.6386 21.8624 50.5557 22.0502 50.4263 22.2058C50.3048 22.3228 50.1608 22.415 50.0028 22.477L49.3398 22.694L48.5112 22.911C48.2107 22.9291 47.9094 22.9291 47.6089 22.911C46.8846 22.9226 46.1632 22.8187 45.4728 22.6036C44.9089 22.4169 44.4023 22.0935 43.9996 21.6633C43.5771 21.2048 43.2738 20.6526 43.1157 20.054C42.9176 19.3106 42.8246 18.544 42.8395 17.7757V10.3981H41.1453C41.0369 10.3929 40.9332 10.3529 40.85 10.2843C40.7669 10.2158 40.7089 10.1224 40.6849 10.0184C40.5509 9.61008 40.4947 9.18099 40.5192 8.75266C40.4985 8.49388 40.4985 8.2339 40.5192 7.97512C40.5335 7.80054 40.5771 7.62947 40.6481 7.46882C40.6776 7.35619 40.7501 7.25905 40.8507 7.19759C40.9404 7.16861 41.0372 7.16861 41.1269 7.19759H42.8579V3.92471C42.8312 3.83005 42.8312 3.73006 42.8579 3.6354C42.9466 3.53523 43.0611 3.46029 43.1893 3.41841C43.3998 3.35686 43.6155 3.31449 43.8338 3.29183H44.8098H45.8226C46.035 3.31423 46.2446 3.35662 46.4487 3.41841C46.5793 3.45566 46.695 3.53141 46.7802 3.6354C46.8139 3.72899 46.8139 3.83111 46.7802 3.92471V7.12526H49.966C50.0557 7.09628 50.1525 7.09628 50.2422 7.12526C50.3383 7.19559 50.4144 7.28899 50.4632 7.39649C50.5184 7.56086 50.5555 7.73061 50.5736 7.90279C50.5943 8.16157 50.5943 8.42155 50.5736 8.68033C50.5925 9.10722 50.5428 9.53438 50.4263 9.94608C50.2974 10.1992 50.1501 10.3258 49.9475 10.3258H46.9091V17.1428C46.8585 17.7695 46.9927 18.3973 47.2958 18.951C47.4501 19.1531 47.6549 19.3125 47.8905 19.4139C48.126 19.5153 48.3842 19.5552 48.6401 19.5296C48.8361 19.5483 49.0334 19.5483 49.2294 19.5296C49.3863 19.5007 49.5403 19.4583 49.6897 19.4031L50.0396 19.2765H50.279C50.3455 19.2604 50.415 19.2604 50.4816 19.2765C50.5166 19.3025 50.5461 19.335 50.5682 19.3723C50.5903 19.4095 50.6047 19.4507 50.6105 19.4935C50.6261 19.6498 50.6261 19.8073 50.6105 19.9636C50.6323 20.2103 50.6323 20.4583 50.6105 20.705L50.6657 20.5965ZM63.022 9.00581C63.0435 9.31888 63.0435 9.63301 63.022 9.94608C63.0107 10.1415 62.9799 10.3353 62.9299 10.5247C62.9027 10.6342 62.8454 10.7343 62.7642 10.814C62.6845 10.8727 62.5876 10.9044 62.488 10.9044H62.1933L61.825 10.7779L61.4015 10.597C61.2179 10.5775 61.0327 10.5775 60.8491 10.597C60.6146 10.6022 60.3834 10.6513 60.1677 10.7417C59.9115 10.8501 59.6702 10.9898 59.4495 11.1576C59.1711 11.3903 58.918 11.6509 58.6945 11.9351C58.3776 12.3123 58.0883 12.7111 57.829 13.1285V22.0069C57.8573 22.0952 57.8573 22.1899 57.829 22.2781C57.7399 22.3829 57.616 22.4533 57.4792 22.477C57.2751 22.5388 57.0654 22.5812 56.8531 22.6036H55.8587H54.8643C54.6519 22.5812 54.4423 22.5388 54.2382 22.477C54.1013 22.4533 53.9774 22.3829 53.8883 22.2781C53.86 22.1899 53.86 22.0952 53.8883 22.0069V7.66773C53.8525 7.58074 53.8525 7.48348 53.8883 7.39649C53.9187 7.31348 53.9693 7.239 54.0356 7.17951C54.2071 7.11752 54.3871 7.08095 54.5696 7.07101C54.8516 7.05041 55.1347 7.05041 55.4167 7.07101C55.7048 7.05005 55.9941 7.05005 56.2822 7.07101C56.4651 7.0783 56.6455 7.11495 56.8162 7.17951C56.9294 7.22129 57.0261 7.29727 57.0925 7.39649C57.122 7.48458 57.122 7.57964 57.0925 7.66773V9.47594C57.4154 9.00614 57.7789 8.56451 58.1789 8.15594C58.4643 7.84323 58.7856 7.5641 59.1365 7.32416C59.4201 7.13606 59.7303 6.98985 60.0572 6.89019C60.3578 6.81144 60.6669 6.76894 60.978 6.76362H61.4199H61.9355L62.3959 6.89019L62.6905 7.05293C62.7437 7.10556 62.7873 7.16671 62.8194 7.23375V7.4869C62.8328 7.65541 62.8328 7.82469 62.8194 7.9932C62.8194 8.22827 62.8194 8.53567 62.8194 8.9154L63.022 9.00581ZM69.6881 22.0069C69.6881 22.1047 69.6558 22.1999 69.596 22.2781C69.507 22.3829 69.383 22.4533 69.2462 22.477C69.0421 22.5388 68.8324 22.5812 68.6201 22.6036H67.6257H66.6313C66.4189 22.5812 66.2093 22.5388 66.0052 22.477C65.8683 22.4533 65.7444 22.3829 65.6553 22.2781C65.627 22.1899 65.627 22.0952 65.6553 22.0069V7.70389C65.6286 7.60923 65.6286 7.50923 65.6553 7.41457C65.7547 7.32262 65.8745 7.25454 66.0052 7.21567C66.2083 7.14659 66.4181 7.09812 66.6313 7.07101H67.6257H68.6201C68.8333 7.09812 69.0431 7.14659 69.2462 7.21567C69.3769 7.25454 69.4966 7.32262 69.596 7.41457C69.6541 7.50046 69.6861 7.60082 69.6881 7.70389V22.0069ZM70.0012 2.8217C70.0371 3.12173 70.0098 3.4258 69.9211 3.71507C69.8324 4.00434 69.6842 4.27264 69.4856 4.50334C68.9167 4.7934 68.2851 4.94482 67.6441 4.94482C67.0031 4.94482 66.3715 4.7934 65.8026 4.50334C65.4325 4.04322 65.2606 3.45901 65.3238 2.87594C65.2677 2.27947 65.4455 1.68444 65.821 1.21238C66.3601 0.849331 67.0116 0.683002 67.6625 0.742245C68.3137 0.679868 68.9662 0.846471 69.504 1.21238C69.6932 1.43738 69.8346 1.69727 69.92 1.97675C70.0054 2.25624 70.033 2.54967 70.0012 2.83978V2.8217ZM88.4159 14.6475C88.4272 15.8059 88.2848 16.9608 87.9924 18.0831C87.7394 19.0152 87.3218 19.8965 86.7586 20.6869C86.2525 21.3887 85.5749 21.9545 84.7882 22.3324C83.9658 22.7354 83.0553 22.9341 82.1365 22.911C81.6728 22.9172 81.2099 22.8747 80.7554 22.7844C80.329 22.696 79.919 22.5436 79.54 22.3324C79.132 22.1214 78.7491 21.8667 78.3983 21.5729C77.9756 21.2303 77.5871 20.8488 77.2382 20.4338V22.0069C77.2476 22.1115 77.2145 22.2155 77.1461 22.2962C77.0741 22.3938 76.97 22.464 76.8515 22.4951C76.6729 22.5582 76.4875 22.6007 76.299 22.6217H74.6233C74.4411 22.5987 74.262 22.5563 74.0892 22.4951C73.978 22.4592 73.8813 22.3896 73.813 22.2962C73.776 22.2032 73.776 22.0999 73.813 22.0069V0.86882C73.7864 0.77416 73.7864 0.674165 73.813 0.579505C73.9388 0.450179 74.11 0.372617 74.2918 0.362519C74.4959 0.300727 74.7056 0.258341 74.9179 0.235943C75.5788 0.16354 76.2458 0.16354 76.9067 0.235943C77.119 0.258341 77.3287 0.300727 77.5328 0.362519C77.7016 0.38124 77.8582 0.458123 77.9748 0.579505C78.0014 0.674165 78.0014 0.77416 77.9748 0.86882V8.78882C78.315 8.45045 78.6847 8.14188 79.0796 7.86663C79.429 7.61541 79.8058 7.40315 80.2029 7.23375C80.5646 7.06196 80.9489 6.94025 81.3447 6.87211C81.7571 6.79144 82.1763 6.74906 82.5969 6.74553C83.5031 6.71336 84.4023 6.91314 85.2062 7.32526C86.01 7.73737 86.691 8.34766 87.1821 9.09622C87.6681 9.87076 88.0168 10.7206 88.2133 11.6096C88.4386 12.607 88.5498 13.6259 88.5448 14.6475H88.4159ZM84.1437 14.9368C84.1438 14.3311 84.0946 13.7265 83.9964 13.1285C83.9234 12.6055 83.7616 12.0982 83.5176 11.6277C83.3171 11.2059 83.0134 10.8394 82.6337 10.5609C82.2589 10.3492 81.8321 10.2429 81.3999 10.2535C81.126 10.2527 80.8533 10.2892 80.5896 10.362C80.3013 10.4469 80.028 10.575 79.7794 10.7417C79.4717 10.953 79.1822 11.1889 78.9139 11.4469C78.5872 11.7919 78.2798 12.1541 77.9932 12.5318V17.2513C78.4642 17.8787 79.022 18.4386 79.6505 18.9148C80.127 19.2723 80.7083 19.4689 81.3078 19.4754C81.7943 19.4938 82.2733 19.354 82.6705 19.0776C83.0517 18.7982 83.366 18.4402 83.5913 18.0288C83.8566 17.5757 84.0374 17.0797 84.1253 16.5642C84.2351 16.0284 84.2906 15.4833 84.291 14.9368H84.1437ZM105.542 22.0069C105.571 22.095 105.571 22.19 105.542 22.2781C105.509 22.3296 105.466 22.3739 105.416 22.4082C105.365 22.4424 105.307 22.4659 105.247 22.477C105.074 22.5382 104.895 22.5806 104.713 22.6036H103.866H103C102.818 22.5829 102.638 22.5404 102.466 22.477C102.352 22.4481 102.253 22.3769 102.19 22.2781C102.162 22.1899 102.162 22.0952 102.19 22.0069V20.3433C101.493 21.1214 100.664 21.7758 99.741 22.2781C98.9325 22.6889 98.0364 22.9058 97.1261 22.911C96.2423 22.9387 95.3628 22.7783 94.548 22.4409C93.8962 22.1451 93.332 21.6907 92.9091 21.1209C92.4812 20.5408 92.1745 19.8832 92.0068 19.1861C91.8049 18.2838 91.7121 17.3612 91.7306 16.4376V7.66773C91.7306 7.56991 91.7629 7.47474 91.8226 7.39649C91.9041 7.28857 92.0213 7.21186 92.1541 7.17951C92.3574 7.11793 92.5677 7.08149 92.7802 7.07101C93.1114 7.05084 93.4435 7.05084 93.7746 7.07101C94.1057 7.05002 94.4379 7.05002 94.769 7.07101C94.9877 7.07997 95.2043 7.11643 95.4135 7.17951C95.5418 7.22139 95.6563 7.29633 95.745 7.39649C95.7732 7.48477 95.7732 7.57945 95.745 7.66773V15.7685C95.7323 16.3446 95.7817 16.9205 95.8923 17.4864C95.982 17.8485 96.138 18.1916 96.3527 18.499C96.5484 18.7761 96.8068 19.0051 97.1077 19.168C97.4448 19.3324 97.8179 19.4131 98.1941 19.4031C98.77 19.3901 99.3259 19.1933 99.7778 18.8425C100.414 18.3703 100.984 17.8169 101.472 17.197V7.66773C101.444 7.57945 101.444 7.48477 101.472 7.39649C101.553 7.28857 101.671 7.21186 101.803 7.17951C102.006 7.11638 102.217 7.07989 102.43 7.07101C103.092 7.02279 103.756 7.02279 104.418 7.07101C104.631 7.07809 104.842 7.11462 105.044 7.17951C105.175 7.21675 105.291 7.2925 105.376 7.39649C105.412 7.48348 105.412 7.58074 105.376 7.66773V22.0069H105.542ZM124.454 14.6836C124.469 15.8175 124.301 16.9465 123.956 18.0288C123.654 18.9912 123.145 19.8789 122.465 20.6327C121.78 21.3825 120.921 21.9593 119.96 22.3143C118.902 22.7094 117.778 22.9116 116.646 22.911C115.493 22.9383 114.345 22.7606 113.257 22.3866C112.354 22.0636 111.541 21.5372 110.882 20.8496C110.222 20.1345 109.737 19.2811 109.464 18.3543C109.138 17.2564 108.982 16.1164 109.004 14.9729C108.99 13.8392 109.158 12.7104 109.501 11.6277C109.802 10.661 110.318 9.77184 111.011 9.02389C111.698 8.28405 112.548 7.70875 113.497 7.34224C114.619 6.92264 115.813 6.72002 117.014 6.74553C118.172 6.72565 119.325 6.90307 120.421 7.26992C121.324 7.59292 122.138 8.11933 122.796 8.8069C123.444 9.52771 123.921 10.3797 124.196 11.3022C124.513 12.402 124.668 13.5407 124.656 14.6836H124.454ZM120.218 14.8464C120.226 14.1909 120.164 13.5364 120.034 12.8935C119.946 12.35 119.752 11.8283 119.463 11.3565C119.244 10.9096 118.907 10.5286 118.487 10.2535C117.959 9.98451 117.369 9.85373 116.775 9.87375C116.222 9.86293 115.675 9.97417 115.173 10.1992C114.712 10.4222 114.319 10.7586 114.031 11.1757C113.716 11.6373 113.491 12.1523 113.368 12.6946C113.213 13.3648 113.139 14.0506 113.147 14.7379C113.148 15.3929 113.21 16.0466 113.331 16.6907C113.437 17.2323 113.636 17.752 113.92 18.2277C114.17 18.6694 114.549 19.0282 115.007 19.2584C115.534 19.5096 116.115 19.6336 116.701 19.6201C117.262 19.6368 117.818 19.5189 118.321 19.2765C118.78 19.0671 119.173 18.7428 119.463 18.3362C119.764 17.8695 119.982 17.3559 120.108 16.8173C120.257 16.1707 120.331 15.5094 120.329 14.8464H120.218ZM141.045 7.61348C141.053 7.67953 141.053 7.74633 141.045 7.81238C141.053 7.8966 141.053 7.98132 141.045 8.06553C141.051 8.16792 141.051 8.27054 141.045 8.37293C141.045 8.48142 141.045 8.62608 140.935 8.77074L136.552 21.7357C136.505 21.8975 136.43 22.0503 136.331 22.1877C136.209 22.3181 136.048 22.4068 135.871 22.4409C135.589 22.5206 135.298 22.5691 135.005 22.5855H133.569H132.169C131.876 22.5691 131.586 22.5206 131.304 22.4409C131.128 22.4024 130.968 22.3144 130.843 22.1877C130.741 22.0592 130.666 21.9116 130.622 21.7538L126.277 8.8069C126.277 8.58992 126.166 8.4091 126.129 8.22827C126.092 8.04745 126.129 7.93896 126.129 7.86663V7.64964C126.093 7.56266 126.093 7.4654 126.129 7.37841C126.212 7.27957 126.32 7.20458 126.442 7.16142L127.068 7.05293H128.081C128.437 7.03143 128.794 7.03143 129.149 7.05293C129.374 7.06228 129.597 7.09872 129.812 7.16142C129.944 7.19639 130.06 7.27257 130.144 7.37841C130.217 7.47697 130.273 7.58701 130.309 7.70389L133.624 18.2277V18.6255L133.735 18.2277L137.012 7.70389C137.027 7.5832 137.078 7.46965 137.16 7.37841C137.243 7.27257 137.36 7.19639 137.491 7.16142C137.694 7.09829 137.905 7.06181 138.117 7.05293C138.448 7.03152 138.781 7.03152 139.112 7.05293H140.106L140.695 7.16142C140.813 7.20407 140.915 7.27948 140.99 7.37841C141.018 7.46669 141.018 7.56136 140.99 7.64964L141.045 7.61348ZM155.409 22.0792C155.412 22.1481 155.399 22.2168 155.37 22.2797C155.342 22.3426 155.298 22.3979 155.243 22.4409C155.09 22.5449 154.912 22.6073 154.727 22.6217C154.384 22.6454 154.039 22.6454 153.696 22.6217C153.334 22.6475 152.971 22.6475 152.61 22.6217C152.441 22.609 152.28 22.5459 152.149 22.4409C152.1 22.3944 152.061 22.3381 152.036 22.2757C152.01 22.2134 151.999 22.1463 152.002 22.0792V20.9401C151.422 21.5564 150.728 22.0595 149.958 22.4228C149.149 22.7851 148.268 22.9643 147.38 22.9472C146.663 22.9575 145.949 22.86 145.262 22.6579C144.641 22.4807 144.064 22.179 143.568 21.7718C143.086 21.3845 142.707 20.8881 142.463 20.3253C142.194 19.6834 142.063 18.994 142.076 18.3001C142.056 17.5416 142.226 16.7899 142.574 16.1121C142.92 15.4816 143.436 14.9563 144.065 14.5932C144.819 14.1516 145.649 13.8511 146.514 13.7072C147.644 13.4995 148.791 13.4026 149.94 13.4179H151.357V12.5138C151.366 12.1122 151.323 11.7112 151.229 11.3203C151.143 11.0118 150.985 10.727 150.768 10.4885C150.538 10.2469 150.245 10.0718 149.921 9.98225C149.49 9.86446 149.043 9.80963 148.595 9.81951C147.973 9.80914 147.353 9.88833 146.754 10.0546C146.269 10.1811 145.795 10.3443 145.336 10.5428C144.976 10.6899 144.625 10.859 144.286 11.0491C144.08 11.1734 143.846 11.2478 143.605 11.2661C143.491 11.2662 143.38 11.2279 143.292 11.1576C143.189 11.0673 143.107 10.9563 143.052 10.8321C142.992 10.6681 142.949 10.4984 142.924 10.3258C142.904 10.0972 142.904 9.86731 142.924 9.63868C142.919 9.37664 142.95 9.11516 143.016 8.86115C143.069 8.66138 143.177 8.47992 143.329 8.33677C143.558 8.12087 143.827 7.94914 144.12 7.83046C144.553 7.61851 145.002 7.44309 145.465 7.30608C146.014 7.13762 146.574 7.00473 147.14 6.90827C148.738 6.64139 150.375 6.70296 151.947 7.08909C152.686 7.26988 153.373 7.61647 153.954 8.1017C154.503 8.58464 154.899 9.21225 155.096 9.90992C155.353 10.7357 155.478 11.596 155.464 12.4595V22.0973L155.409 22.0792ZM151.357 15.9494H149.792C149.224 15.9437 148.657 15.9921 148.098 16.094C147.686 16.1626 147.292 16.31 146.938 16.528C146.663 16.7026 146.441 16.9461 146.293 17.2332C146.157 17.5221 146.088 17.8371 146.091 18.1554C146.076 18.4214 146.121 18.6874 146.223 18.9344C146.325 19.1813 146.481 19.4031 146.68 19.5839C147.13 19.9452 147.702 20.1261 148.282 20.0902C148.847 20.0965 149.403 19.9461 149.884 19.6562C150.437 19.3095 150.934 18.8828 151.357 18.3905V15.9132V15.9494ZM173.455 22.0431C173.455 22.1409 173.423 22.2361 173.363 22.3143C173.278 22.4144 173.161 22.4843 173.032 22.5132C172.828 22.575 172.618 22.6174 172.406 22.6398H171.411H170.398C170.186 22.6174 169.976 22.575 169.772 22.5132C169.643 22.4843 169.526 22.4144 169.441 22.3143C169.381 22.2361 169.349 22.1409 169.349 22.0431V13.8699C169.359 13.3238 169.31 12.7782 169.201 12.2425C169.108 11.876 168.952 11.5276 168.741 11.2118C168.544 10.9404 168.286 10.7175 167.986 10.5609C167.649 10.3965 167.276 10.3158 166.899 10.3258C166.318 10.3413 165.757 10.5376 165.297 10.8864C164.673 11.3604 164.116 11.9137 163.64 12.5318V22.0069C163.668 22.0952 163.668 22.1899 163.64 22.2781C163.551 22.3829 163.427 22.4533 163.29 22.477C163.086 22.5388 162.876 22.5812 162.664 22.6036H161.67H160.675C160.463 22.5812 160.253 22.5388 160.049 22.477C159.912 22.4533 159.788 22.3829 159.699 22.2781C159.671 22.1899 159.671 22.0952 159.699 22.0069V7.66773C159.67 7.57964 159.67 7.48458 159.699 7.39649C159.776 7.29194 159.886 7.21557 160.012 7.17951C160.184 7.11752 160.364 7.08095 160.546 7.07101C160.828 7.05041 161.112 7.05041 161.394 7.07101C161.682 7.05005 161.971 7.05005 162.259 7.07101C162.442 7.08095 162.621 7.11752 162.793 7.17951C162.891 7.22197 162.975 7.28986 163.037 7.37589C163.099 7.46191 163.135 7.56281 163.143 7.66773V9.33129C163.848 8.55371 164.682 7.89946 165.61 7.39649C166.408 6.97355 167.3 6.74998 168.207 6.74553C169.075 6.71965 169.937 6.88655 170.73 7.23375C171.384 7.53422 171.953 7.98743 172.387 8.55375C172.815 9.13386 173.122 9.79144 173.289 10.4885C173.488 11.3608 173.581 12.253 173.566 13.1466V22.0069L173.455 22.0431Z" fill="#008BD2"/>
</svg>
