<svg width="36" height="36" viewBox="0 0 36 36" fill="none" xmlns="http://www.w3.org/2000/svg">
<g clip-path="url(#clip0_1574_1679)">
<circle cx="18" cy="19" r="12" fill="white"/>
<path fill-rule="evenodd" clip-rule="evenodd" d="M35.9998 17.9998C35.9998 21.5598 34.9441 25.04 32.9662 28.0001C30.9884 30.9601 28.1772 33.2673 24.8881 34.6296C21.599 35.992 17.9798 36.3485 14.4881 35.6539C10.9965 34.9594 7.78916 33.245 5.27182 30.7277C3.60036 29.0562 2.2745 27.0719 1.36992 24.888C0.465339 22.7042 -0.000239226 20.3635 -0.000232696 17.9997C-0.00021951 13.2258 1.89622 8.64745 5.27189 5.2718C8.64755 1.89615 13.2259 -0.000257327 17.9998 -0.000244141C22.7737 -0.000230954 27.3521 1.89621 30.7278 5.27187C32.4044 6.93944 33.7337 8.923 34.6387 11.1077C35.5436 13.2925 36.0063 15.635 35.9998 17.9998ZM24.3899 19.6571C24.1824 19.4429 23.8982 19.3199 23.6 19.3151C23.3017 19.3103 23.0138 19.4242 22.7995 19.6317L19.1248 23.191V10.2961C19.1248 9.99769 19.0063 9.71154 18.7953 9.50056C18.5843 9.28958 18.2982 9.17105 17.9998 9.17105C17.7014 9.17105 17.4153 9.28958 17.2043 9.50056C16.9933 9.71154 16.8748 9.99769 16.8748 10.2961V23.1914L13.201 19.6323C13.0949 19.5295 12.9695 19.4486 12.8322 19.3942C12.6948 19.3398 12.5481 19.313 12.4003 19.3153C12.2526 19.3176 12.1068 19.349 11.9712 19.4077C11.8356 19.4664 11.7129 19.5512 11.6101 19.6573C11.5073 19.7634 11.4263 19.8887 11.372 20.0261C11.3176 20.1635 11.2908 20.3102 11.2931 20.4579C11.2954 20.6057 11.3268 20.7515 11.3855 20.8871C11.4442 21.0227 11.529 21.1454 11.6351 21.2482L17.2172 26.6552C17.427 26.8585 17.7077 26.9722 17.9998 26.9722C18.2919 26.9722 18.5726 26.8585 18.7824 26.6552L24.3645 21.2482C24.4706 21.1454 24.5555 21.0227 24.6143 20.8871C24.673 20.7515 24.7045 20.6057 24.7068 20.4579C24.7092 20.3102 24.6824 20.1634 24.628 20.026C24.5737 19.8886 24.4928 19.7632 24.3899 19.6571Z" fill="#F88C5E"/>
</g>
<defs>
<clipPath id="clip0_1574_1679">
<rect width="36" height="36" fill="white"/>
</clipPath>
</defs>
</svg>
