<svg width="68" height="66" viewBox="0 0 68 66" fill="none" xmlns="http://www.w3.org/2000/svg">
<path fill-rule="evenodd" clip-rule="evenodd" d="M38.2659 5.87646C43.999 6.83291 49.2879 9.51455 53.4016 13.5507C57.5152 17.5868 60.2504 22.7781 61.2291 28.4069H38.2659V5.87646ZM61.2291 37.5746C60.2539 43.2066 57.5202 48.4019 53.4063 52.4416C49.2924 56.4812 44.0016 59.1655 38.2659 60.123V37.5746H61.2291ZM28.948 60.123C23.2124 59.1655 17.9215 56.4812 13.8076 52.4416C9.69368 48.4019 6.96002 43.2066 5.98486 37.5746H28.948V60.123ZM5.98486 28.4069C6.9635 22.7781 9.69869 17.5868 13.8123 13.5507C17.926 9.51455 23.2149 6.83291 28.948 5.87646V28.4069H5.98486Z" fill="white"/>
<path d="M33.9199 2.40493H33.2754C29.2982 2.43188 25.3642 3.21797 21.6926 4.71945C17.9042 6.25456 14.4621 8.50972 11.5641 11.3553C8.66621 14.2009 6.36958 17.5808 4.80624 21.3008V21.3008C3.27715 24.9062 2.4766 28.7691 2.44916 32.6745V33V33.3074C2.54532 41.3258 5.85305 48.9846 11.6565 54.6263C14.5603 57.4694 18.0004 59.7296 21.7846 61.2805C25.459 62.7733 29.3912 63.559 33.3675 63.5951H34.012C40.1043 63.5006 46.0361 61.6624 51.08 58.306C56.1239 54.9495 60.0607 50.2206 62.4075 44.6992V44.6992C63.9278 41.0849 64.728 37.2177 64.7646 33.3074V33V32.6745C64.7279 28.7701 63.9277 24.9089 62.4075 21.3008C60.828 17.585 58.5262 14.207 55.6309 11.3556C52.7413 8.50859 49.305 6.25296 45.5212 4.71945V4.71945C41.8431 3.21789 37.9031 2.43183 33.9199 2.40493V2.40493ZM33.6069 0H34.8223C38.8152 0.136373 42.7509 0.975431 46.442 2.47726V2.47726C52.3961 4.89174 57.517 8.93743 61.1937 14.1316C64.8703 19.3257 66.9473 25.4489 67.1769 31.7704V32.9819V34.1753C67.0381 38.0962 66.1836 41.9608 64.6541 45.5852C62.1952 51.4318 58.0751 56.4603 52.7855 60.0705C47.4959 63.6808 41.2601 65.7203 34.8223 65.9458H32.3915C23.9033 65.6584 15.8415 62.2225 9.83076 56.3303C3.82 50.4382 0.307107 42.5278 0 34.1934H0V33V31.7885C0.142439 27.8681 0.996792 24.0041 2.52282 20.3786V20.3786C4.98022 14.5259 9.10195 9.49179 14.3954 5.87799C19.6888 2.26419 25.93 0.223558 32.3731 0L33.6069 0Z" fill="white"/>
</svg>
