<svg width="105" height="103" viewBox="0 0 105 103" fill="none" xmlns="http://www.w3.org/2000/svg">
<path fill-rule="evenodd" clip-rule="evenodd" d="M59.7356 9.17358C68.6854 10.6667 76.9417 14.8529 83.3634 21.1535C89.7851 27.4542 94.0549 35.5581 95.5827 44.3451H59.7356V9.17358ZM95.5827 58.6564C94.0604 67.4485 89.7929 75.5586 83.3708 81.8648C76.9487 88.1709 68.6894 92.3613 59.7356 93.8561V58.6564H95.5827ZM45.1898 93.8561C36.2361 92.3613 27.9767 88.1709 21.5546 81.8648C15.1325 75.5586 10.8651 67.4485 9.34277 58.6564H45.1898V93.8561ZM9.34277 44.3451C10.8705 35.5581 15.1403 27.4542 21.562 21.1535C27.9837 14.8529 36.2401 10.6667 45.1898 9.17358V44.3451H9.34277Z" fill="#008BD2"/>
<path d="M52.9513 3.75426H51.9452C45.7364 3.79633 39.5952 5.02347 33.8635 7.36738C27.9496 9.76378 22.5763 13.2842 18.0524 17.7264C13.5285 22.1686 9.94334 27.4449 7.50287 33.252V33.252C5.11586 38.8802 3.86614 44.9105 3.8233 51.0071V51.5152V51.9951C3.97342 64.5124 9.137 76.4682 18.1966 85.2753C22.7296 89.7135 28.0999 93.2418 34.0073 95.663C39.7432 97.9933 45.8817 99.2199 52.0889 99.2761H53.095C62.6055 99.1287 71.8654 96.2592 79.7393 91.0195C87.6132 85.7798 93.7587 78.3977 97.4223 69.7784V69.7784C99.7956 64.1362 101.045 58.0994 101.102 51.9951V51.5152V51.0071C101.045 44.912 99.7954 38.8844 97.4223 33.252C94.9566 27.4513 91.3634 22.178 86.8436 17.7269C82.3327 13.2825 76.9685 9.76129 71.0617 7.36738V7.36738C65.3199 5.02333 59.1693 3.79626 52.9513 3.75426V3.75426ZM52.4626 0H54.3599C60.5932 0.212888 66.737 1.52271 72.499 3.86717V3.86717C81.7938 7.63633 89.788 13.9519 95.5274 22.0603C101.267 30.1687 104.509 39.7274 104.868 49.5957V51.487V53.35C104.651 59.4707 103.317 65.5036 100.929 71.1615C97.0909 80.2885 90.6592 88.1383 82.4017 93.7741C74.1442 99.4099 64.4097 102.594 54.3599 102.946H50.5653C37.3147 102.497 24.7297 97.1334 15.3465 87.9354C5.96327 78.7374 0.479414 66.3888 0 53.3782H0V51.5152V49.624C0.222357 43.5039 1.55606 37.472 3.93829 31.8124V31.8124C7.77445 22.6759 14.2087 14.8173 22.4722 9.17593C30.7356 3.53454 40.4785 0.348989 50.5366 0L52.4626 0Z" fill="#008BD2"/>
</svg>
