<svg width="27" height="34" viewBox="0 0 27 34" fill="none" xmlns="http://www.w3.org/2000/svg">
<path d="M5.08809e-05 0C-2.24789e-05 0.382022 5.06699e-06 0.515354 5.06699e-06 1.13341V34C0.191011 34 0.515257 34 1.13334 34H24.9311C25.5492 34 25.5955 34 25.9775 34L26.0644 7.3667C26.0645 7.20928 26.0644 7.32467 26.0644 7.14417L18.3371 1.78718e-05C18.1461 0 18.2761 0 18.1333 0H5.08809e-05ZM1.13334 1.13341H17.5644V8.50005H24.9311V32.8667H1.13334V1.13341ZM18.6978 1.85833L24.6644 7.3667H18.6978V1.85833ZM3.40111 4.53451C3.40111 4.96629 3.40111 5.04979 3.40111 5.66785V9.06895C3.62921 9.06895 3.91639 9.06895 4.53444 9.06895H6.79667C7.41473 9.06895 7.38845 9.06895 7.93112 9.06895V4.53451C7.44944 4.53451 7.41473 4.53451 6.79667 4.53451H3.40111ZM10.1978 5.09896C10.1978 5.61448 10.1978 5.92135 10.1978 6.23231H15.3055C15.3055 5.73034 15.3055 5.53933 15.3055 5.09896H10.1978ZM4.53444 5.66785H6.79667V7.9356H4.53444V5.66785ZM10.1978 7.3667C10.1978 7.83146 10.1978 8.21348 10.1978 8.50005H15.331C15.331 8.02247 15.331 7.83146 15.331 7.3667H10.1978ZM4.53444 11.3311C3.91639 11.3311 3.82023 11.3311 3.40111 11.3311V14.7323C3.40111 15.3503 3.40111 15.4719 3.40111 15.8667H6.79667C7.41473 15.8667 7.64045 15.8667 7.93112 15.8667V12.4656C7.93112 11.8475 7.93112 11.7078 7.93112 11.3311H4.53444ZM10.1978 13.0345H22.6633C22.6633 12.7978 22.6633 12.3714 22.6633 11.9H10.1978C10.1978 12.2782 10.1978 12.6616 10.1978 13.0345ZM4.53444 12.4656H6.79667V14.7323H4.53444V12.4656ZM10.1978 15.3011H22.6633C22.6633 14.8989 22.6633 14.6099 22.6633 14.1678H10.1978C10.1978 14.6203 10.1978 14.8989 10.1978 15.3011ZM4.53444 18.1334C3.91639 18.1334 3.62921 18.1334 3.40111 18.1334V21.5345C3.40111 22.1526 3.40111 22.4371 3.40111 22.6678H6.79667C7.41473 22.6678 7.64045 22.6678 7.93112 22.6678V19.2667C7.93112 18.6486 7.93112 18.4808 7.93112 18.1334H4.53444ZM10.1978 18.6978C10.1978 19.2667 10.2111 19.3875 10.1978 19.8311H22.0989C22.0989 19.3564 22.0989 19.4831 22.0989 18.6978H10.1978ZM4.53444 19.2667H6.79667V21.5345H4.53444V19.2667ZM10.2111 20.9656C10.1978 21.5345 10.1978 21.7089 10.2111 22.0989H22.0989C22.0989 21.6881 22.0989 21.4498 22.0989 20.9656H10.2111ZM3.40111 24.9356C3.40111 25.2135 3.40111 25.4509 3.40111 26.0689V28.3311C3.40111 28.9492 3.40111 29.0337 3.40111 29.4656H6.79667C7.41473 29.4656 7.64045 29.4656 7.93112 29.4656V26.0689C7.93112 25.4509 7.93112 25.4045 7.93112 24.9356H3.40111ZM10.1978 25.5C10.2111 26.0689 10.1978 26.2584 10.1978 26.6334H22.0989C22.0989 26.3596 22.0989 26.0689 22.0989 25.5H10.1978ZM4.53444 26.0689H6.79667V28.3311H4.53444V26.0689ZM10.1978 28.9H22.0989C22.0989 28.4607 22.0989 28.3829 22.0989 27.7666H10.1978C10.1978 28.3311 10.2111 28.4607 10.1978 28.9Z" fill="black"/>
</svg>
