<svg width="17" height="22" viewBox="0 0 17 22" fill="none" xmlns="http://www.w3.org/2000/svg">
<path d="M3.29229e-05 0C-1.45451e-05 0.247191 3.27864e-06 0.333464 3.27864e-06 0.733386V22C0.123596 22 0.333402 22 0.733336 22H16.1319C16.5318 22 16.5618 22 16.809 22L16.8652 4.76669C16.8653 4.66483 16.8652 4.73949 16.8652 4.6227L11.8652 1.15641e-05C11.7416 0 11.8257 0 11.7333 0H3.29229e-05ZM0.733336 0.733386H11.3652V5.50003H16.1319V21.2667H0.733336V0.733386ZM12.0986 1.20245L15.9593 4.76669H12.0986V1.20245ZM2.20072 2.93409C2.20072 3.21348 2.20072 3.26751 2.20072 3.66743V5.86814C2.34832 5.86814 2.53413 5.86814 2.93405 5.86814H4.39785C4.79777 5.86814 4.78076 5.86814 5.1319 5.86814V2.93409C4.82023 2.93409 4.79777 2.93409 4.39785 2.93409H2.20072ZM6.59857 3.29933C6.59857 3.6329 6.59857 3.83146 6.59857 4.03267H9.90357C9.90357 3.70787 9.90357 3.58427 9.90357 3.29933H6.59857ZM2.93405 3.66743H4.39785V5.1348H2.93405V3.66743ZM6.59857 4.76669C6.59857 5.06742 6.59857 5.31461 6.59857 5.50003H9.92004C9.92004 5.19101 9.92004 5.06742 9.92004 4.76669H6.59857ZM2.93405 7.33191C2.53413 7.33191 2.47191 7.33191 2.20072 7.33191V9.53266C2.20072 9.93258 2.20072 10.0112 2.20072 10.2667H4.39785C4.79777 10.2667 4.94382 10.2667 5.1319 10.2667V8.06597C5.1319 7.66605 5.1319 7.57566 5.1319 7.33191H2.93405ZM6.59857 8.43408H14.6645C14.6645 8.2809 14.6645 8.00504 14.6645 7.70002H6.59857C6.59857 7.94469 6.59857 8.1928 6.59857 8.43408ZM2.93405 8.06597H4.39785V9.53266H2.93405V8.06597ZM6.59857 9.90072H14.6645C14.6645 9.64045 14.6645 9.45348 14.6645 9.16742H6.59857C6.59857 9.46019 6.59857 9.64045 6.59857 9.90072ZM2.93405 11.7334C2.53413 11.7334 2.34832 11.7334 2.20072 11.7334V13.9341C2.20072 14.334 2.20072 14.5182 2.20072 14.6674H4.39785C4.79777 14.6674 4.94382 14.6674 5.1319 14.6674V12.4667C5.1319 12.0667 5.1319 11.9581 5.1319 11.7334H2.93405ZM6.59857 12.0986C6.59857 12.4667 6.60716 12.5448 6.59857 12.8319H14.2993C14.2993 12.5247 14.2993 12.6067 14.2993 12.0986H6.59857ZM2.93405 12.4667H4.39785V13.9341H2.93405V12.4667ZM6.60716 13.566C6.59857 13.9341 6.59857 14.0469 6.60716 14.2993H14.2993C14.2993 14.0335 14.2993 13.8793 14.2993 13.566H6.60716ZM2.20072 16.1348C2.20072 16.3146 2.20072 16.4682 2.20072 16.8681V18.3319C2.20072 18.7318 2.20072 18.7865 2.20072 19.066H4.39785C4.79777 19.066 4.94382 19.066 5.1319 19.066V16.8681C5.1319 16.4682 5.1319 16.4382 5.1319 16.1348H2.20072ZM6.59857 16.5C6.60716 16.8681 6.59857 16.9907 6.59857 17.2334H14.2993C14.2993 17.0562 14.2993 16.8681 14.2993 16.5H6.59857ZM2.93405 16.8681H4.39785V18.3319H2.93405V16.8681ZM6.59857 18.7H14.2993C14.2993 18.4157 14.2993 18.3654 14.2993 17.9667H6.59857C6.59857 18.3319 6.60716 18.4157 6.59857 18.7Z" fill="white"/>
</svg>
