<svg width="40" height="40" viewBox="0 0 40 40" fill="none" xmlns="http://www.w3.org/2000/svg">
<path d="M26.1167 23.3013C25.6626 22.6958 25.4355 21.7949 25.4355 20.5986C25.4355 19.4023 25.665 18.5015 26.124 17.896C26.583 17.2856 27.2642 16.9805 28.1675 16.9805C29.9692 16.9805 30.8701 18.1865 30.8701 20.5986C30.8701 23.0059 29.9644 24.2095 28.1528 24.2095C27.2495 24.2095 26.5708 23.9067 26.1167 23.3013Z" fill="#008BD2"/>
<path fill-rule="evenodd" clip-rule="evenodd" d="M20 40C31.0459 40 40 31.0457 40 20C40 8.95432 31.0459 0 20 0C8.9541 0 0 8.95432 0 20C0 31.0457 8.9541 40 20 40ZM18.5142 16.9951C17.6597 16.9951 16.998 17.3174 16.5293 17.9619C16.0605 18.6016 15.8262 19.4951 15.8262 20.6426C15.8262 23.0303 16.7222 24.2241 18.5142 24.2241C19.2661 24.2241 20.1768 24.0361 21.2461 23.6602V25.5645C20.3672 25.9307 19.3857 26.1138 18.3018 26.1138C16.7441 26.1138 15.5527 25.6426 14.7275 24.7002C13.9023 23.7529 13.4897 22.3955 13.4897 20.6279C13.4897 19.5146 13.6924 18.5405 14.0977 17.7056C14.5029 16.8657 15.084 16.2236 15.8408 15.7793C16.6025 15.3301 17.4937 15.1055 18.5142 15.1055C19.5542 15.1055 20.5991 15.3569 21.6489 15.8599L20.9165 17.7056C20.5161 17.5151 20.1133 17.3491 19.708 17.2075C19.3027 17.0659 18.9048 16.9951 18.5142 16.9951ZM21.605 12V12.1978C21.1948 12.6079 20.8164 13.0181 20.4697 13.4282C20.1279 13.8335 19.8813 14.1582 19.73 14.4023H17.1152C16.9736 14.1729 16.771 13.8994 16.5073 13.582C16.2437 13.2598 15.8213 12.7983 15.2402 12.1978V12H16.7271C17.4448 12.4541 18.0039 12.8838 18.4043 13.2891C18.8145 12.8643 19.3857 12.4346 20.1182 12H21.605ZM9 25.9673V15.2593H11.2705V25.9673H9ZM31.9321 24.6855C32.811 23.7334 33.2505 22.3711 33.2505 20.5986C33.2505 18.8213 32.8135 17.459 31.9395 16.5117C31.0703 15.5645 29.813 15.0908 28.1675 15.0908C26.522 15.0908 25.2573 15.562 24.3735 16.5044C23.4946 17.4419 23.0552 18.8018 23.0552 20.584C23.0552 22.3662 23.4946 23.7334 24.3735 24.6855C25.2524 25.6377 26.5122 26.1138 28.1528 26.1138C29.7935 26.1138 31.0532 25.6377 31.9321 24.6855Z" fill="#008BD2"/>
</svg>
