<svg width="24" height="20" viewBox="0 0 24 20" fill="none" xmlns="http://www.w3.org/2000/svg">
<path fill-rule="evenodd" clip-rule="evenodd" d="M22 14L12 14.5L2 14V19H22V14ZM1 13.5V20H23V13.5L12 14L1 13.5Z" fill="white"/>
<path fill-rule="evenodd" clip-rule="evenodd" d="M23 4H1V13.1342L12 13.9969L23 13.1342V4ZM24 14.0588L12 15L0 14.0588V3H24V14.0588Z" fill="white"/>
<path fill-rule="evenodd" clip-rule="evenodd" d="M17 1H7V3H17V1ZM6 0V4H18V0H6Z" fill="white"/>
<path fill-rule="evenodd" clip-rule="evenodd" d="M11 13V17H13V13H11Z" fill="white"/>
<path fill-rule="evenodd" clip-rule="evenodd" d="M11 13V17H13V13H11Z" fill="white"/>
</svg>
