<svg width="29" height="40" viewBox="0 0 29 40" fill="none" xmlns="http://www.w3.org/2000/svg">
<path fill-rule="evenodd" clip-rule="evenodd" d="M21.7392 29.4214C26.1978 22.5623 28.459 17.4507 28.459 14.2295C28.459 6.38334 22.0757 0 14.2295 0C6.38334 0 0 6.38334 0 14.2295C0 17.4507 2.2612 22.5623 6.71985 29.4213C9.90403 34.3191 13.1319 38.4226 13.3081 38.6465C13.3122 38.6517 13.3146 38.6549 13.3154 38.6558L14.2295 39.8094L15.1436 38.6559C15.1444 38.6549 15.1468 38.6518 15.1509 38.6467C15.3265 38.4234 18.5547 34.3195 21.7392 29.4214ZM22.1944 13.9144C22.1944 18.3134 18.6283 21.8795 14.2293 21.8795C9.83027 21.8795 6.26416 18.3134 6.26416 13.9144C6.26416 9.51533 9.83027 5.94922 14.2293 5.94922C18.6283 5.94922 22.1944 9.51533 22.1944 13.9144Z" fill="#008BD2"/>
</svg>
