<svg width="20" height="28" viewBox="0 0 20 28" fill="none" xmlns="http://www.w3.org/2000/svg">
<path d="M10.0046 0.500001C8.85634 0.499487 7.71926 0.7176 6.65828 1.14189C5.59731 1.56617 4.63323 2.18831 3.82113 2.97277C3.00902 3.75722 2.36481 4.68862 1.92528 5.71374C1.48575 6.73887 1.25952 7.83764 1.25952 8.94728C1.25952 16.0402 10.0005 26.8146 10.0005 26.8146C10.0005 26.8146 18.7405 16.0402 18.7405 8.94728C18.7405 6.70777 17.8203 4.55991 16.1821 2.97588C14.5439 1.39185 12.3219 0.501298 10.0046 0.500001ZM10.0046 12.9537C9.18433 12.9539 8.38247 12.719 7.70039 12.2787C7.01831 11.8385 6.48667 11.2126 6.17269 10.4803C5.85871 9.74802 5.77651 8.94219 5.93648 8.16474C6.09645 7.3873 6.49139 6.67316 7.07138 6.11266C7.65137 5.55216 8.39034 5.17048 9.19482 5.01588C9.99929 4.86129 10.8331 4.94073 11.5909 5.24416C12.3486 5.54759 12.9963 6.06138 13.4518 6.72054C13.9074 7.3797 14.1505 8.15461 14.1503 8.94728C14.15 10.0098 13.7131 11.0287 12.9357 11.7799C12.1583 12.5312 11.104 12.9534 10.0046 12.9537Z" fill="#008BD2" stroke="white" stroke-width="0.54" stroke-miterlimit="10"/>
</svg>
