<svg xmlns="http://www.w3.org/2000/svg" viewBox="0 0 260 276.19"><defs><style>.cls-1,.cls-2{fill:#005fa6;}.cls-1{fill-rule:evenodd;}</style></defs><g id="Layer_2" data-name="Layer 2"><g id="Vrstva_1" data-name="Vrstva 1"><path class="cls-1" d="M148.38,92.25l-18,18L94.27,74.13,76.55,91.85,130,145.31l53.45-53.46L152.08,60.47l17.84-17.84,49.23,49.22L130,181,40.85,91.85,94.08,38.64c18.29,18.28,36.36,35.66,54.3,53.61M130,221.85,0,91.85,91.74.12l38.14,38.14L168.14,0,260,91.85Z"/><path class="cls-2" d="M2.53,243.31H24.61V250H10.89l-.09,6.14H24.47v6.38H10.75l-.09,12.79H2.25Z"/><path class="cls-2" d="M29.74,243.31H39.81l11,21h.1l.18-21h7.53l-.28,32h-9.6l-11.5-21h-.1l-.18,21H29.46Z"/><path class="cls-2" d="M86,243.31H96.39L101,266.68h.1l5.72-23.37h10.44l6.33,32h-8.31l-3.51-22.82h-.1L106,275.27H96.43l-5.31-22.82H91l-4.62,22.82H78.28Z"/><path class="cls-2" d="M144.14,242.38c10.86,0,17.23,7.63,17.23,16.91s-6.37,16.9-17.23,16.9-17.27-7.62-17.27-16.9S133.24,242.38,144.14,242.38Zm0,27.16c4.8,0,8.68-3.23,8.68-10.25S148.9,249,144.1,249s-8.64,3.23-8.64,10.25S139.34,269.54,144.1,269.54Z"/><path class="cls-2" d="M163.54,243.31h26.15V250h-8.64l-.28,25.31h-8.31l.28-25.31h-9.2Z"/><path class="cls-2" d="M209.13,242.38c10.86,0,17.23,7.63,17.23,16.91s-6.37,16.9-17.23,16.9-17.27-7.62-17.27-16.9S198.23,242.38,209.13,242.38Zm0,27.16c4.8,0,8.68-3.23,8.68-10.25S213.89,249,209.09,249s-8.64,3.23-8.64,10.25S204.33,269.54,209.09,269.54Z"/><path class="cls-2" d="M232.18,243.31h8.31l-.27,25h14.41l-.14,6.93H231.9Z"/></g></g></svg>