<svg width="48" height="49" viewBox="0 0 48 49" fill="none" xmlns="http://www.w3.org/2000/svg">
<path d="M11.375 46.353H34.125V48.71H11.375V46.353Z" fill="#8CC152"/>
<path d="M11.375 43.9961H34.125V46.353H11.375V43.9961Z" fill="#8CC152"/>
<path d="M34.125 43.9961H11.375V41.6387H14.625H30.875H34.125V43.9961Z" fill="#8CC152"/>
<path d="M34.125 38.4966V41.6387H30.875C30.8749 41.226 30.9589 40.8174 31.1222 40.4361C31.2854 40.0548 31.5248 39.7084 31.8266 39.4166C32.1285 39.1248 32.4868 38.8934 32.8811 38.7355C33.2755 38.5777 33.6982 38.4965 34.125 38.4966Z" fill="#8CC152"/>
<path d="M34.125 30.6401V33.7827C33.6982 33.7828 33.2755 33.7016 32.8811 33.5437C32.4868 33.3858 32.1285 33.1544 31.8266 32.8625C31.5248 32.5707 31.2854 32.2242 31.1222 31.8429C30.9589 31.4616 30.8749 31.0529 30.875 30.6401H34.125Z" fill="#8CC152"/>
<path d="M22.75 39.2817C24.5449 39.2817 26 37.8749 26 36.1394C26 34.4039 24.5449 32.9971 22.75 32.9971C20.9551 32.9971 19.5 34.4039 19.5 36.1394C19.5 37.8749 20.9551 39.2817 22.75 39.2817Z" fill="#8CC152"/>
<path d="M30.875 41.6387H14.625C14.6251 41.226 14.5411 40.8173 14.3778 40.436C14.2146 40.0547 13.9752 39.7082 13.6734 39.4164C13.3715 39.1246 13.0132 38.8931 12.6189 38.7352C12.2245 38.5773 11.8018 38.4961 11.375 38.4962V33.7826C11.8018 33.7827 12.2245 33.7015 12.6189 33.5436C13.0132 33.3857 13.3715 33.1543 13.6734 32.8624C13.9752 32.5706 14.2146 32.2241 14.3778 31.8428C14.5411 31.4615 14.6251 31.0528 14.625 30.6401H30.875C30.8749 31.0528 30.9589 31.4615 31.1222 31.8428C31.2854 32.2241 31.5248 32.5706 31.8266 32.8624C32.1285 33.1543 32.4868 33.3857 32.8811 33.5436C33.2755 33.7015 33.6982 33.7827 34.125 33.7826V38.4962C33.6982 38.4961 33.2755 38.5773 32.8811 38.7352C32.4868 38.8931 32.1285 39.1246 31.8266 39.4164C31.5248 39.7082 31.2854 40.0547 31.1222 40.436C30.9589 40.8173 30.8749 41.226 30.875 41.6387ZM22.75 32.997C22.1072 32.997 21.4789 33.1813 20.9444 33.5266C20.4099 33.8719 19.9934 34.3626 19.7474 34.9368C19.5014 35.511 19.437 36.1429 19.5624 36.7525C19.6878 37.362 19.9974 37.922 20.4519 38.3614C20.9064 38.8009 21.4855 39.1002 22.116 39.2215C22.7464 39.3427 23.3999 39.2805 23.9937 39.0426C24.5876 38.8048 25.0952 38.402 25.4523 37.8853C25.8094 37.3685 26 36.7609 26 36.1394C26.0001 35.7267 25.9161 35.318 25.7528 34.9367C25.5896 34.5554 25.3502 34.2089 25.0484 33.9171C24.7465 33.6253 24.3882 33.3938 23.9939 33.2359C23.5995 33.0781 23.1768 32.9969 22.75 32.997Z" fill="#A0D468"/>
<path d="M11.375 30.6401H14.625C14.6251 31.0529 14.5411 31.4616 14.3778 31.8429C14.2146 32.2242 13.9752 32.5707 13.6734 32.8625C13.3715 33.1544 13.0132 33.3858 12.6189 33.5437C12.2245 33.7016 11.8018 33.7828 11.375 33.7827V30.6401Z" fill="#8CC152"/>
<path d="M14.625 41.6387H11.375V38.4966C11.8018 38.4965 12.2245 38.5777 12.6189 38.7355C13.0132 38.8934 13.3715 39.1248 13.6734 39.4166C13.9752 39.7084 14.2146 40.0548 14.3778 40.4361C14.5411 40.8174 14.6251 41.226 14.625 41.6387Z" fill="#8CC152"/>
<path d="M32.5 9.19973V21.2119H13V9.19973L22.75 3.14258L32.5 9.19973Z" fill="#D7E9FC"/>
<path d="M13 9.1999L11.375 10.2134V7.0708L22.75 0L34.125 7.0708V10.2134L32.5 9.1999L22.75 3.14258L13 9.1999Z" fill="#4B5055"/>
<path d="M33.3125 21.998H12.1875C11.972 21.998 11.7653 21.9153 11.613 21.7679C11.4606 21.6206 11.375 21.4208 11.375 21.2124C11.375 21.004 11.4606 20.8042 11.613 20.6569C11.7653 20.5095 11.972 20.4268 12.1875 20.4268H33.3125C33.528 20.4268 33.7347 20.5095 33.887 20.6569C34.0394 20.8042 34.125 21.004 34.125 21.2124C34.125 21.4208 34.0394 21.6206 33.887 21.7679C33.7347 21.9153 33.528 21.998 33.3125 21.998Z" fill="#4B5055"/>
<path d="M4.88771 39.2773C4.7567 39.2776 4.62757 39.2471 4.51137 39.1886C4.39517 39.1301 4.29534 39.0452 4.22041 38.9413C1.47195 35.1203 -0.000850805 30.5773 3.68729e-07 25.9229C0.000851542 21.2686 1.47531 16.7261 4.22517 12.906C4.34849 12.7351 4.53698 12.6185 4.74917 12.582C4.96136 12.5455 5.17988 12.5919 5.35665 12.7112C5.53342 12.8304 5.65396 13.0127 5.69175 13.2178C5.72955 13.423 5.6815 13.6343 5.55818 13.8052C2.99842 17.3615 1.62587 21.5902 1.62502 25.923C1.62418 30.2557 2.99508 34.4849 5.55345 38.0421C5.63844 38.1598 5.68843 38.2978 5.698 38.4411C5.70757 38.5844 5.67635 38.7275 5.60773 38.8548C5.53911 38.9821 5.43572 39.0888 5.30878 39.1633C5.18185 39.2378 5.03623 39.2773 4.88774 39.2773H4.88771Z" fill="#4B5055"/>
<path d="M5.68742 16.4985C5.5161 16.4985 5.34919 16.4461 5.21052 16.3488C5.07186 16.2515 4.96856 16.1143 4.91537 15.9569L4.11953 13.5999C4.08604 13.5018 4.07291 13.3982 4.08088 13.2952C4.08885 13.1921 4.11777 13.0916 4.16598 12.9994C4.21419 12.9072 4.28075 12.8251 4.36184 12.7578C4.44292 12.6905 4.53695 12.6393 4.63852 12.6072C4.74009 12.5751 4.84722 12.5627 4.95376 12.5707C5.0603 12.5787 5.16416 12.607 5.25938 12.6539C5.35461 12.7007 5.43933 12.7653 5.5087 12.8439C5.57806 12.9225 5.63071 13.0136 5.66361 13.1119L6.45946 15.4689C6.49265 15.5669 6.50554 15.6703 6.49738 15.7732C6.48922 15.876 6.46017 15.9763 6.41191 16.0683C6.36364 16.1603 6.29709 16.2422 6.21608 16.3093C6.13506 16.3764 6.04116 16.4274 5.93974 16.4594C5.85834 16.4854 5.77315 16.4986 5.68742 16.4985Z" fill="#4B5055"/>
<path d="M2.43737 14.9263C2.24433 14.9262 2.05762 14.8598 1.91066 14.7387C1.76371 14.6177 1.66612 14.45 1.63537 14.2658C1.60463 14.0815 1.64274 13.8927 1.74288 13.7331C1.84302 13.5735 1.99865 13.4536 2.18188 13.3949L4.63604 12.6101C4.73761 12.5765 4.84505 12.5627 4.95216 12.5696C5.05926 12.5764 5.16391 12.6037 5.26005 12.6498C5.35619 12.696 5.44192 12.7601 5.51228 12.8385C5.58265 12.9168 5.63626 13.0079 5.67002 13.1064C5.70377 13.2049 5.71701 13.309 5.70895 13.4125C5.7009 13.5159 5.67171 13.6169 5.62309 13.7094C5.57447 13.8019 5.50736 13.8842 5.42566 13.9515C5.34395 14.0188 5.24926 14.0698 5.14706 14.1015L2.69289 14.8864C2.61043 14.9126 2.52419 14.9261 2.43737 14.9263Z" fill="#4B5055"/>
<path d="M42.2328 39.2773C42.0844 39.2773 41.9387 39.2378 41.8118 39.1633C41.6849 39.0888 41.5815 38.9821 41.5129 38.8548C41.4442 38.7275 41.413 38.5844 41.4226 38.4411C41.4322 38.2978 41.4821 38.1598 41.5671 38.0421C44.1269 34.4859 45.4994 30.2572 45.5003 25.9244C45.5011 21.5916 44.1302 17.3624 41.5719 13.8052C41.4485 13.6343 41.4005 13.423 41.4383 13.2178C41.4761 13.0127 41.5966 12.8304 41.7734 12.7112C41.9502 12.5919 42.1687 12.5455 42.3809 12.582C42.5931 12.6185 42.7815 12.7351 42.9049 12.906C45.6533 16.727 47.1261 21.27 47.1252 25.9244C47.1244 30.5787 45.6499 35.1213 42.9001 38.9413C42.8251 39.0452 42.7253 39.1299 42.6091 39.1885C42.4929 39.247 42.3638 39.2775 42.2328 39.2773Z" fill="#4B5055"/>
<path d="M42.2336 39.2773C42.0622 39.2773 41.8953 39.2249 41.7567 39.1276C41.618 39.0303 41.5147 38.8932 41.4615 38.7357L40.6657 36.3789C40.5988 36.1809 40.6159 35.9654 40.7134 35.7796C40.8108 35.5939 40.9806 35.4532 41.1854 35.3885C41.3902 35.3238 41.6131 35.3404 41.8052 35.4346C41.9973 35.5288 42.1428 35.693 42.2098 35.891L43.0056 38.2478C43.0388 38.3458 43.0517 38.4492 43.0435 38.552C43.0354 38.6549 43.0063 38.7552 42.958 38.8472C42.9098 38.9391 42.8432 39.021 42.7622 39.0881C42.6812 39.1552 42.5873 39.2062 42.4859 39.2382C42.4045 39.2642 42.3193 39.2774 42.2336 39.2773Z" fill="#4B5055"/>
<path d="M42.2333 39.2773C42.0402 39.2773 41.8535 39.2108 41.7066 39.0898C41.5596 38.9688 41.462 38.8011 41.4313 38.6168C41.4005 38.4326 41.4386 38.2437 41.5388 38.0842C41.6389 37.9246 41.7945 37.8047 41.9778 37.746L44.4319 36.9612C44.5332 36.9285 44.6402 36.9155 44.7468 36.9229C44.8533 36.9303 44.9573 36.9579 45.0528 37.0042C45.1482 37.0505 45.2333 37.1145 45.3032 37.1926C45.3731 37.2707 45.4263 37.3614 45.4599 37.4594C45.4935 37.5575 45.5067 37.6609 45.4989 37.7639C45.4911 37.8669 45.4624 37.9674 45.4144 38.0597C45.3663 38.1519 45.3 38.2341 45.2191 38.3015C45.1382 38.369 45.0443 38.4203 44.9429 38.4526L42.4888 39.2374C42.4063 39.2637 42.3201 39.2772 42.2333 39.2773Z" fill="#4B5055"/>
<path d="M11.375 42.4248H34.125V43.2104H11.375V42.4248Z" fill="#A0D468"/>
<path d="M11.375 43.9961H34.125V44.7817H11.375V43.9961Z" fill="#A0D468"/>
<path d="M11.375 45.5674H34.125V46.354H11.375V45.5674Z" fill="#A0D468"/>
<path d="M11.375 47.1387H34.125V47.9238H11.375V47.1387Z" fill="#A0D468"/>
</svg>
