<svg width="41" height="50" viewBox="0 0 41 50" fill="none" xmlns="http://www.w3.org/2000/svg">
<path d="M7.3009 49.3139L40.3745 44.2068L33.0735 -5.44858e-05L-0.000123012 5.10707L7.3009 49.3139Z" fill="#F0F0F0"/>
<path d="M18.1284 19.0806C22.2595 19.0806 25.6084 15.8424 25.6084 11.8479C25.6084 7.85341 22.2595 4.61523 18.1284 4.61523C13.9973 4.61523 10.6484 7.85341 10.6484 11.8479C10.6484 15.8424 13.9973 19.0806 18.1284 19.0806Z" fill="white"/>
<path d="M20.391 15.9329C20.4734 16.3966 20.1514 16.8371 19.673 16.9163L18.4204 17.1234C17.9419 17.2026 17.4858 16.8914 17.404 16.4286L15.8703 7.76243C15.7878 7.2987 16.1103 6.85873 16.5889 6.78016L17.842 6.57185C18.3206 6.4927 18.775 6.80452 18.8575 7.26724L20.391 15.9329Z" fill="#D62127"/>
<path d="M13.9055 14.0336C13.4265 14.1127 12.9709 13.802 12.889 13.3383L12.6742 12.1272C12.5928 11.6646 12.9148 11.2248 13.3934 11.1445L22.3559 9.66167C22.8349 9.58253 23.2905 9.8949 23.3724 10.357L23.5872 11.567C23.6686 12.0307 23.346 12.4712 22.8681 12.5503L13.9055 14.0336Z" fill="#D62127"/>
<path d="M7.17711 28.4248L34.1499 24.2598L33.8773 22.6094L6.90454 26.7744L7.17711 28.4248Z" fill="#008BD2"/>
<path d="M7.95537 32.5449L34.9277 28.3799L34.6552 26.7295L7.6828 30.8945L7.95537 32.5449Z" fill="#008BD2"/>
<path d="M8.67321 36.9271L35.646 32.7625L35.3734 31.1122L8.40063 35.2769L8.67321 36.9271Z" fill="#008BD2"/>
</svg>
