<svg width="38" height="38" viewBox="0 0 38 38" fill="none" xmlns="http://www.w3.org/2000/svg">
<path d="M17.0444 10.1858L6.85733 -0.000244141L4.75027 2.10682L14.9371 12.2936L17.0444 10.1858Z" fill="#008BD2"/>
<path d="M3.33525 3.52021L1.74381 5.11165C0.746677 6.10878 0.175522 7.4507 0.0346756 9.06536C0.0218849 9.21197 0.0126457 9.36084 0.00695419 9.51189C0.00237274 9.63319 6.10352e-05 9.7559 6.10352e-05 9.87999C6.10352e-05 11.479 0.380287 13.3071 1.14385 15.3075C2.74178 19.4918 5.85629 24.03 9.91287 28.0866C13.9214 32.0951 18.4131 35.1917 22.56 36.8049C26.9815 38.5248 30.595 38.3828 32.7358 36.4047L32.7685 36.3741L34.4788 34.6638L24.2914 24.4764L22.8642 25.9037C20.8195 24.5529 18.8351 22.9222 16.9541 21.0455L16.9541 21.0444C16.9393 21.0306 16.925 21.0163 16.9105 21.0019L16.9076 20.999C15.0484 19.1398 13.427 17.1761 12.0778 15.1534L13.5231 13.7081L3.33525 3.52021Z" fill="#008BD2"/>
<path d="M37.9992 31.1417L27.8121 20.9557L25.7056 23.0622L35.8922 33.2487L37.9992 31.1417Z" fill="#008BD2"/>
</svg>
