<svg width="41" height="40" viewBox="0 0 41 40" fill="none" xmlns="http://www.w3.org/2000/svg">
<path d="M35.1098 0H5.89012C2.9133 0 0.5 2.41318 0.5 5.39008V34.6097C0.5 37.5866 2.9132 39.9998 5.89012 39.9998H20.3011L20.3257 25.706H16.6121C16.1295 25.706 15.7378 25.3158 15.736 24.8332L15.7182 20.2257C15.7163 19.7405 16.1092 19.3462 16.5944 19.3462H20.3012V14.8942C20.3012 9.72768 23.4566 6.91449 28.0655 6.91449H31.8474C32.3313 6.91449 32.7237 7.30677 32.7237 7.79074V11.6758C32.7237 12.1596 32.3316 12.5517 31.8479 12.552L29.527 12.5531C27.0205 12.5531 26.5352 13.7441 26.5352 15.492V19.3463H32.0427C32.5675 19.3463 32.9747 19.8045 32.9128 20.3256L32.3667 24.9331C32.3145 25.374 31.9406 25.7062 31.4966 25.7062H26.5598L26.5352 40H35.11C38.0868 40 40.5 37.5868 40.5 34.61V5.39008C40.4999 2.41318 38.0867 0 35.1098 0Z" fill="white"/>
</svg>
