<svg width="41" height="40" viewBox="0 0 41 40" fill="none" xmlns="http://www.w3.org/2000/svg">
<path d="M36.8817 0H4.11832C2.12 0 0.5 1.62 0.5 3.61832V36.3816C0.5 38.38 2.12 40 4.11832 40H36.8816C38.88 40 40.5 38.38 40.5 36.3816V3.61832C40.5 1.62 38.88 0 36.8817 0ZM12.8777 34.5386C12.8777 35.1202 12.4063 35.5916 11.8247 35.5916H7.34241C6.76084 35.5916 6.28942 35.1202 6.28942 34.5386V15.749C6.28942 15.1674 6.76084 14.696 7.34241 14.696H11.8247C12.4063 14.696 12.8777 15.1674 12.8777 15.749V34.5386ZM9.58356 12.9248C7.23183 12.9248 5.32534 11.0183 5.32534 8.6666C5.32534 6.31487 7.23183 4.40838 9.58356 4.40838C11.9353 4.40838 13.8418 6.31487 13.8418 8.6666C13.8418 11.0183 11.9354 12.9248 9.58356 12.9248ZM36.3021 34.6235C36.3021 35.1581 35.8686 35.5916 35.3339 35.5916H30.5241C29.9894 35.5916 29.5559 35.1581 29.5559 34.6235V25.8101C29.5559 24.4953 29.9416 20.0487 26.12 20.0487C23.1557 20.0487 22.5544 23.0923 22.4337 24.4581V34.6235C22.4337 35.1581 22.0003 35.5916 21.4655 35.5916H16.8136C16.279 35.5916 15.8454 35.1581 15.8454 34.6235V15.6642C15.8454 15.1295 16.279 14.696 16.8136 14.696H21.4655C22.0002 14.696 22.4337 15.1295 22.4337 15.6642V17.3035C23.5329 15.6539 25.1664 14.3807 28.6444 14.3807C36.3462 14.3807 36.3021 21.5761 36.3021 25.5296V34.6235Z" fill="white"/>
</svg>
