<svg width="41" height="40" viewBox="0 0 41 40" fill="none" xmlns="http://www.w3.org/2000/svg">
<path d="M28.5838 0H12.4162C5.84559 0 0.5 5.34559 0.5 11.9162V28.0838C0.5 34.6544 5.84559 40 12.4162 40H28.5838C35.1544 40 40.5 34.6544 40.5 28.0838V11.9162C40.4999 5.34559 35.1543 0 28.5838 0ZM36.476 28.0838C36.476 32.4425 32.9425 35.976 28.5838 35.976H12.4162C8.0575 35.976 4.524 32.4425 4.524 28.0838V11.9162C4.524 7.55743 8.0575 4.024 12.4162 4.024H28.5838C32.9425 4.024 36.476 7.55743 36.476 11.9162V28.0838Z" fill="#F3A07C"/>
<path d="M20.5 9.65454C14.7955 9.65454 10.1545 14.2955 10.1545 19.9999C10.1545 25.7043 14.7955 30.3453 20.5 30.3453C26.2044 30.3453 30.8454 25.7044 30.8454 19.9999C30.8454 14.2954 26.2044 9.65454 20.5 9.65454ZM20.5 26.3214C17.0087 26.3214 14.1785 23.4912 14.1785 20C14.1785 16.5087 17.0088 13.6785 20.5 13.6785C23.9912 13.6785 26.8214 16.5087 26.8214 20C26.8214 23.4911 23.9911 26.3214 20.5 26.3214Z" fill="#F3A07C"/>
<path d="M30.8654 12.2111C32.2346 12.2111 33.3444 11.1013 33.3444 9.73215C33.3444 8.36305 32.2346 7.25317 30.8654 7.25317C29.4963 7.25317 28.3865 8.36305 28.3865 9.73215C28.3865 11.1013 29.4963 12.2111 30.8654 12.2111Z" fill="#F3A07C"/>
</svg>
