<svg width="35" height="33" viewBox="0 0 35 33" fill="none" xmlns="http://www.w3.org/2000/svg">
<path d="M16.4 33H13.6C12.6538 33 11.855 32.2913 11.7425 31.35L11.4437 29.005C10.8475 28.8113 10.2725 28.5725 9.72625 28.2938L7.85875 29.745C7.10125 30.3312 6.035 30.2638 5.3775 29.5875L3.40875 27.6187C2.7375 26.9675 2.67 25.9012 3.25625 25.145L4.7075 23.2763C4.4275 22.73 4.18875 22.155 3.99625 21.5588L1.64625 21.26C0.70875 21.145 0 20.3463 0 19.4V16.6C0 15.6538 0.70875 14.855 1.65 14.7425L3.995 14.4437C4.18875 13.8475 4.4275 13.2725 4.70625 12.7262L3.25625 10.8588C2.66875 10.1013 2.7375 9.03375 3.415 8.37625L5.38375 6.4075C6.035 5.73625 7.1025 5.67 7.8575 6.255L9.725 7.7075C10.2713 7.42875 10.8462 7.19 11.4437 6.99625L11.7425 4.64625C11.855 3.70875 12.6538 3 13.6 3H16.4C17.3463 3 18.145 3.70875 18.2575 4.65L18.5562 6.995C19.1537 7.18875 19.7287 7.4275 20.275 7.70625L22.1425 6.255C22.9013 5.66875 23.9662 5.73625 24.6237 6.41375L26.5925 8.3825C27.2638 9.03375 27.3312 10.1 26.745 10.8562L25.2938 12.725C25.5738 13.2713 25.8125 13.8463 26.005 14.4425L28.355 14.7412C29.2913 14.855 30 15.6538 30 16.6V19.4C30 20.3463 29.2913 21.145 28.35 21.2575L26.005 21.5562C25.8113 22.1525 25.5725 22.7275 25.2938 23.2738L26.745 25.1412C27.3325 25.8987 27.2637 26.965 26.5862 27.6225L24.6175 29.5913C23.9662 30.2625 22.8988 30.3313 22.1437 29.7438L20.275 28.2925C19.7287 28.5725 19.1537 28.8112 18.5575 29.0037L18.2588 31.3538C18.145 32.2913 17.3463 33 16.4 33ZM9.6625 26.925C9.76625 26.925 9.8725 26.9512 9.9675 27.0037C10.6562 27.3887 11.4025 27.6987 12.185 27.9237C12.425 27.9925 12.6012 28.1975 12.6325 28.445L12.9825 31.195C13.02 31.5087 13.2913 31.75 13.6 31.75H16.4C16.7087 31.75 16.98 31.5088 17.0163 31.2013L17.3675 28.4463C17.3988 28.1987 17.575 27.9938 17.815 27.925C18.5975 27.7 19.3437 27.39 20.0325 27.005C20.2512 26.8825 20.5238 26.9037 20.72 27.0575L22.9075 28.7575C23.1588 28.9525 23.5113 28.9363 23.7263 28.715L25.7075 26.7337C25.9338 26.5138 25.9513 26.1612 25.7562 25.9087L24.0563 23.7212C23.9025 23.5238 23.8812 23.2525 24.0037 23.0338C24.3887 22.345 24.6987 21.5988 24.9237 20.8162C24.9925 20.5763 25.1975 20.4 25.445 20.3688L28.195 20.0187C28.5087 19.98 28.75 19.7087 28.75 19.4V16.6C28.75 16.2913 28.5088 16.02 28.2013 15.9838L25.4463 15.6325C25.1987 15.6012 24.9938 15.425 24.925 15.185C24.7 14.4025 24.39 13.6562 24.005 12.9675C23.8825 12.7487 23.9025 12.4775 24.0575 12.28L25.7575 10.0925C25.9538 9.84 25.9363 9.4875 25.7162 9.275L23.735 7.29375C23.5163 7.06625 23.1625 7.04875 22.91 7.245L20.7225 8.945C20.5237 9.09875 20.2525 9.12 20.0338 8.9975C19.3475 8.6125 18.6012 8.30375 17.8162 8.0775C17.5763 8.00875 17.4 7.80375 17.3688 7.55625L17.0187 4.80625C16.98 4.49125 16.7087 4.25 16.4 4.25H13.6C13.2913 4.25 13.02 4.49125 12.9838 4.79875L12.6325 7.55375C12.6012 7.80125 12.425 8.00625 12.185 8.07625C11.4 8.30125 10.6538 8.61125 9.9675 8.995C9.74875 9.11875 9.4775 9.09625 9.27875 8.94375L7.09125 7.24375C6.83875 7.0475 6.4875 7.065 6.27375 7.285L4.2925 9.2675C4.06625 9.4875 4.04875 9.84 4.24375 10.0925L5.94375 12.28C6.0975 12.4775 6.11875 12.7487 5.99625 12.9675C5.61 13.6562 5.30125 14.4025 5.07625 15.185C5.0075 15.425 4.8025 15.6012 4.555 15.6325L1.805 15.9825C1.49125 16.02 1.25 16.2913 1.25 16.6V19.4C1.25 19.7087 1.49125 19.98 1.79875 20.0163L4.55375 20.3675C4.80125 20.3988 5.00625 20.575 5.075 20.815C5.3 21.5975 5.61 22.3437 5.995 23.0325C6.1175 23.2512 6.0975 23.5225 5.9425 23.72L4.2425 25.9075C4.04625 26.16 4.06375 26.5125 4.28375 26.725L6.265 28.7063C6.48375 28.9325 6.835 28.95 7.09 28.755L9.2775 27.055C9.39125 26.97 9.52625 26.925 9.6625 26.925Z" fill="black"/>
<path d="M15 24.25C11.5538 24.25 8.75 21.4462 8.75 18C8.75 14.5538 11.5538 11.75 15 11.75C18.4462 11.75 21.25 14.5538 21.25 18C21.25 21.4462 18.4462 24.25 15 24.25ZM15 13C12.2425 13 10 15.2425 10 18C10 20.7575 12.2425 23 15 23C17.7575 23 20 20.7575 20 18C20 15.2425 17.7575 13 15 13Z" fill="black"/>
<path d="M34.4704 10.9489C34.1239 10.3225 33.6203 9.79043 33.014 9.41008L30.8398 8.04617C31.2032 7.54663 31.4179 6.93235 31.4179 6.26875V2.05078C31.4179 0.919981 30.498 0 29.3672 0H26.6328C25.502 0 24.582 0.919981 24.582 2.05078V6.26875C24.582 6.93232 24.7967 7.54663 25.1601 8.04614L25.5 8C24.8936 8.38038 25.8465 7.87369 25.5 8.5C25.1535 9.12631 26.5 9.28425 26.5 10L24.6846 13.5898C24.6846 13.8164 24.7735 14 25 14H25.375H34.5898C34.8163 14 35 13.8164 35 13.5898V13.0003C35 12.2846 34.8168 11.5752 34.4704 10.9489ZM25.7851 10.8555C26.0113 10.8555 26.1953 11.0395 26.1953 11.2656C26.1953 11.4918 26.0113 11.6758 25.7851 11.6758C25.559 11.6758 25.375 11.4918 25.375 11.2656C25.375 11.0395 25.559 10.8555 25.7851 10.8555ZM25.4023 5.41021H30.5976V6.26875C30.5976 7.48615 29.6072 8.47656 28.3898 8.47656H27.6101C26.3927 8.47656 25.4023 7.48615 25.4023 6.26875V5.41021ZM26.6328 0.820312H29.3672C30.0456 0.820312 30.5976 1.3723 30.5976 2.05078V4.58989H25.4023V2.05078C25.4023 1.3723 25.9543 0.820312 26.6328 0.820312ZM34.1797 13.1797H25H24.7684L26.5 10C26.5 8.81612 25 9 25.7851 8.74585H25.9773L26.1198 10.1104C25.6353 10.2758 25.1601 11.136 25.1601 11.6758C25.1601 12.3543 25.1066 12.4961 25.7851 12.4961C26.4636 12.4961 27.0156 11.9441 27.0156 11.2656C27.0156 10.736 26.6792 10.2835 26.209 10.1104V8.95254C26.6282 9.1723 27.1048 9.29688 27.6101 9.29688H28.3898C28.9076 9.29688 29.3954 9.16614 29.8221 8.93613L29.8292 10.0078H29.3398C28.8121 10.0078 28.3828 10.4371 28.3828 10.9648V11.6758C28.3828 12.0527 28.6894 12.3594 29.0664 12.3594H29.4765C29.703 12.3594 29.8867 12.1757 29.8867 11.9492C29.8867 11.7227 29.703 11.5391 29.4765 11.5391H29.2031V10.9648C29.2031 10.8895 29.2644 10.8281 29.3398 10.8281H31.0898C31.1652 10.8281 31.2265 10.8895 31.2265 10.9648V11.5391H30.9531C30.7266 11.5391 30.5429 11.7227 30.5429 11.9492C30.5429 12.1757 30.7266 12.3594 30.9531 12.3594H31.3633C31.7402 12.3594 32.0468 12.0527 32.0468 11.6758V10.9648C32.0468 10.4371 31.6175 10.0078 31.0898 10.0078H30.6496L30.6421 8.89046L32.5781 10.105C33.5809 10.7341 34.1797 11.8165 34.1797 13.0003V13.1797Z" fill="black"/>
<path d="M27.3164 3.11719H27.5898V3.39062C27.5898 3.61714 27.7735 3.80078 28 3.80078C28.2265 3.80078 28.4101 3.61714 28.4101 3.39062V3.11719H28.6836C28.9101 3.11719 29.0937 2.93355 29.0937 2.70703C29.0937 2.48052 28.9101 2.29688 28.6836 2.29688H28.4101V2.02344C28.4101 1.79692 28.2265 1.61328 28 1.61328C27.7735 1.61328 27.5898 1.79692 27.5898 2.02344V2.29688H27.3164C27.0899 2.29688 26.9062 2.48052 26.9062 2.70703C26.9062 2.93355 27.0899 3.11719 27.3164 3.11719Z" fill="black"/>
</svg>
