<svg width="37" height="33" viewBox="0 0 37 33" fill="none" xmlns="http://www.w3.org/2000/svg">
<path d="M16.4 33H13.6C12.6538 33 11.855 32.2913 11.7425 31.35L11.4437 29.005C10.8475 28.8113 10.2725 28.5725 9.72625 28.2938L7.85875 29.745C7.10125 30.3312 6.035 30.2638 5.3775 29.5875L3.40875 27.6187C2.7375 26.9675 2.67 25.9012 3.25625 25.145L4.7075 23.2763C4.4275 22.73 4.18875 22.155 3.99625 21.5588L1.64625 21.26C0.70875 21.145 0 20.3463 0 19.4V16.6C0 15.6538 0.70875 14.855 1.65 14.7425L3.995 14.4437C4.18875 13.8475 4.4275 13.2725 4.70625 12.7262L3.25625 10.8588C2.66875 10.1013 2.7375 9.03375 3.415 8.37625L5.38375 6.4075C6.035 5.73625 7.1025 5.67 7.8575 6.255L9.725 7.7075C10.2713 7.42875 10.8462 7.19 11.4437 6.99625L11.7425 4.64625C11.855 3.70875 12.6538 3 13.6 3H16.4C17.3463 3 18.145 3.70875 18.2575 4.65L18.5562 6.995C19.1537 7.18875 19.7287 7.4275 20.275 7.70625L22.1425 6.255C22.9013 5.66875 23.9662 5.73625 24.6237 6.41375L26.5925 8.3825C27.2638 9.03375 27.3312 10.1 26.745 10.8562L25.2938 12.725C25.5738 13.2713 25.8125 13.8463 26.005 14.4425L28.355 14.7412C29.2913 14.855 30 15.6538 30 16.6V19.4C30 20.3463 29.2913 21.145 28.35 21.2575L26.005 21.5562C25.8113 22.1525 25.5725 22.7275 25.2938 23.2738L26.745 25.1412C27.3325 25.8987 27.2637 26.965 26.5862 27.6225L24.6175 29.5913C23.9662 30.2625 22.8988 30.3313 22.1437 29.7438L20.275 28.2925C19.7287 28.5725 19.1537 28.8112 18.5575 29.0037L18.2588 31.3538C18.145 32.2913 17.3463 33 16.4 33ZM9.6625 26.925C9.76625 26.925 9.8725 26.9512 9.9675 27.0037C10.6562 27.3887 11.4025 27.6987 12.185 27.9237C12.425 27.9925 12.6012 28.1975 12.6325 28.445L12.9825 31.195C13.02 31.5087 13.2913 31.75 13.6 31.75H16.4C16.7087 31.75 16.98 31.5088 17.0163 31.2013L17.3675 28.4463C17.3988 28.1987 17.575 27.9938 17.815 27.925C18.5975 27.7 19.3437 27.39 20.0325 27.005C20.2512 26.8825 20.5238 26.9037 20.72 27.0575L22.9075 28.7575C23.1588 28.9525 23.5113 28.9363 23.7263 28.715L25.7075 26.7337C25.9338 26.5138 25.9513 26.1612 25.7562 25.9087L24.0563 23.7212C23.9025 23.5238 23.8812 23.2525 24.0037 23.0338C24.3887 22.345 24.6987 21.5988 24.9237 20.8162C24.9925 20.5763 25.1975 20.4 25.445 20.3688L28.195 20.0187C28.5087 19.98 28.75 19.7087 28.75 19.4V16.6C28.75 16.2913 28.5088 16.02 28.2013 15.9838L25.4463 15.6325C25.1987 15.6012 24.9938 15.425 24.925 15.185C24.7 14.4025 24.39 13.6562 24.005 12.9675C23.8825 12.7487 23.9025 12.4775 24.0575 12.28L25.7575 10.0925C25.9538 9.84 25.9363 9.4875 25.7162 9.275L23.735 7.29375C23.5163 7.06625 23.1625 7.04875 22.91 7.245L20.7225 8.945C20.5237 9.09875 20.2525 9.12 20.0338 8.9975C19.3475 8.6125 18.6012 8.30375 17.8162 8.0775C17.5763 8.00875 17.4 7.80375 17.3688 7.55625L17.0187 4.80625C16.98 4.49125 16.7087 4.25 16.4 4.25H13.6C13.2913 4.25 13.02 4.49125 12.9838 4.79875L12.6325 7.55375C12.6012 7.80125 12.425 8.00625 12.185 8.07625C11.4 8.30125 10.6538 8.61125 9.9675 8.995C9.74875 9.11875 9.4775 9.09625 9.27875 8.94375L7.09125 7.24375C6.83875 7.0475 6.4875 7.065 6.27375 7.285L4.2925 9.2675C4.06625 9.4875 4.04875 9.84 4.24375 10.0925L5.94375 12.28C6.0975 12.4775 6.11875 12.7487 5.99625 12.9675C5.61 13.6562 5.30125 14.4025 5.07625 15.185C5.0075 15.425 4.8025 15.6012 4.555 15.6325L1.805 15.9825C1.49125 16.02 1.25 16.2913 1.25 16.6V19.4C1.25 19.7087 1.49125 19.98 1.79875 20.0163L4.55375 20.3675C4.80125 20.3988 5.00625 20.575 5.075 20.815C5.3 21.5975 5.61 22.3437 5.995 23.0325C6.1175 23.2512 6.0975 23.5225 5.9425 23.72L4.2425 25.9075C4.04625 26.16 4.06375 26.5125 4.28375 26.725L6.265 28.7063C6.48375 28.9325 6.835 28.95 7.09 28.755L9.2775 27.055C9.39125 26.97 9.52625 26.925 9.6625 26.925Z" fill="black"/>
<path d="M15 24.25C11.5538 24.25 8.75 21.4462 8.75 18C8.75 14.5538 11.5538 11.75 15 11.75C18.4462 11.75 21.25 14.5538 21.25 18C21.25 21.4462 18.4462 24.25 15 24.25ZM15 13C12.2425 13 10 15.2425 10 18C10 20.7575 12.2425 23 15 23C17.7575 23 20 20.7575 20 18C20 15.2425 17.7575 13 15 13Z" fill="black"/>
<path d="M23.3593 1.25268C23.6979 0.803785 24.2145 0.546355 24.7768 0.546355H25.0148V0.409773C25.0148 0.183484 25.1983 2.73164e-05 25.4246 2.73164e-05C25.6509 2.73164e-05 25.8343 0.183484 25.8343 0.409773V1.50243C25.8343 1.72872 25.6509 1.91217 25.4246 1.91217C25.1983 1.91217 25.0148 1.72872 25.0148 1.50243V1.36585H24.7768C24.4741 1.36585 24.1958 1.50448 24.0135 1.74617C23.8312 1.98787 23.7744 2.29346 23.8575 2.58457L24.9451 6.39089C25.2485 7.45309 26.232 8.19492 27.3367 8.19492C28.4414 8.19492 29.4249 7.45306 29.7284 6.39089L30.8159 2.58454C30.8991 2.29343 30.8422 1.98784 30.6599 1.74615C30.4776 1.50442 30.1994 1.36582 29.8966 1.36582H29.6586V1.5024C29.6586 1.72869 29.4752 1.91215 29.2489 1.91215C29.0226 1.91215 28.8391 1.72869 28.8391 1.5024V0.409746C28.8391 0.183457 29.0226 0 29.2489 0C29.4752 0 29.6586 0.183457 29.6586 0.409746V0.546328H29.8966C30.4589 0.546328 30.9756 0.803785 31.3142 1.25265C31.6528 1.70154 31.7584 2.26904 31.6039 2.80965L30.5164 6.61598C30.3173 7.31254 29.9064 7.91129 29.3281 8.34756C29.2041 8.44107 29.0749 8.52452 28.9415 8.59887L27.7465 11.4195V11.7152C27.7465 12.5155 28.3975 13.1665 29.1977 13.1665C29.998 13.1665 30.649 12.5155 30.649 11.7152V8.90514C30.649 7.6098 31.7029 6.55593 32.9982 6.55593C34.2935 6.55593 35.3474 7.6098 35.3474 8.90514V9.87512C36.2814 10.0655 36.9864 10.8932 36.9864 11.8826C36.9864 13.0123 36.0673 13.9314 34.9377 13.9314C33.808 13.9314 32.8889 13.0123 32.8889 11.8826C32.8889 10.8933 33.5939 10.0655 34.5279 9.87512V8.90514C34.5279 8.06167 33.8417 7.37543 32.9982 7.37543C32.1547 7.37543 31.4685 8.06167 31.4685 8.90514V11.7152C31.4685 12.9673 30.4498 13.986 29.1977 13.986C27.9456 13.986 26.927 12.9673 26.927 11.7152V11.4195L25.7319 8.59887C25.5985 8.52452 25.4693 8.44107 25.3453 8.34756C24.767 7.91132 24.3561 7.31254 24.1571 6.61598L23.0695 2.80965C22.9151 2.26906 23.0207 1.70154 23.3593 1.25268ZM33.7084 11.8826C33.7084 12.5604 34.2599 13.1119 34.9377 13.1119C35.6155 13.1119 36.1669 12.5604 36.1669 11.8826C36.1669 11.2048 35.6155 10.6534 34.9377 10.6534C34.2599 10.6534 33.7084 11.2048 33.7084 11.8826ZM27.3367 10.286L27.8954 8.96732C27.7124 8.99832 27.5258 9.01441 27.3367 9.01441C27.1475 9.01441 26.9609 8.99832 26.778 8.96732L27.3367 10.286Z" fill="black"/>
<path d="M34.9377 12.2924C34.7114 12.2924 34.5279 12.1089 34.5279 11.8826C34.5279 11.6563 34.7114 11.4729 34.9377 11.4729C35.164 11.4729 35.3474 11.6563 35.3474 11.8826C35.3474 12.1089 35.164 12.2924 34.9377 12.2924Z" fill="black"/>
</svg>
