<svg width="38" height="33" viewBox="0 0 38 33" fill="none" xmlns="http://www.w3.org/2000/svg">
<path d="M16.4 33H13.6C12.6538 33 11.855 32.2913 11.7425 31.35L11.4437 29.005C10.8475 28.8113 10.2725 28.5725 9.72625 28.2938L7.85875 29.745C7.10125 30.3312 6.035 30.2638 5.3775 29.5875L3.40875 27.6187C2.7375 26.9675 2.67 25.9012 3.25625 25.145L4.7075 23.2763C4.4275 22.73 4.18875 22.155 3.99625 21.5588L1.64625 21.26C0.70875 21.145 0 20.3463 0 19.4V16.6C0 15.6538 0.70875 14.855 1.65 14.7425L3.995 14.4437C4.18875 13.8475 4.4275 13.2725 4.70625 12.7262L3.25625 10.8588C2.66875 10.1013 2.7375 9.03375 3.415 8.37625L5.38375 6.4075C6.035 5.73625 7.1025 5.67 7.8575 6.255L9.725 7.7075C10.2713 7.42875 10.8462 7.19 11.4437 6.99625L11.7425 4.64625C11.855 3.70875 12.6538 3 13.6 3H16.4C17.3463 3 18.145 3.70875 18.2575 4.65L18.5562 6.995C19.1537 7.18875 19.7287 7.4275 20.275 7.70625L22.1425 6.255C22.9013 5.66875 23.9662 5.73625 24.6237 6.41375L26.5925 8.3825C27.2638 9.03375 27.3312 10.1 26.745 10.8562L25.2938 12.725C25.5738 13.2713 25.8125 13.8463 26.005 14.4425L28.355 14.7412C29.2913 14.855 30 15.6538 30 16.6V19.4C30 20.3463 29.2913 21.145 28.35 21.2575L26.005 21.5562C25.8113 22.1525 25.5725 22.7275 25.2938 23.2738L26.745 25.1412C27.3325 25.8987 27.2637 26.965 26.5862 27.6225L24.6175 29.5913C23.9662 30.2625 22.8988 30.3313 22.1437 29.7438L20.275 28.2925C19.7287 28.5725 19.1537 28.8112 18.5575 29.0037L18.2588 31.3538C18.145 32.2913 17.3463 33 16.4 33ZM9.6625 26.925C9.76625 26.925 9.8725 26.9512 9.9675 27.0037C10.6562 27.3887 11.4025 27.6987 12.185 27.9237C12.425 27.9925 12.6012 28.1975 12.6325 28.445L12.9825 31.195C13.02 31.5087 13.2913 31.75 13.6 31.75H16.4C16.7087 31.75 16.98 31.5088 17.0163 31.2013L17.3675 28.4463C17.3988 28.1987 17.575 27.9938 17.815 27.925C18.5975 27.7 19.3437 27.39 20.0325 27.005C20.2512 26.8825 20.5238 26.9037 20.72 27.0575L22.9075 28.7575C23.1588 28.9525 23.5113 28.9363 23.7263 28.715L25.7075 26.7337C25.9338 26.5138 25.9513 26.1612 25.7562 25.9087L24.0563 23.7212C23.9025 23.5238 23.8812 23.2525 24.0037 23.0338C24.3887 22.345 24.6987 21.5988 24.9237 20.8162C24.9925 20.5763 25.1975 20.4 25.445 20.3688L28.195 20.0187C28.5087 19.98 28.75 19.7087 28.75 19.4V16.6C28.75 16.2913 28.5088 16.02 28.2013 15.9838L25.4463 15.6325C25.1987 15.6012 24.9938 15.425 24.925 15.185C24.7 14.4025 24.39 13.6562 24.005 12.9675C23.8825 12.7487 23.9025 12.4775 24.0575 12.28L25.7575 10.0925C25.9538 9.84 25.9363 9.4875 25.7162 9.275L23.735 7.29375C23.5163 7.06625 23.1625 7.04875 22.91 7.245L20.7225 8.945C20.5237 9.09875 20.2525 9.12 20.0338 8.9975C19.3475 8.6125 18.6012 8.30375 17.8162 8.0775C17.5763 8.00875 17.4 7.80375 17.3688 7.55625L17.0187 4.80625C16.98 4.49125 16.7087 4.25 16.4 4.25H13.6C13.2913 4.25 13.02 4.49125 12.9838 4.79875L12.6325 7.55375C12.6012 7.80125 12.425 8.00625 12.185 8.07625C11.4 8.30125 10.6538 8.61125 9.9675 8.995C9.74875 9.11875 9.4775 9.09625 9.27875 8.94375L7.09125 7.24375C6.83875 7.0475 6.4875 7.065 6.27375 7.285L4.2925 9.2675C4.06625 9.4875 4.04875 9.84 4.24375 10.0925L5.94375 12.28C6.0975 12.4775 6.11875 12.7487 5.99625 12.9675C5.61 13.6562 5.30125 14.4025 5.07625 15.185C5.0075 15.425 4.8025 15.6012 4.555 15.6325L1.805 15.9825C1.49125 16.02 1.25 16.2913 1.25 16.6V19.4C1.25 19.7087 1.49125 19.98 1.79875 20.0163L4.55375 20.3675C4.80125 20.3988 5.00625 20.575 5.075 20.815C5.3 21.5975 5.61 22.3437 5.995 23.0325C6.1175 23.2512 6.0975 23.5225 5.9425 23.72L4.2425 25.9075C4.04625 26.16 4.06375 26.5125 4.28375 26.725L6.265 28.7063C6.48375 28.9325 6.835 28.95 7.09 28.755L9.2775 27.055C9.39125 26.97 9.52625 26.925 9.6625 26.925Z" fill="black"/>
<path d="M15 24.25C11.5538 24.25 8.75 21.4462 8.75 18C8.75 14.5538 11.5538 11.75 15 11.75C18.4462 11.75 21.25 14.5538 21.25 18C21.25 21.4462 18.4462 24.25 15 24.25ZM15 13C12.2425 13 10 15.2425 10 18C10 20.7575 12.2425 23 15 23C17.7575 23 20 20.7575 20 18C20 15.2425 17.7575 13 15 13Z" fill="black"/>
<path d="M37.6473 6.57134L31.3653 0.397126C30.8266 -0.132385 29.9501 -0.132356 29.4115 0.397097L23.1295 6.57134C22.9589 6.73897 23.3324 6.32949 23.5 6.5C23.6676 6.67048 23.8295 7.1676 24 7L24.2252 6.70837V7.35002L26.5 9.5L25.0911 11.8612C25.0911 12.5857 24.6362 12.9925 25.2372 13.3077C25.4982 13.4445 25.795 13.522 26.1095 13.522H34.6673C35.7063 13.522 36.5515 12.6767 36.5515 11.6377V6.70837L37.0404 7.18888C37.1247 7.27171 37.2343 7.31304 37.3438 7.31304C37.4559 7.31304 37.5679 7.2698 37.6526 7.1836C37.8202 7.01306 37.8179 6.73897 37.6473 6.57134ZM35.6857 11.6377C35.6857 12.1993 35.2288 12.6561 34.6673 12.6561H26.1095C25.8042 12.6561 25.5299 12.5212 25.3431 12.3077C25.1862 12.1285 25.7569 11.894 25.7569 11.6377L27 9.5L25.0911 7.93628V5.85741L30.0184 1.01461C30.0694 0.964474 30.1284 0.926868 30.1914 0.901788C30.3647 0.832868 30.5681 0.858699 30.7187 0.979337C30.7324 0.990305 30.7456 1.00205 30.7584 1.01461L35.6857 5.85738L35.6857 11.6377Z" fill="black"/>
<path d="M29.0876 5.05762V6.45076H27.6944C27.4553 6.45076 27.2614 6.64459 27.2614 6.88368V8.61146C27.2614 8.85055 27.4553 9.04438 27.6944 9.04438H29.0876V10.4375C29.0876 10.6766 29.2814 10.8704 29.5205 10.8704H31.2483C31.4874 10.8704 31.6812 10.6766 31.6812 10.4375V9.04438H33.0742C33.3133 9.04438 33.5071 8.85055 33.5071 8.61146V6.88368C33.5071 6.64459 33.3133 6.45076 33.0742 6.45076H31.6812V5.05762C31.6812 4.81853 31.4874 4.6247 31.2483 4.6247H29.5205C29.2814 4.6247 29.0876 4.81853 29.0876 5.05762ZM29.9534 6.88368V5.49053H30.8154V6.88368C30.8154 7.12276 31.0092 7.31659 31.2483 7.31659H32.6413V8.17855H31.2483C31.0092 8.17855 30.8154 8.37238 30.8154 8.61146V10.0046H29.9534V8.61146C29.9534 8.37238 29.7596 8.17855 29.5205 8.17855H28.1273V7.31659H29.5205C29.7596 7.31659 29.9534 7.12276 29.9534 6.88368Z" fill="black"/>
</svg>
