<svg width="32" height="33" viewBox="0 0 32 33" fill="none" xmlns="http://www.w3.org/2000/svg">
<path d="M15.4629 33H12.8229C11.9307 33 11.1776 32.3318 11.0715 31.4443L10.7898 29.2333C10.2276 29.0506 9.6855 28.8255 9.17046 28.5627L7.40968 29.931C6.69546 30.4838 5.69014 30.4201 5.07021 29.7825L3.21396 27.9263C2.58107 27.3122 2.51743 26.3069 3.07018 25.5939L4.4385 23.8319C4.1745 23.3169 3.94939 22.7747 3.76789 22.2125L1.55218 21.9309C0.66825 21.8224 0 21.0693 0 20.1771V17.5371C0 16.645 0.66825 15.8919 1.55571 15.7858L3.76671 15.5041C3.94939 14.9419 4.1745 14.3998 4.43732 13.8848L3.07018 12.124C2.51625 11.4098 2.58107 10.4033 3.21986 9.78332L5.07611 7.92707C5.69014 7.29418 6.69664 7.23172 7.4085 7.78329L9.16929 9.15279C9.68432 8.88997 10.2265 8.66486 10.7898 8.48218L11.0715 6.26647C11.1776 5.38254 11.9307 4.71429 12.8229 4.71429H15.4629C16.355 4.71429 17.1081 5.38254 17.2142 6.27L17.4959 8.481C18.0593 8.66368 18.6014 8.88879 19.1164 9.15161L20.8772 7.78329C21.5926 7.23054 22.5967 7.29418 23.2167 7.93297L25.0729 9.78922C25.7058 10.4033 25.7695 11.4086 25.2167 12.1216L23.8484 13.8836C24.1124 14.3986 24.3375 14.9408 24.519 15.5029L26.7347 15.7846C27.6175 15.8919 28.2857 16.645 28.2857 17.5371V20.1771C28.2857 21.0693 27.6175 21.8224 26.73 21.9285L24.519 22.2102C24.3363 22.7724 24.1112 23.3145 23.8484 23.8295L25.2167 25.5903C25.7706 26.3045 25.7058 27.3099 25.067 27.9298L23.2108 29.786C22.5968 30.4189 21.5903 30.4838 20.8784 29.9298L19.1164 28.5615C18.6014 28.8255 18.0593 29.0506 17.4971 29.2321L17.2154 31.4478C17.1081 32.3318 16.355 33 15.4629 33V33ZM9.11036 27.2721C9.20818 27.2721 9.30836 27.2969 9.39793 27.3464C10.0473 27.7094 10.7509 28.0017 11.4887 28.2138C11.715 28.2786 11.8812 28.4719 11.9106 28.7053L12.2406 31.2981C12.276 31.594 12.5318 31.8214 12.8229 31.8214H15.4629C15.754 31.8214 16.0097 31.594 16.0439 31.304L16.3751 28.7065C16.4045 28.4731 16.5707 28.2798 16.797 28.215C17.5348 28.0029 18.2384 27.7106 18.8878 27.3476C19.094 27.2321 19.351 27.2521 19.536 27.3971L21.5985 28.9999C21.8354 29.1838 22.1678 29.1685 22.3705 28.9599L24.2385 27.0918C24.4518 26.8844 24.4683 26.552 24.2845 26.314L22.6816 24.2515C22.5366 24.0653 22.5166 23.8095 22.6321 23.6033C22.9951 22.9539 23.2874 22.2503 23.4995 21.5125C23.5644 21.2862 23.7576 21.12 23.991 21.0905L26.5839 20.7605C26.8797 20.724 27.1071 20.4683 27.1071 20.1771V17.5371C27.1071 17.246 26.8797 16.9903 26.5898 16.9561L23.9922 16.6249C23.7588 16.5955 23.5655 16.4293 23.5007 16.203C23.2886 15.4652 22.9963 14.7616 22.6333 14.1122C22.5178 13.906 22.5366 13.6502 22.6828 13.464L24.2856 11.4015C24.4707 11.1634 24.4542 10.8311 24.2468 10.6307L22.3787 8.76268C22.1725 8.54818 21.8389 8.53168 21.6009 8.71672L19.5384 10.3196C19.351 10.4645 19.0952 10.4846 18.889 10.3691C18.2419 10.0061 17.5383 9.71497 16.7982 9.50164C16.5719 9.43682 16.4057 9.24354 16.3763 9.01018L16.0463 6.41732C16.0097 6.12032 15.754 5.89286 15.4629 5.89286H12.8229C12.5318 5.89286 12.276 6.12032 12.2418 6.41025L11.9106 9.00782C11.8812 9.24118 11.715 9.43447 11.4887 9.50047C10.7486 9.71261 10.045 10.0049 9.39793 10.3667C9.19168 10.4834 8.93593 10.4622 8.74854 10.3184L6.68604 8.71554C6.44796 8.5305 6.11679 8.547 5.91525 8.75443L4.04721 10.6236C3.83389 10.8311 3.81739 11.1634 4.00125 11.4015L5.60411 13.464C5.74907 13.6502 5.76911 13.906 5.65361 14.1122C5.28943 14.7616 4.99832 15.4652 4.78618 16.203C4.72136 16.4293 4.52807 16.5955 4.29471 16.6249L1.70186 16.9549C1.40604 16.9903 1.17857 17.246 1.17857 17.5371V20.1771C1.17857 20.4683 1.40604 20.724 1.69596 20.7582L4.29354 21.0894C4.52689 21.1188 4.72018 21.285 4.785 21.5113C4.99714 22.2491 5.28943 22.9527 5.65243 23.6021C5.76793 23.8083 5.74907 24.0641 5.60293 24.2503L4.00007 26.3128C3.81504 26.5509 3.83154 26.8832 4.03896 27.0836L5.907 28.9516C6.11325 29.1649 6.44443 29.1814 6.68486 28.9976L8.74736 27.3947C8.85461 27.3146 8.98189 27.2721 9.11036 27.2721V27.2721Z" fill="black"/>
<path d="M14.1429 24.75C10.8935 24.75 8.25 22.1065 8.25 18.8571C8.25 15.6078 10.8935 12.9643 14.1429 12.9643C17.3922 12.9643 20.0357 15.6078 20.0357 18.8571C20.0357 22.1065 17.3922 24.75 14.1429 24.75ZM14.1429 14.1429C11.5429 14.1429 9.42857 16.2572 9.42857 18.8571C9.42857 21.4571 11.5429 23.5714 14.1429 23.5714C16.7428 23.5714 18.8571 21.4571 18.8571 18.8571C18.8571 16.2572 16.7428 14.1429 14.1429 14.1429Z" fill="black"/>
<path fill-rule="evenodd" clip-rule="evenodd" d="M26.2152 6.6C27.7774 6.6 29.0438 5.33361 29.0438 3.77143C29.0438 2.20925 27.7774 0.942857 26.2152 0.942857C24.653 0.942857 23.3866 2.20925 23.3866 3.77143C23.3866 5.33361 24.653 6.6 26.2152 6.6ZM26.2152 7.54286C28.2981 7.54286 29.9866 5.85433 29.9866 3.77143C29.9866 1.68853 28.2981 0 26.2152 0C24.1323 0 22.4438 1.68853 22.4438 3.77143C22.4438 5.85433 24.1323 7.54286 26.2152 7.54286Z" fill="black"/>
<path fill-rule="evenodd" clip-rule="evenodd" d="M29.9865 12.2571C30.2532 12.2571 30.4776 12.1461 30.6092 12.004C30.7293 11.8745 30.7704 11.7294 30.7285 11.5634C30.1181 9.14489 28.2552 7.54286 26.2151 7.54286C25.0868 7.54286 24.0126 8.03295 23.1746 8.88023C22.4975 9.56481 23.5714 8.95714 24.5142 9.9C24.4723 10.0661 24.8656 11.1847 24.9857 11.3143C25.1173 11.4563 24.2475 12.2571 24.5142 12.2571L29.9865 12.2571ZM29.9865 13.2C31.028 13.2 31.8975 12.3425 31.6427 11.3327C30.9523 8.59697 28.7836 6.6 26.2151 6.6C24.8537 6.6 23.6047 7.16104 22.6285 8.09576C21.763 8.92451 24.3673 8.14291 24.0428 9.42857C25.749 11.5634 23.4728 12.7286 24.5142 12.7286L23.5714 13.2L29.9865 13.2Z" fill="black"/>
</svg>
