<svg width="38" height="33" viewBox="0 0 38 33" fill="none" xmlns="http://www.w3.org/2000/svg">
<path d="M16.4 33H13.6C12.6538 33 11.855 32.2913 11.7425 31.35L11.4437 29.005C10.8475 28.8113 10.2725 28.5725 9.72625 28.2938L7.85875 29.745C7.10125 30.3312 6.035 30.2638 5.3775 29.5875L3.40875 27.6187C2.7375 26.9675 2.67 25.9012 3.25625 25.145L4.7075 23.2763C4.4275 22.73 4.18875 22.155 3.99625 21.5588L1.64625 21.26C0.70875 21.145 0 20.3463 0 19.4V16.6C0 15.6538 0.70875 14.855 1.65 14.7425L3.995 14.4437C4.18875 13.8475 4.4275 13.2725 4.70625 12.7262L3.25625 10.8588C2.66875 10.1013 2.7375 9.03375 3.415 8.37625L5.38375 6.4075C6.035 5.73625 7.1025 5.67 7.8575 6.255L9.725 7.7075C10.2713 7.42875 10.8462 7.19 11.4437 6.99625L11.7425 4.64625C11.855 3.70875 12.6538 3 13.6 3H16.4C17.3463 3 18.145 3.70875 18.2575 4.65L18.5562 6.995C19.1537 7.18875 19.7287 7.4275 20.275 7.70625L22.1425 6.255C22.9013 5.66875 23.9662 5.73625 24.6237 6.41375L26.5925 8.3825C27.2638 9.03375 27.3312 10.1 26.745 10.8562L25.2938 12.725C25.5738 13.2713 25.8125 13.8463 26.005 14.4425L28.355 14.7412C29.2913 14.855 30 15.6538 30 16.6V19.4C30 20.3463 29.2913 21.145 28.35 21.2575L26.005 21.5562C25.8113 22.1525 25.5725 22.7275 25.2938 23.2738L26.745 25.1412C27.3325 25.8987 27.2637 26.965 26.5862 27.6225L24.6175 29.5913C23.9662 30.2625 22.8988 30.3313 22.1437 29.7438L20.275 28.2925C19.7287 28.5725 19.1537 28.8112 18.5575 29.0037L18.2588 31.3538C18.145 32.2913 17.3463 33 16.4 33ZM9.6625 26.925C9.76625 26.925 9.8725 26.9512 9.9675 27.0037C10.6562 27.3887 11.4025 27.6987 12.185 27.9237C12.425 27.9925 12.6012 28.1975 12.6325 28.445L12.9825 31.195C13.02 31.5087 13.2913 31.75 13.6 31.75H16.4C16.7087 31.75 16.98 31.5088 17.0163 31.2013L17.3675 28.4463C17.3988 28.1987 17.575 27.9938 17.815 27.925C18.5975 27.7 19.3437 27.39 20.0325 27.005C20.2512 26.8825 20.5238 26.9037 20.72 27.0575L22.9075 28.7575C23.1588 28.9525 23.5113 28.9363 23.7263 28.715L25.7075 26.7337C25.9338 26.5138 25.9513 26.1612 25.7562 25.9087L24.0563 23.7212C23.9025 23.5238 23.8812 23.2525 24.0037 23.0338C24.3887 22.345 24.6987 21.5988 24.9237 20.8162C24.9925 20.5763 25.1975 20.4 25.445 20.3688L28.195 20.0187C28.5087 19.98 28.75 19.7087 28.75 19.4V16.6C28.75 16.2913 28.5088 16.02 28.2013 15.9838L25.4463 15.6325C25.1987 15.6012 24.9938 15.425 24.925 15.185C24.7 14.4025 24.39 13.6562 24.005 12.9675C23.8825 12.7487 23.9025 12.4775 24.0575 12.28L25.7575 10.0925C25.9538 9.84 25.9363 9.4875 25.7162 9.275L23.735 7.29375C23.5163 7.06625 23.1625 7.04875 22.91 7.245L20.7225 8.945C20.5237 9.09875 20.2525 9.12 20.0338 8.9975C19.3475 8.6125 18.6012 8.30375 17.8162 8.0775C17.5763 8.00875 17.4 7.80375 17.3688 7.55625L17.0187 4.80625C16.98 4.49125 16.7087 4.25 16.4 4.25H13.6C13.2913 4.25 13.02 4.49125 12.9838 4.79875L12.6325 7.55375C12.6012 7.80125 12.425 8.00625 12.185 8.07625C11.4 8.30125 10.6538 8.61125 9.9675 8.995C9.74875 9.11875 9.4775 9.09625 9.27875 8.94375L7.09125 7.24375C6.83875 7.0475 6.4875 7.065 6.27375 7.285L4.2925 9.2675C4.06625 9.4875 4.04875 9.84 4.24375 10.0925L5.94375 12.28C6.0975 12.4775 6.11875 12.7487 5.99625 12.9675C5.61 13.6562 5.30125 14.4025 5.07625 15.185C5.0075 15.425 4.8025 15.6012 4.555 15.6325L1.805 15.9825C1.49125 16.02 1.25 16.2913 1.25 16.6V19.4C1.25 19.7087 1.49125 19.98 1.79875 20.0163L4.55375 20.3675C4.80125 20.3988 5.00625 20.575 5.075 20.815C5.3 21.5975 5.61 22.3437 5.995 23.0325C6.1175 23.2512 6.0975 23.5225 5.9425 23.72L4.2425 25.9075C4.04625 26.16 4.06375 26.5125 4.28375 26.725L6.265 28.7063C6.48375 28.9325 6.835 28.95 7.09 28.755L9.2775 27.055C9.39125 26.97 9.52625 26.925 9.6625 26.925Z" fill="black"/>
<path d="M15 24.25C11.5538 24.25 8.75002 21.4462 8.75002 18C8.75002 14.5538 11.5538 11.75 15 11.75C18.4463 11.75 21.25 14.5538 21.25 18C21.25 21.4462 18.4463 24.25 15 24.25ZM15 13C12.2425 13 10 15.2425 10 18C10 20.7575 12.2425 23 15 23C17.7575 23 20 20.7575 20 18C20 15.2425 17.7575 13 15 13Z" fill="black"/>
<path d="M24.8738 14H35.1262C35.6231 14 36.0997 13.8026 36.4512 13.4512C36.8026 13.0997 37 12.6231 37 12.1262V1.87385C37 1.37687 36.8026 0.900251 36.4512 0.548837C36.0997 0.197423 35.6231 0 35.1262 0H24.8738C24.3769 0 23.9003 0.197423 23.5488 0.548837C23.1974 0.900251 23 1.37687 23 1.87385V7H24.0769V1.87385C24.0769 1.66249 24.1609 1.45979 24.3103 1.31034C24.4598 1.16088 24.6625 1.07692 24.8738 1.07692H35.1262C35.3375 1.07692 35.5402 1.16088 35.6897 1.31034C35.8391 1.45979 35.9231 1.66249 35.9231 1.87385V12.1262C35.9231 12.3375 35.8391 12.5402 35.6897 12.6897C35.5402 12.8391 35.3375 12.9231 35.1262 12.9231H24.8738V14Z" fill="black"/>
<path d="M27.8543 7.50259C27.4955 7.48798 27.1442 7.60836 26.8697 7.84L26.1635 8.4359L26.8552 9.2759L27.5661 8.68C27.6321 8.62047 27.7178 8.58751 27.8067 8.58751C27.8955 8.58751 27.9812 8.62047 28.0472 8.68L29.7918 10.4605C30.0365 10.7035 30.3606 10.8503 30.7046 10.874C31.0487 10.8977 31.3898 10.7968 31.6656 10.5897L33.36 9.2759C33.4228 9.22757 33.4997 9.20137 33.579 9.20137C33.6582 9.20137 33.7352 9.22757 33.7979 9.2759L36.1241 11.1426C36.1797 11.1869 36.2435 11.2198 36.3119 11.2395C36.3802 11.2591 36.4518 11.2651 36.5224 11.2571C36.5931 11.2491 36.6615 11.2273 36.7237 11.1928C36.786 11.1584 36.8408 11.112 36.8851 11.0564C36.9294 11.0008 36.9624 10.937 36.982 10.8686C37.0017 10.8003 37.0077 10.7287 36.9997 10.6581C36.9917 10.5874 36.9698 10.519 36.9354 10.4568C36.9009 10.3945 36.8546 10.3397 36.799 10.2954L34.4656 8.4359C34.2146 8.24261 33.9066 8.13781 33.5897 8.13781C33.2729 8.13781 32.9649 8.24261 32.7138 8.4359L31.0195 9.66359C30.9545 9.7192 30.8717 9.74977 30.7861 9.74977C30.7006 9.74977 30.6178 9.7192 30.5528 9.66359L28.8082 7.91897C28.5535 7.66577 28.2132 7.51721 27.8543 7.50259Z" fill="black"/>
<path d="M32.1538 6.82051C31.7633 6.82051 31.3816 6.70472 31.0569 6.48777C30.7323 6.27083 30.4792 5.96248 30.3298 5.60171C30.1803 5.24094 30.1412 4.84397 30.2174 4.46098C30.2936 4.07799 30.4816 3.72619 30.7578 3.45007C31.0339 3.17395 31.3857 2.98591 31.7687 2.90973C32.1516 2.83355 32.5486 2.87265 32.9094 3.02209C33.2702 3.17152 33.5785 3.42458 33.7955 3.74926C34.0124 4.07394 34.1282 4.45566 34.1282 4.84616C34.1282 5.36979 33.9202 5.87197 33.5499 6.24224C33.1797 6.6125 32.6775 6.82051 32.1538 6.82051ZM32.1538 3.94872C31.9763 3.94872 31.8028 4.00135 31.6552 4.09996C31.5077 4.19858 31.3926 4.33874 31.3247 4.50272C31.2568 4.66671 31.239 4.84715 31.2736 5.02124C31.3083 5.19532 31.3937 5.35523 31.5193 5.48074C31.6448 5.60625 31.8047 5.69172 31.9788 5.72635C32.1528 5.76098 32.3333 5.7432 32.4973 5.67528C32.6613 5.60735 32.8014 5.49233 32.9 5.34474C32.9986 5.19716 33.0513 5.02365 33.0513 4.84616C33.0513 4.60814 32.9567 4.37987 32.7884 4.21157C32.6201 4.04327 32.3918 3.94872 32.1538 3.94872Z" fill="black"/>
</svg>
