<svg width="64" height="40" viewBox="0 0 64 40" fill="none" xmlns="http://www.w3.org/2000/svg">
<path fill-rule="evenodd" clip-rule="evenodd" d="M7.27274 0H22.38L28.8071 7.61905H56.8535V18.0952H63.6364L56.5971 40H15.2798L13.6364 40L20 37.2727L25.4546 31.8182L26.3636 22.7273L20.9091 15.4545L12.7273 13.6364L7.27274 15.4545V0ZM55.0172 18.0952V9.52381H27.9738L21.5467 1.90476H9.10906V14.5455L17.2727 13.6364L23.6364 18.0952H55.0172ZM18.1818 38.0952H55.2736L61.0886 20H24.5455L26.3636 26.3636L24.5455 33.6364L18.1818 38.0952ZM51.3445 33.3333H38.4903V31.4286H51.3445V33.3333Z" fill="black"/>
<path fill-rule="evenodd" clip-rule="evenodd" d="M11.1334 28.7642L9.22422 26.6037C9.10706 26.4711 9.10706 26.2562 9.22422 26.1236L11.1334 23.9631C11.2506 23.8305 11.4405 23.8305 11.5577 23.9631C11.6748 24.0956 11.6748 24.3106 11.5577 24.4432L10.1606 26.0241L18.1364 26.0241L18.1364 26.7031L10.1606 26.7031L11.5577 28.2841C11.6748 28.4167 11.6748 28.6316 11.5577 28.7642C11.4405 28.8968 11.2506 28.8968 11.1334 28.7642Z" fill="black"/>
<rect x="0.5" y="13.2273" width="26.2727" height="26.2727" rx="13.1364" stroke="black"/>
</svg>
