<svg width="20" height="22" viewBox="0 0 20 22" fill="none" xmlns="http://www.w3.org/2000/svg">
<path fill-rule="evenodd" clip-rule="evenodd" d="M9.51321 10.7027C12.1403 10.7027 14.27 8.57303 14.27 5.94595C14.27 3.31886 12.1403 1.18919 9.51321 1.18919C6.88612 1.18919 4.75645 3.31886 4.75645 5.94595C4.75645 8.57303 6.88612 10.7027 9.51321 10.7027ZM9.51321 11.8919C12.7971 11.8919 15.4592 9.2298 15.4592 5.94595C15.4592 2.66209 12.7971 0 9.51321 0C6.22935 0 3.56726 2.66209 3.56726 5.94595C3.56726 9.2298 6.22935 11.8919 9.51321 11.8919Z" fill="white"/>
<path fill-rule="evenodd" clip-rule="evenodd" d="M17.7798 20.8108C17.6875 19.8678 17.4856 18.9446 17.18 18.0684C16.7468 16.8264 16.1157 15.7095 15.331 14.7776C14.5464 13.846 13.6262 13.1201 12.6293 12.6297C11.6334 12.1399 10.5754 11.8919 9.51351 11.8919C8.45166 11.8919 7.39364 12.1399 6.39773 12.6297C5.40082 13.1201 4.48058 13.846 3.69607 14.7776C2.91128 15.7095 2.28024 16.8264 1.84701 18.0684C1.54138 18.9446 1.33958 19.8678 1.24722 20.8108L17.7798 20.8108ZM18.9742 20.8108C18.8783 19.7353 18.6527 18.6797 18.3029 17.6767C17.8248 16.3061 17.124 15.0607 16.2406 14.0116C15.3572 12.9626 14.3084 12.1304 13.1542 11.5627C11.9999 10.9949 10.7628 10.7027 9.51351 10.7027C8.26418 10.7027 7.02708 10.9949 5.87285 11.5627C4.71862 12.1304 3.66985 12.9626 2.78644 14.0116C1.90303 15.0607 1.20227 16.3061 0.724173 17.6767C0.374327 18.6797 0.148719 19.7353 0.0528527 20.8108C0.017708 21.2051 0 21.602 0 22L19.027 22C19.027 21.602 19.0093 21.2051 18.9742 20.8108Z" fill="white"/>
</svg>
