<svg width="33" height="34" viewBox="0 0 33 34" fill="none" xmlns="http://www.w3.org/2000/svg">
<path fill-rule="evenodd" clip-rule="evenodd" d="M13.5336 18.2641C17.1929 18.2641 20.1593 15.2977 20.1593 11.6385C20.1593 7.97923 17.1929 5.01283 13.5336 5.01283C9.8744 5.01283 6.908 7.97923 6.908 11.6385C6.908 15.2977 9.8744 18.2641 13.5336 18.2641ZM13.5336 19.9205C18.1077 19.9205 21.8157 16.2125 21.8157 11.6385C21.8157 7.06442 18.1077 3.35641 13.5336 3.35641C8.95959 3.35641 5.25159 7.06442 5.25159 11.6385C5.25159 16.2125 8.95959 19.9205 13.5336 19.9205Z" fill="white"/>
<path fill-rule="evenodd" clip-rule="evenodd" d="M25.0477 32.3436C24.919 31.0301 24.6379 29.7441 24.2122 28.5237C23.6088 26.7937 22.7298 25.2381 21.6367 23.94C20.544 22.6424 19.2622 21.6313 17.8736 20.9483C16.4864 20.2659 15.0127 19.9205 13.5336 19.9205C12.0546 19.9205 10.5809 20.2659 9.19368 20.9483C7.8051 21.6313 6.52331 22.6424 5.43057 23.94C4.33744 25.2381 3.45847 26.7937 2.85504 28.5237C2.42933 29.7441 2.14823 31.0301 2.01959 32.3436L25.0477 32.3436ZM26.7113 32.3436C26.5778 30.8456 26.2635 29.3751 25.7762 27.9781C25.1103 26.069 24.1342 24.3342 22.9037 22.873C21.6732 21.4118 20.2124 20.2527 18.6047 19.4619C16.997 18.6711 15.2738 18.2641 13.5336 18.2641C11.7934 18.2641 10.0703 18.6711 8.46258 19.4619C6.85486 20.2527 5.39405 21.4118 4.16356 22.873C2.93306 24.3343 1.95698 26.069 1.29104 27.9781C0.803746 29.3752 0.489498 30.8456 0.355967 32.3436C0.307014 32.8928 0.282349 33.4457 0.282349 34L26.7849 34C26.7849 33.4457 26.7602 32.8928 26.7113 32.3436Z" fill="white"/>
<path fill-rule="evenodd" clip-rule="evenodd" d="M23.9952 6.71281V3.39999H25.6516V6.71281H28.9644V8.36922H25.6516V11.682H23.9952V8.36922H20.6824V6.71281H23.9952Z" fill="white"/>
<path d="M24.9323 13.6C28.2184 13.6 30.8823 10.9361 30.8823 7.65C30.8823 4.36391 28.2184 1.7 24.9323 1.7C22.0443 1.7 19.6369 3.75756 19.096 6.48674L17.6183 5.40069C18.5789 2.27343 21.4901 0 24.9323 0C29.1573 0 32.5823 3.42502 32.5823 7.65C32.5823 11.875 29.1573 15.3 24.9323 15.3C23.3597 15.3 21.8979 14.8255 20.6823 14.0118L21.074 12.1796C22.1128 13.0653 23.4601 13.6 24.9323 13.6Z" fill="white"/>
</svg>
