<svg width="33" height="34" viewBox="0 0 33 34" fill="none" xmlns="http://www.w3.org/2000/svg">
<path fill-rule="evenodd" clip-rule="evenodd" d="M13.2513 18.2641C16.9105 18.2641 19.8769 15.2977 19.8769 11.6385C19.8769 7.97923 16.9105 5.01283 13.2513 5.01283C9.59205 5.01283 6.62565 7.97923 6.62565 11.6385C6.62565 15.2977 9.59205 18.2641 13.2513 18.2641ZM13.2513 19.9205C17.8253 19.9205 21.5333 16.2125 21.5333 11.6385C21.5333 7.06442 17.8253 3.35641 13.2513 3.35641C8.67724 3.35641 4.96924 7.06442 4.96924 11.6385C4.96924 16.2125 8.67724 19.9205 13.2513 19.9205Z" fill="black"/>
<path fill-rule="evenodd" clip-rule="evenodd" d="M24.7653 32.3436C24.6367 31.0301 24.3556 29.7441 23.9299 28.5237C23.3264 26.7937 22.4475 25.2381 21.3543 23.94C20.2616 22.6424 18.9798 21.6313 17.5912 20.9483C16.204 20.2659 14.7303 19.9205 13.2513 19.9205C11.7722 19.9205 10.2985 20.2659 8.91133 20.9483C7.52275 21.6313 6.24096 22.6424 5.14822 23.94C4.0551 25.2381 3.17613 26.7937 2.57269 28.5237C2.14698 29.7441 1.86588 31.0301 1.73724 32.3436L24.7653 32.3436ZM26.4289 32.3436C26.2954 30.8456 25.9812 29.3751 25.4939 27.9781C24.8279 26.069 23.8518 24.3343 22.6214 22.873C21.3909 21.4118 19.93 20.2527 18.3223 19.4619C16.7146 18.6711 14.9915 18.2641 13.2513 18.2641C11.5111 18.2641 9.78795 18.6711 8.18024 19.4619C6.57252 20.2527 5.11171 21.4118 3.88121 22.873C2.65071 24.3343 1.67463 26.069 1.00869 27.9781C0.521397 29.3752 0.20715 30.8456 0.073618 32.3436C0.0246652 32.8928 0 33.4457 0 34L26.5026 34C26.5026 33.4457 26.4779 32.8928 26.4289 32.3436Z" fill="black"/>
<path fill-rule="evenodd" clip-rule="evenodd" d="M23.7128 6.71281V3.39999H25.3693V6.71281H28.6821V8.36922H25.3693V11.682H23.7128V8.36922H20.4V6.71281H23.7128Z" fill="black"/>
<path d="M24.65 13.6C27.9361 13.6 30.6 10.9361 30.6 7.65C30.6 4.36391 27.9361 1.7 24.65 1.7C21.762 1.7 19.3545 3.75756 18.8136 6.48674L17.336 5.40069C18.2966 2.27343 21.2078 0 24.65 0C28.875 0 32.3 3.42502 32.3 7.65C32.3 11.875 28.875 15.3 24.65 15.3C23.0773 15.3 21.6156 14.8255 20.4 14.0118L20.7916 12.1796C21.8305 13.0653 23.1778 13.6 24.65 13.6Z" fill="black"/>
</svg>
