<svg width="29" height="34" viewBox="0 0 29 34" fill="none" xmlns="http://www.w3.org/2000/svg">
<path fill-rule="evenodd" clip-rule="evenodd" d="M13.2683 18.2439C16.9322 18.2439 19.9024 15.2737 19.9024 11.6098C19.9024 7.94582 16.9322 4.97561 13.2683 4.97561C9.60433 4.97561 6.63412 7.94582 6.63412 11.6098C6.63412 15.2737 9.60433 18.2439 13.2683 18.2439ZM13.2683 19.9024C17.8482 19.9024 21.561 16.1897 21.561 11.6098C21.561 7.02984 17.8482 3.31708 13.2683 3.31708C8.68835 3.31708 4.97559 7.02984 4.97559 11.6098C4.97559 16.1897 8.68835 19.9024 13.2683 19.9024Z" fill="black"/>
<path fill-rule="evenodd" clip-rule="evenodd" d="M24.7971 32.3415C24.6683 31.0263 24.3869 29.7387 23.9606 28.5166C23.3564 26.7844 22.4763 25.2268 21.3818 23.9271C20.2876 22.6278 19.0042 21.6154 17.6138 20.9315C16.2248 20.2483 14.7492 19.9024 13.2683 19.9024C11.7873 19.9024 10.3118 20.2483 8.92277 20.9315C7.53241 21.6154 6.24897 22.6278 5.15483 23.9271C4.0603 25.2268 3.1802 26.7844 2.57599 28.5166C2.14973 29.7387 1.86828 31.0263 1.73947 32.3415L24.7971 32.3415ZM26.4629 32.3415C26.3292 30.8415 26.0145 29.3692 25.5266 27.9704C24.8598 26.0588 23.8825 24.3218 22.6504 22.8588C21.4183 21.3957 19.9556 20.2351 18.3458 19.4433C16.7361 18.6514 15.0107 18.2439 13.2683 18.2439C11.5259 18.2439 9.80052 18.6514 8.19074 19.4433C6.58095 20.2351 5.11827 21.3957 3.88619 22.8588C2.65412 24.3218 1.67678 26.0588 1.00999 27.9704C0.522067 29.3692 0.207415 30.8415 0.0737125 32.3415C0.0246969 32.8913 0 33.4449 0 34L26.5366 34C26.5366 33.4449 26.5119 32.8913 26.4629 32.3415Z" fill="black"/>
<path d="M26.9889 1.65854H18.2439V6.63415L16.5854 4.92455V0H28.6475V16.5854H19.0732L19.9025 14.9268H26.9889V1.65854Z" fill="black"/>
<path fill-rule="evenodd" clip-rule="evenodd" d="M24.878 5.35254H20.3547V3.694H24.878V5.35254ZM24.878 9.12194H20.3547V7.4634H24.878V9.12194ZM24.878 12.8913H20.3547V11.2328H24.878V12.8913Z" fill="black"/>
</svg>
