<svg width="30" height="34" viewBox="0 0 30 34" fill="none" xmlns="http://www.w3.org/2000/svg">
<path fill-rule="evenodd" clip-rule="evenodd" d="M13.9506 18.2439C17.6145 18.2439 20.5847 15.2737 20.5847 11.6098C20.5847 7.94582 17.6145 4.97561 13.9506 4.97561C10.2866 4.97561 7.31643 7.94582 7.31643 11.6098C7.31643 15.2737 10.2866 18.2439 13.9506 18.2439ZM13.9506 19.9024C18.5305 19.9024 22.2433 16.1897 22.2433 11.6098C22.2433 7.02984 18.5305 3.31708 13.9506 3.31708C9.37066 3.31708 5.6579 7.02984 5.6579 11.6098C5.6579 16.1897 9.37066 19.9024 13.9506 19.9024Z" fill="white"/>
<path fill-rule="evenodd" clip-rule="evenodd" d="M25.4794 32.3415C25.3506 31.0263 25.0692 29.7387 24.6429 28.5166C24.0387 26.7844 23.1586 25.2268 22.0641 23.9271C20.9699 22.6278 19.6865 21.6154 18.2961 20.9315C16.9071 20.2483 15.4315 19.9024 13.9506 19.9024C12.4697 19.9024 10.9941 20.2483 9.60508 20.9315C8.21472 21.6154 6.93128 22.6278 5.83714 23.9271C4.74261 25.2268 3.86251 26.7844 3.2583 28.5166C2.83205 29.7387 2.55059 31.0263 2.42178 32.3415L25.4794 32.3415ZM27.1452 32.3415C27.0115 30.8415 26.6968 29.3692 26.2089 27.9704C25.5421 26.0588 24.5648 24.3218 23.3327 22.8588C22.1006 21.3957 20.6379 20.2351 19.0282 19.4433C17.4184 18.6514 15.693 18.2439 13.9506 18.2439C12.2082 18.2439 10.4828 18.6514 8.87305 19.4433C7.26327 20.2351 5.80058 21.3957 4.5685 22.8588C3.33643 24.3218 2.35909 26.0588 1.6923 27.9704C1.20438 29.3692 0.889727 30.8415 0.756024 32.3415C0.707009 32.8913 0.682312 33.4449 0.682312 34L27.2189 34C27.2189 33.4449 27.1942 32.8913 27.1452 32.3415Z" fill="white"/>
<path d="M27.6712 1.65854H18.9262V6.63415L17.2677 4.92455V0H29.3298V16.5854H19.7555L20.5848 14.9268H27.6712V1.65854Z" fill="white"/>
<path fill-rule="evenodd" clip-rule="evenodd" d="M25.5604 5.35254H21.0371V3.694H25.5604V5.35254ZM25.5604 9.12194H21.0371V7.4634H25.5604V9.12194ZM25.5604 12.8913H21.0371V11.2328H25.5604V12.8913Z" fill="white"/>
</svg>
