<svg width="30" height="34" viewBox="0 0 30 34" fill="none" xmlns="http://www.w3.org/2000/svg">
<path fill-rule="evenodd" clip-rule="evenodd" d="M14.7027 16.5405C18.7627 16.5405 22.0541 13.2492 22.0541 9.18919C22.0541 5.12915 18.7627 1.83784 14.7027 1.83784C10.6427 1.83784 7.35136 5.12915 7.35136 9.18919C7.35136 13.2492 10.6427 16.5405 14.7027 16.5405ZM14.7027 18.3784C19.7778 18.3784 23.8919 14.2642 23.8919 9.18919C23.8919 4.11414 19.7778 0 14.7027 0C9.62766 0 5.51352 4.11414 5.51352 9.18919C5.51352 14.2642 9.62766 18.3784 14.7027 18.3784Z" fill="black"/>
<path fill-rule="evenodd" clip-rule="evenodd" d="M27.4779 32.1621C27.3352 30.7048 27.0233 29.278 26.5509 27.9238C25.8814 26.0044 24.9062 24.2784 23.6933 22.8381C22.4809 21.3983 21.0587 20.2765 19.518 19.5187C17.9789 18.7616 16.3437 18.3784 14.7027 18.3784C13.0617 18.3784 11.4265 18.7616 9.8874 19.5187C8.34672 20.2765 6.92453 21.3983 5.7121 22.8381C4.49925 24.2784 3.52401 26.0044 2.85448 27.9238C2.38214 29.278 2.07025 30.7048 1.92752 32.1622L27.4779 32.1621ZM29.3237 32.1621C29.1756 30.5 28.8269 28.8686 28.2862 27.3185C27.5473 25.2003 26.4644 23.2755 25.0991 21.6543C23.7338 20.033 22.113 18.747 20.3292 17.8695C18.5454 16.9921 16.6335 16.5405 14.7027 16.5405C12.7719 16.5405 10.86 16.9921 9.07622 17.8695C7.29241 18.747 5.67159 20.033 4.30632 21.6543C2.94105 23.2755 1.85806 25.2003 1.11918 27.3185C0.578506 28.8686 0.229839 30.5 0.0816814 32.1622C0.0273668 32.7715 0 33.3849 0 34L29.4054 34C29.4054 33.3849 29.378 32.7715 29.3237 32.1621Z" fill="black"/>
</svg>
