<svg width="99" height="73" viewBox="0 0 99 73" fill="none" xmlns="http://www.w3.org/2000/svg">
<path d="M2.58887 21.5376H30.3953V69.7493H2.58887V21.5376Z" fill="#008BD2"/>
<path d="M0 18.7561H30.3953V24.3191H0V18.7561Z" fill="#5F7883"/>
<path d="M27.5186 8.21826H95.5963V69.7493H27.5186V8.21826Z" fill="#F0F7FF"/>
<path d="M61.5576 8.21826H95.5964V69.7493H61.5576V8.21826Z" fill="#D7E9FC"/>
<path d="M24.9297 5.43701H98.1852V10.9999H24.9297V5.43701Z" fill="#5F7883"/>
<path d="M61.5576 5.43701H98.1853V10.9999H61.5576V5.43701Z" fill="#4B5055"/>
<path d="M15.0537 30.8092H20.8068V36.372H15.0537V30.8092Z" fill="#F0F7FF"/>
<path d="M15.0537 42.8621H20.8068V48.4249H15.0537V42.8621Z" fill="#F0F7FF"/>
<path d="M15.0537 54.9149H20.8068V60.4778H15.0537V54.9149Z" fill="#F0F7FF"/>
<path d="M64.9136 42.8621H70.6666V48.4249H64.9136V42.8621Z" fill="#008BD2"/>
<path d="M77.3784 42.8621H83.1315V48.4249H77.3784V42.8621Z" fill="#008BD2"/>
<path d="M52.4487 42.8621H58.2018V48.4249H52.4487V42.8621Z" fill="#008BD2"/>
<path d="M39.9834 42.8621H45.7365V48.4249H39.9834V42.8621Z" fill="#008BD2"/>
<path d="M77.3784 30.8092H83.1315V36.372H77.3784V30.8092Z" fill="#008BD2"/>
<path d="M64.9136 30.8092H70.6666V36.372H64.9136V30.8092Z" fill="#008BD2"/>
<path d="M49.7354 0.928223V22.116H73.3798V0.928223H49.7354Z" fill="#FF5F7B"/>
<path d="M61.7298 0.928223H73.1221V21.8582H61.7298V0.928223Z" fill="#EA344A"/>
<path d="M67.426 9.70589V13.0804H63.6686V16.3502H59.7911V13.0804H56.0337V9.70589H59.7911V6.43604H63.6686V9.70589H67.426Z" fill="#F0F7FF"/>
<path d="M67.4257 9.70589V13.0804H63.6683V16.3502H61.7295V6.43604H63.6683V9.70589H67.4257Z" fill="#D7E9FC"/>
<path d="M52.4487 30.8092H58.2018V36.372H52.4487V30.8092Z" fill="#008BD2"/>
<path d="M39.9834 30.8092H45.7365V36.372H39.9834V30.8092Z" fill="#008BD2"/>
<path d="M49.3325 54.915H73.783V69.7494H49.3325V54.915Z" fill="#008BD2" fill-opacity="0.6"/>
<path d="M61.5576 54.915H73.7828V69.7494H61.5576V54.915Z" fill="#008BD2"/>
<path d="M0 66.9678H98.1853V72.5306H0V66.9678Z" fill="#5F7883"/>
<path d="M49.0928 66.9678H98.1854V72.5306H49.0928V66.9678Z" fill="#4B5055"/>
</svg>
