<svg width="59" height="72" viewBox="0 0 59 72" fill="none" xmlns="http://www.w3.org/2000/svg">
<path d="M22.2465 44.2743L14.5315 44.7554C14.5315 44.7554 0.843062 28.2035 11.241 10.6591C18.9057 -2.26939 32.7578 0.549168 39.5148 2.92511C39.5148 2.92511 47.0511 2.24013 48.3793 13.4674C49.7075 24.6946 45.8903 38.5787 37.5111 45.8779L22.2465 44.2743Z" fill="#414451"/>
<path d="M39.8851 53.6076L35.2993 62.0531L26.4446 63.0737L18.7586 59.9675L17.7634 52.588L19.7017 47.194L20.2524 45.6023C20.6692 45.1611 20.9518 44.617 21.0688 44.0303C21.1669 43.6678 21.2379 43.2989 21.2814 42.9267C21.3213 42.6253 21.354 42.317 21.37 41.996C21.4589 40.2137 21.3878 38.4273 21.1574 36.6569C21.1574 36.6569 38.3355 29.0076 37.5572 36.6569C36.7789 44.3061 38.3135 45.1409 38.3135 45.1409L39.8851 53.6076Z" fill="#F4BB87"/>
<path d="M18.6958 53.3405C18.6958 53.3405 27.4149 57.5161 40.6191 53.3405V71.1066H21.7683L18.6958 53.3405Z" fill="#69B0EE"/>
<path d="M35.2433 12.5349C35.2433 12.5349 34.7457 14.5667 31.427 15.1558C29.8843 15.4658 28.3712 15.9008 26.904 16.4564C23.0919 17.8005 19.9955 20.5653 18.307 24.133C17.013 27.0295 16.5213 30.2021 16.8806 33.338C16.8806 33.338 22.5786 42.6432 29.4365 42.5893C36.2944 42.5353 42.0986 33.6583 43.0975 30.6642C43.0975 30.6642 44.9224 30.7977 45.8354 28.1504C46.2833 26.9581 46.5038 25.697 46.4861 24.4286C46.4771 24.1025 46.3544 23.7891 46.1382 23.539C45.4539 22.8475 44.4118 22.6124 43.4817 22.9397C43.4817 22.9394 37.2896 20.5566 35.2433 12.5349Z" fill="#FED19A"/>
<path d="M38.3213 45.1373L32.123 71.1066H56.0112C57.5917 71.1066 58.8731 69.8677 58.8731 68.3393V60.7337C58.873 53.9962 53.4333 48.4306 46.4766 48.05L43.3075 47.8788C41.5189 47.7808 39.8556 46.9599 38.7242 45.6168L38.3213 45.1373Z" fill="#EEEFEE"/>
<path d="M20.5721 45.2246L26.7545 71.1066H2.86188C1.2814 71.1066 0 69.8677 0 68.3393V60.7338C0.000148138 53.9963 5.43978 48.4306 12.3965 48.05L15.5656 47.8789C17.3542 47.7809 19.0175 46.96 20.1487 45.6168L20.5721 45.2246Z" fill="#EEEFEE"/>
<path d="M46.3489 50.6624C42.7779 50.6624 39.9735 55.2447 39.9735 61.0968C39.9175 63.6257 40.5249 66.1272 41.7392 68.3676C42.0593 68.9207 42.4456 69.4353 42.8904 69.901C43.3829 69.8877 43.8171 69.5849 43.9857 69.1372C43.5281 68.6747 43.1406 68.1517 42.8345 67.5841C41.7833 65.5751 41.2571 63.3477 41.3017 61.0967C41.3017 56.1359 43.6111 51.9457 46.3489 51.9457C49.0868 51.9457 51.3962 56.1359 51.3962 61.0967C51.4362 63.3503 50.9076 65.5793 49.8563 67.5909C49.5686 68.1238 49.2068 68.616 48.7814 69.0542C48.9095 69.5157 49.3239 69.8494 49.8164 69.8881C50.2814 69.3932 50.6847 68.8472 51.018 68.2613C52.1903 66.0462 52.7767 63.5845 52.7242 61.0967C52.7244 55.2448 49.9217 50.6624 46.3489 50.6624Z" fill="#BBBBCD"/>
<path d="M51.1233 68.7402C51.1214 69.381 50.5845 69.9001 49.9218 69.902C49.8858 69.9041 49.8498 69.8997 49.8156 69.8891C49.323 69.8504 48.9087 69.5167 48.7805 69.0551C48.7426 68.9546 48.7245 68.848 48.7273 68.7409C48.7242 68.1275 49.2218 67.6207 49.8554 67.5918C49.8772 67.5866 49.8996 67.5846 49.9218 67.5858C50.5825 67.5829 51.1204 68.0986 51.1233 68.7373V68.7407V68.7402Z" fill="#575B6D"/>
<path d="M44.068 68.7402C44.0692 68.8767 44.0421 69.012 43.9883 69.1382C43.8197 69.5858 43.3855 69.8887 42.8929 69.902H42.8664C42.2051 69.8991 41.671 69.3796 41.672 68.7402C41.6701 68.6131 41.6926 68.4868 41.7384 68.3677C41.8967 67.9074 42.3382 67.5938 42.8399 67.5852H42.8664C43.5277 67.5842 44.0652 68.1007 44.068 68.7402Z" fill="#575B6D"/>
<path d="M46.3488 51.9484C46.0523 51.9478 45.7922 51.7574 45.7112 51.4817C45.2214 50.0627 44.2945 48.8225 43.0548 47.9276C42.7545 47.7244 42.6813 47.3245 42.8914 47.0342C43.1014 46.7438 43.515 46.673 43.8153 46.8762C45.3084 47.9372 46.4179 49.4262 46.9862 51.1315C47.0854 51.4734 46.8792 51.8283 46.5258 51.9243C46.4676 51.9401 46.4074 51.9482 46.347 51.9482H46.3488V51.9484Z" fill="#BBBBCD"/>
<path d="M21.3788 41.9958C21.3585 42.3169 21.3256 42.6251 21.2902 42.9265C21.2466 43.2988 21.1757 43.6676 21.0776 44.0302C19.9266 44.9223 12.7348 50.9799 13.127 63.0515C13.1395 63.4074 12.8514 63.7059 12.4832 63.7184H12.4629C12.1043 63.7177 11.8107 63.4425 11.7988 63.096C11.4608 55.0112 14.9949 47.227 21.3788 41.9958Z" fill="#BBBBCD"/>
<path d="M12.3318 68.8198C14.1652 68.8198 15.6515 67.3826 15.6515 65.6098C15.6515 63.837 14.1652 62.3999 12.3318 62.3999C10.4985 62.3999 9.01221 63.837 9.01221 65.6098C9.01221 67.3826 10.4985 68.8198 12.3318 68.8198Z" fill="#575B6D"/>
<path d="M12.3327 67.3574C13.3308 67.3574 14.14 66.575 14.14 65.6098C14.14 64.6447 13.3308 63.8623 12.3327 63.8623C11.3345 63.8623 10.5254 64.6447 10.5254 65.6098C10.5254 66.575 11.3345 67.3574 12.3327 67.3574Z" fill="#BBBBCD"/>
</svg>
