<svg width="79" height="72" viewBox="0 0 79 72" fill="none" xmlns="http://www.w3.org/2000/svg">
<path d="M63.1109 34.6286C62.2195 33.7667 60.7743 33.7667 59.8836 34.6286L40.3307 53.5352C39.4393 54.3965 39.4393 55.7939 40.3307 56.6558L54.9953 70.8358C55.8867 71.6977 57.3313 71.6977 58.2226 70.8358L77.7755 51.9286C78.6669 51.0673 78.6669 49.6704 77.7755 48.8085L63.1109 34.6286Z" fill="#FFE7CF"/>
<path d="M77.7754 48.8085L63.1107 34.6286C62.2194 33.7667 60.7742 33.7667 59.8834 34.6286L50.107 44.0819L67.999 61.3824C72.8872 56.6558 77.7754 51.9286 77.7754 51.9286C78.6668 51.0673 78.6668 49.6704 77.7754 48.8085Z" fill="#F4D5BA"/>
<path d="M30.553 9.38886L35.4412 14.1155C36.1359 14.7866 37.1972 14.9533 38.0755 14.5286L47.8519 9.802C49.3399 9.08605 49.4742 7.26228 48.4462 6.26823L43.5573 1.54159C42.8633 0.869889 41.8014 0.703831 40.9237 1.12788L31.1466 5.85452C29.7924 6.50956 29.4233 8.29656 30.553 9.38886Z" fill="#F4D5BA"/>
<path d="M20.7771 70.8357C21.6685 71.6976 23.1137 71.697 24.0044 70.8357L38.0012 57.3016H41.9446C45.7061 57.3016 49.2424 55.8852 51.9023 53.3133L67.3894 38.3382C69.9618 35.8507 69.963 31.8044 67.3929 29.3158C67.39 29.3124 67.387 29.3101 67.384 29.3072C66.7482 28.693 66.0054 28.2195 65.1966 27.9029C65.8978 26.1877 66.0464 23.2866 63.7235 21.0405C63.717 21.0347 63.711 21.029 63.7051 21.0227C63.0722 20.4147 62.3336 19.9459 61.5308 19.6316C62.2314 17.917 62.3799 15.0164 60.0582 12.7703C60.057 12.7686 60.0547 12.7663 60.0547 12.7663C59.4176 12.1509 58.6742 11.6763 57.8643 11.3597C58.5655 9.64448 58.7135 6.74334 56.3912 4.49724L56.39 4.49609L56.3882 4.49437C53.8145 2.00578 49.6269 2.00578 47.0533 4.49437L1.22422 48.8085C0.332854 49.6704 0.332854 51.0672 1.22422 51.9285L20.7771 70.8357Z" fill="#FED19A"/>
<path d="M41.7121 20.6263C43.6226 18.779 43.6226 15.7848 41.7121 13.9374L31.9594 4.50714C30.0495 2.66038 26.9523 2.66038 25.0424 4.50714C23.1325 6.35447 23.1325 9.3487 25.0424 11.196L34.7951 20.6263C36.705 22.4731 39.8022 22.4731 41.7121 20.6263Z" fill="#FFE7CF"/>
<path d="M34.7954 27.3148C36.7053 25.468 36.7053 22.4732 34.7954 20.6264L26.2651 12.3775C24.3546 10.5307 21.258 10.5307 19.3475 12.3775C17.4376 14.2248 17.4376 17.2191 19.3475 19.0664L27.8784 27.3148C29.7883 29.1615 32.8855 29.1615 34.7954 27.3148Z" fill="#FFE7CF"/>
<path d="M27.8781 34.003C29.788 32.1562 29.788 29.1614 27.8781 27.3146L21.7913 21.429C19.8814 19.5823 16.7842 19.5823 14.8743 21.429C12.9645 23.2764 12.9645 26.2706 14.8743 28.1179L20.9605 34.003C22.871 35.8503 25.9676 35.8503 27.8781 34.003Z" fill="#FFE7CF"/>
<path d="M20.9607 40.692C22.8711 38.8446 22.8711 35.8504 20.9607 34.0031L17.3186 30.4814C15.4087 28.6346 12.3115 28.6346 10.4016 30.4814C8.49116 32.3281 8.49116 35.3229 10.4016 37.1697L14.0437 40.692C15.9536 42.5387 19.0508 42.5387 20.9607 40.692Z" fill="#FFE7CF"/>
<path d="M67.3928 29.316C67.3898 29.3125 67.3868 29.3102 67.3839 29.3074C66.748 28.6931 66.0052 28.2197 65.1965 27.903C65.8977 26.1879 66.0462 23.2867 63.7234 21.0406C63.7168 21.0349 63.7109 21.0286 63.7049 21.0228C63.0721 20.4149 62.3334 19.9454 61.5306 19.6311C62.1682 18.0717 62.3477 15.532 60.6285 13.395L11.0005 61.3826L20.777 70.8359C21.6683 71.6978 23.1135 71.6978 24.0043 70.8359L38.001 57.3018H41.9444C45.7054 57.3018 49.2423 55.8854 51.9021 53.3135L67.3892 38.3383C69.9617 35.8509 69.9623 31.8046 67.3928 29.316Z" fill="#F4BB87"/>
</svg>
