<svg xmlns="http://www.w3.org/2000/svg" viewBox="0 0 81.95 80"><defs><style>.cls-1{fill:#4fafa6;}.cls-2{fill:#193436;}.cls-3{fill:#fff;}</style></defs><g id="Layer_2" data-name="Layer 2"><g id="Layer_1-2" data-name="Layer 1"><polygon class="cls-1" points="34.09 65.11 26.92 62.54 22 58.7 24.32 55.07 30.13 53.96 31.02 51.16 29.59 49.78 27.59 50.79 24.15 54.08 20.12 55.51 14.78 47.7 13.19 40.68 13.29 33.9 17.27 31.21 18.63 24.95 22.49 28.86 26.87 29.85 26.52 33.76 27.07 36.73 29.04 37.79 30.23 35.71 27.19 26.36 24.74 17.61 28.6 15.85 31.89 12.26 33.15 7.63 37.25 6.73 39.73 4.63 41.04 1.93 47.07 12.26 53.27 16.3 56.76 16.79 55.72 22.78 51.1 36.03 52.31 38.4 54.61 37.44 54.46 30.74 59.16 29.33 62 26.07 63.39 30.44 66.97 35.93 68.78 36.72 67.17 46.46 61.11 56.65 56.59 55.56 55.01 53.59 54.29 52.05 53.08 50.96 51.54 50.69 50.62 51.54 51.15 54.23 54.96 55.71 56.81 57.15 58.32 59.84 55.52 61.79 46.23 65.11 44.47 63.5 43.88 62.16 43.01 60.63 42.4 59.47 42.01 57.58 41.02 55.85 40.6 56.21 37.57 59.27 35.05 65.5 34.09 65.11"/><path class="cls-2" d="M31.52,18.56a6.88,6.88,0,0,1,.88-.47c.31-.11.65-.15,1-.24s.35,0,.44.25a3.13,3.13,0,0,0,2.67,2.12c1.46.19,2.93.32,4.39.41a35,35,0,0,1,4.57.47,4.43,4.43,0,0,1,2.33,1.12,3.82,3.82,0,0,1,.41,4.15A3.94,3.94,0,0,1,46.24,28c-1.16.5-2.33,1-3.5,1.43a8.78,8.78,0,0,0-2.32,1.24,3.51,3.51,0,0,0-1.36,2.13,10.22,10.22,0,0,0-.19,1.91,3.66,3.66,0,0,0,.9,2.45,6.47,6.47,0,0,0,1.52,1.29c.87.53,1.76,1,2.63,1.57a5.48,5.48,0,0,1,1,.81,3.54,3.54,0,0,1,.7,3.25,2.36,2.36,0,0,1-1.52,1.73c-.63.27-1.29.47-1.94.68A2.86,2.86,0,0,0,40,49.38c0,.92.18,1.84.27,2.76a1.12,1.12,0,0,1,0,.32c-.08,0-.19-.06-.25-.13a19.76,19.76,0,0,1-1.38-1.65,2.31,2.31,0,0,1,.69-3.29c.57-.37,1.18-.67,1.78-1A3.77,3.77,0,0,0,43,44.31a4.39,4.39,0,0,0-1.8-5.14c-.79-.51-1.65-.89-2.47-1.33a8.15,8.15,0,0,1-2.09-1.28,3.39,3.39,0,0,1-.46-4.51,4.28,4.28,0,0,1,2-1.46c.94-.4,1.9-.75,2.85-1.12a7.24,7.24,0,0,0,2.07-1.06,2.47,2.47,0,0,0,.82-2.76c-.35-1-.75-1.91-1.18-2.85-.21-.46-.34-1-.85-1.27-.11-.06-.2-.22-.32-.12s0,.22,0,.34a.93.93,0,0,0,0,.1c.26.59.54,1.17.77,1.77a5.28,5.28,0,0,1,.5,2.29,3.19,3.19,0,0,1-2,2.95c-.88.36-1.8.63-2.7.93a15,15,0,0,0-2.73,1.09A3.11,3.11,0,0,0,33.73,33a7.24,7.24,0,0,0-.12,1.47,2.88,2.88,0,0,0,.85,2,5.65,5.65,0,0,0,1.78,1.2c1.23.54,2.47,1,3.69,1.6a3.11,3.11,0,0,1,1.87,2.08,5.85,5.85,0,0,1,.07,2.85,2.54,2.54,0,0,1-1.19,1.68,10.45,10.45,0,0,1-1.1.58c-.61.27-1.24.49-1.83.79a1.86,1.86,0,0,0-.72,2.8,6.33,6.33,0,0,0,.62.75c.84.84,1.7,1.66,2.56,2.49a.4.4,0,0,0,.58,0,.53.53,0,0,0,.26-.61c0-.15,0-.32-.08-.48a12,12,0,0,1-.25-2.74,2.4,2.4,0,0,1,2-2.48c.89-.21,1.79-.39,2.67-.64a3.32,3.32,0,0,0,2.26-4,2.94,2.94,0,0,0-1.2-1.86c-.27-.17-.55-.32-.83-.47l-3.87-2a2.89,2.89,0,0,1-1.44-1.72,7,7,0,0,1-.16-3.48,2.89,2.89,0,0,1,2-2.37c.93-.35,1.86-.69,2.79-1A29.23,29.23,0,0,0,48.69,28a3.23,3.23,0,0,0,1.8-2.13,5.77,5.77,0,0,0,.13-1.38,3.52,3.52,0,0,0-2.45-3.52A11.69,11.69,0,0,0,45,20.28c-1.42-.13-2.85-.2-4.28-.31s-2.59-.21-3.88-.36A2.14,2.14,0,0,1,35,18.1c0-.14-.07-.28-.11-.43h-.66c-.36,0-.38,0-.31-.39a1.65,1.65,0,0,1,1.76-1.23c.07,0,.15.1.18.17.11.26.18.54.29.81A2.34,2.34,0,0,0,38,18.56c.53.07,1.07.12,1.6.16.25,0,.51,0,.78,0a.41.41,0,0,0,0-.09c-.45-1-.91-1.93-1.37-2.9a.31.31,0,0,0-.23-.12h-4a1.69,1.69,0,0,0-1.53.82,8,8,0,0,0-.43.94.4.4,0,0,1-.22.18,1,1,0,0,1-.29,0c-.37,0-.73,0-1.09,0a.73.73,0,0,0-.68.63l.26-.08a4.7,4.7,0,0,1,.51-.12s.15.09.16.15A3.34,3.34,0,0,1,31.52,18.56Z"/><path class="cls-2" d="M6.17,46.58l.24-.3C7.49,45,8.57,43.67,9.64,42.35A.54.54,0,0,0,9.75,42c-.05-.44-.12-.89-.19-1.33,0-.06-.06-.1-.09-.15a.37.37,0,0,0-.07.16,1.34,1.34,0,0,1-.32,1,.61.61,0,0,1-.28.16c-.38.07-.76.11-1.15.17l-2.71.38c-.45.06-.65-.1-.72-.55a.2.2,0,0,0,0-.11l-.11-.11s0,.09,0,.13c0,.24.06.47.09.71s.1.75.16,1.13c0,.07.07.13.1.2a.83.83,0,0,0,.06-.21c0-.55.06-.69.61-.78l1.42-.21,2.09-.29-.65.79c-1,1.27-2.08,2.53-3.11,3.8a1.38,1.38,0,0,0-.15.3l.31,0,4.41-.63c.66-.1.83,0,.94.65.06.38,0,.44-.32.58l-.26.1-3.37,1c-.77.24-.77.24-1.14-.48a.26.26,0,0,0-.1-.07.29.29,0,0,0,0,.13.28.28,0,0,0,0,.15c.4,1.3.82,2.6,1.2,3.9.11.36.25.55.65.53a8.37,8.37,0,0,1,1,0L8,53a1.09,1.09,0,0,0-.23-.14,1.6,1.6,0,0,1-1.3-1c-.15-.49-.32-1-.47-1.48-.08-.27,0-.39.25-.48l1.88-.59h.12c.14.46.29.9.42,1.36s.1.73-.4,1c0,0-.07.12-.11.18l.06.05,1.85-.58v-.08a.83.83,0,0,0-.21-.06c-.5,0-.68-.06-.84-.53s-.32-1-.48-1.51l2.11-.66c.19.61.38,1.2.55,1.79s.12.84-.44,1.21c-.12.08-.14.14,0,.25l.79-.29c.28.47.22.74-.22,1-.25.15-.52.28-.78.42L7.81,54.36c-.42.21-.63.14-.86-.27,0,0,0-.09-.07-.12a.67.67,0,0,0-.15-.06,2.12,2.12,0,0,0,.23.57l.69,1.29s.1.06.15.09a.85.85,0,0,0,0-.16.6.6,0,0,0-.06-.11c-.19-.4-.14-.6.24-.83l.22-.13,3-1.6.21-.09-.2.3L8.55,57.1a.81.81,0,0,0-.07.22.63.63,0,0,0,.22.07l1.25,0,3.35,0h.47l-.25.14-2.35,1.26c-.28.15-.56.3-.85.44s-.6.11-.82-.27l-.13-.22H9.31s0,.12,0,.17L10.44,61s.1,0,.15.07a.23.23,0,0,0,0-.16c-.27-.54-.22-.71.3-1l.08,0,2.42-1.29c.36-.19.71-.38,1.07-.55a.47.47,0,0,1,.68.2c0,.05.07.12.11.17a1.49,1.49,0,0,0,.14.12c0-.07,0-.14,0-.19-.2-.4-.43-.79-.62-1.2a.37.37,0,0,0-.41-.23L10.11,57H9.72l.12-.2c.84-1.22,1.67-2.44,2.52-3.65a.35.35,0,0,0,0-.44c-.23-.4-.44-.81-.65-1.22h.07a.72.72,0,0,0,0-.25c-.12-.4-.25-.8-.37-1.2a23.49,23.49,0,0,1-1.22-4.73s-.08-.08-.11-.13a.41.41,0,0,0,0,.18c.06.56-.05.73-.6.81Z"/><path class="cls-2" d="M19.48,12.48h-.33c-.87,0-1.73,0-2.6,0a.69.69,0,0,1-.49-.16c-.14-.19.07-.35.19-.49-.07-.17-.14-.08-.22,0l-2,1.71a1,1,0,0,1-.18.1l.07.12a.73.73,0,0,0,.21-.06,2.16,2.16,0,0,1,1.18-.36c.95,0,1.9,0,2.86,0H19c0,.06,0,.09,0,.11-.09.74-.17,1.48-.29,2.21a2.33,2.33,0,0,1-.54,1.43c-.39.4-.56.45-1,.12L17,17.06c-.79-.61-1.56-1.24-2.38-1.82a1.69,1.69,0,0,0-2.11.1,4.38,4.38,0,0,0-1.15,1.38,1.83,1.83,0,0,0,.36,2.37c.29.28.61.52.93.78l1.54,1.23a.5.5,0,0,1,.19.62c-.3.58-.32.79-1,.45l-.08,0-2.56-1.36c-.3-.16-.59-.31-.88-.48a.51.51,0,0,1-.22-.75l.17-.36a.82.82,0,0,0-.21.08,2,2,0,0,0-.11.2l-2,3.84c0,.07-.07.2,0,.24.33.39.68.76,1,1.13l.08,0a1,1,0,0,0-.08-.24,1.61,1.61,0,0,1-.13-1.94c.19-.33.35-.67.53-1s.37-.47.8-.24l2,1.07c.47.25.94.49,1.41.76a.51.51,0,0,1,.26.74c0,.12-.1.23-.14.34a.43.43,0,0,0,0,.16s.12,0,.14-.08.18-.34.27-.51a15,15,0,0,1,1.48-2.51c.19-.21.35-.44.52-.65-.12-.19-.17-.05-.23,0-.34.41-.55.45-1,.13-.79-.61-1.57-1.23-2.34-1.87A1.37,1.37,0,0,1,11.67,17a3,3,0,0,1,.55-.85A1.26,1.26,0,0,1,14,15.93a8.64,8.64,0,0,1,.85.6c.6.47,1.2.94,1.78,1.42a.55.55,0,0,1,.1.87L16.6,19l0,.07c.06,0,.14-.05.17-.1.31-.38.61-.77.92-1.14a4.29,4.29,0,0,1,.48-.56l1.71-1.47c-.12-.21-.2,0-.27,0-.29.2-.47.12-.51-.22a1.53,1.53,0,0,1,0-.37q.09-.74.21-1.47c.06-.39.13-.77.2-1.21.44.51.85,1,1.24,1.45s.27.57-.06.88c0,0-.09.06-.11.1a.86.86,0,0,0,0,.17l.07,0c.64-.55,1.28-1.1,1.91-1.66,0,0,0-.11.05-.17a1.17,1.17,0,0,0-.32.18.51.51,0,0,1-.78-.08c-.89-1-1.79-2.06-2.66-3.1-.3-.35-.27-.57.06-.88,0,0,.1-.07.12-.11a.47.47,0,0,0,0-.17c-.7.55-1.35,1.1-2,1.66,0,0,0,.11,0,.17a1.5,1.5,0,0,0,.32-.19.52.52,0,0,1,.78.09l.26.3C18.76,11.63,19.09,12,19.48,12.48Z"/><path class="cls-2" d="M61.38,63.45l-1.75,1.2s0,.11-.05.17a.41.41,0,0,0,.18-.06c.47-.32.66-.29,1,.18l.77,1.13,1.09,1.59-.27,0-5-1.19a.47.47,0,0,0-.43.08c-.23.17-.47.33-.71.49,0,0-.12.08-.13.07s-.26,0-.37.06A16.45,16.45,0,0,0,54,68a8,8,0,0,1-1.73.74l-.29.1v.08a.65.65,0,0,0,.19,0c.56,0,.68.09.64.65,0,0,0,.08,0,.11-.07.68-.14,1.36-.22,2s-.11,1.06-.18,1.65c-.2-.2-.35-.37-.51-.54-.72-.73-1.44-1.45-2.14-2.19-.39-.41-.49-.67.12-1,0,0,.07-.08.1-.13s-.12,0-.17,0c-.7.22-1.4.45-2.09.69a.8.8,0,0,0-.19.13.59.59,0,0,0,.22,0,.89.89,0,0,1,.85.3c.26.28.53.54.8.82l3,3a.3.3,0,0,0,.21.09s.08-.12.09-.18c.19-1.69.37-3.37.56-5.06a1.2,1.2,0,0,1,.56-1,.31.31,0,0,0,.07-.09s.09-.13.15-.15a.48.48,0,0,1,.67.31c.61,1.21,1.2,2.42,1.78,3.64.21.43.12.65-.3.87l-.1,0a.32.32,0,0,0-.08.12c.05,0,.11,0,.15,0,.22-.09.43-.2.65-.31l1.66-.81V72a.75.75,0,0,0-.22,0c-.51.22-.71.16-1-.34s-.61-1.24-.91-1.86-.56-1.15-.83-1.73c-.15-.34-.11-.48.17-.66a.57.57,0,0,0,.26,0,3.32,3.32,0,0,1,.59-.18.74.74,0,0,1,.81.35c.31.53.69,1,1,1.54s.74,1.09,1.09,1.64a.46.46,0,0,1-.12.71,2.78,2.78,0,0,1-.27.21v.07c.06,0,.13,0,.17,0l1.61-1.1s0-.11.06-.16c-.76.39-.84.38-1.3-.3l-1.74-2.55-.1-.18.22,0,5.53,1.28a2.06,2.06,0,0,0,.34,0l-.32-.47L61.11,64.7c-.32-.47-.27-.65.18-1,0,0,.08,0,.09-.08A1.14,1.14,0,0,0,61.38,63.45Z"/><path class="cls-2" d="M23.46,67.39l.07.18.51,2c.29,1.18.59,2.35.89,3.53a2.64,2.64,0,0,0,.17.33l.14-.23c.72-1.36,1.45-2.71,2.18-4.07.28-.51.46-.55,1-.31a.66.66,0,0,0,.25,0c.31.18.34.27.24.62,0,.08-.05.15-.08.22l-1.26,3.42c-.24.66-.33.7-1,.53-.05,0-.11,0-.16,0,.81.36,1.59.66,2.39,1a.74.74,0,0,0,.19,0v-.07l-.13-.06c-.55-.22-.64-.4-.44-1s.45-1.23.68-1.85.49-1.3.75-1.94a.44.44,0,0,1,.6-.29,2.8,2.8,0,0,1,.31.09.27.27,0,0,0,.11,0s0-.07,0-.1,0,0-.05,0c-.76-.28-1.51-.58-2.28-.84a2,2,0,0,1-.52-.14c-.39-.22-.8-.44-1.21-.65l-.06.07a1.14,1.14,0,0,0,.15.16c.46.27.52.46.28.93-.49.93-1,1.85-1.49,2.78,0,0-.06.08-.1.14,0-.09,0-.16-.06-.23-.36-1.44-.73-2.88-1.09-4.31a2.55,2.55,0,0,0-.26-.91c-.17-.23-.53-.33-.8-.48h0a1,1,0,0,0-.1-.18s-.11-.11-.15-.1a.57.57,0,0,1-.7-.32,3.33,3.33,0,0,0-3.47-1.72,2.9,2.9,0,0,0-2.33,3.36,3.25,3.25,0,0,0,2.39,2.48,2.6,2.6,0,0,0,1.56-.06c.05,0,.09-.08.13-.12l-.18-.07-.09,0a2.41,2.41,0,0,1-2.52-.86,1.94,1.94,0,0,1-.45-2,3.54,3.54,0,0,1,1.94-2.14,2.17,2.17,0,0,1,2.88,2c0,.25-.1.49-.14.74a.55.55,0,0,0,0,.22h.07L22.94,66a.83.83,0,0,1,.19,1.12l-.3.55L21.4,70.32c-.25.45-.46.5-.92.27,0,0-.07-.06-.1,0s-.1,0-.19.08l2,1.06c.15-.18,0-.2-.09-.24-.45-.27-.51-.45-.28-.91s.32-.62.49-.93Z"/><path class="cls-2" d="M4.13,34.68l.16,0,3.33.6,1.5.29a.49.49,0,0,1,.41.36c.07.23-.08.45.07.7s-.2.52-.46.52-.68,0-1,0L4.94,37c-.45,0-.63-.25-.61-.7,0,0,0-.1,0-.13s-.07-.07-.14-.14c0,.18,0,.31,0,.43l-.09,2.16a.43.43,0,0,0,.07.16.8.8,0,0,0,.08-.16s0-.06,0-.09c0-.46.22-.63.69-.62L6.73,38l2.2.11a.56.56,0,0,1,.6.66,1.21,1.21,0,0,0,0,.19s.06.06.11.12a.53.53,0,0,0,0-.13c.05-.83.09-1.65.13-2.48a2.73,2.73,0,0,1-.05-.4c.07-.5.17-1,.25-1.49,0-.14,0-.14-.13-.15,0,0,0,0,0,.07-.13.64-.3.75-.95.63L7.7,34.91l-1.95-.35L6,34.39l4.35-2.73a.45.45,0,0,0,.25-.38,3.75,3.75,0,0,1,.16-.81c.18-.55.41-1.09.61-1.63l1.18-3.24c-.34-.15-.67-.3-1-.43a.63.63,0,0,0-.24,0,.67.67,0,0,0,.14.19.87.87,0,0,1,.45.74,4.8,4.8,0,0,1-.41,1.37L7.32,25.91c-.46-.18-.54-.38-.39-.86a.81.81,0,0,0,0-.22c0,.05-.12.1-.14.16-.27.71-.53,1.42-.79,2.13a.55.55,0,0,0,0,.22.93.93,0,0,0,.13-.15c.21-.5.38-.58.89-.42l.13.05L11,28.21l.21.1q-.13.39-.27.75c-.26.69-.48.84-1.21.83,0,0-.11.06-.17.1l0,.06,1,.32c-.22.19-.39.35-.57.48a.33.33,0,0,1-.24,0l-3.65-.66c-.72-.14-.74-.18-.72-.91,0,0,0-.1-.06-.15l-.07,0c-.12.68-.25,1.35-.37,2,0,0,.05.09.08.14s.07-.07.08-.12a.53.53,0,0,0,0-.18c.11-.4.26-.51.67-.45l1.44.24,2.18.4-.79.5c-1.41.89-2.82,1.77-4.22,2.67A1.46,1.46,0,0,0,4.13,34.68Z"/><path class="cls-2" d="M35.49,76.15l0,.09a.84.84,0,0,0,.2.08l.85.07,3.66.31a.2.2,0,0,0,.17-.06L41,75.38l-.05,0a1,1,0,0,0-.22.13,6.6,6.6,0,0,1-.51.54,1.28,1.28,0,0,1-.64.27c-.63,0-1.27-.06-1.9-.11-.24,0-.33-.16-.31-.39l.12-1.53c0-.18,0-.36.05-.56l1.48.13c.47,0,.78.2.79.76,0,.05.08.1.12.16s.08-.11.08-.16c0-.52.1-1,.14-1.55a1.25,1.25,0,0,0-.07-.26,1,1,0,0,0-.14.21.62.62,0,0,1-.71.52c-.34,0-.68,0-1-.07l-.64-.06.19-2.21c.75.08,1.49.15,2.22.25a.6.6,0,0,1,.53.49,3,3,0,0,0,.08.32c0,.06.09.11.13.16l.08,0V71.12l-.18,0-4.35-.38c-.11,0-.24,0-.28-.13,0,0-.14,0-.18,0-.28.27-.36.28-.67,0a3.37,3.37,0,0,0-2.86-.6A3,3,0,0,0,30,72.81a2.78,2.78,0,0,0,1.82,2.77A3,3,0,0,0,35.22,75c-.08-.19-.17-.09-.26,0a2.44,2.44,0,0,1-2.1.56,2.17,2.17,0,0,1-1.87-2,3.77,3.77,0,0,1,.56-2.15,2,2,0,0,1,2.08-1A2,2,0,0,1,35.46,72c0,.11,0,.23.06.34s.07.09.14.17l.27-1.65.25,0c.45,0,.59.19.58.65v.19c-.06.65-.12,1.29-.17,1.94s-.12,1.33-.19,2c0,.35-.17.47-.52.5Z"/><path class="cls-2" d="M75.65,35c-.67.51-1.32,1-2,1.49-.37.27-.61.15-.69-.31,0,0,0-.08,0-.11a.6.6,0,0,0-.09-.13s-.07.09-.07.14c0,.8,0,1.59.06,2.39a.38.38,0,0,0,.08.17H73a1.54,1.54,0,0,1,.73-1.11C74.5,37,75.23,36.37,76,35.8a.44.44,0,0,1,.27-.11c.47,0,.94,0,1.41,0s.6.19.62.61c0,.05,0,.1,0,.14a.38.38,0,0,0,.1.12s.06-.08.06-.12c0-.81,0-1.63-.06-2.44,0,0-.06-.09-.1-.13l-.05,0v.25c0,.44-.17.6-.61.62s-1,0-1.49.05a.4.4,0,0,1-.21-.07c-.81-.54-1.61-1.09-2.42-1.65a1.45,1.45,0,0,1-.63-1s-.06-.08-.09-.12-.06.1-.06.14c0,.24,0,.47,0,.7,0,.39,0,.77,0,1.16,0,.07.06.13.1.2.14-.69.38-.81.94-.44S75,34.56,75.65,35Z"/><path class="cls-2" d="M26.92,11.09l.1,0,4.07-1.69.08,0a1.17,1.17,0,0,0,0-.11s-.08,0-.11,0L31,9.23c-.47.18-.68.1-.87-.35-.3-.7-.59-1.41-.89-2.12L28.52,5a.45.45,0,0,1,.21-.56c.13-.08.27-.14.4-.21V4.18a.42.42,0,0,0-.19,0l-1,.41-1.34.56c0,.23.16.11.24.08.39-.15.67-.12.78.13.31.65.58,1.31.87,2-.4.17-.77.33-1.14.47a.61.61,0,0,1-.91-.32c-.07-.12-.13-.12-.22,0l.72,1.73H27a.66.66,0,0,0,0-.23c0-.27-.05-.55.21-.69.43-.23.88-.41,1.34-.62l.84,2-1.41.59A1.12,1.12,0,0,1,26.62,10s-.13,0-.19-.07l0,.07Z"/><path class="cls-2" d="M10.19,37.23a5.08,5.08,0,0,0,1.33,1.55l.05-1Z"/><path class="cls-2" d="M82,22.41c-.17.62-.37,1.24-.51,1.87-.28,1.24-.53,2.48-.79,3.72l0,.13a10.52,10.52,0,0,0-3.88-.69,11.31,11.31,0,0,0-3.87.69c-.3-1-.58-2-.88-2.94s-.63-1.92-1-2.91a1.08,1.08,0,0,1,.93.17c.36.3.23.67.07,1.07.32-.13.63-.29.91,0a.71.71,0,0,1,.23.4c.08.53-.19.78-.91.86a2.14,2.14,0,0,0,2.25,1.75,2.24,2.24,0,0,0,1.8-2.38c-.35.12-.71.26-1-.14a.74.74,0,0,1,0-.88c.3-.44.7-.21,1.1-.1a3.15,3.15,0,0,1-.22-.33c-.15-.26-.3-.52-.09-.8a.79.79,0,0,1,.82-.26c.57.1.73.51.4,1-.1.14-.22.27-.37.45.47-.11,1-.36,1.22.21a.73.73,0,0,1-.12.83c-.33.35-.71.2-1.11,0A2.46,2.46,0,0,0,77.52,26a1.72,1.72,0,0,0,1.9.47A2.43,2.43,0,0,0,81,24.58c-.42.12-.82.21-1.05-.25a.71.71,0,0,1,.08-.81c.32-.37.67-.17,1-.06a2.14,2.14,0,0,1-.13-.19.52.52,0,0,1,.25-.84,4.69,4.69,0,0,1,.75-.12Z"/><path class="cls-2" d="M6.17,46.58l3.29-.47c.55-.08.66-.25.6-.81a.41.41,0,0,1,0-.18c0,.05.1.09.11.13A23.49,23.49,0,0,0,11.44,50c.12.4.25.8.37,1.2a.72.72,0,0,1,0,.25h-.07c.21.41.42.82.65,1.22a.35.35,0,0,1,0,.44c-.85,1.21-1.68,2.43-2.52,3.65l-.12.2h.39l4.23-.06a.37.37,0,0,1,.41.23c.19.41.42.8.62,1.2,0,0,0,.12,0,.19a1.49,1.49,0,0,1-.14-.12s-.07-.12-.11-.17a.47.47,0,0,0-.68-.2c-.36.17-.71.36-1.07.55L11,59.86l-.08,0c-.52.3-.57.47-.3,1a.23.23,0,0,1,0,.16c-.05,0-.13,0-.15-.07L9.29,58.85c0-.05,0-.12,0-.17h.06l.13.22c.22.38.44.45.82.27s.57-.29.85-.44l2.35-1.26.25-.14H13.3l-3.35,0-1.25,0a.63.63,0,0,1-.22-.07.81.81,0,0,1,.07-.22l2.67-3.86.2-.3-.21.09-3,1.6L8,54.76c-.38.23-.43.43-.24.83a.6.6,0,0,1,.06.11.85.85,0,0,1,0,.16s-.12,0-.15-.09L7,54.48a2.12,2.12,0,0,1-.23-.57.67.67,0,0,1,.15.06s0,.08.07.12c.23.41.44.48.86.27l2.72-1.45c.26-.14.53-.27.78-.42.44-.26.5-.53.22-1l-.79.29c-.11-.11-.09-.17,0-.25.56-.37.63-.56.44-1.21s-.36-1.18-.55-1.79l-2.11.66c.16.51.31,1,.48,1.51s.34.56.84.53a.83.83,0,0,1,.21.06v.08L8.23,52l-.06-.05c0-.06.06-.14.11-.18.5-.32.57-.48.4-1s-.28-.9-.42-1.36H8.14l-1.88.59c-.27.09-.33.21-.25.48.15.5.32,1,.47,1.48a1.6,1.6,0,0,0,1.3,1A1.09,1.09,0,0,1,8,53l0,.08a8.37,8.37,0,0,0-1,0c-.4,0-.54-.17-.65-.53-.38-1.3-.8-2.6-1.2-3.9a.28.28,0,0,1,0-.15.29.29,0,0,1,0-.13.26.26,0,0,1,.1.07c.37.72.37.72,1.14.48l3.37-1,.26-.1c.35-.14.38-.2.32-.58-.11-.64-.28-.75-.94-.65L5,47.17l-.31,0a1.38,1.38,0,0,1,.15-.3c1-1.27,2.07-2.53,3.11-3.8l.65-.79-2.09.29-1.42.21c-.55.09-.65.23-.61.78a.83.83,0,0,1-.06.21c0-.07-.09-.13-.1-.2-.06-.38-.11-.75-.16-1.13s-.07-.47-.09-.71c0,0,0-.09,0-.13l.11.11a.2.2,0,0,1,0,.11c.07.45.27.61.72.55L7.65,42c.39-.06.77-.1,1.15-.17a.61.61,0,0,0,.28-.16,1.34,1.34,0,0,0,.32-1,.37.37,0,0,1,.07-.16s.09.09.09.15c.07.44.14.89.19,1.33a.54.54,0,0,1-.11.37C8.57,43.67,7.49,45,6.41,46.28Z"/><path class="cls-2" d="M19.48,12.48c-.39-.45-.72-.85-1.07-1.24l-.26-.3a.52.52,0,0,0-.78-.09,1.5,1.5,0,0,1-.32.19c0-.06,0-.14,0-.17.64-.56,1.29-1.11,2-1.66a.47.47,0,0,1,0,.17s-.08.07-.12.11c-.33.31-.36.53-.06.88.87,1,1.77,2.07,2.66,3.1a.51.51,0,0,0,.78.08,1.17,1.17,0,0,1,.32-.18c0,.06,0,.14-.05.17-.63.56-1.27,1.11-1.91,1.66l-.07,0a.86.86,0,0,1,0-.17s.07-.06.11-.1c.33-.31.35-.53.06-.88s-.8-.94-1.24-1.45c-.07.44-.14.82-.2,1.21s-.15,1-.21,1.47a1.53,1.53,0,0,0,0,.37c0,.34.22.42.51.22.07,0,.15-.22.27,0l-1.71,1.47a4.29,4.29,0,0,0-.48.56c-.31.37-.61.76-.92,1.14,0,0-.11.07-.17.1l0-.07.17-.22a.55.55,0,0,0-.1-.87c-.58-.48-1.18-.95-1.78-1.42a8.64,8.64,0,0,0-.85-.6,1.26,1.26,0,0,0-1.82.26,3,3,0,0,0-.55.85,1.37,1.37,0,0,0,.42,1.79c.77.64,1.55,1.26,2.34,1.87.41.32.62.28,1-.13.06-.08.11-.22.23,0-.17.21-.33.44-.52.65a15,15,0,0,0-1.48,2.51c-.09.17-.17.35-.27.51s-.09.05-.14.08a.43.43,0,0,1,0-.16c0-.11.1-.22.14-.34a.51.51,0,0,0-.26-.74c-.47-.27-.94-.51-1.41-.76l-2-1.07c-.43-.23-.56-.19-.8.24s-.34.67-.53,1a1.61,1.61,0,0,0,.13,1.94,1,1,0,0,1,.08.24l-.08,0c-.35-.37-.7-.74-1-1.13,0,0,0-.17,0-.24l2-3.84a2,2,0,0,1,.11-.2.82.82,0,0,1,.21-.08l-.17.36a.51.51,0,0,0,.22.75c.29.17.58.32.88.48l2.56,1.36.08,0c.69.34.71.13,1-.45a.5.5,0,0,0-.19-.62l-1.54-1.23c-.32-.26-.64-.5-.93-.78a1.83,1.83,0,0,1-.36-2.37,4.38,4.38,0,0,1,1.15-1.38,1.69,1.69,0,0,1,2.11-.1c.82.58,1.59,1.21,2.38,1.82l.15.11c.45.33.62.28,1-.12a2.33,2.33,0,0,0,.54-1.43c.12-.73.2-1.47.29-2.21,0,0,0-.05,0-.11h-.82c-1,0-1.91,0-2.86,0a2.16,2.16,0,0,0-1.18.36.73.73,0,0,1-.21.06l-.07-.12a1,1,0,0,0,.18-.1l2-1.71c.08-.07.15-.16.22,0-.12.14-.33.3-.19.49a.69.69,0,0,0,.49.16c.87,0,1.73,0,2.6,0Z"/><path class="cls-2" d="M66.86,57.11c0-.06,0-.13,0-.18a5.76,5.76,0,0,1,.35-.51,14.12,14.12,0,0,0,1.68-3,13,13,0,0,1,.79-1.47,1.48,1.48,0,0,1,1.1-.7,1.24,1.24,0,0,1,1.39,1.17c0,.3,0,.6,0,.91l1-.24c.45-.12.9-.23,1.35-.36a1.75,1.75,0,0,0,1-.75c0-.07.12-.1.18-.15l.06.06c-.22.49-.44,1-.68,1.46,0,.06-.12.09-.19.11l-2.79.7a.49.49,0,0,0-.44.37c0,.1-.09.19-.14.32l1.81.8a.43.43,0,0,0,.58-.2c.09-.12.15-.26.27-.4,0,.06.06.13,0,.18-.34.74-.68,1.49-1,2.23,0,0-.1.06-.19.1v-.09c.29-.72.25-.84-.45-1.16l-3.2-1.48a3,3,0,0,0-.5-.18.39.39,0,0,0-.46.27c-.06.14-.15.25-.21.39a.46.46,0,0,0,.17.65c1.14.8,2.29,1.59,3.44,2.38a.49.49,0,0,0,.75-.11c.08-.08.14-.18.25-.32,0,.09.07.16,0,.19l-1.46,2.14-.08,0a.43.43,0,0,1,0-.16c.05-.1.12-.18.16-.28a.42.42,0,0,0-.12-.6c-.54-.42-1.11-.81-1.68-1.22l-1.65,2.4.45.32,1,.73c.45.29.65.25,1-.18,0-.07.1-.23.24,0l-1.47,2.11s-.1,0-.16,0l0,0c.07-.12.15-.24.21-.36a.46.46,0,0,0-.13-.64c-.19-.16-.4-.3-.6-.44L65.88,60c-.48-.33-.66-.29-1,.18a.71.71,0,0,1-.17.11l-.06-.08L66.15,58h.08c0,.05,0,.12,0,.16-.35.68-.34.73.28,1.16l1.28.88,1.64-2.37-.12-.11c-.43-.3-.86-.6-1.3-.89s-.66-.25-1,.17a.64.64,0,0,1-.1.13Zm4.43-2.41a2.62,2.62,0,0,0,.4-1.35,1.13,1.13,0,0,0-2-.77,2.26,2.26,0,0,0-.5,1,.2.2,0,0,0,.09.17C70,54.09,70.62,54.39,71.29,54.7Z"/><path class="cls-2" d="M61.38,63.45a1.14,1.14,0,0,1,0,.19s-.06,0-.09.08c-.45.33-.5.51-.18,1l2.43,3.57.32.47a2.06,2.06,0,0,1-.34,0L58,67.47l-.22,0,.1.18,1.74,2.55c.46.68.54.69,1.3.3,0,.05,0,.13-.06.16l-1.61,1.1s-.11,0-.17,0v-.07a2.78,2.78,0,0,0,.27-.21.46.46,0,0,0,.12-.71c-.35-.55-.72-1.1-1.09-1.64s-.73-1-1-1.54a.74.74,0,0,0-.81-.35,3.32,3.32,0,0,0-.59.18.57.57,0,0,1-.26,0c-.28.18-.32.32-.17.66.27.58.55,1.16.83,1.73s.6,1.24.91,1.86.45.56,1,.34a.75.75,0,0,1,.22,0v.09l-1.66.81c-.22.11-.43.22-.65.31,0,0-.1,0-.15,0a.32.32,0,0,1,.08-.12l.1,0c.42-.22.51-.44.3-.87-.58-1.22-1.17-2.43-1.78-3.64a.48.48,0,0,0-.67-.31c-.06,0-.1.1-.15.15a.31.31,0,0,1-.07.09,1.2,1.2,0,0,0-.56,1c-.19,1.69-.37,3.37-.56,5.06,0,.06,0,.17-.09.18a.3.3,0,0,1-.21-.09l-3-3c-.27-.28-.54-.54-.8-.82a.89.89,0,0,0-.85-.3.59.59,0,0,1-.22,0,.8.8,0,0,1,.19-.13c.69-.24,1.39-.47,2.09-.69.05,0,.11,0,.17,0s-.06.11-.1.13c-.61.28-.51.54-.12,1,.7.74,1.42,1.46,2.14,2.19.16.17.31.34.51.54.07-.59.13-1.12.18-1.65s.15-1.35.22-2c0,0,0-.07,0-.11,0-.56-.08-.68-.64-.65a.65.65,0,0,1-.19,0v-.08l.29-.1A8,8,0,0,0,54,68a16.45,16.45,0,0,1,1.68-.84c.11,0,.22-.19.37-.06s.09,0,.13-.07c.24-.16.48-.32.71-.49a.47.47,0,0,1,.43-.08l5,1.19.27,0-1.09-1.59-.77-1.13c-.34-.47-.53-.5-1-.18a.41.41,0,0,1-.18.06c0-.06,0-.14.05-.17Z"/><path class="cls-2" d="M23.46,67.39,22.27,69.6c-.17.31-.33.62-.49.93s-.17.64.28.91c.07,0,.24.06.09.24l-2-1.06c.09,0,.14-.08.19-.08s.07,0,.1,0c.46.23.67.18.92-.27l1.43-2.65.3-.55A.83.83,0,0,0,22.94,66l-.84,1.21H22A.55.55,0,0,1,22,67c0-.25.12-.49.14-.74a2.17,2.17,0,0,0-2.88-2,3.54,3.54,0,0,0-1.94,2.14,1.94,1.94,0,0,0,.45,2,2.41,2.41,0,0,0,2.52.86l.09,0,.18.07s-.08.1-.13.12a2.6,2.6,0,0,1-1.56.06,3.25,3.25,0,0,1-2.39-2.48,2.9,2.9,0,0,1,2.33-3.36,3.33,3.33,0,0,1,3.47,1.72.57.57,0,0,0,.7.32s.11,0,.15.1a1,1,0,0,1,.1.18h0c.27.15.63.25.8.48a2.55,2.55,0,0,1,.26.91c.36,1.43.73,2.87,1.09,4.31,0,.07,0,.14.06.23,0-.06.08-.1.1-.14.5-.93,1-1.85,1.49-2.78.24-.47.18-.66-.28-.93a1.14,1.14,0,0,1-.15-.16l.06-.07c.41.21.82.43,1.21.65a2,2,0,0,0,.52.14c.77.26,1.52.56,2.28.84,0,0,0,0,.05,0s0,.07,0,.1a.27.27,0,0,1-.11,0,2.8,2.8,0,0,0-.31-.09.44.44,0,0,0-.6.29c-.26.64-.5,1.29-.75,1.94s-.46,1.23-.68,1.85-.11.74.44,1l.13.06v.07a.74.74,0,0,1-.19,0c-.8-.29-1.58-.59-2.39-1,.05,0,.11-.06.16,0,.7.17.79.13,1-.53l1.26-3.42c0-.07.05-.14.08-.22.1-.35.07-.44-.24-.62a.66.66,0,0,1-.25,0c-.52-.24-.7-.2-1,.31-.73,1.36-1.46,2.71-2.18,4.07l-.14.23a2.64,2.64,0,0,1-.17-.33c-.3-1.18-.6-2.35-.89-3.53l-.51-2Z"/><path class="cls-2" d="M4.13,34.68a1.46,1.46,0,0,1,.24-.25c1.4-.9,2.81-1.78,4.22-2.67l.79-.5-2.18-.4-1.44-.24c-.41-.06-.56.05-.67.45a.53.53,0,0,1,0,.18c0,.05,0,.08-.08.12s-.08-.1-.08-.14c.12-.68.25-1.35.37-2l.07,0c0,.05.07.1.06.15,0,.73,0,.77.72.91l3.65.66a.33.33,0,0,0,.24,0c.18-.13.35-.29.57-.48l-1-.32,0-.06c.06,0,.12-.1.17-.1.73,0,1-.14,1.21-.83q.13-.36.27-.75l-.21-.1L7.17,26.82,7,26.77c-.51-.16-.68-.08-.89.42a.93.93,0,0,1-.13.15.55.55,0,0,1,0-.22c.26-.71.52-1.42.79-2.13,0-.06.09-.11.14-.16a.81.81,0,0,1,0,.22c-.15.48-.07.68.39.86l4.17,1.54a4.8,4.8,0,0,0,.41-1.37.87.87,0,0,0-.45-.74.67.67,0,0,1-.14-.19.63.63,0,0,1,.24,0c.33.13.66.28,1,.43l-1.18,3.24c-.2.54-.43,1.08-.61,1.63a3.75,3.75,0,0,0-.16.81.45.45,0,0,1-.25.38L6,34.39l-.25.17,2,.35,1.21.22c.65.12.82,0,.95-.63,0,0,0,0,0-.07.16,0,.16,0,.13.15-.08.5-.18,1-.25,1.49a2.73,2.73,0,0,0,.05.4c0,.83-.08,1.65-.13,2.48a.53.53,0,0,1,0,.13C9.59,39,9.54,39,9.53,39a1.21,1.21,0,0,1,0-.19.56.56,0,0,0-.6-.66L6.73,38l-1.81-.08c-.47,0-.64.16-.69.62,0,0,0,.07,0,.09a.8.8,0,0,1-.08.16.43.43,0,0,1-.07-.16l.09-2.16c0-.12,0-.25,0-.43.07.07.12.09.14.14s0,.09,0,.13c0,.45.16.67.61.7l3.18.15q.51,0,1,0c.26,0,.57-.32.46-.52s0-.47-.07-.7a.49.49,0,0,0-.41-.36l-1.5-.29-3.33-.6Z"/><path class="cls-2" d="M35.49,76.15h.39c.35,0,.49-.15.52-.5.07-.66.13-1.33.19-2s.11-1.29.17-1.94v-.19c0-.46-.13-.61-.58-.65l-.25,0-.27,1.65c-.07-.08-.13-.12-.14-.17s0-.23-.06-.34a2,2,0,0,0-1.83-1.66,2,2,0,0,0-2.08,1A3.77,3.77,0,0,0,31,73.49a2.17,2.17,0,0,0,1.87,2,2.44,2.44,0,0,0,2.1-.56c.09-.07.18-.17.26,0a3,3,0,0,1-3.44.62A2.78,2.78,0,0,1,30,72.81a3,3,0,0,1,2.27-2.75,3.37,3.37,0,0,1,2.86.6c.31.23.39.22.67,0,0,0,.18,0,.18,0,0,.17.17.12.28.13l4.35.38.18,0v1.21l-.08,0c0-.05-.11-.1-.13-.16a3,3,0,0,1-.08-.32.6.6,0,0,0-.53-.49c-.73-.1-1.47-.17-2.22-.25l-.19,2.21.64.06c.34,0,.68.06,1,.07a.62.62,0,0,0,.71-.52,1,1,0,0,1,.14-.21,1.25,1.25,0,0,1,.07.26c0,.51-.09,1-.14,1.55,0,.05-.05.1-.08.16s-.12-.11-.12-.16c0-.56-.32-.71-.79-.76l-1.48-.13c0,.2,0,.38-.05.56l-.12,1.53c0,.23.07.37.31.39.63,0,1.27.11,1.9.11a1.28,1.28,0,0,0,.64-.27,6.6,6.6,0,0,0,.51-.54,1,1,0,0,1,.22-.13l.05,0-.62,1.26a.2.2,0,0,1-.17.06l-3.66-.31-.85-.07a.84.84,0,0,1-.2-.08Z"/><path class="cls-2" d="M78.16,41.2c-.09.8-.18,1.66-.28,2.52,0,.23,0,.46-.08.69a1,1,0,0,1-.09.21,1.72,1.72,0,0,1-.07-.21.86.86,0,0,1,0-.16.5.5,0,0,0-.47-.58c-.55-.09-1.11-.14-1.66-.21l-2.35-.25c-.55-.07-.72.07-.81.65,0,.06-.06.1-.09.15a.37.37,0,0,1-.07-.14c.17-1.26.29-2.52.53-3.76a2.44,2.44,0,0,1,2-2.06,2.72,2.72,0,0,1,3.4,2.37C78.12,40.65,78.13,40.89,78.16,41.2Zm-5.31,1h.09l2.81.32c.53.06,1.06.13,1.59.18.1,0,.22.07.27-.09a3.38,3.38,0,0,0,.14-1.78,2.57,2.57,0,0,0-3.44-1.69A2.66,2.66,0,0,0,72.85,42.25Z"/><path class="cls-2" d="M18,62.21a2.89,2.89,0,0,1-2.86,2.9A3.28,3.28,0,0,1,12,61.9,2.93,2.93,0,0,1,14.83,59,3.26,3.26,0,0,1,18,62.21Zm-.49-.62a2,2,0,0,0-2.31-1.87,3.74,3.74,0,0,0-2.41,1.89,2.06,2.06,0,0,0-.27.86,1.9,1.9,0,0,0,2.54,1.87,4.06,4.06,0,0,0,2.18-1.92A4.48,4.48,0,0,0,17.54,61.59Z"/><path class="cls-2" d="M61.86,63.94a3.27,3.27,0,0,1,3.24-3.2,2.9,2.9,0,0,1,2.81,2.88,3.29,3.29,0,0,1-3.19,3.22A3,3,0,0,1,61.86,63.94Zm5.47.32a1.42,1.42,0,0,0,0-.27,1.38,1.38,0,0,0-.08-.29,3.86,3.86,0,0,0-2.4-2.27,1.86,1.86,0,0,0-2.31,2.24A3.57,3.57,0,0,0,64.69,66,1.88,1.88,0,0,0,67.33,64.26Z"/><path class="cls-2" d="M23.49,6.58l1.69-1,.07,0c0,.06,0,.14-.08.17a.86.86,0,0,0-.32.8c0,.89.11,1.78.17,2.67s.14,1.83.21,2.75c0,.07,0,.19-.08.21s-.15,0-.21-.07L21,9.41l-.48-.32A.93.93,0,0,0,19.61,9c-.05,0-.13,0-.19,0l0-.09,2.05-1.18h0l.12,0s0,.09,0,.12-.05,0-.08.06c-.36.28-.37.46,0,.75s.56.41.85.6a.23.23,0,0,0,.2,0c.63-.35,1.25-.71,1.87-1.08a.22.22,0,0,0,.11-.17c0-.39-.05-.79-.1-1.18s-.2-.37-.48-.28c-.1,0-.19.08-.29.1a.45.45,0,0,1-.16,0Zm1.07,1.93L22.7,9.58l2,1.42Z"/><path class="cls-2" d="M77,47.5a.43.43,0,0,1,0-.19c.06-.47,0-.6-.52-.55a8.83,8.83,0,0,0-1,.16.26.26,0,0,0-.17.17c-.2.68-.38,1.36-.56,2a.27.27,0,0,0,.06.23,10,10,0,0,0,.78.68c.34.27.52.21.7-.17a1.51,1.51,0,0,1,.18-.26,1.6,1.6,0,0,1,0,.31c-.13.5-.27,1-.41,1.48,0,.05-.07.09-.11.14s-.08-.12-.07-.17a.86.86,0,0,0-.35-.8c-.85-.76-1.71-1.51-2.58-2.27L71.37,47c-.05,0-.11-.13-.1-.18a.26.26,0,0,1,.17-.11l4-.69,1.37-.25a.92.92,0,0,0,.7-.58s.08-.07.12-.1.06.1,0,.14c-.2.76-.41,1.51-.62,2.26Zm-2-.52-2.44.43,1.87,1.64Z"/><path class="cls-2" d="M75.65,35c-.63-.43-1.24-.85-1.85-1.25s-.8-.25-.94.44c0-.07-.1-.13-.1-.2,0-.39,0-.77,0-1.16,0-.23,0-.46,0-.7,0,0,0-.09.06-.14s.08.08.09.12a1.45,1.45,0,0,0,.63,1c.81.56,1.61,1.11,2.42,1.65a.4.4,0,0,0,.21.07c.5,0,1,0,1.49-.05s.59-.18.61-.62v-.25l.05,0s.1.09.1.13c0,.81,0,1.63.06,2.44,0,0,0,.08-.06.12a.38.38,0,0,1-.1-.12s0-.09,0-.14c0-.42-.2-.61-.62-.61s-.94,0-1.41,0a.44.44,0,0,0-.27.11c-.75.57-1.48,1.15-2.23,1.71A1.54,1.54,0,0,0,73,38.62H73a.38.38,0,0,1-.08-.17c0-.8,0-1.59-.06-2.39,0,0,0-.09.07-.14a.6.6,0,0,1,.09.13s0,.07,0,.11c.08.46.32.58.69.31C74.33,36,75,35.5,75.65,35Z"/><path class="cls-2" d="M26.92,11.09,26.4,10l0-.07c.06,0,.16,0,.19.07a1.12,1.12,0,0,0,1.43.28l1.41-.59-.84-2c-.46.21-.91.39-1.34.62-.26.14-.25.42-.21.69a.66.66,0,0,1,0,.23h-.09l-.72-1.73c.09-.1.15-.1.22,0a.61.61,0,0,0,.91.32c.37-.14.74-.3,1.14-.47-.29-.68-.56-1.34-.87-2-.11-.25-.39-.28-.78-.13-.08,0-.2.15-.24-.08l1.34-.56,1-.41a.42.42,0,0,1,.19,0v.07c-.13.07-.27.13-.4.21a.45.45,0,0,0-.21.56l.7,1.74c.3.71.59,1.42.89,2.12.19.45.4.53.87.35l.13-.05s.07,0,.11,0a1.17,1.17,0,0,1,0,.11l-.08,0L27,11.06Z"/><path class="cls-2" d="M10.19,37.23l1.38.54-.05,1A5.08,5.08,0,0,1,10.19,37.23Z"/><polygon class="cls-3" points="40.6 52.74 40.6 48.15 42.67 46.66 45.38 45.8 46.78 42 44.46 39.79 40.21 37.35 39.52 32.94 40.6 31.1 44.61 28.92 49.16 27.18 49.16 22.59 46.67 20.93 41.42 20.32 35.89 19.84 33.47 17.41 34.23 15.95 36.92 15.95 40.24 18.36 41.65 21.56 43.78 25.91 41.95 28.6 37.99 30.29 35.42 32.09 35.06 35.62 36.94 37.76 41.31 39.67 42.94 41.45 42.51 44.42 40.44 46.56 38.06 47.65 37.5 49.63 39.94 52.74 40.6 52.74"/><path class="cls-2" d="M38.16,0l1,.09a30.85,30.85,0,0,1,7.66,1.56,34.31,34.31,0,0,1,8.74,4.5A32.48,32.48,0,0,1,68.92,27.22c.09.57.17,1.13.26,1.72h-.44c-.12-.65-.21-1.3-.34-1.94a31.31,31.31,0,0,0-3.49-9.11A36.56,36.56,0,0,0,58.62,9.8,31.23,31.23,0,0,0,43.77,1.74c-.76-.19-1.53-.29-2.3-.43a1.52,1.52,0,0,0-.23,0c0,.07,0,.12.06.16C42.65,3.82,44,6.22,45.37,8.56A18.69,18.69,0,0,0,49,13a9.63,9.63,0,0,0,5.22,2.32c.94.12,1.9.13,2.85.19h.25A61.78,61.78,0,0,1,53.76,30l.48,0a6.89,6.89,0,0,0,5.91-2.53c.72-.82,1.37-1.68,2.05-2.53l.27-.31c.08.5.15.94.23,1.39a19.47,19.47,0,0,0,1.59,5.22A7.07,7.07,0,0,0,67,34.39a6.32,6.32,0,0,0,2.06.76l.26.06c0,.71,0,1.42-.1,2.12-.14,1.44-.27,2.89-.5,4.33a31.1,31.1,0,0,1-2.76,8.87,33.73,33.73,0,0,1-5.16,7.58.21.21,0,0,1-.32.06l-3.31-1.84c-.15-.08-.29-.19-.46-.27.13.17.28.34.4.52a21.18,21.18,0,0,1,1.61,3.1c.09.2,0,.29-.13.4a23.43,23.43,0,0,1-3.76,2.39,40.36,40.36,0,0,1-8.06,3.22c-.6.17-1.23.26-1.84.39-.1,0-.2,0-.28,0-.17-.65-.31-1.28-.5-1.9a30,30,0,0,0-1.9-4.75c-.09-.16-.19-.32-.29-.48s-.22-.18-.35,0c-.4.49-.83,1-1.19,1.48a8,8,0,0,0-1.34,3.93,4.46,4.46,0,0,0,1.22,3.42,10.53,10.53,0,0,0,2.46,2c1.66,1,3.32,2,5,3L48,73l-.5.2L45.36,74A.29.29,0,0,1,45,74c-1.71-1.5-3.42-3-5-4.67a5.94,5.94,0,0,1-1.63-2.84,8.15,8.15,0,0,1,.36-4.32,11.37,11.37,0,0,1,2.57-4c.18-.2.33-.42.49-.63s.22-.1.31.06c.24.43.49.85.71,1.28q1,2.07,2,4.15a2.34,2.34,0,0,0,.48.8,2.07,2.07,0,0,0,1.67.44A18.36,18.36,0,0,0,52,62.84a27.66,27.66,0,0,0,5.54-2.92c.35-.25.36-.25.16-.63s-.46-.93-.7-1.39a3.2,3.2,0,0,0-2.05-1.6c-.91-.24-1.84-.4-2.76-.61-.45-.11-.89-.22-1.32-.37a1.83,1.83,0,0,1-1.07-1.06,3.63,3.63,0,0,1-.06-2.89A1.87,1.87,0,0,1,51,50.15a3.1,3.1,0,0,1,1.81,0,1.7,1.7,0,0,1,1,.68c.64,1,1.27,1.91,1.94,2.84A8,8,0,0,0,56.86,55a3,3,0,0,0,4,.15,14.69,14.69,0,0,0,3.62-4.19,24.81,24.81,0,0,0,3.33-9,42.75,42.75,0,0,0,.56-4.65c0-.13,0-.19-.14-.23a6.72,6.72,0,0,1-3.91-3.14,15.25,15.25,0,0,1-1.72-4.51c-.19-.83-.34-1.67-.51-2.5,0,0,0-.1-.05-.17L61.08,28a9.89,9.89,0,0,1-2.43,2.4,7.1,7.1,0,0,1-3.45,1.13l-.51,0c.05.35.08.69.13,1,.15,1,.33,1.92.47,2.89a4.21,4.21,0,0,1-.07,1.73,2.06,2.06,0,0,1-1.59,1.61,5.45,5.45,0,0,1-1.56.16,2,2,0,0,1-1.91-1.84,5.58,5.58,0,0,1,.39-3.25c.92-2.18,1.87-4.36,2.8-6.55a43.59,43.59,0,0,0,2.45-7.31c.19-.84.32-1.69.48-2.53a1.07,1.07,0,0,0,0-.18l-1.15-.06a9.78,9.78,0,0,1-7-3.29A30.32,30.32,0,0,1,44,8.11c-1-1.76-1.87-3.56-2.8-5.35l-.13-.25c-.14.36-.26.7-.4,1a8.93,8.93,0,0,1-2.05,3.18,5.47,5.47,0,0,1-3.37,1.55c-.64.06-1.28,0-1.93,0-.11.51-.21,1-.32,1.44a14.53,14.53,0,0,1-2,4.81,7.8,7.8,0,0,1-5.6,3.55l-.18,0,.24,1a67.47,67.47,0,0,0,3.2,9.29c.5,1.19,1.05,2.34,1.53,3.53a14.46,14.46,0,0,1,.94,3.42,3.18,3.18,0,0,1-.08,1.53,2.24,2.24,0,0,1-2.75,1.54,2.8,2.8,0,0,1-2.22-2.29A7.48,7.48,0,0,1,26,33.6c.1-1,.24-2,.37-3A12.63,12.63,0,0,1,22,29.14a10.76,10.76,0,0,1-3.2-3.37c-.11.65-.19,1.23-.3,1.8-.22,1.15-.41,2.32-.71,3.45a6,6,0,0,1-1.7,2.91,3.78,3.78,0,0,1-2.3,1l-.23,0c0,.33,0,.65,0,1,.08,1.66.1,3.33.27,5a21.73,21.73,0,0,0,4.38,11.23,10.17,10.17,0,0,0,1.16,1.3,3.32,3.32,0,0,0,4.22.4,8.13,8.13,0,0,0,1.84-1.72c.68-.76,1.33-1.54,2.06-2.24a2.42,2.42,0,0,1,2.29-.66,2.25,2.25,0,0,1,1.76,2,3.75,3.75,0,0,1-.37,2.48,2.73,2.73,0,0,1-2.06,1.43c-.74.13-1.49.15-2.24.25a14.52,14.52,0,0,0-1.73.29,2.76,2.76,0,0,0-1.77,1.41c-.27.48-.51,1-.78,1.48-.08.13,0,.2.08.27.62.49,1.21,1,1.86,1.46A29,29,0,0,0,31,63.69a5.19,5.19,0,0,0,1.61.33,2.09,2.09,0,0,0,2-1.19q.6-1.08,1.23-2.13a16.08,16.08,0,0,1,4.29-4.89.88.88,0,0,1,.28-.16c.57-.19.78.1.82.66,0,0-.09.11-.16.14a3,3,0,0,0-.41.18,12.47,12.47,0,0,0-3.64,4.48,22.87,22.87,0,0,0-1.77,4.8l-.07.26-1-.2a23.85,23.85,0,0,1-9.1-4.08,27.94,27.94,0,0,1-3.41-2.73s-.07-.08-.11-.11a.31.31,0,0,1-.07-.44c.39-.76.75-1.53,1.13-2.29a4.12,4.12,0,0,1,2.65-2.21c.78-.22,1.57-.39,2.35-.61A8.76,8.76,0,0,0,28.94,53a1.78,1.78,0,0,0,1-1,1,1,0,0,0-.22-1.14,1,1,0,0,0-1.13,0,9,9,0,0,0-1.12.83c-.59.51-1.15,1.06-1.73,1.58a21.76,21.76,0,0,1-5.83,3.63l-.18.06c-.56-.72-1.15-1.44-1.7-2.19A26.9,26.9,0,0,1,13.15,43a39.17,39.17,0,0,1-.39-7.18c0-.85.08-1.7.12-2.56.31-.06.62-.1.91-.18a4.2,4.2,0,0,0,2.58-2,11.7,11.7,0,0,0,1.3-3.48c.27-1.19.51-2.39.77-3.62l.16.2a15.56,15.56,0,0,0,2.77,3.07,7.4,7.4,0,0,0,4.31,1.65c.52,0,1.05,0,1.54,0L24,16.8c.41-.07.75-.11,1.09-.18A8.56,8.56,0,0,0,31.26,12a16,16,0,0,0,1.56-5c0-.11,0-.22.06-.29h1.68a6.41,6.41,0,0,0,2.33-.43,5,5,0,0,0,2.32-1.9A17,17,0,0,0,40.78,1.2c-.72-.05-1.41-.12-2.1-.15A33.86,33.86,0,0,0,26.42,2.89,32.57,32.57,0,0,0,15.74,8.66a35.53,35.53,0,0,0-10.51,14,45,45,0,0,0-2.85,10,43.59,43.59,0,0,0-.5,5.1A40,40,0,0,0,2,42.73,39.78,39.78,0,0,0,13,66.85,36.91,36.91,0,0,0,26.86,76a36.79,36.79,0,0,0,14,2.4,42,42,0,0,0,11.76-2,43.41,43.41,0,0,0,8.44-3.7,33.78,33.78,0,0,0,5.25-3.81,39.58,39.58,0,0,0,9.42-12A37.46,37.46,0,0,0,79,48.07a38.88,38.88,0,0,0,.69-4.3c.21-1.88.34-3.76.46-5.65.08-1.2.09-2.41.12-3.62,0-.72,0-1.44,0-2.17h.57c0,.35,0,.71,0,1.07,0,1.05,0,2.09-.06,3.14-.07,1.75-.13,3.51-.26,5.26-.12,1.52-.3,3-.49,4.55a24.86,24.86,0,0,1-1.24,4.72,48.73,48.73,0,0,1-5.53,11.44,38,38,0,0,1-14.44,13A40,40,0,0,1,47.54,79.3a42.59,42.59,0,0,1-6,.66.83.83,0,0,0-.15,0H37.93l-.13,0c-1.52-.14-3-.25-4.57-.44a27.75,27.75,0,0,1-5.09-1.14,43.75,43.75,0,0,1-6.59-2.77,40.13,40.13,0,0,1-11.18-8.52A39.09,39.09,0,0,1,1.75,51.82a41.35,41.35,0,0,1-1.66-9.3L0,41.42V38a1.16,1.16,0,0,0,0-.18,42.92,42.92,0,0,1,1.08-8A41.61,41.61,0,0,1,7.21,15.58a34.51,34.51,0,0,1,15-12.51,36.92,36.92,0,0,1,12-3L35.19,0ZM27.44,29.36h-.06c-.05.27-.11.53-.14.8-.12.93-.22,1.87-.33,2.81a6.39,6.39,0,0,0,.18,2.46,1.88,1.88,0,0,0,.85,1.14.77.77,0,0,0,1.25-.63,3.45,3.45,0,0,0-.11-1.06c-.38-1.34-.78-2.68-1.18-4C27.75,30.36,27.59,29.86,27.44,29.36Zm26.25.93c0,.13-.08.19-.1.25-.38,1.16-.77,2.32-1.11,3.49a15.77,15.77,0,0,0-.4,2.07,1.06,1.06,0,0,0,.65,1.18A1.1,1.1,0,0,0,54,36.76a1.42,1.42,0,0,0,.22-.58,9.08,9.08,0,0,0,0-1.38c-.12-1.06-.27-2.12-.4-3.18C53.78,31.2,53.74,30.78,53.69,30.29Zm2.23,25.09c-.18-.22-.45-.53-.69-.84-.56-.73-1.11-1.48-1.67-2.2a2.85,2.85,0,0,0-1.11-.93,1.1,1.1,0,0,0-.56-.1.89.89,0,0,0-.84.63A1,1,0,0,0,51.34,53a8.65,8.65,0,0,0,2.76,1.59C54.74,54.87,55.38,55.15,55.92,55.38Z"/><path class="cls-2" d="M31.52,18.56a3.34,3.34,0,0,0,0-.45c0-.06-.11-.16-.16-.15a4.7,4.7,0,0,0-.51.12l-.26.08a.73.73,0,0,1,.68-.63c.36,0,.72,0,1.09,0a1,1,0,0,0,.29,0,.4.4,0,0,0,.22-.18,8,8,0,0,1,.43-.94,1.69,1.69,0,0,1,1.53-.82h4a.31.31,0,0,1,.23.12c.46,1,.92,1.93,1.37,2.9a.41.41,0,0,1,0,.09c-.27,0-.53,0-.78,0-.53,0-1.07-.09-1.6-.16A2.34,2.34,0,0,1,36.13,17c-.11-.27-.18-.55-.29-.81,0-.07-.11-.17-.18-.17a1.65,1.65,0,0,0-1.76,1.23c-.07.35,0,.38.31.39h.66c0,.15.06.29.11.43a2.14,2.14,0,0,0,1.88,1.51c1.29.15,2.59.26,3.88.36s2.86.18,4.28.31a11.69,11.69,0,0,1,3.15.64,3.52,3.52,0,0,1,2.45,3.52,5.77,5.77,0,0,1-.13,1.38A3.23,3.23,0,0,1,48.69,28,29.23,29.23,0,0,1,45,29.43c-.93.32-1.86.66-2.79,1a2.89,2.89,0,0,0-2,2.37,7,7,0,0,0,.16,3.48A2.89,2.89,0,0,0,41.79,38l3.87,2c.28.15.56.3.83.47a2.94,2.94,0,0,1,1.2,1.86,3.32,3.32,0,0,1-2.26,4c-.88.25-1.78.43-2.67.64a2.4,2.4,0,0,0-2,2.48A12,12,0,0,0,41,52.26c0,.16,0,.33.08.48a.53.53,0,0,1-.26.61.4.4,0,0,1-.58,0c-.86-.83-1.72-1.65-2.56-2.49a6.33,6.33,0,0,1-.62-.75,1.86,1.86,0,0,1,.72-2.8c.59-.3,1.22-.52,1.83-.79a10.45,10.45,0,0,0,1.1-.58,2.54,2.54,0,0,0,1.19-1.68,5.85,5.85,0,0,0-.07-2.85,3.11,3.11,0,0,0-1.87-2.08c-1.22-.55-2.46-1.06-3.69-1.6a5.65,5.65,0,0,1-1.78-1.2,2.88,2.88,0,0,1-.85-2A7.24,7.24,0,0,1,33.73,33a3.11,3.11,0,0,1,1.7-2.12,15,15,0,0,1,2.73-1.09c.9-.3,1.82-.57,2.7-.93a3.19,3.19,0,0,0,2-2.95,5.28,5.28,0,0,0-.5-2.29c-.23-.6-.51-1.18-.77-1.77a.93.93,0,0,1,0-.1c0-.12-.06-.29,0-.34s.21.06.32.12c.51.28.64.81.85,1.27.43.94.83,1.89,1.18,2.85a2.47,2.47,0,0,1-.82,2.76A7.24,7.24,0,0,1,41,29.47c-.95.37-1.91.72-2.85,1.12a4.28,4.28,0,0,0-2,1.46,3.39,3.39,0,0,0,.46,4.51,8.15,8.15,0,0,0,2.09,1.28c.82.44,1.68.82,2.47,1.33A4.39,4.39,0,0,1,43,44.31a3.77,3.77,0,0,1-1.94,2.08c-.6.33-1.21.63-1.78,1a2.31,2.31,0,0,0-.69,3.29A19.76,19.76,0,0,0,40,52.33c.06.07.17.09.25.13a1.12,1.12,0,0,0,0-.32c-.09-.92-.25-1.84-.27-2.76a2.86,2.86,0,0,1,2.17-2.9c.65-.21,1.31-.41,1.94-.68a2.36,2.36,0,0,0,1.52-1.73,3.54,3.54,0,0,0-.7-3.25,5.48,5.48,0,0,0-1-.81c-.87-.54-1.76-1-2.63-1.57a6.47,6.47,0,0,1-1.52-1.29,3.66,3.66,0,0,1-.9-2.45,10.22,10.22,0,0,1,.19-1.91,3.51,3.51,0,0,1,1.36-2.13,8.78,8.78,0,0,1,2.32-1.24c1.17-.46,2.34-.93,3.5-1.43a3.94,3.94,0,0,0,1.94-1.62,3.82,3.82,0,0,0-.41-4.15,4.43,4.43,0,0,0-2.33-1.12,35,35,0,0,0-4.57-.47c-1.46-.09-2.93-.22-4.39-.41a3.13,3.13,0,0,1-2.67-2.12c-.09-.24-.2-.31-.44-.25s-.66.13-1,.24A6.88,6.88,0,0,0,31.52,18.56Z"/></g></g></svg>