<svg xmlns="http://www.w3.org/2000/svg" viewBox="0 0 149.88 36.5"><defs><style>.cls-1,.cls-2{fill:#fff;}.cls-2{fill-rule:evenodd;}</style></defs><g id="Layer_2" data-name="Layer 2"><g id="Layer_1-2" data-name="Layer 1"><path class="cls-1" d="M18.42,1.33h-.35a16.66,16.66,0,0,0-6.29,1.28,16.89,16.89,0,0,0-9.17,9.17h0a16.66,16.66,0,0,0-1.28,6.29v.18h0v.17a16.87,16.87,0,0,0,5,11.79,17.14,17.14,0,0,0,5.5,3.68,16.86,16.86,0,0,0,6.29,1.28h.35A17,17,0,0,0,33.89,24.72h0a16.91,16.91,0,0,0,1.28-6.3v-.17h0v-.18a16.86,16.86,0,0,0-1.28-6.29,17.14,17.14,0,0,0-3.68-5.5,16.8,16.8,0,0,0-5.49-3.67h0a16.71,16.71,0,0,0-6.3-1.28ZM18.25,0h.66a18.13,18.13,0,0,1,6.31,1.37h0a18.23,18.23,0,0,1,11.26,16.2h0v.67h0v.66h0a18.13,18.13,0,0,1-1.37,6.31h0a18.23,18.23,0,0,1-16.2,11.26v0H17.59v0A18.23,18.23,0,0,1,0,18.91H0v-.66H0v-.67H0a18.22,18.22,0,0,1,1.37-6.31h0A18.23,18.23,0,0,1,17.58,0h.67Z"/><path class="cls-2" d="M20.78,3.25A15.24,15.24,0,0,1,33.25,15.71H20.78V3.25ZM33.25,20.78A15.24,15.24,0,0,1,20.78,33.25V20.78ZM15.72,33.25A15.24,15.24,0,0,1,3.25,20.78H15.72V33.25ZM3.25,15.71A15.24,15.24,0,0,1,15.72,3.25V15.71Z"/><path class="cls-1" d="M56.21,6.88a7.79,7.79,0,0,1-.42,2.71,4.53,4.53,0,0,1-1.18,1.83,4.81,4.81,0,0,1-1.88,1.05,9.3,9.3,0,0,1-2.63.33H47.35a.73.73,0,0,1-.49-.17.71.71,0,0,1-.2-.57V2a.71.71,0,0,1,.2-.57.73.73,0,0,1,.49-.17H50.3a8.31,8.31,0,0,1,2.61.36,4.77,4.77,0,0,1,1.8,1.07,4.62,4.62,0,0,1,1.12,1.74,7.13,7.13,0,0,1,.38,2.41ZM53.79,7a5.65,5.65,0,0,0-.19-1.52A3.21,3.21,0,0,0,53,4.23a2.72,2.72,0,0,0-1.09-.81,4.44,4.44,0,0,0-1.74-.29H49V11H50.2a4.52,4.52,0,0,0,1.62-.25,2.73,2.73,0,0,0,1.1-.75,3.16,3.16,0,0,0,.65-1.25A6.08,6.08,0,0,0,53.79,7Zm6.44,5.54a.2.2,0,0,1,0,.15.33.33,0,0,1-.18.11,1.94,1.94,0,0,1-.35.07l-.54,0-.54,0a1.81,1.81,0,0,1-.34-.07.27.27,0,0,1-.18-.11A.2.2,0,0,1,58,12.5V4.59a.25.25,0,0,1,.06-.16.37.37,0,0,1,.18-.11,1.71,1.71,0,0,1,.34-.08l.54,0,.54,0a1.84,1.84,0,0,1,.35.08.5.5,0,0,1,.18.11.24.24,0,0,1,0,.16V12.5ZM60.4,1.89a1.22,1.22,0,0,1-.28.93,1.51,1.51,0,0,1-1,.26,1.47,1.47,0,0,1-1-.25,1.19,1.19,0,0,1-.27-.9A1.26,1.26,0,0,1,58.1,1a1.49,1.49,0,0,1,1-.26,1.46,1.46,0,0,1,1,.26,1.21,1.21,0,0,1,.27.9ZM68,10.26a2.67,2.67,0,0,1-.25,1.19,2.47,2.47,0,0,1-.71.86,3.39,3.39,0,0,1-1.1.52,5.41,5.41,0,0,1-1.37.17,5.87,5.87,0,0,1-.85-.06,5.48,5.48,0,0,1-.72-.17,4.18,4.18,0,0,1-.53-.21,1.28,1.28,0,0,1-.31-.2.61.61,0,0,1-.16-.29,3,3,0,0,1,0-.6c0-.17,0-.31,0-.41a1.37,1.37,0,0,1,.05-.25.31.31,0,0,1,.09-.12.29.29,0,0,1,.14,0,.62.62,0,0,1,.29.11,4,4,0,0,0,.47.24,4.15,4.15,0,0,0,.66.25,2.84,2.84,0,0,0,.86.12,2.23,2.23,0,0,0,.54-.06,1.47,1.47,0,0,0,.4-.18.77.77,0,0,0,.27-.3.87.87,0,0,0,.09-.4A.69.69,0,0,0,65.7,10a1.51,1.51,0,0,0-.43-.34,5.27,5.27,0,0,0-.62-.26L64,9.1a6.44,6.44,0,0,1-.7-.34,2.59,2.59,0,0,1-.61-.48,2.21,2.21,0,0,1-.44-.69,2.51,2.51,0,0,1-.16-1,2.4,2.4,0,0,1,.22-1,2.31,2.31,0,0,1,.64-.82,3.26,3.26,0,0,1,1-.52,4.66,4.66,0,0,1,1.34-.19,4.4,4.4,0,0,1,.73.06,5,5,0,0,1,.63.13,2.2,2.2,0,0,1,.48.18,1.61,1.61,0,0,1,.28.15.37.37,0,0,1,.12.14.59.59,0,0,1,.06.16c0,.06,0,.14,0,.23a3.33,3.33,0,0,1,0,.34c0,.16,0,.29,0,.39a1.11,1.11,0,0,1,0,.24.23.23,0,0,1-.08.12.28.28,0,0,1-.13,0,.6.6,0,0,1-.24-.09l-.43-.2a4.86,4.86,0,0,0-.58-.2,3,3,0,0,0-.76-.09,2,2,0,0,0-.53.06.87.87,0,0,0-.36.18.64.64,0,0,0-.22.27.88.88,0,0,0-.07.33.67.67,0,0,0,.17.46,1.42,1.42,0,0,0,.45.33,5.23,5.23,0,0,0,.62.27c.24.08.47.17.71.27a6.59,6.59,0,0,1,.71.34,2.5,2.5,0,0,1,.63.48A2.25,2.25,0,0,1,68,10.26Zm6.17,1.46a2.3,2.3,0,0,1,0,.59.6.6,0,0,1-.13.3.7.7,0,0,1-.23.15l-.36.12L73,13a4,4,0,0,1-.49,0,3.64,3.64,0,0,1-1.16-.17,1.92,1.92,0,0,1-.8-.52,2.12,2.12,0,0,1-.48-.89,4.63,4.63,0,0,1-.15-1.26V6.08H69a.27.27,0,0,1-.25-.21,1.93,1.93,0,0,1-.09-.7,2.75,2.75,0,0,1,0-.43.88.88,0,0,1,.07-.28.25.25,0,0,1,.11-.15.24.24,0,0,1,.15,0h.94V2.5a.3.3,0,0,1,0-.16.41.41,0,0,1,.18-.12,1.94,1.94,0,0,1,.35-.07l.53,0,.55,0a1.81,1.81,0,0,1,.34.07.36.36,0,0,1,.18.12.24.24,0,0,1,0,.16V4.27h1.73a.24.24,0,0,1,.15,0,.38.38,0,0,1,.12.15,1.33,1.33,0,0,1,.06.28,2.75,2.75,0,0,1,0,.43,2.25,2.25,0,0,1-.08.7c-.07.14-.15.21-.26.21H72.13V9.81a1.81,1.81,0,0,0,.21,1,.81.81,0,0,0,.73.32,1.66,1.66,0,0,0,.32,0,1.49,1.49,0,0,0,.25-.07l.19-.07.13,0a.23.23,0,0,1,.11,0,.18.18,0,0,1,.07.12,1.33,1.33,0,0,1,0,.26,2.37,2.37,0,0,1,0,.41Zm6.71-6.41a3.87,3.87,0,0,1,0,.52,1.65,1.65,0,0,1-.05.32.34.34,0,0,1-.09.16.25.25,0,0,1-.15.05l-.16,0-.2-.07L80,6.19a1.39,1.39,0,0,0-.3,0,1,1,0,0,0-.37.08,1.8,1.8,0,0,0-.39.23,2.86,2.86,0,0,0-.41.43,5.7,5.7,0,0,0-.47.66V12.5a.25.25,0,0,1,0,.15.32.32,0,0,1-.19.11,1.81,1.81,0,0,1-.34.07l-.54,0-.54,0a1.81,1.81,0,0,1-.34-.07.32.32,0,0,1-.19-.11.25.25,0,0,1,0-.15V4.57a.2.2,0,0,1,0-.15A.3.3,0,0,1,76,4.3a1,1,0,0,1,.29-.06,3.1,3.1,0,0,1,.46,0,3.18,3.18,0,0,1,.47,0,.91.91,0,0,1,.29.06.31.31,0,0,1,.15.12.24.24,0,0,1,0,.15v1a5.46,5.46,0,0,1,.59-.73,3,3,0,0,1,.52-.46,1.9,1.9,0,0,1,.5-.24,2.08,2.08,0,0,1,.5-.07l.24,0,.28,0,.25.07.16.09a.36.36,0,0,1,.07.1l0,.14a1.8,1.8,0,0,1,0,.28c0,.13,0,.3,0,.51Zm3.62,7.19a.25.25,0,0,1-.05.15.32.32,0,0,1-.19.11,1.81,1.81,0,0,1-.34.07l-.54,0-.54,0a1.81,1.81,0,0,1-.34-.07.32.32,0,0,1-.19-.11.25.25,0,0,1,0-.15V4.59a.3.3,0,0,1,0-.16.48.48,0,0,1,.19-.11,1.71,1.71,0,0,1,.34-.08l.54,0,.54,0a1.71,1.71,0,0,1,.34.08.48.48,0,0,1,.19.11.3.3,0,0,1,.05.16V12.5Zm.17-10.61a1.22,1.22,0,0,1-.28.93,2.17,2.17,0,0,1-2,0,1.24,1.24,0,0,1-.26-.9A1.3,1.3,0,0,1,82.4,1a1.52,1.52,0,0,1,1-.26,1.5,1.5,0,0,1,1,.26,1.21,1.21,0,0,1,.27.9Zm10,6.54a7.38,7.38,0,0,1-.23,1.9,4.56,4.56,0,0,1-.67,1.44,2.84,2.84,0,0,1-1.07.91,3.05,3.05,0,0,1-1.44.32,3.54,3.54,0,0,1-.75-.07,2.3,2.3,0,0,1-.66-.25,3.39,3.39,0,0,1-.62-.42,4.68,4.68,0,0,1-.63-.63v.87a.22.22,0,0,1-.05.16.29.29,0,0,1-.16.11,1.33,1.33,0,0,1-.3.07h-.91a1.37,1.37,0,0,1-.29-.07.3.3,0,0,1-.15-.11.22.22,0,0,1,0-.16V.81a.3.3,0,0,1,0-.16A.39.39,0,0,1,87,.53a1.81,1.81,0,0,1,.34-.07,4.87,4.87,0,0,1,1.08,0,1.81,1.81,0,0,1,.34.07A.39.39,0,0,1,89,.65.3.3,0,0,1,89,.81V5.19a4.52,4.52,0,0,1,.6-.51,3.17,3.17,0,0,1,.61-.35,2.36,2.36,0,0,1,.62-.2,3.64,3.64,0,0,1,.68-.07A2.84,2.84,0,0,1,94,5.36a4.45,4.45,0,0,1,.56,1.39,7.59,7.59,0,0,1,.18,1.68Zm-2.32.16a6.27,6.27,0,0,0-.08-1,2.61,2.61,0,0,0-.26-.83,1.56,1.56,0,0,0-.48-.59A1.28,1.28,0,0,0,90.86,6a1.61,1.61,0,0,0-.44.06,1.59,1.59,0,0,0-.44.21,3.71,3.71,0,0,0-.47.39,7.18,7.18,0,0,0-.5.6V9.87a4.64,4.64,0,0,0,.9.92,1.51,1.51,0,0,0,.9.31,1.2,1.2,0,0,0,.74-.22,1.77,1.77,0,0,0,.5-.58,2.43,2.43,0,0,0,.29-.81,4.58,4.58,0,0,0,.09-.9Zm11.62,3.91a.24.24,0,0,1,0,.15.24.24,0,0,1-.16.11,1.37,1.37,0,0,1-.29.07l-.46,0-.47,0a1.23,1.23,0,0,1-.29-.07.25.25,0,0,1-.15-.11.25.25,0,0,1,0-.15v-.92a5,5,0,0,1-1.33,1.07A3.13,3.13,0,0,1,99.4,13,3.33,3.33,0,0,1,98,12.74a2.29,2.29,0,0,1-.89-.73,3,3,0,0,1-.49-1.07,6.49,6.49,0,0,1-.15-1.52V4.57a.25.25,0,0,1,.05-.15.32.32,0,0,1,.18-.12,1.39,1.39,0,0,1,.34-.06,4.36,4.36,0,0,1,.54,0,4.19,4.19,0,0,1,.54,0,1.39,1.39,0,0,1,.35.06.41.41,0,0,1,.18.12.25.25,0,0,1,0,.15V9.05a4.52,4.52,0,0,0,.08.95,1.7,1.7,0,0,0,.25.56,1.21,1.21,0,0,0,.41.37,1.25,1.25,0,0,0,.59.13,1.44,1.44,0,0,0,.86-.31,4.88,4.88,0,0,0,.92-.91V4.57a.25.25,0,0,1,0-.15.32.32,0,0,1,.18-.12,1.31,1.31,0,0,1,.34-.06,7.3,7.3,0,0,1,1.08,0,1.23,1.23,0,0,1,.34.06.36.36,0,0,1,.18.12.2.2,0,0,1,0,.15V12.5Zm10.27-4.05a5.94,5.94,0,0,1-.27,1.85,3.91,3.91,0,0,1-.81,1.44,3.47,3.47,0,0,1-1.36.93A5.06,5.06,0,0,1,110,13a5.19,5.19,0,0,1-1.84-.29,3.34,3.34,0,0,1-1.29-.85,3.51,3.51,0,0,1-.77-1.38,6.27,6.27,0,0,1-.25-1.87,6,6,0,0,1,.27-1.85,3.79,3.79,0,0,1,.82-1.44,3.62,3.62,0,0,1,1.35-.93,5.06,5.06,0,0,1,1.91-.33,5.44,5.44,0,0,1,1.85.29,3.34,3.34,0,0,1,1.29.85,3.62,3.62,0,0,1,.76,1.38,6.61,6.61,0,0,1,.25,1.87Zm-2.3.09a5.22,5.22,0,0,0-.1-1.08,2.38,2.38,0,0,0-.31-.85A1.53,1.53,0,0,0,111,6a1.88,1.88,0,0,0-.93-.21,2,2,0,0,0-.87.18,1.61,1.61,0,0,0-.62.54,2.48,2.48,0,0,0-.36.84,4.84,4.84,0,0,0-.12,1.13,6,6,0,0,0,.1,1.08,2.68,2.68,0,0,0,.32.85,1.41,1.41,0,0,0,.59.57,2,2,0,0,0,.92.2,1.87,1.87,0,0,0,.88-.19,1.56,1.56,0,0,0,.62-.52,2.69,2.69,0,0,0,.35-.84A4.84,4.84,0,0,0,112,8.54Zm11.31-4a.45.45,0,0,1,0,.11.78.78,0,0,1,0,.14,1.55,1.55,0,0,1,0,.17c0,.06,0,.14-.06.22l-2.38,7.17a.83.83,0,0,1-.12.25.46.46,0,0,1-.25.14,2.14,2.14,0,0,1-.47.08h-.78l-.76,0a2.14,2.14,0,0,1-.47-.08.5.5,0,0,1-.25-.14.67.67,0,0,1-.12-.24L115.23,5.2c0-.12-.06-.22-.08-.32s0-.16,0-.2V4.56a.2.2,0,0,1,0-.15.39.39,0,0,1,.17-.12l.34-.06h.55a4.72,4.72,0,0,1,.58,0,1.49,1.49,0,0,1,.36.06.34.34,0,0,1,.18.12.6.6,0,0,1,.09.18l1.8,5.82,0,.22.06-.22,1.78-5.82a.33.33,0,0,1,.08-.18.34.34,0,0,1,.18-.12,1.31,1.31,0,0,1,.34-.06,4.11,4.11,0,0,1,.54,0h.54l.32.06a.35.35,0,0,1,.16.12.25.25,0,0,1,0,.15Zm7.8,8a.24.24,0,0,1-.09.2.57.57,0,0,1-.28.1,4,4,0,0,1-.56,0,4.07,4.07,0,0,1-.59,0,.45.45,0,0,1-.25-.1.26.26,0,0,1-.08-.2v-.63a3.68,3.68,0,0,1-1.11.82,3.22,3.22,0,0,1-1.4.29,3.81,3.81,0,0,1-1.15-.16,2.54,2.54,0,0,1-.92-.49,2.09,2.09,0,0,1-.6-.8,2.8,2.8,0,0,1-.21-1.12,2.54,2.54,0,0,1,.27-1.21,2.17,2.17,0,0,1,.81-.84,3.85,3.85,0,0,1,1.33-.49,9.41,9.41,0,0,1,1.86-.16h.77V7.25a2.62,2.62,0,0,0-.07-.66,1.14,1.14,0,0,0-.25-.46,1,1,0,0,0-.46-.28,2.48,2.48,0,0,0-.72-.09,3.46,3.46,0,0,0-1,.13,5.27,5.27,0,0,0-.77.27,5.08,5.08,0,0,0-.57.28.83.83,0,0,1-.37.12.27.27,0,0,1-.17-.06.52.52,0,0,1-.13-.18,1.42,1.42,0,0,1-.07-.28,2.25,2.25,0,0,1,0-.38,1.63,1.63,0,0,1,.05-.43.62.62,0,0,1,.17-.29,1.38,1.38,0,0,1,.43-.28,4.62,4.62,0,0,1,.73-.29,7.14,7.14,0,0,1,.91-.22,6.36,6.36,0,0,1,2.61.1,2.68,2.68,0,0,1,1.09.56,2.09,2.09,0,0,1,.62,1,4.57,4.57,0,0,1,.2,1.41v5.33Zm-2.2-3.39h-.85a4.77,4.77,0,0,0-.92.08,1.73,1.73,0,0,0-.63.24,1,1,0,0,0-.35.39,1.19,1.19,0,0,0-.11.51,1,1,0,0,0,.32.79,1.25,1.25,0,0,0,.87.28,1.63,1.63,0,0,0,.87-.24,3.54,3.54,0,0,0,.8-.7V9.13Zm12,3.37a.25.25,0,0,1-.05.15.33.33,0,0,1-.18.11,1.81,1.81,0,0,1-.34.07l-.54,0-.55,0a1.81,1.81,0,0,1-.34-.07.33.33,0,0,1-.18-.11.25.25,0,0,1-.05-.15V8a4.2,4.2,0,0,0-.08-.9,1.86,1.86,0,0,0-.25-.57,1.19,1.19,0,0,0-.41-.36,1.25,1.25,0,0,0-.59-.13,1.49,1.49,0,0,0-.87.31,4.84,4.84,0,0,0-.9.91V12.5a.25.25,0,0,1,0,.15.32.32,0,0,1-.19.11,1.81,1.81,0,0,1-.34.07l-.54,0-.54,0a1.81,1.81,0,0,1-.34-.07.32.32,0,0,1-.19-.11.25.25,0,0,1,0-.15V4.57a.24.24,0,0,1,0-.15.32.32,0,0,1,.17-.12,1,1,0,0,1,.29-.06,3.1,3.1,0,0,1,.46,0,3.18,3.18,0,0,1,.47,0,1,1,0,0,1,.29.06.32.32,0,0,1,.19.27v.92a5.08,5.08,0,0,1,1.34-1.07A3,3,0,0,1,138,4.06a3.13,3.13,0,0,1,1.37.27,2.4,2.4,0,0,1,.9.73,3,3,0,0,1,.49,1.07,6.27,6.27,0,0,1,.15,1.47v4.9Z"/><path class="cls-1" d="M149.88,12.52a.24.24,0,0,1-.09.2.57.57,0,0,1-.28.1,4,4,0,0,1-.56,0,4.07,4.07,0,0,1-.59,0,.45.45,0,0,1-.25-.1.26.26,0,0,1-.08-.2v-.63a3.81,3.81,0,0,1-1.11.82,3.22,3.22,0,0,1-1.4.29,3.81,3.81,0,0,1-1.15-.16,2.54,2.54,0,0,1-.92-.49,2.09,2.09,0,0,1-.6-.8,2.8,2.8,0,0,1-.21-1.12,2.54,2.54,0,0,1,.27-1.21,2.17,2.17,0,0,1,.81-.84,3.85,3.85,0,0,1,1.33-.49,9.41,9.41,0,0,1,1.86-.16h.77V7.25a2.62,2.62,0,0,0-.07-.66,1.14,1.14,0,0,0-.25-.46,1,1,0,0,0-.46-.28,2.48,2.48,0,0,0-.72-.09,3.46,3.46,0,0,0-1,.13,5.27,5.27,0,0,0-.77.27,5.08,5.08,0,0,0-.57.28.83.83,0,0,1-.37.12.27.27,0,0,1-.17-.06.52.52,0,0,1-.13-.18A1.42,1.42,0,0,1,143.1,6a2.25,2.25,0,0,1,0-.38,1.63,1.63,0,0,1,.05-.43.62.62,0,0,1,.17-.29,1.38,1.38,0,0,1,.43-.28,4.62,4.62,0,0,1,.73-.29,7.14,7.14,0,0,1,.91-.22,6.36,6.36,0,0,1,2.61.1,2.68,2.68,0,0,1,1.09.56,2.09,2.09,0,0,1,.62,1,4.57,4.57,0,0,1,.2,1.41v5.33Zm-2.2-3.39h-.85a4.77,4.77,0,0,0-.92.08,1.73,1.73,0,0,0-.63.24,1,1,0,0,0-.35.39,1.19,1.19,0,0,0-.11.51,1,1,0,0,0,.32.79,1.25,1.25,0,0,0,.87.28,1.63,1.63,0,0,0,.87-.24,3.54,3.54,0,0,0,.8-.7V9.13ZM146.9.68a.61.61,0,0,1,.15-.17.57.57,0,0,1,.22-.11,1.39,1.39,0,0,1,.34-.06l.5,0a4.9,4.9,0,0,1,.64,0,.92.92,0,0,1,.34.1.19.19,0,0,1,.1.16.38.38,0,0,1-.09.18l-1.73,2.07a.93.93,0,0,1-.14.14.77.77,0,0,1-.18.1l-.28.05-.43,0a3.1,3.1,0,0,1-.49,0,.8.8,0,0,1-.26-.08.17.17,0,0,1-.05-.15.6.6,0,0,1,.09-.21l1.27-2Zm-91.85,34a.33.33,0,0,1,0,.17.39.39,0,0,1-.19.12,1.46,1.46,0,0,1-.38.08,5,5,0,0,1-.61,0A5.23,5.23,0,0,1,53,35a.88.88,0,0,1-.36-.13.68.68,0,0,1-.17-.21L49,29.22v5.46a.22.22,0,0,1-.05.16.39.39,0,0,1-.19.12,1.4,1.4,0,0,1-.35.08,4.45,4.45,0,0,1-.57,0,4.28,4.28,0,0,1-.56,0A1.38,1.38,0,0,1,46.9,35a.44.44,0,0,1-.19-.12.22.22,0,0,1-.05-.16V23.84a.22.22,0,0,1,.05-.16.44.44,0,0,1,.19-.12,2,2,0,0,1,.37-.07,4.28,4.28,0,0,1,.56,0,4.45,4.45,0,0,1,.57,0,2.15,2.15,0,0,1,.35.07.39.39,0,0,1,.19.12.22.22,0,0,1,.05.16v4.9l3.37-4.89a.7.7,0,0,1,.15-.19.71.71,0,0,1,.23-.12,1.68,1.68,0,0,1,.37-.06l.57,0a4.62,4.62,0,0,1,.58,0,2,2,0,0,1,.37.07.52.52,0,0,1,.19.12.25.25,0,0,1,.06.16.68.68,0,0,1-.08.31c-.06.11-.16.28-.31.51l-3.15,4.13L54.78,34a2.56,2.56,0,0,1,.23.49.5.5,0,0,1,0,.19Zm3.66,0a.24.24,0,0,1-.05.16.5.5,0,0,1-.18.11,1.39,1.39,0,0,1-.34.06,4.22,4.22,0,0,1-.55,0,4,4,0,0,1-.54,0,1.31,1.31,0,0,1-.34-.06.37.37,0,0,1-.18-.11.25.25,0,0,1-.06-.16V23a.23.23,0,0,1,.06-.16.32.32,0,0,1,.18-.12,1.21,1.21,0,0,1,.34-.08,4,4,0,0,1,.54,0,4.22,4.22,0,0,1,.55,0,1.31,1.31,0,0,1,.34.08.41.41,0,0,1,.18.12.22.22,0,0,1,.05.16V34.71Zm4.47,0a.24.24,0,0,1,0,.16A.5.5,0,0,1,63,35a1.39,1.39,0,0,1-.34.06,4.22,4.22,0,0,1-.55,0,4,4,0,0,1-.54,0,1.39,1.39,0,0,1-.34-.06.37.37,0,0,1-.18-.11.25.25,0,0,1-.06-.16V26.8a.2.2,0,0,1,.06-.15.32.32,0,0,1,.18-.12,2,2,0,0,1,.34-.07,4,4,0,0,1,.54,0,4.22,4.22,0,0,1,.55,0,2,2,0,0,1,.34.07.41.41,0,0,1,.18.12.2.2,0,0,1,0,.15v7.91Zm.17-10.61a1.26,1.26,0,0,1-.27.93,1.5,1.5,0,0,1-1,.26A1.47,1.47,0,0,1,61,25a1.17,1.17,0,0,1-.27-.89,1.24,1.24,0,0,1,.28-.94,1.45,1.45,0,0,1,1-.27,1.51,1.51,0,0,1,1,.26,1.26,1.26,0,0,1,.26.9ZM73,34.71a.24.24,0,0,1,0,.16.37.37,0,0,1-.18.11,1.23,1.23,0,0,1-.34.06,4,4,0,0,1-.54,0,4.06,4.06,0,0,1-.54,0A1.23,1.23,0,0,1,71,35a.37.37,0,0,1-.18-.11.24.24,0,0,1,0-.16V30.19a3.6,3.6,0,0,0-.09-.91,1.93,1.93,0,0,0-.24-.56,1.15,1.15,0,0,0-.42-.37,1.32,1.32,0,0,0-.59-.13,1.54,1.54,0,0,0-.86.31,4.86,4.86,0,0,0-.91.91v5.27a.24.24,0,0,1-.05.16.5.5,0,0,1-.18.11,1.39,1.39,0,0,1-.34.06,4.11,4.11,0,0,1-.55,0A4.06,4.06,0,0,1,66,35a1.39,1.39,0,0,1-.34-.06.37.37,0,0,1-.18-.11.25.25,0,0,1-.06-.16V26.78a.27.27,0,0,1,0-.15.29.29,0,0,1,.16-.11,1.67,1.67,0,0,1,.3-.07l.46,0,.47,0a1.13,1.13,0,0,1,.28.07.3.3,0,0,1,.15.11.27.27,0,0,1,0,.15v.92a5.25,5.25,0,0,1,1.33-1.07,3.1,3.1,0,0,1,1.42-.35,3.23,3.23,0,0,1,1.36.26,2.4,2.4,0,0,1,.9.73,2.84,2.84,0,0,1,.49,1.07A5.78,5.78,0,0,1,73,29.81v4.9Zm4.44,0a.3.3,0,0,1,0,.16.5.5,0,0,1-.18.11,1.39,1.39,0,0,1-.35.06,4.88,4.88,0,0,1-1.08,0,1.31,1.31,0,0,1-.34-.06.37.37,0,0,1-.18-.11.25.25,0,0,1-.06-.16V26.8a.2.2,0,0,1,.06-.15.32.32,0,0,1,.18-.12,1.81,1.81,0,0,1,.34-.07,4.88,4.88,0,0,1,1.08,0,1.94,1.94,0,0,1,.35.07.41.41,0,0,1,.18.12.25.25,0,0,1,0,.15v7.91Zm.17-10.61a1.22,1.22,0,0,1-.28.93,1.46,1.46,0,0,1-1,.26,1.52,1.52,0,0,1-1-.25,1.21,1.21,0,0,1-.26-.89,1.29,1.29,0,0,1,.27-.94,1.48,1.48,0,0,1,1-.27,1.46,1.46,0,0,1,1,.26,1.21,1.21,0,0,1,.27.9ZM87,34.72a.25.25,0,0,1-.23.26,1.31,1.31,0,0,1-.35.06,4.51,4.51,0,0,1-.58,0l-.59,0A1.68,1.68,0,0,1,84.9,35a.62.62,0,0,1-.23-.11.72.72,0,0,1-.14-.19l-2.64-4.17v4.19a.3.3,0,0,1,0,.16.5.5,0,0,1-.18.11,1.39,1.39,0,0,1-.35.06,4.88,4.88,0,0,1-1.08,0,1.31,1.31,0,0,1-.34-.06.37.37,0,0,1-.18-.11.25.25,0,0,1-.06-.16V23a.23.23,0,0,1,.06-.16.32.32,0,0,1,.18-.12,1.21,1.21,0,0,1,.34-.08,4.88,4.88,0,0,1,1.08,0,1.3,1.3,0,0,1,.35.08.41.41,0,0,1,.18.12.28.28,0,0,1,0,.16v7l2.35-3.15a1,1,0,0,1,.16-.19.62.62,0,0,1,.23-.12,2.45,2.45,0,0,1,.37-.07l.55,0,.56,0a2.08,2.08,0,0,1,.36.07.34.34,0,0,1,.19.11.22.22,0,0,1,0,.16.79.79,0,0,1-.06.29,1.49,1.49,0,0,1-.2.32L84.13,30l2.68,4.15a2.31,2.31,0,0,1,.16.3.79.79,0,0,1,0,.24Zm7.9,0a.22.22,0,0,1-.09.19.57.57,0,0,1-.28.1,4.15,4.15,0,0,1-1.15,0,.45.45,0,0,1-.25-.1.24.24,0,0,1-.08-.19v-.63a3.77,3.77,0,0,1-1.11.81,3.23,3.23,0,0,1-1.4.3,3.8,3.8,0,0,1-1.15-.17,2.54,2.54,0,0,1-.92-.49,2.09,2.09,0,0,1-.6-.8,2.76,2.76,0,0,1-.21-1.12,2.53,2.53,0,0,1,.27-1.2,2.2,2.2,0,0,1,.81-.85,4.06,4.06,0,0,1,1.33-.49A9.41,9.41,0,0,1,92,29.94h.77v-.48a2.49,2.49,0,0,0-.07-.65,1,1,0,0,0-.71-.75,2.51,2.51,0,0,0-.72-.08,3.86,3.86,0,0,0-1,.12,4.72,4.72,0,0,0-.78.28l-.56.27a.83.83,0,0,1-.37.12.22.22,0,0,1-.17-.06.52.52,0,0,1-.13-.18,1.42,1.42,0,0,1-.07-.28,2.13,2.13,0,0,1,0-.37,1.66,1.66,0,0,1,0-.44.67.67,0,0,1,.17-.29,1.58,1.58,0,0,1,.43-.28,5.84,5.84,0,0,1,.73-.29,7.14,7.14,0,0,1,.91-.22,5.7,5.7,0,0,1,1-.08,6.11,6.11,0,0,1,1.59.18A2.68,2.68,0,0,1,94.1,27a2.14,2.14,0,0,1,.62,1,4.57,4.57,0,0,1,.2,1.41v5.34Zm-2.2-3.4h-.85a4.77,4.77,0,0,0-.92.08,2.07,2.07,0,0,0-.63.24,1.08,1.08,0,0,0-.35.39,1.21,1.21,0,0,0-.11.52,1,1,0,0,0,.32.78,1.25,1.25,0,0,0,.87.29,1.63,1.63,0,0,0,.87-.24,3.61,3.61,0,0,0,.8-.71V31.34Zm14.12,1.13a2.64,2.64,0,0,1-.25,1.19,2.31,2.31,0,0,1-.72.86,3.15,3.15,0,0,1-1.09.52,5,5,0,0,1-1.37.18,5.73,5.73,0,0,1-.85-.07,4.24,4.24,0,0,1-.72-.17,4.18,4.18,0,0,1-.53-.21,1.38,1.38,0,0,1-.32-.2.71.71,0,0,1-.15-.29,2.79,2.79,0,0,1,0-.59c0-.17,0-.31,0-.42a1.11,1.11,0,0,1,0-.24.36.36,0,0,1,.09-.13.29.29,0,0,1,.14,0,.68.68,0,0,1,.28.11,5.15,5.15,0,0,0,.48.25,5.49,5.49,0,0,0,.66.24,2.84,2.84,0,0,0,.86.12,2.23,2.23,0,0,0,.54-.06,1.22,1.22,0,0,0,.4-.18.75.75,0,0,0,.27-.29,1.07,1.07,0,0,0,.08-.41.68.68,0,0,0-.16-.46,1.27,1.27,0,0,0-.44-.33,3.85,3.85,0,0,0-.61-.27l-.7-.27a6.53,6.53,0,0,1-.7-.35,2.86,2.86,0,0,1-.62-.48,2.25,2.25,0,0,1-.43-.68,2.54,2.54,0,0,1-.16-1,2.44,2.44,0,0,1,.22-1.05,2.2,2.2,0,0,1,.64-.81,2.76,2.76,0,0,1,1-.52,4.36,4.36,0,0,1,1.35-.19,5.84,5.84,0,0,1,.73,0,4.92,4.92,0,0,1,.63.14,2.22,2.22,0,0,1,.48.17,1.3,1.3,0,0,1,.28.16.47.47,0,0,1,.12.13.75.75,0,0,1,0,.16,1.29,1.29,0,0,1,0,.23,3.28,3.28,0,0,1,0,.34c0,.16,0,.3,0,.4a1,1,0,0,1,0,.23.26.26,0,0,1-.08.13.28.28,0,0,1-.13,0,.59.59,0,0,1-.25-.1,4.27,4.27,0,0,0-.42-.2c-.17-.07-.37-.13-.59-.2a2.86,2.86,0,0,0-.75-.09,2,2,0,0,0-.53.06.87.87,0,0,0-.36.18.8.8,0,0,0-.22.27.93.93,0,0,0-.07.33.7.7,0,0,0,.17.47,1.74,1.74,0,0,0,.44.33,6.32,6.32,0,0,0,.63.26c.24.08.47.18.71.27a5.19,5.19,0,0,1,.71.35,2.87,2.87,0,0,1,.63.47,2.28,2.28,0,0,1,.44.68,2.46,2.46,0,0,1,.17.94Zm4.31,1.26a1.54,1.54,0,0,1-.29,1.11,1.44,1.44,0,0,1-1,.29,1.09,1.09,0,0,1-1.32-1.34,1.6,1.6,0,0,1,.29-1.12,1.5,1.5,0,0,1,1-.29,1.48,1.48,0,0,1,1,.28,1.53,1.53,0,0,1,.28,1.07Zm7.33-6.21c0,.22,0,.39,0,.53a1.22,1.22,0,0,1-.06.32.31.31,0,0,1-.09.16.24.24,0,0,1-.15,0l-.15,0-.2-.07-.25-.06a1.29,1.29,0,0,0-.29,0,1,1,0,0,0-.38.07,1.49,1.49,0,0,0-.38.24,2.08,2.08,0,0,0-.42.42,7.24,7.24,0,0,0-.47.66v4.94a.24.24,0,0,1-.05.16.5.5,0,0,1-.18.11,1.39,1.39,0,0,1-.34.06,4.22,4.22,0,0,1-.55,0,4,4,0,0,1-.54,0,1.39,1.39,0,0,1-.34-.06.37.37,0,0,1-.18-.11.25.25,0,0,1-.06-.16V26.78a.27.27,0,0,1,.05-.15.29.29,0,0,1,.16-.11,1.67,1.67,0,0,1,.3-.07l.46,0,.47,0a1.13,1.13,0,0,1,.28.07.3.3,0,0,1,.15.11.26.26,0,0,1,0,.15v1a7.39,7.39,0,0,1,.59-.73,3.36,3.36,0,0,1,.52-.46,2.07,2.07,0,0,1,.5-.24,2.2,2.2,0,0,1,.5-.06h.25a1.28,1.28,0,0,1,.27.05,1.26,1.26,0,0,1,.25.07.34.34,0,0,1,.16.08.23.23,0,0,1,.07.1.39.39,0,0,1,0,.15q0,.09,0,.27c0,.13,0,.3,0,.51Zm2.4,6.21a1.6,1.6,0,0,1-.28,1.11,1.47,1.47,0,0,1-1,.29,1.08,1.08,0,0,1-1.31-1.34,1.61,1.61,0,0,1,.28-1.12,1.52,1.52,0,0,1,1-.29,1.48,1.48,0,0,1,1,.28,1.53,1.53,0,0,1,.28,1.07Zm10.25-3.06a6.36,6.36,0,0,1-.26,1.85,4,4,0,0,1-.81,1.43,3.57,3.57,0,0,1-1.36.94,5.74,5.74,0,0,1-3.75,0,3.27,3.27,0,0,1-1.3-.85,3.43,3.43,0,0,1-.76-1.38,6.2,6.2,0,0,1-.25-1.86,6.1,6.1,0,0,1,.27-1.86,4,4,0,0,1,.81-1.43,3.58,3.58,0,0,1,1.36-.93,5,5,0,0,1,1.9-.33,5.17,5.17,0,0,1,1.85.29,3.13,3.13,0,0,1,1.29.85,3.34,3.34,0,0,1,.76,1.37,6.34,6.34,0,0,1,.25,1.88Zm-2.3.09a6,6,0,0,0-.09-1.08,2.44,2.44,0,0,0-.32-.86,1.61,1.61,0,0,0-.59-.57,2.23,2.23,0,0,0-1.8,0,1.56,1.56,0,0,0-.61.53,2.67,2.67,0,0,0-.36.84,4.9,4.9,0,0,0-.12,1.13,5.22,5.22,0,0,0,.1,1.08,2.74,2.74,0,0,0,.31.86,1.51,1.51,0,0,0,.59.56,1.88,1.88,0,0,0,.93.2,2,2,0,0,0,.88-.18,1.56,1.56,0,0,0,.61-.53,2.48,2.48,0,0,0,.36-.84,5.38,5.38,0,0,0,.11-1.12Zm6.7,3a1.54,1.54,0,0,1-.29,1.11,1.44,1.44,0,0,1-1,.29,1.48,1.48,0,0,1-1-.28,1.49,1.49,0,0,1-.29-1.06,1.6,1.6,0,0,1,.29-1.12,2,2,0,0,1,2.07,0,1.53,1.53,0,0,1,.28,1.07Z"/></g></g></svg>