<svg xmlns="http://www.w3.org/2000/svg" xmlns:xlink="http://www.w3.org/1999/xlink" fill="none" height="25" viewBox="0 0 126 25" width="126"><clipPath id="a"><path d="m.731262 0h125v25h-125z"/></clipPath><g clip-path="url(#a)"><g fill="#1d1f32"><path d="m33.909 5.8031v14.3278h3.3922v-8.8499h.1197l3.4625 8.759h2.1677l3.4625-8.7101h.1197v8.801h3.3921v-14.3278h-4.3141l-3.6596 8.8709h-.1689l-3.6596-8.8709z"/><path d="m52.1642 20.1309h10.0499v-2.8124h-6.5662v-2.9453h6.0524v-2.8194h-6.0524v-2.9383h6.5662v-2.8124h-10.0499z"/><path d="m69.6894 20.1309c4.3915 0 7.1151-2.6935 7.1151-7.1709 0-4.47043-2.7236-7.1569-7.1222-7.1569h-5.3205v14.3278zm-1.8439-2.9523v-8.42318h1.6609c2.4773 0 3.8074 1.11936 3.8074 4.20458 0 3.0992-1.3301 4.2186-3.7582 4.2186z"/><path d="m78.8044 20.1309h10.0498v-2.8124h-6.5662v-2.9453h6.0525v-2.8194h-6.0525v-2.9383h6.5662v-2.8124h-10.0498z"/><path d="m94.2744 5.8031h-3.8989l4.8631 14.3278h4.6379l4.8625-14.3278h-3.899l-3.2227 10.494h-.1196z"/><path d="m109.741 5.8031h-3.484v14.3278h3.484z"/><path d="m125.498 12.967c0-4.73631-3.013-7.35982-6.883-7.35982-3.885 0-6.876 2.62351-6.876 7.35982 0 4.7153 2.991 7.3598 6.876 7.3598 3.87 0 6.883-2.6235 6.883-7.3598zm-3.562 0c0 2.8054-1.238 4.3235-3.321 4.3235-2.077 0-3.322-1.5181-3.322-4.3235s1.245-4.32355 3.322-4.32355c2.083 0 3.321 1.51815 3.321 4.32355z"/></g><path d="m23.5623 2.16904c-1.3985-1.398853-3.2582-2.16904-5.2361-2.16904-1.9781 0-3.8378.770187-5.2362 2.16904l-10.1897 10.18946c-1.39885 1.3986-2.169038 3.2583-2.169038 5.2364 0 1.9779.770188 3.8376 2.169038 5.2361 1.39866 1.3986 3.25813 2.169 5.23605 2.169 1.97815 0 3.83785-.7702 5.23645-2.169l5.1077-5.1077c.3815-.3815.3815-.9999 0-1.3811l-8.4009-8.40095 4.3913-4.39129c1.0298-1.02978 2.3989-1.59684 3.8553-1.59684 1.4563 0 2.8254.56706 3.8551 1.59684 1.0298 1.02977 1.5969 2.39887 1.5969 3.85513 0 1.45645-.5671 2.82551-1.5949 3.85341l-1.702 1.6924c-.3824.3803-.3841.9985-.0038 1.3809s.9987.3842 1.3811.0038l1.7037-1.6943c1.3988-1.3984 2.169-3.2581 2.169-5.23621 0-1.97792-.7702-3.83759-2.169-5.23605zm-7.1534 14.86356-4.4172 4.4174c-1.0298 1.0298-2.3989 1.5969-3.85535 1.5969-1.45626 0-2.82536-.5671-3.85513-1.5969-1.02978-1.0297-1.59684-2.3988-1.59684-3.8551 0-1.4564.56706-2.8255 1.59684-3.8553l4.41742-4.41724zm3.1285-10.8875c-.6565-.65632-1.7245-.65632-2.381 0l-2.3756 2.37789c-.1907.19092-.4408.28629-.6908.28629-.2499 0-.4995-.09518-.6903-.28572-.3815-.38128-.3818-.99945-.0006-1.38111l2.376-2.37808c1.4181-1.41831 3.7253-1.41831 5.1432-.00039.3815.38147.3815.99984 0 1.38112-.3813.38127-.9996.38147-1.3809 0zm-13.99314 14.0907c-.38147-.3813-.38147-.9996 0-1.3809.38128-.3815.99964-.3815 1.38092 0 .65651.6563 1.72463.6563 2.38095 0l2.38407-2.3863c.3811-.3814.9994-.3816 1.3811-.0006.3814.3813.3816.9995.0005 1.3812l-2.3844 2.3864c-.70912.709-1.64048 1.0638-2.57184 1.0638s-1.86233-.3546-2.5713-1.0636z" fill="#07a996"/></g></svg>